%TF.GenerationSoftware,KiCad,Pcbnew,(6.0.4)*%
%TF.CreationDate,2022-06-24T18:11:39+09:00*%
%TF.ProjectId,cleanbot,636c6561-6e62-46f7-942e-6b696361645f,rev?*%
%TF.SameCoordinates,Original*%
%TF.FileFunction,Paste,Top*%
%TF.FilePolarity,Positive*%
%FSLAX46Y46*%
G04 Gerber Fmt 4.6, Leading zero omitted, Abs format (unit mm)*
G04 Created by KiCad (PCBNEW (6.0.4)) date 2022-06-24 18:11:39*
%MOMM*%
%LPD*%
G01*
G04 APERTURE LIST*
G04 Aperture macros list*
%AMRoundRect*
0 Rectangle with rounded corners*
0 $1 Rounding radius*
0 $2 $3 $4 $5 $6 $7 $8 $9 X,Y pos of 4 corners*
0 Add a 4 corners polygon primitive as box body*
4,1,4,$2,$3,$4,$5,$6,$7,$8,$9,$2,$3,0*
0 Add four circle primitives for the rounded corners*
1,1,$1+$1,$2,$3*
1,1,$1+$1,$4,$5*
1,1,$1+$1,$6,$7*
1,1,$1+$1,$8,$9*
0 Add four rect primitives between the rounded corners*
20,1,$1+$1,$2,$3,$4,$5,0*
20,1,$1+$1,$4,$5,$6,$7,0*
20,1,$1+$1,$6,$7,$8,$9,0*
20,1,$1+$1,$8,$9,$2,$3,0*%
%AMRotRect*
0 Rectangle, with rotation*
0 The origin of the aperture is its center*
0 $1 length*
0 $2 width*
0 $3 Rotation angle, in degrees counterclockwise*
0 Add horizontal line*
21,1,$1,$2,0,0,$3*%
G04 Aperture macros list end*
%ADD10RoundRect,0.150000X0.150000X-0.825000X0.150000X0.825000X-0.150000X0.825000X-0.150000X-0.825000X0*%
%ADD11RoundRect,0.237500X-0.237500X0.250000X-0.237500X-0.250000X0.237500X-0.250000X0.237500X0.250000X0*%
%ADD12RoundRect,0.237500X-0.250000X-0.237500X0.250000X-0.237500X0.250000X0.237500X-0.250000X0.237500X0*%
%ADD13RoundRect,0.237500X0.237500X-0.250000X0.237500X0.250000X-0.237500X0.250000X-0.237500X-0.250000X0*%
%ADD14RoundRect,0.237500X-0.380070X0.044194X0.044194X-0.380070X0.380070X-0.044194X-0.044194X0.380070X0*%
%ADD15RoundRect,0.237500X-0.287500X-0.237500X0.287500X-0.237500X0.287500X0.237500X-0.287500X0.237500X0*%
%ADD16RoundRect,0.237500X-0.237500X0.287500X-0.237500X-0.287500X0.237500X-0.287500X0.237500X0.287500X0*%
%ADD17R,4.000000X2.000000*%
%ADD18RoundRect,0.150000X0.150000X-0.587500X0.150000X0.587500X-0.150000X0.587500X-0.150000X-0.587500X0*%
%ADD19RoundRect,0.237500X0.380070X-0.044194X-0.044194X0.380070X-0.380070X0.044194X0.044194X-0.380070X0*%
%ADD20RoundRect,0.237500X-0.300000X-0.237500X0.300000X-0.237500X0.300000X0.237500X-0.300000X0.237500X0*%
%ADD21RoundRect,0.250000X0.450000X0.425000X-0.450000X0.425000X-0.450000X-0.425000X0.450000X-0.425000X0*%
%ADD22R,1.100000X1.100000*%
%ADD23RoundRect,0.250000X-0.425000X0.450000X-0.425000X-0.450000X0.425000X-0.450000X0.425000X0.450000X0*%
%ADD24R,2.000000X4.000000*%
%ADD25RotRect,6.000000X2.500000X135.000000*%
%ADD26RoundRect,0.237500X0.250000X0.237500X-0.250000X0.237500X-0.250000X-0.237500X0.250000X-0.237500X0*%
%ADD27RoundRect,0.237500X0.237500X-0.287500X0.237500X0.287500X-0.237500X0.287500X-0.237500X-0.287500X0*%
%ADD28RoundRect,0.075000X0.075000X-0.662500X0.075000X0.662500X-0.075000X0.662500X-0.075000X-0.662500X0*%
%ADD29RoundRect,0.075000X0.662500X-0.075000X0.662500X0.075000X-0.662500X0.075000X-0.662500X-0.075000X0*%
%ADD30R,1.500000X2.000000*%
%ADD31R,3.800000X2.000000*%
%ADD32R,2.000000X0.400000*%
%ADD33R,1.900000X2.300000*%
%ADD34RoundRect,0.237500X0.300000X0.237500X-0.300000X0.237500X-0.300000X-0.237500X0.300000X-0.237500X0*%
G04 APERTURE END LIST*
D10*
%TO.C,U3*%
X52451000Y29021000D03*
X53721000Y29021000D03*
X54991000Y29021000D03*
X56261000Y29021000D03*
X56261000Y33971000D03*
X54991000Y33971000D03*
X53721000Y33971000D03*
X52451000Y33971000D03*
%TD*%
D11*
%TO.C,R9*%
X27305000Y9167500D03*
X27305000Y7342500D03*
%TD*%
D12*
%TO.C,R12*%
X7737500Y50165000D03*
X9562500Y50165000D03*
%TD*%
D13*
%TO.C,R4*%
X36271200Y43791500D03*
X36271200Y45616500D03*
%TD*%
D14*
%TO.C,C4*%
X15138120Y23215880D03*
X16357880Y21996120D03*
%TD*%
D15*
%TO.C,D6*%
X7775000Y53340000D03*
X9525000Y53340000D03*
%TD*%
D12*
%TO.C,R13*%
X42775500Y6350000D03*
X44600500Y6350000D03*
%TD*%
D16*
%TO.C,D2*%
X73660000Y44690000D03*
X73660000Y42940000D03*
%TD*%
D11*
%TO.C,R14*%
X39624000Y10310500D03*
X39624000Y8485500D03*
%TD*%
%TO.C,R5*%
X58166000Y24026500D03*
X58166000Y22201500D03*
%TD*%
D17*
%TO.C,R15*%
X63500000Y24940000D03*
X63500000Y30940000D03*
%TD*%
D13*
%TO.C,R6*%
X58166000Y17883500D03*
X58166000Y19708500D03*
%TD*%
D18*
%TO.C,Q2*%
X12512000Y44782500D03*
X14412000Y44782500D03*
X13462000Y46657500D03*
%TD*%
D19*
%TO.C,C6*%
X18313120Y20040880D03*
X19532880Y18821120D03*
%TD*%
D15*
%TO.C,D1*%
X16952000Y53340000D03*
X18702000Y53340000D03*
%TD*%
D13*
%TO.C,R1*%
X23622000Y32488500D03*
X23622000Y34313500D03*
%TD*%
D20*
%TO.C,C15*%
X32665500Y10033000D03*
X34390500Y10033000D03*
%TD*%
D15*
%TO.C,D4*%
X12460000Y53340000D03*
X14210000Y53340000D03*
%TD*%
D12*
%TO.C,R7*%
X16867500Y50165000D03*
X18692500Y50165000D03*
%TD*%
D21*
%TO.C,C12*%
X46435000Y32385000D03*
X43735000Y32385000D03*
%TD*%
D11*
%TO.C,R11*%
X39878000Y22756500D03*
X39878000Y20931500D03*
%TD*%
D18*
%TO.C,Q1*%
X31866800Y44020500D03*
X33766800Y44020500D03*
X32816800Y45895500D03*
%TD*%
D22*
%TO.C,D7*%
X39624000Y6226000D03*
X39624000Y3426000D03*
%TD*%
D23*
%TO.C,C13*%
X55245000Y22178000D03*
X55245000Y19478000D03*
%TD*%
D24*
%TO.C,LS1*%
X6858000Y38354000D03*
X6858000Y46736000D03*
%TD*%
D25*
%TO.C,Y1*%
X25837757Y19374243D03*
X19120243Y26091757D03*
%TD*%
D13*
%TO.C,R8*%
X73660000Y39092500D03*
X73660000Y40917500D03*
%TD*%
D12*
%TO.C,R10*%
X12375500Y50165000D03*
X14200500Y50165000D03*
%TD*%
D13*
%TO.C,R3*%
X36271200Y40032300D03*
X36271200Y41857300D03*
%TD*%
D26*
%TO.C,R2*%
X30376500Y22098000D03*
X28551500Y22098000D03*
%TD*%
D27*
%TO.C,D5*%
X39878000Y17286000D03*
X39878000Y19036000D03*
%TD*%
D28*
%TO.C,U1*%
X29127000Y26190500D03*
X29627000Y26190500D03*
X30127000Y26190500D03*
X30627000Y26190500D03*
X31127000Y26190500D03*
X31627000Y26190500D03*
X32127000Y26190500D03*
X32627000Y26190500D03*
X33127000Y26190500D03*
X33627000Y26190500D03*
X34127000Y26190500D03*
X34627000Y26190500D03*
D29*
X36039500Y27603000D03*
X36039500Y28103000D03*
X36039500Y28603000D03*
X36039500Y29103000D03*
X36039500Y29603000D03*
X36039500Y30103000D03*
X36039500Y30603000D03*
X36039500Y31103000D03*
X36039500Y31603000D03*
X36039500Y32103000D03*
X36039500Y32603000D03*
X36039500Y33103000D03*
D28*
X34627000Y34515500D03*
X34127000Y34515500D03*
X33627000Y34515500D03*
X33127000Y34515500D03*
X32627000Y34515500D03*
X32127000Y34515500D03*
X31627000Y34515500D03*
X31127000Y34515500D03*
X30627000Y34515500D03*
X30127000Y34515500D03*
X29627000Y34515500D03*
X29127000Y34515500D03*
D29*
X27714500Y33103000D03*
X27714500Y32603000D03*
X27714500Y32103000D03*
X27714500Y31603000D03*
X27714500Y31103000D03*
X27714500Y30603000D03*
X27714500Y30103000D03*
X27714500Y29603000D03*
X27714500Y29103000D03*
X27714500Y28603000D03*
X27714500Y28103000D03*
X27714500Y27603000D03*
%TD*%
D30*
%TO.C,U2*%
X44055000Y22250000D03*
D31*
X46355000Y28550000D03*
D30*
X46355000Y22250000D03*
X48655000Y22250000D03*
%TD*%
D32*
%TO.C,J12*%
X78150000Y8860000D03*
X78150000Y9510000D03*
X78150000Y10160000D03*
X78150000Y10810000D03*
X78150000Y11460000D03*
D33*
X81100000Y13910000D03*
X81100000Y6410000D03*
%TD*%
D34*
%TO.C,C11*%
X48641000Y18415000D03*
X46916000Y18415000D03*
%TD*%
D20*
%TO.C,C14*%
X49937500Y9144000D03*
X51662500Y9144000D03*
%TD*%
D27*
%TO.C,D3*%
X27305000Y3607500D03*
X27305000Y5357500D03*
%TD*%
M02*
