M48
; DRILL file {KiCad (6.0.4)} date Fri Jun 24 18:11:41 2022
; FORMAT={-:-/ absolute / inch / decimal}
; #@! TF.CreationDate,2022-06-24T18:11:41+09:00
; #@! TF.GenerationSoftware,Kicad,Pcbnew,(6.0.4)
; #@! TF.FileFunction,Plated,1,2,PTH
FMAT,2
INCH
; #@! TA.AperFunction,Plated,PTH,ViaDrill
T1C0.0118
; #@! TA.AperFunction,Plated,PTH,ComponentDrill
T2C0.0256
; #@! TA.AperFunction,Plated,PTH,ComponentDrill
T3C0.0335
; #@! TA.AperFunction,Plated,PTH,ComponentDrill
T4C0.0354
; #@! TA.AperFunction,Plated,PTH,ComponentDrill
T5C0.0551
; #@! TA.AperFunction,Plated,PTH,ComponentDrill
T6C0.1063
; #@! TA.AperFunction,Plated,PTH,ComponentDrill
T7C0.1378
%
G90
G05
T1
X0.11Y1.542
X0.132Y1.516
X0.328Y1.454
X0.335Y1.92
X0.51Y0.97
X0.51Y0.94
X0.52Y1.935
X0.52Y1.0
X0.52Y0.91
X0.54Y1.02
X0.54Y0.89
X0.56Y1.04
X0.56Y0.87
X0.574Y1.65
X0.58Y1.06
X0.58Y0.85
X0.6Y1.08
X0.6Y0.83
X0.62Y1.1
X0.62Y0.81
X0.64Y1.12
X0.64Y0.79
X0.645Y1.72
X0.645Y1.695
X0.645Y1.67
X0.645Y1.645
X0.645Y1.375
X0.645Y1.35
X0.645Y1.325
X0.645Y1.3
X0.66Y1.14
X0.66Y0.77
X0.67Y1.72
X0.67Y1.695
X0.67Y1.67
X0.67Y1.645
X0.67Y1.375
X0.67Y1.35
X0.67Y1.325
X0.67Y1.3
X0.6728Y1.8837
X0.68Y1.16
X0.68Y0.75
X0.695Y1.72
X0.695Y1.695
X0.695Y1.67
X0.695Y1.645
X0.695Y1.375
X0.695Y1.35
X0.695Y1.325
X0.695Y1.3
X0.6974Y1.9
X0.7Y0.73
X0.72Y1.72
X0.72Y1.695
X0.72Y1.67
X0.72Y1.645
X0.72Y1.375
X0.72Y1.35
X0.72Y1.325
X0.72Y1.3
X0.72Y0.71
X0.74Y1.16
X0.74Y0.69
X0.77Y1.13
X0.77Y0.69
X0.79Y1.11
X0.8Y0.69
X0.81Y1.09
X0.83Y1.07
X0.83Y0.69
X0.85Y1.05
X0.86Y0.69
X0.875Y1.355
X0.89Y0.69
X0.92Y0.69
X0.95Y0.67
X0.9657Y1.1653
X0.97Y0.65
X0.985Y1.005
X0.9858Y0.9722
X0.99Y1.39
X0.99Y0.63
X0.9908Y1.196
X0.9998Y0.9463
X1.014Y1.47
X1.02Y0.63
X1.04Y1.204
X1.04Y1.165
X1.04Y1.106
X1.04Y0.86
X1.05Y0.63
X1.055Y0.9231
X1.06Y0.84
X1.07Y1.055
X1.08Y0.63
X1.11Y0.79
X1.11Y0.63
X1.115Y1.465
X1.1299Y0.77
X1.14Y0.63
X1.15Y1.31
X1.15Y0.975
X1.15Y0.7502
X1.16Y0.65
X1.17Y0.73
X1.1738Y0.9576
X1.175Y1.465
X1.175Y1.09
X1.18Y1.2481
X1.18Y0.7
X1.18Y0.67
X1.188Y1.552
X1.1992Y0.9425
X1.235Y1.295
X1.2431Y1.1419
X1.265Y1.5323
X1.285Y0.915
X1.2873Y1.51
X1.3013Y1.4828
X1.305Y1.2481
X1.305Y1.09
X1.32Y1.46
X1.335Y1.59
X1.355Y0.915
X1.3558Y1.2854
X1.372Y1.2531
X1.375Y1.805
X1.375Y1.78
X1.375Y1.755
X1.375Y1.73
X1.388Y1.012
X1.388Y0.98
X1.388Y0.9505
X1.44Y1.34
X1.468Y1.284
X1.4681Y1.1772
X1.472Y1.088
X1.476Y0.9574
X1.4779Y1.205
X1.4937Y1.132
X1.51Y1.0115
X1.548Y1.42
X1.55Y0.55
X1.556Y1.11
X1.58Y1.23
X1.61Y1.39
X1.6252Y1.3647
X1.645Y0.775
X1.645Y0.75
X1.645Y0.725
X1.645Y0.7
X1.646Y1.072
X1.655Y1.335
X1.67Y1.054
X1.698Y1.446
X1.715Y1.04
X1.715Y1.015
X1.715Y0.99
X1.74Y1.04
X1.74Y1.015
X1.74Y0.99
X1.752Y1.414
X1.756Y0.762
X1.765Y1.04
X1.765Y1.015
X1.765Y0.99
X1.78Y0.8
X1.79Y1.04
X1.79Y1.015
X1.79Y0.99
X1.805Y0.8
X1.81Y1.335
X1.83Y0.79
X1.84Y1.505
X1.8471Y0.7729
X1.85Y2.11
X1.85Y2.085
X1.85Y2.06
X1.875Y2.11
X1.875Y2.085
X1.875Y2.06
X1.875Y1.5
X1.886Y1.382
X1.9Y2.11
X1.9Y2.085
X1.9Y2.06
X1.9Y0.55
X1.91Y1.216
X1.925Y2.11
X1.925Y2.085
X1.925Y2.06
X1.95Y2.11
X1.95Y2.085
X1.95Y2.06
X1.97Y1.7648
X1.97Y1.7398
X1.97Y1.7148
X1.9749Y2.1102
X1.9749Y2.0852
X1.9749Y2.0602
X1.99Y1.295
X1.9949Y1.765
X1.9949Y1.74
X1.9949Y1.715
X2.0Y2.1102
X2.0Y2.0852
X2.0Y2.0602
X2.065Y1.065
X2.08Y1.27
X2.095Y1.065
X2.1Y2.11
X2.1Y2.085
X2.1Y2.06
X2.105Y1.7648
X2.105Y1.7398
X2.105Y1.7148
X2.12Y1.245
X2.125Y2.11
X2.125Y2.085
X2.125Y2.06
X2.125Y1.065
X2.13Y1.7648
X2.13Y1.7398
X2.13Y1.7148
X2.144Y1.408
X2.15Y2.11
X2.15Y2.085
X2.15Y2.06
X2.15Y1.245
X2.155Y1.065
X2.155Y1.7648
X2.155Y1.7398
X2.155Y1.7148
X2.17Y1.435
X2.175Y2.11
X2.175Y2.085
X2.175Y2.06
X2.18Y1.245
X2.18Y1.7648
X2.18Y1.7398
X2.18Y1.7148
X2.185Y1.065
X2.2Y2.11
X2.2Y2.085
X2.2Y2.06
X2.2049Y1.765
X2.2049Y1.74
X2.2049Y1.715
X2.21Y1.245
X2.215Y1.065
X2.23Y1.765
X2.23Y1.74
X2.23Y1.715
X2.24Y1.245
X2.31Y1.02
X2.3331Y1.4048
X2.3646Y1.4048
X2.37Y0.705
X2.39Y1.22
X2.4Y0.985
X2.4089Y0.7639
X2.4311Y0.7861
X2.74Y1.86
X2.76Y1.84
X2.78Y1.82
X2.8Y1.8
X2.83Y0.605
X2.83Y0.58
X2.83Y0.555
X2.83Y0.53
X2.83Y0.505
X2.84Y0.7557
X2.84Y0.7243
X3.16Y0.465
X3.16Y0.44
X3.16Y0.415
X3.16Y0.39
X3.185Y0.465
X3.185Y0.44
X3.185Y0.415
X3.185Y0.39
X3.21Y0.465
X3.21Y0.44
X3.21Y0.415
X3.21Y0.39
X3.235Y0.465
X3.235Y0.44
X3.235Y0.415
X3.235Y0.39
T2
X3.1083Y0.4787
X3.1083Y0.3213
T3
X0.1756Y0.5742
X0.1756Y0.4758
X0.9008Y1.9744
X0.9992Y1.9744
X1.2508Y1.9744
X1.2708Y0.1244
X1.3492Y1.9744
X1.3692Y0.1244
X1.6539Y1.9744
X1.6539Y1.6344
X1.7524Y1.9744
X1.7524Y1.6344
X1.8508Y1.9744
X1.8508Y1.6344
X1.9492Y1.9744
X1.9492Y1.6344
X1.9516Y0.1244
X2.0476Y1.9744
X2.0476Y1.6344
X2.05Y0.1244
X2.1461Y1.9744
X2.1461Y1.6344
X2.1484Y0.1244
T4
X0.14Y1.3226
X0.14Y1.2242
X0.14Y1.1258
X0.14Y1.0274
T5
X0.5441Y0.55
X0.5441Y0.2
X0.7606Y0.55
X0.7606Y0.2
X2.5Y1.678
X2.5Y1.4614
X3.15Y1.6386
X3.15Y1.422
X3.15Y1.0886
X3.15Y0.872
T6
X2.9516Y2.0
X3.1484Y2.0
T7
X0.1378Y2.0669
X0.1378Y0.1378
X2.4213Y2.0669
X2.4213Y0.1378
T0
M30
