M48
; DRILL file {KiCad (6.0.4)} date Sun Aug  7 13:44:41 2022
; FORMAT={-:-/ absolute / inch / decimal}
; #@! TF.CreationDate,2022-08-07T13:44:41+09:00
; #@! TF.GenerationSoftware,Kicad,Pcbnew,(6.0.4)
; #@! TF.FileFunction,Plated,1,2,PTH
FMAT,2
INCH
; #@! TA.AperFunction,Plated,PTH,ViaDrill
T1C0.0118
; #@! TA.AperFunction,Plated,PTH,ComponentDrill
T2C0.0256
; #@! TA.AperFunction,Plated,PTH,ComponentDrill
T3C0.0335
; #@! TA.AperFunction,Plated,PTH,ComponentDrill
T4C0.0354
; #@! TA.AperFunction,Plated,PTH,ComponentDrill
T5C0.0551
; #@! TA.AperFunction,Plated,PTH,ComponentDrill
T6C0.1063
; #@! TA.AperFunction,Plated,PTH,ComponentDrill
T7C0.1378
%
G90
G05
T1
X0.0565Y1.4362
X0.086Y1.436
X0.27Y1.84
X0.27Y1.404
X0.53Y1.8369
X0.587Y1.6813
X0.615Y1.705
X0.6264Y1.8325
X0.65Y1.92
X0.68Y1.795
X0.71Y1.865
X0.745Y1.795
X0.745Y1.7652
X0.7624Y1.4467
X0.7692Y1.7049
X0.7742Y1.4001
X0.7804Y1.8194
X0.82Y1.77
X0.83Y1.346
X0.86Y1.8009
X0.86Y1.73
X0.874Y1.88
X0.964Y1.21
X0.985Y1.77
X0.9869Y1.405
X0.9869Y1.3549
X0.9869Y1.305
X0.988Y1.456
X0.9899Y1.6158
X1.012Y1.162
X1.016Y0.502
X1.088Y1.552
X1.13Y0.77
X1.131Y1.699
X1.1319Y0.7994
X1.146Y1.018
X1.155Y1.355
X1.1622Y0.6642
X1.179Y1.651
X1.194Y1.412
X1.194Y1.066
X1.209Y1.682
X1.221Y1.379
X1.244Y1.5695
X1.244Y1.54
X1.244Y1.079
X1.2546Y1.7331
X1.2592Y1.1043
X1.2772Y1.1277
X1.308Y0.532
X1.3198Y1.1518
X1.32Y1.605
X1.32Y1.296
X1.3293Y1.2554
X1.33Y0.8255
X1.338Y1.1754
X1.342Y0.314
X1.3495Y1.605
X1.3558Y1.199
X1.375Y1.475
X1.3927Y1.4986
X1.408Y1.442
X1.428Y1.7241
X1.52Y1.4
X1.5495Y1.4
X1.58Y0.735
X1.58Y0.5
X1.6148Y1.2682
X1.6476Y1.2676
X1.6778Y1.2644
X1.694Y1.578
X1.7098Y1.2631
X1.713Y1.4955
X1.713Y1.466
X1.7142Y1.525
X1.7393Y1.2627
X1.773Y1.263
X1.811Y1.426
X1.825Y0.66
X1.835Y0.48
X1.851Y1.54
X1.8527Y0.5036
X1.897Y1.54
X1.9381Y1.275
X1.9492Y1.4251
X2.0256Y0.876
X2.026Y0.772
X2.034Y0.406
X2.059Y0.431
X2.125Y0.48
X2.1442Y0.5024
X2.19Y1.3174
X2.19Y0.688
X2.22Y0.31
X2.269Y0.431
X2.29Y1.3174
X2.301Y0.431
X2.339Y1.434
X2.374Y1.838
X2.392Y1.82
X2.409Y1.803
X2.5991Y0.4741
X2.615Y1.2181
X2.62Y0.495
X2.6695Y0.7355
X2.694Y0.76
X2.718Y0.784
X2.724Y0.356
X2.725Y0.4
X2.726Y0.443
X2.769Y0.354
X2.77Y0.443
X2.77Y0.4
X2.813Y0.443
X2.813Y0.399
X2.814Y0.354
X2.875Y0.225
X2.875Y0.1107
X2.875Y0.0793
X3.1593Y0.2721
X3.1907Y0.2721
T2
X3.1083Y0.4187
X3.1083Y0.2613
T3
X0.1756Y0.5742
X0.1756Y0.4758
X0.9008Y1.9744
X0.9992Y1.9744
X1.1758Y0.1244
X1.2508Y1.9744
X1.2742Y0.1244
X1.3492Y1.9744
X1.5508Y0.5944
X1.5508Y0.3594
X1.5508Y0.1244
X1.6492Y0.5944
X1.6492Y0.3594
X1.6492Y0.1244
X1.6539Y1.9744
X1.6539Y1.6344
X1.7524Y1.9744
X1.7524Y1.6344
X1.8508Y1.9744
X1.8508Y1.6344
X1.9492Y1.9744
X1.9492Y1.6344
X1.9516Y0.1244
X2.0476Y1.9744
X2.0476Y1.6344
X2.05Y0.1244
X2.1461Y1.9744
X2.1461Y1.6344
X2.1484Y0.1244
T4
X0.14Y1.3226
X0.14Y1.2242
X0.14Y1.1258
X0.14Y1.0274
T5
X0.5441Y0.55
X0.5441Y0.2
X0.7606Y0.55
X0.7606Y0.2
X2.615Y1.678
X2.615Y1.4614
X3.148Y1.5586
X3.148Y1.342
X3.148Y0.9236
X3.148Y0.707
T6
X2.9516Y2.0
X3.1484Y2.0
T7
X0.1378Y2.0669
X0.1378Y0.1378
X2.4213Y2.0669
X2.4213Y0.1378
T0
M30
