%TF.GenerationSoftware,KiCad,Pcbnew,(6.0.4)*%
%TF.CreationDate,2022-08-07T13:44:39+09:00*%
%TF.ProjectId,cleanbot,636c6561-6e62-46f7-942e-6b696361645f,rev?*%
%TF.SameCoordinates,Original*%
%TF.FileFunction,Soldermask,Top*%
%TF.FilePolarity,Negative*%
%FSLAX46Y46*%
G04 Gerber Fmt 4.6, Leading zero omitted, Abs format (unit mm)*
G04 Created by KiCad (PCBNEW (6.0.4)) date 2022-08-07 13:44:39*
%MOMM*%
%LPD*%
G01*
G04 APERTURE LIST*
G04 Aperture macros list*
%AMRoundRect*
0 Rectangle with rounded corners*
0 $1 Rounding radius*
0 $2 $3 $4 $5 $6 $7 $8 $9 X,Y pos of 4 corners*
0 Add a 4 corners polygon primitive as box body*
4,1,4,$2,$3,$4,$5,$6,$7,$8,$9,$2,$3,0*
0 Add four circle primitives for the rounded corners*
1,1,$1+$1,$2,$3*
1,1,$1+$1,$4,$5*
1,1,$1+$1,$6,$7*
1,1,$1+$1,$8,$9*
0 Add four rect primitives between the rounded corners*
20,1,$1+$1,$2,$3,$4,$5,0*
20,1,$1+$1,$4,$5,$6,$7,0*
20,1,$1+$1,$6,$7,$8,$9,0*
20,1,$1+$1,$8,$9,$2,$3,0*%
%AMRotRect*
0 Rectangle, with rotation*
0 The origin of the aperture is its center*
0 $1 length*
0 $2 width*
0 $3 Rotation angle, in degrees counterclockwise*
0 Add horizontal line*
21,1,$1,$2,0,0,$3*%
%AMFreePoly0*
4,1,22,0.500000,-0.750000,0.000000,-0.750000,0.000000,-0.745033,-0.079941,-0.743568,-0.215256,-0.701293,-0.333266,-0.622738,-0.424486,-0.514219,-0.481581,-0.384460,-0.499164,-0.250000,-0.500000,-0.250000,-0.500000,0.250000,-0.499164,0.250000,-0.499963,0.256109,-0.478152,0.396186,-0.417904,0.524511,-0.324060,0.630769,-0.204165,0.706417,-0.067858,0.745374,0.000000,0.744959,0.000000,0.750000,
0.500000,0.750000,0.500000,-0.750000,0.500000,-0.750000,$1*%
%AMFreePoly1*
4,1,20,0.000000,0.744959,0.073905,0.744508,0.209726,0.703889,0.328688,0.626782,0.421226,0.519385,0.479903,0.390333,0.500000,0.250000,0.500000,-0.250000,0.499851,-0.262216,0.476331,-0.402017,0.414519,-0.529596,0.319384,-0.634700,0.198574,-0.708877,0.061801,-0.746166,0.000000,-0.745033,0.000000,-0.750000,-0.500000,-0.750000,-0.500000,0.750000,0.000000,0.750000,0.000000,0.744959,
0.000000,0.744959,$1*%
G04 Aperture macros list end*
%ADD10RoundRect,0.150000X0.150000X-0.825000X0.150000X0.825000X-0.150000X0.825000X-0.150000X-0.825000X0*%
%ADD11RoundRect,0.250000X-0.600000X-0.675000X0.600000X-0.675000X0.600000X0.675000X-0.600000X0.675000X0*%
%ADD12O,1.700000X1.850000*%
%ADD13C,1.500000*%
%ADD14R,1.100000X0.400000*%
%ADD15RoundRect,0.237500X-0.237500X0.250000X-0.237500X-0.250000X0.237500X-0.250000X0.237500X0.250000X0*%
%ADD16RoundRect,0.237500X-0.250000X-0.237500X0.250000X-0.237500X0.250000X0.237500X-0.250000X0.237500X0*%
%ADD17RoundRect,0.237500X-0.237500X0.300000X-0.237500X-0.300000X0.237500X-0.300000X0.237500X0.300000X0*%
%ADD18RoundRect,0.075000X-0.441942X-0.548008X0.548008X0.441942X0.441942X0.548008X-0.548008X-0.441942X0*%
%ADD19RoundRect,0.075000X0.441942X-0.548008X0.548008X-0.441942X-0.441942X0.548008X-0.548008X0.441942X0*%
%ADD20RoundRect,0.237500X0.237500X-0.250000X0.237500X0.250000X-0.237500X0.250000X-0.237500X-0.250000X0*%
%ADD21RoundRect,0.237500X0.250000X0.237500X-0.250000X0.237500X-0.250000X-0.237500X0.250000X-0.237500X0*%
%ADD22RoundRect,0.237500X-0.380070X0.044194X0.044194X-0.380070X0.380070X-0.044194X-0.044194X0.380070X0*%
%ADD23RoundRect,0.237500X-0.287500X-0.237500X0.287500X-0.237500X0.287500X0.237500X-0.287500X0.237500X0*%
%ADD24C,3.700000*%
%ADD25FreePoly0,0.000000*%
%ADD26FreePoly1,0.000000*%
%ADD27RoundRect,0.237500X-0.237500X0.287500X-0.237500X-0.287500X0.237500X-0.287500X0.237500X0.287500X0*%
%ADD28RoundRect,0.250001X1.399999X-1.099999X1.399999X1.099999X-1.399999X1.099999X-1.399999X-1.099999X0*%
%ADD29O,3.300000X2.700000*%
%ADD30R,4.000000X2.000000*%
%ADD31RoundRect,0.150000X0.150000X-0.587500X0.150000X0.587500X-0.150000X0.587500X-0.150000X-0.587500X0*%
%ADD32RoundRect,0.250000X0.675000X-0.600000X0.675000X0.600000X-0.675000X0.600000X-0.675000X-0.600000X0*%
%ADD33O,1.850000X1.700000*%
%ADD34RoundRect,0.062500X0.062500X-0.337500X0.062500X0.337500X-0.062500X0.337500X-0.062500X-0.337500X0*%
%ADD35RoundRect,0.062500X0.337500X-0.062500X0.337500X0.062500X-0.337500X0.062500X-0.337500X-0.062500X0*%
%ADD36R,3.350000X3.350000*%
%ADD37R,3.800000X3.800000*%
%ADD38C,4.000000*%
%ADD39RoundRect,0.237500X-0.300000X-0.237500X0.300000X-0.237500X0.300000X0.237500X-0.300000X0.237500X0*%
%ADD40RoundRect,0.250000X0.450000X0.425000X-0.450000X0.425000X-0.450000X-0.425000X0.450000X-0.425000X0*%
%ADD41RoundRect,0.250001X1.099999X1.399999X-1.099999X1.399999X-1.099999X-1.399999X1.099999X-1.399999X0*%
%ADD42O,2.700000X3.300000*%
%ADD43RoundRect,0.250000X-0.425000X0.450000X-0.425000X-0.450000X0.425000X-0.450000X0.425000X0.450000X0*%
%ADD44R,2.000000X4.000000*%
%ADD45RotRect,6.000000X2.500000X135.000000*%
%ADD46RoundRect,0.237500X0.237500X-0.287500X0.237500X0.287500X-0.237500X0.287500X-0.237500X-0.287500X0*%
%ADD47R,1.500000X2.000000*%
%ADD48R,3.800000X2.000000*%
%ADD49RoundRect,0.250001X-1.099999X-1.399999X1.099999X-1.399999X1.099999X1.399999X-1.099999X1.399999X0*%
%ADD50C,0.800000*%
%ADD51R,2.000000X0.400000*%
%ADD52R,1.900000X2.300000*%
%ADD53RoundRect,0.237500X0.380070X-0.044194X-0.044194X0.380070X-0.380070X0.044194X0.044194X-0.380070X0*%
%ADD54RoundRect,0.237500X0.300000X0.237500X-0.300000X0.237500X-0.300000X-0.237500X0.300000X-0.237500X0*%
G04 APERTURE END LIST*
D10*
%TO.C,U3*%
X55626000Y28513000D03*
X56896000Y28513000D03*
X58166000Y28513000D03*
X59436000Y28513000D03*
X59436000Y33463000D03*
X58166000Y33463000D03*
X56896000Y33463000D03*
X55626000Y33463000D03*
%TD*%
D11*
%TO.C,J11*%
X49570000Y3160000D03*
D12*
X52070000Y3160000D03*
X54570000Y3160000D03*
%TD*%
D13*
%TO.C,J14*%
X3556000Y26095000D03*
X3556000Y28595000D03*
X3556000Y31095000D03*
X3556000Y33595000D03*
%TD*%
D14*
%TO.C,U5*%
X24121000Y44237000D03*
X24121000Y44887000D03*
X24121000Y45537000D03*
X24121000Y46187000D03*
X19821000Y46187000D03*
X19821000Y45537000D03*
X19821000Y44887000D03*
X19821000Y44237000D03*
%TD*%
D15*
%TO.C,R9*%
X25781000Y9294500D03*
X25781000Y7469500D03*
%TD*%
D16*
%TO.C,R12*%
X7737500Y50165000D03*
X9562500Y50165000D03*
%TD*%
D17*
%TO.C,C17*%
X71374000Y5815500D03*
X71374000Y4090500D03*
%TD*%
D18*
%TO.C,U4*%
X19751519Y32928819D03*
X20105072Y32575266D03*
X20458625Y32221713D03*
X20812179Y31868159D03*
X21165732Y31514606D03*
X21519286Y31161052D03*
X21872839Y30807499D03*
X22226392Y30453946D03*
X22579946Y30100392D03*
X22933499Y29746839D03*
X23287052Y29393286D03*
X23640606Y29039732D03*
X23994159Y28686179D03*
X24347713Y28332625D03*
X24701266Y27979072D03*
X25054819Y27625519D03*
D19*
X27777181Y27625519D03*
X28130734Y27979072D03*
X28484287Y28332625D03*
X28837841Y28686179D03*
X29191394Y29039732D03*
X29544948Y29393286D03*
X29898501Y29746839D03*
X30252054Y30100392D03*
X30605608Y30453946D03*
X30959161Y30807499D03*
X31312714Y31161052D03*
X31666268Y31514606D03*
X32019821Y31868159D03*
X32373375Y32221713D03*
X32726928Y32575266D03*
X33080481Y32928819D03*
D18*
X33080481Y35651181D03*
X32726928Y36004734D03*
X32373375Y36358287D03*
X32019821Y36711841D03*
X31666268Y37065394D03*
X31312714Y37418948D03*
X30959161Y37772501D03*
X30605608Y38126054D03*
X30252054Y38479608D03*
X29898501Y38833161D03*
X29544948Y39186714D03*
X29191394Y39540268D03*
X28837841Y39893821D03*
X28484287Y40247375D03*
X28130734Y40600928D03*
X27777181Y40954481D03*
D19*
X25054819Y40954481D03*
X24701266Y40600928D03*
X24347713Y40247375D03*
X23994159Y39893821D03*
X23640606Y39540268D03*
X23287052Y39186714D03*
X22933499Y38833161D03*
X22579946Y38479608D03*
X22226392Y38126054D03*
X21872839Y37772501D03*
X21519286Y37418948D03*
X21165732Y37065394D03*
X20812179Y36711841D03*
X20458625Y36358287D03*
X20105072Y36004734D03*
X19751519Y35651181D03*
%TD*%
D20*
%TO.C,R4*%
X36271200Y43791500D03*
X36271200Y45616500D03*
%TD*%
D21*
%TO.C,R21*%
X56411500Y9144000D03*
X54586500Y9144000D03*
%TD*%
D22*
%TO.C,C4*%
X12217120Y26771880D03*
X13436880Y25552120D03*
%TD*%
D23*
%TO.C,D6*%
X7775000Y53340000D03*
X9525000Y53340000D03*
%TD*%
D24*
%TO.C,REF\u002A\u002A*%
X61500000Y52500000D03*
%TD*%
D11*
%TO.C,J17*%
X39390000Y9129000D03*
D12*
X41890000Y9129000D03*
%TD*%
D24*
%TO.C,REF\u002A\u002A*%
X61500000Y3500000D03*
%TD*%
D25*
%TO.C,JP1*%
X60335400Y9093200D03*
D26*
X61635400Y9093200D03*
%TD*%
D11*
%TO.C,J16*%
X39390000Y3160000D03*
D12*
X41890000Y3160000D03*
%TD*%
D16*
%TO.C,R13*%
X49506500Y36195000D03*
X51331500Y36195000D03*
%TD*%
D27*
%TO.C,D2*%
X73660000Y44690000D03*
X73660000Y42940000D03*
%TD*%
D15*
%TO.C,R5*%
X61366400Y24939000D03*
X61366400Y23114000D03*
%TD*%
D28*
%TO.C,J9*%
X13820000Y13970000D03*
D29*
X19320000Y13970000D03*
%TD*%
D30*
%TO.C,R15*%
X66421000Y24940000D03*
X66421000Y30940000D03*
%TD*%
D20*
%TO.C,R6*%
X61366400Y18796000D03*
X61366400Y20621000D03*
%TD*%
D31*
%TO.C,Q2*%
X12512000Y44782500D03*
X14412000Y44782500D03*
X13462000Y46657500D03*
%TD*%
D17*
%TO.C,C6*%
X73025000Y5815500D03*
X73025000Y4090500D03*
%TD*%
D23*
%TO.C,D1*%
X16952000Y53340000D03*
X18702000Y53340000D03*
%TD*%
D32*
%TO.C,J13*%
X4460000Y12085000D03*
D33*
X4460000Y14585000D03*
%TD*%
D24*
%TO.C,REF\u002A\u002A*%
X3500000Y3500000D03*
%TD*%
D34*
%TO.C,U1*%
X68858000Y7710000D03*
X69358000Y7710000D03*
X69858000Y7710000D03*
X70358000Y7710000D03*
X70858000Y7710000D03*
X71358000Y7710000D03*
X71858000Y7710000D03*
D35*
X72808000Y8660000D03*
X72808000Y9160000D03*
X72808000Y9660000D03*
X72808000Y10160000D03*
X72808000Y10660000D03*
X72808000Y11160000D03*
X72808000Y11660000D03*
D34*
X71858000Y12610000D03*
X71358000Y12610000D03*
X70858000Y12610000D03*
X70358000Y12610000D03*
X69858000Y12610000D03*
X69358000Y12610000D03*
X68858000Y12610000D03*
D35*
X67908000Y11660000D03*
X67908000Y11160000D03*
X67908000Y10660000D03*
X67908000Y10160000D03*
X67908000Y9660000D03*
X67908000Y9160000D03*
X67908000Y8660000D03*
D36*
X70358000Y10160000D03*
%TD*%
D37*
%TO.C,J4*%
X79970000Y50800000D03*
D38*
X74970000Y50800000D03*
%TD*%
D11*
%TO.C,J15*%
X29865000Y3160000D03*
D12*
X32365000Y3160000D03*
%TD*%
D21*
%TO.C,R1*%
X14374500Y40005000D03*
X12549500Y40005000D03*
%TD*%
D11*
%TO.C,J10*%
X22880000Y50150000D03*
D12*
X25380000Y50150000D03*
%TD*%
D28*
%TO.C,J7*%
X13820000Y5080000D03*
D29*
X19320000Y5080000D03*
%TD*%
D39*
%TO.C,C15*%
X30252500Y10033000D03*
X31977500Y10033000D03*
%TD*%
D23*
%TO.C,D4*%
X12460000Y53340000D03*
X14210000Y53340000D03*
%TD*%
D16*
%TO.C,R7*%
X16867500Y50165000D03*
X18692500Y50165000D03*
%TD*%
D11*
%TO.C,J18*%
X39390000Y15098000D03*
D12*
X41890000Y15098000D03*
%TD*%
D40*
%TO.C,C12*%
X49229000Y32385000D03*
X46529000Y32385000D03*
%TD*%
D15*
%TO.C,R11*%
X44323000Y28598500D03*
X44323000Y26773500D03*
%TD*%
D31*
%TO.C,Q1*%
X31866800Y44020500D03*
X33766800Y44020500D03*
X32816800Y45895500D03*
%TD*%
D41*
%TO.C,J6*%
X79959200Y17959000D03*
D42*
X79959200Y23459000D03*
%TD*%
D43*
%TO.C,C13*%
X58166000Y23090500D03*
X58166000Y20390500D03*
%TD*%
D11*
%TO.C,J3*%
X31770000Y50150000D03*
D12*
X34270000Y50150000D03*
%TD*%
D44*
%TO.C,LS1*%
X6858000Y38354000D03*
X6858000Y46736000D03*
%TD*%
D45*
%TO.C,Y1*%
X20579957Y24124043D03*
X13862443Y30841557D03*
%TD*%
D24*
%TO.C,REF\u002A\u002A*%
X3500000Y52500000D03*
%TD*%
D11*
%TO.C,J2*%
X42010000Y41514000D03*
D12*
X44510000Y41514000D03*
X47010000Y41514000D03*
X49510000Y41514000D03*
X52010000Y41514000D03*
X54510000Y41514000D03*
%TD*%
D20*
%TO.C,R8*%
X73660000Y39092500D03*
X73660000Y40917500D03*
%TD*%
D16*
%TO.C,R10*%
X12375500Y50165000D03*
X14200500Y50165000D03*
%TD*%
D25*
%TO.C,JP2*%
X60335400Y12141200D03*
D26*
X61635400Y12141200D03*
%TD*%
D20*
%TO.C,R3*%
X36271200Y40032300D03*
X36271200Y41857300D03*
%TD*%
%TO.C,R2*%
X74803000Y7366000D03*
X74803000Y9191000D03*
%TD*%
D46*
%TO.C,D5*%
X44323000Y23255000D03*
X44323000Y25005000D03*
%TD*%
D47*
%TO.C,U2*%
X46849000Y22250000D03*
D48*
X49149000Y28550000D03*
D47*
X49149000Y22250000D03*
X51449000Y22250000D03*
%TD*%
D49*
%TO.C,J8*%
X66421000Y42620000D03*
D42*
X66421000Y37120000D03*
%TD*%
D11*
%TO.C,J1*%
X42010000Y50150000D03*
D12*
X44510000Y50150000D03*
X47010000Y50150000D03*
X49510000Y50150000D03*
X52010000Y50150000D03*
X54510000Y50150000D03*
%TD*%
D41*
%TO.C,J5*%
X79959200Y34088000D03*
D42*
X79959200Y39588000D03*
%TD*%
D50*
%TO.C,J12*%
X78950000Y10636000D03*
X78950000Y6636000D03*
D51*
X78150000Y7336000D03*
X78150000Y7986000D03*
X78150000Y8636000D03*
X78150000Y9286000D03*
X78150000Y9936000D03*
D52*
X81100000Y12386000D03*
X81100000Y4886000D03*
%TD*%
D53*
%TO.C,C16*%
X16484880Y22504120D03*
X15265120Y23723880D03*
%TD*%
D54*
%TO.C,C11*%
X51459300Y19608800D03*
X49734300Y19608800D03*
%TD*%
D39*
%TO.C,C14*%
X49937500Y9144000D03*
X51662500Y9144000D03*
%TD*%
D46*
%TO.C,D3*%
X25781000Y3734500D03*
X25781000Y5484500D03*
%TD*%
M02*
