%TF.GenerationSoftware,KiCad,Pcbnew,(6.0.4)*%
%TF.CreationDate,2022-06-24T18:11:38+09:00*%
%TF.ProjectId,cleanbot,636c6561-6e62-46f7-942e-6b696361645f,rev?*%
%TF.SameCoordinates,Original*%
%TF.FileFunction,Copper,L2,Bot*%
%TF.FilePolarity,Positive*%
%FSLAX46Y46*%
G04 Gerber Fmt 4.6, Leading zero omitted, Abs format (unit mm)*
G04 Created by KiCad (PCBNEW (6.0.4)) date 2022-06-24 18:11:38*
%MOMM*%
%LPD*%
G01*
G04 APERTURE LIST*
G04 Aperture macros list*
%AMRoundRect*
0 Rectangle with rounded corners*
0 $1 Rounding radius*
0 $2 $3 $4 $5 $6 $7 $8 $9 X,Y pos of 4 corners*
0 Add a 4 corners polygon primitive as box body*
4,1,4,$2,$3,$4,$5,$6,$7,$8,$9,$2,$3,0*
0 Add four circle primitives for the rounded corners*
1,1,$1+$1,$2,$3*
1,1,$1+$1,$4,$5*
1,1,$1+$1,$6,$7*
1,1,$1+$1,$8,$9*
0 Add four rect primitives between the rounded corners*
20,1,$1+$1,$2,$3,$4,$5,0*
20,1,$1+$1,$4,$5,$6,$7,0*
20,1,$1+$1,$6,$7,$8,$9,0*
20,1,$1+$1,$8,$9,$2,$3,0*%
G04 Aperture macros list end*
%TA.AperFunction,ComponentPad*%
%ADD10RoundRect,0.250000X-0.600000X-0.675000X0.600000X-0.675000X0.600000X0.675000X-0.600000X0.675000X0*%
%TD*%
%TA.AperFunction,ComponentPad*%
%ADD11O,1.700000X1.850000*%
%TD*%
%TA.AperFunction,ComponentPad*%
%ADD12C,1.500000*%
%TD*%
%TA.AperFunction,ComponentPad*%
%ADD13C,3.700000*%
%TD*%
%TA.AperFunction,ComponentPad*%
%ADD14RoundRect,0.250001X1.399999X-1.099999X1.399999X1.099999X-1.399999X1.099999X-1.399999X-1.099999X0*%
%TD*%
%TA.AperFunction,ComponentPad*%
%ADD15O,3.300000X2.700000*%
%TD*%
%TA.AperFunction,ComponentPad*%
%ADD16RoundRect,0.250000X0.675000X-0.600000X0.675000X0.600000X-0.675000X0.600000X-0.675000X-0.600000X0*%
%TD*%
%TA.AperFunction,ComponentPad*%
%ADD17O,1.850000X1.700000*%
%TD*%
%TA.AperFunction,ComponentPad*%
%ADD18R,3.800000X3.800000*%
%TD*%
%TA.AperFunction,ComponentPad*%
%ADD19C,4.000000*%
%TD*%
%TA.AperFunction,ComponentPad*%
%ADD20O,2.700000X3.300000*%
%TD*%
%TA.AperFunction,ComponentPad*%
%ADD21RoundRect,0.250001X1.099999X1.399999X-1.099999X1.399999X-1.099999X-1.399999X1.099999X-1.399999X0*%
%TD*%
%TA.AperFunction,ComponentPad*%
%ADD22RoundRect,0.250001X-1.099999X-1.399999X1.099999X-1.399999X1.099999X1.399999X-1.099999X1.399999X0*%
%TD*%
%TA.AperFunction,ComponentPad*%
%ADD23C,0.800000*%
%TD*%
%TA.AperFunction,SMDPad,CuDef*%
%ADD24RoundRect,0.237500X-0.300000X-0.237500X0.300000X-0.237500X0.300000X0.237500X-0.300000X0.237500X0*%
%TD*%
%TA.AperFunction,SMDPad,CuDef*%
%ADD25RoundRect,0.250000X0.425000X-0.450000X0.425000X0.450000X-0.425000X0.450000X-0.425000X-0.450000X0*%
%TD*%
%TA.AperFunction,SMDPad,CuDef*%
%ADD26RoundRect,0.237500X-0.237500X0.300000X-0.237500X-0.300000X0.237500X-0.300000X0.237500X0.300000X0*%
%TD*%
%TA.AperFunction,SMDPad,CuDef*%
%ADD27RoundRect,0.237500X0.237500X-0.300000X0.237500X0.300000X-0.237500X0.300000X-0.237500X-0.300000X0*%
%TD*%
%TA.AperFunction,SMDPad,CuDef*%
%ADD28RoundRect,0.237500X0.300000X0.237500X-0.300000X0.237500X-0.300000X-0.237500X0.300000X-0.237500X0*%
%TD*%
%TA.AperFunction,ViaPad*%
%ADD29C,0.550000*%
%TD*%
%TA.AperFunction,Conductor*%
%ADD30C,0.250000*%
%TD*%
%TA.AperFunction,Conductor*%
%ADD31C,0.200000*%
%TD*%
%TA.AperFunction,Conductor*%
%ADD32C,0.500000*%
%TD*%
%TA.AperFunction,Conductor*%
%ADD33C,0.700000*%
%TD*%
%TA.AperFunction,Conductor*%
%ADD34C,3.000000*%
%TD*%
G04 APERTURE END LIST*
D10*
%TO.P,J11,1,Pin_1*%
%TO.N,GND*%
X49570000Y3160000D03*
D11*
%TO.P,J11,2,Pin_2*%
%TO.N,Net-(C14-Pad2)*%
X52070000Y3160000D03*
%TO.P,J11,3,Pin_3*%
%TO.N,/DXL_UART*%
X54570000Y3160000D03*
%TD*%
D12*
%TO.P,J14,1,Pin_1*%
%TO.N,unconnected-(J14-Pad1)*%
X3556000Y26095000D03*
%TO.P,J14,2,Pin_2*%
%TO.N,/SWDIO*%
X3556000Y28595000D03*
%TO.P,J14,3,Pin_3*%
%TO.N,/SWCLK*%
X3556000Y31095000D03*
%TO.P,J14,4,Pin_4*%
%TO.N,GND*%
X3556000Y33595000D03*
%TD*%
D13*
%TO.P,REF\u002A\u002A,*%
%TO.N,*%
X61500000Y52500000D03*
%TD*%
%TO.P,REF\u002A\u002A,*%
%TO.N,*%
X61500000Y3500000D03*
%TD*%
D14*
%TO.P,J9,1,Pin_1*%
%TO.N,+5V*%
X13820000Y13970000D03*
D15*
%TO.P,J9,2,Pin_2*%
%TO.N,5V_Reg_out*%
X19320000Y13970000D03*
%TD*%
D16*
%TO.P,J13,1,Pin_1*%
%TO.N,+5V*%
X4460000Y12085000D03*
D17*
%TO.P,J13,2,Pin_2*%
%TO.N,GND*%
X4460000Y14585000D03*
%TD*%
D13*
%TO.P,REF\u002A\u002A,*%
%TO.N,*%
X3500000Y3500000D03*
%TD*%
D18*
%TO.P,J4,1,Pin_1*%
%TO.N,GND*%
X79970000Y50800000D03*
D19*
%TO.P,J4,2,Pin_2*%
%TO.N,+BATT*%
X74970000Y50800000D03*
%TD*%
D10*
%TO.P,J15,1,Pin_1*%
%TO.N,/NRST*%
X32278000Y3160000D03*
D11*
%TO.P,J15,2,Pin_2*%
%TO.N,GND*%
X34778000Y3160000D03*
%TD*%
D10*
%TO.P,J10,1,Pin_1*%
%TO.N,+12V*%
X22880000Y50150000D03*
D11*
%TO.P,J10,2,Pin_2*%
%TO.N,GND*%
X25380000Y50150000D03*
%TD*%
D14*
%TO.P,J7,1,Pin_1*%
%TO.N,+5V*%
X13820000Y5080000D03*
D15*
%TO.P,J7,2,Pin_2*%
%TO.N,GND*%
X19320000Y5080000D03*
%TD*%
D20*
%TO.P,J6,2,Pin_2*%
%TO.N,GND*%
X80010000Y27650000D03*
D21*
%TO.P,J6,1,Pin_1*%
%TO.N,5V_Reg_out*%
X80010000Y22150000D03*
%TD*%
D10*
%TO.P,J3,1,Pin_1*%
%TO.N,+12V*%
X31770000Y50150000D03*
D11*
%TO.P,J3,2,Pin_2*%
%TO.N,Net-(J3-Pad2)*%
X34270000Y50150000D03*
%TD*%
D13*
%TO.P,REF\u002A\u002A,*%
%TO.N,*%
X3500000Y52500000D03*
%TD*%
D10*
%TO.P,J2,1,Pin_1*%
%TO.N,/MOTOR_PWM_R*%
X42010000Y41514000D03*
D11*
%TO.P,J2,2,Pin_2*%
%TO.N,/MOTOR_DIR_R*%
X44510000Y41514000D03*
%TO.P,J2,3,Pin_3*%
%TO.N,/MOTOR_PLS_R*%
X47010000Y41514000D03*
%TO.P,J2,4,Pin_4*%
%TO.N,/MOTOR_EN*%
X49510000Y41514000D03*
%TO.P,J2,5,Pin_5*%
%TO.N,+12V*%
X52010000Y41514000D03*
%TO.P,J2,6,Pin_6*%
%TO.N,GND*%
X54510000Y41514000D03*
%TD*%
D22*
%TO.P,J8,1,Pin_1*%
%TO.N,+BATT*%
X63500000Y42620000D03*
D20*
%TO.P,J8,2,Pin_2*%
%TO.N,/SHUNT_V_H*%
X63500000Y37120000D03*
%TD*%
D11*
%TO.P,J1,6,Pin_6*%
%TO.N,GND*%
X54510000Y50150000D03*
%TO.P,J1,5,Pin_5*%
%TO.N,+12V*%
X52010000Y50150000D03*
%TO.P,J1,4,Pin_4*%
%TO.N,/MOTOR_EN*%
X49510000Y50150000D03*
%TO.P,J1,3,Pin_3*%
%TO.N,/MOTOR_PLS_L*%
X47010000Y50150000D03*
%TO.P,J1,2,Pin_2*%
%TO.N,/MOTOR_DIR_L*%
X44510000Y50150000D03*
D10*
%TO.P,J1,1,Pin_1*%
%TO.N,/MOTOR_PWM_L*%
X42010000Y50150000D03*
%TD*%
D21*
%TO.P,J5,1,Pin_1*%
%TO.N,+12V*%
X80010000Y36120000D03*
D20*
%TO.P,J5,2,Pin_2*%
%TO.N,GND*%
X80010000Y41620000D03*
%TD*%
D23*
%TO.P,J12,*%
%TO.N,*%
X78950000Y12160000D03*
X78950000Y8160000D03*
%TD*%
D24*
%TO.P,C2,1*%
%TO.N,+12V*%
X51969500Y54864000D03*
%TO.P,C2,2*%
%TO.N,GND*%
X53694500Y54864000D03*
%TD*%
D25*
%TO.P,C5,1*%
%TO.N,+3V3*%
X29972000Y29003000D03*
%TO.P,C5,2*%
%TO.N,GND*%
X29972000Y31703000D03*
%TD*%
%TO.P,C3,1*%
%TO.N,+3V3*%
X33147000Y29003000D03*
%TO.P,C3,2*%
%TO.N,GND*%
X33147000Y31703000D03*
%TD*%
D26*
%TO.P,C7,1*%
%TO.N,+3V3*%
X39497000Y33983000D03*
%TO.P,C7,2*%
%TO.N,GND*%
X39497000Y32258000D03*
%TD*%
D24*
%TO.P,C8,1*%
%TO.N,+12V*%
X51969500Y46228000D03*
%TO.P,C8,2*%
%TO.N,GND*%
X53694500Y46228000D03*
%TD*%
D27*
%TO.P,C1,1*%
%TO.N,+3V3*%
X23622000Y27331500D03*
%TO.P,C1,2*%
%TO.N,GND*%
X23622000Y29056500D03*
%TD*%
D24*
%TO.P,C9,1*%
%TO.N,+3V3*%
X28347500Y38354000D03*
%TO.P,C9,2*%
%TO.N,GND*%
X30072500Y38354000D03*
%TD*%
D28*
%TO.P,C10,1*%
%TO.N,+3V3*%
X34417000Y22098000D03*
%TO.P,C10,2*%
%TO.N,GND*%
X32692000Y22098000D03*
%TD*%
D29*
%TO.N,GND*%
X17653000Y33020000D03*
X17018000Y33020000D03*
X16383000Y33020000D03*
X18288000Y33020000D03*
X17653000Y33655000D03*
X17018000Y33655000D03*
X16383000Y33655000D03*
X18288000Y33655000D03*
X17653000Y34290000D03*
X17018000Y34290000D03*
X16383000Y34290000D03*
X18288000Y34290000D03*
X17653000Y34925000D03*
X17018000Y34925000D03*
X16383000Y34925000D03*
X18288000Y34925000D03*
X17653000Y41783000D03*
X17018000Y41783000D03*
X16383000Y41783000D03*
X18288000Y41783000D03*
X17653000Y42418000D03*
X17018000Y42418000D03*
X16383000Y42418000D03*
X18288000Y42418000D03*
X17653000Y43053000D03*
X17018000Y43053000D03*
X16383000Y43053000D03*
X18288000Y43053000D03*
X18288000Y43688000D03*
X17653000Y43688000D03*
X17018000Y43688000D03*
X16383000Y43688000D03*
X56005034Y43561000D03*
X56005034Y44196000D03*
X56005034Y44831000D03*
X56642000Y44831000D03*
X56642000Y43561000D03*
X56642000Y44196000D03*
X54102715Y44826233D03*
X54102715Y44191233D03*
X54102715Y43556233D03*
X55372715Y43556233D03*
X53467715Y43556233D03*
X53467715Y44826233D03*
X55372715Y44191233D03*
X53467715Y44191233D03*
X55372715Y44826233D03*
X54737715Y44191233D03*
X54737715Y44826233D03*
X54737715Y43556233D03*
X50671034Y43561000D03*
X50671034Y44196000D03*
X50671034Y44831000D03*
X50038715Y43556233D03*
X50038715Y44191233D03*
X50038715Y44826233D03*
X55880000Y52324000D03*
X55880000Y52959000D03*
X55880000Y53594000D03*
X55245000Y52324000D03*
X55245000Y52959000D03*
X55245000Y53594000D03*
X54610000Y52324000D03*
X54610000Y52959000D03*
X54610000Y53594000D03*
X53975000Y52324000D03*
X53975000Y52959000D03*
X53975000Y53594000D03*
X53340000Y52324000D03*
X53340000Y52959000D03*
X53340000Y53594000D03*
X50799285Y52328767D03*
X50799285Y52963767D03*
X50799285Y53598767D03*
X50162319Y52328767D03*
X50162319Y52963767D03*
X50162319Y53598767D03*
X49530000Y52324000D03*
X49530000Y52959000D03*
X49530000Y53594000D03*
X48895000Y52324000D03*
X48895000Y52959000D03*
X48895000Y53594000D03*
X48260000Y52324000D03*
X48260000Y52959000D03*
X48260000Y53594000D03*
X47625000Y52324000D03*
X47625000Y52959000D03*
X47625000Y53594000D03*
X46990000Y52324000D03*
X46990000Y52959000D03*
X46990000Y53594000D03*
X22225000Y34417000D03*
X45466000Y25146000D03*
X44831000Y25146000D03*
X44196000Y25146000D03*
X43561000Y25146000D03*
X43561000Y25781000D03*
X44196000Y25781000D03*
X44831000Y25781000D03*
X45466000Y25781000D03*
X45466000Y26416000D03*
X44831000Y26416000D03*
X44196000Y26416000D03*
X43561000Y26416000D03*
X80264000Y10541000D03*
X82169000Y10541000D03*
X81534000Y10541000D03*
X80899000Y10541000D03*
X82169000Y9906000D03*
X81534000Y9906000D03*
X80899000Y9906000D03*
X80264000Y9906000D03*
X80264000Y11176000D03*
X82169000Y11176000D03*
X81534000Y11176000D03*
X80899000Y11176000D03*
X82169000Y11811000D03*
X81534000Y11811000D03*
X80899000Y11811000D03*
X80264000Y11811000D03*
X60198000Y17907000D03*
X34925000Y45847000D03*
X34925000Y45212000D03*
X34925000Y44577000D03*
X34925000Y43942000D03*
X56896000Y31623000D03*
X56134000Y31623000D03*
X55372000Y31623000D03*
X54610000Y31623000D03*
X53848000Y31623000D03*
X52451000Y27051000D03*
X53213000Y27051000D03*
X53975000Y27051000D03*
X54737000Y27051000D03*
X55499000Y27051000D03*
X56261000Y27051000D03*
X41783000Y17780000D03*
X41783000Y18415000D03*
X41783000Y19050000D03*
X41783000Y19685000D03*
X46916000Y19632000D03*
X46482000Y20066000D03*
X45847000Y20320000D03*
X45212000Y20320000D03*
X18796000Y29464000D03*
X19558000Y28702000D03*
X20066000Y28194000D03*
X20574000Y27686000D03*
X21082000Y27178000D03*
X21590000Y26670000D03*
X26416000Y21844000D03*
X26924000Y21336000D03*
X28194000Y20066000D03*
X28699840Y19558395D03*
X29210002Y19054130D03*
X29718000Y18542000D03*
X29972000Y17780000D03*
X29972000Y17018000D03*
X29464000Y16510000D03*
X28956000Y16002000D03*
X28194000Y16002000D03*
X27432000Y16002000D03*
X26670000Y16002000D03*
X25908000Y16002000D03*
X25146000Y16002000D03*
X24638000Y16510000D03*
X24130000Y17018000D03*
X23368000Y17526000D03*
X22606000Y17526000D03*
X21844000Y17526000D03*
X21082000Y17526000D03*
X20320000Y17526000D03*
X19558000Y17526000D03*
X18796000Y17526000D03*
X18288000Y18034000D03*
X17780000Y18542000D03*
X17272000Y19050000D03*
X16764000Y19558000D03*
X16256000Y20066000D03*
X15748000Y20574000D03*
X15240000Y21082000D03*
X14732000Y21590000D03*
X14224000Y22098000D03*
X13716000Y22606000D03*
X13208000Y23114000D03*
X12954000Y23876000D03*
X12954000Y24638000D03*
X13208000Y25400000D03*
X13716000Y25908000D03*
X14224000Y26416000D03*
X14732000Y26924000D03*
X15240000Y27432000D03*
X15748000Y27940000D03*
X16256000Y28448000D03*
X16764000Y28956000D03*
X17272000Y29464000D03*
%TO.N,/USBD-*%
X72136000Y18396000D03*
%TO.N,/USBD+*%
X72136000Y19196000D03*
%TO.N,/USBD-*%
X61185157Y19402157D03*
%TO.N,/USBD+*%
X61750843Y19967843D03*
%TO.N,+12V*%
X58674000Y25908000D03*
X60960000Y25019000D03*
%TO.N,/SHUNT_V_H*%
X52832000Y32258000D03*
X60706000Y30988000D03*
%TO.N,/USBD-*%
X59261707Y35680981D03*
%TO.N,/USBD+*%
X60061707Y35680981D03*
%TO.N,/USBD-*%
X32697657Y38354971D03*
%TO.N,/USBD+*%
X32131971Y38920657D03*
%TO.N,/MOTOR_PLS_R*%
X33052779Y37663585D03*
%TO.N,/MOTOR_PLS_L*%
X33528000Y37084000D03*
%TO.N,/BATT_PWR_ADC*%
X37290995Y29899810D03*
X50546000Y32893000D03*
%TO.N,/CURRENT_SENSE_ADC*%
X37539260Y30607000D03*
X41279616Y34663307D03*
X40132000Y31242000D03*
X55118000Y36449000D03*
%TO.N,/PWR_GOOD_LED*%
X8509000Y48768000D03*
X17088874Y47845757D03*
X25394134Y24035301D03*
%TO.N,/DXL_UART*%
X26797000Y23447020D03*
%TO.N,/PWR_GOOD_LED*%
X30459369Y23939632D03*
%TO.N,/PWR_NORM_LED*%
X13208000Y49149000D03*
X17713500Y48260000D03*
X25038485Y24695049D03*
X29815468Y24323227D03*
%TO.N,/PWR_BAD_LED*%
X25019000Y25527000D03*
X29210000Y24765000D03*
%TO.N,/DXL_UART*%
X44602400Y19354800D03*
X25166989Y30378400D03*
X26415989Y30581600D03*
%TO.N,GND*%
X26416000Y28092400D03*
%TO.N,/BUZZER_PWM*%
X33909000Y40386000D03*
X14579600Y41910000D03*
%TO.N,+3V3*%
X34436378Y32648767D03*
%TO.N,GND*%
X34848942Y31830005D03*
%TO.N,/MOTOR_EN*%
X37938780Y28752800D03*
%TO.N,+3V3*%
X41808400Y27228800D03*
%TO.N,/MOTOR_PWM_L*%
X35255200Y24142497D03*
X37490400Y24317500D03*
%TO.N,/MOTOR_PWM_R*%
X35255200Y24892000D03*
X42418000Y26771600D03*
%TO.N,+3V3*%
X54457600Y35763200D03*
X47904400Y35102800D03*
%TO.N,/MOTOR_EN*%
X48514000Y30886400D03*
%TO.N,/MOTOR_DIR_L*%
X38354000Y25691500D03*
X35255200Y25704800D03*
%TO.N,/MOTOR_DIR_R*%
X39522400Y28194000D03*
X37388800Y27635200D03*
%TO.N,/MOTOR_DIR_L*%
X39319200Y36068000D03*
X43129200Y36728400D03*
%TO.N,/MOTOR_DIR_R*%
X40894000Y35306000D03*
X44500800Y35915600D03*
%TO.N,/MOTOR_PLS_R*%
X46736000Y38227000D03*
%TO.N,/MOTOR_PLS_L*%
X47625000Y38100000D03*
%TO.N,/SWDIO*%
X30175200Y39420800D03*
X2794000Y39166800D03*
%TO.N,/SWCLK*%
X25755600Y37338000D03*
X3352800Y38506400D03*
%TO.N,+3V3*%
X42037000Y33909000D03*
X28321000Y37211000D03*
X29845000Y27686000D03*
X31576000Y29003000D03*
X33147000Y27686000D03*
X27178000Y26797000D03*
X34417000Y23241000D03*
X8331200Y36931600D03*
X31369000Y32893000D03*
X36576000Y34036000D03*
X45974000Y33909000D03*
X29210000Y33274000D03*
X25146000Y35306000D03*
%TO.N,GND*%
X29845000Y37211000D03*
X37287200Y32613600D03*
X32639000Y23241000D03*
X29972000Y31703000D03*
X33147000Y31703000D03*
%TO.N,+12V*%
X71120000Y45720000D03*
X70104000Y46736000D03*
X70612000Y46228000D03*
X69596000Y47244000D03*
%TO.N,5V_Reg_out*%
X71882000Y13462000D03*
X71882000Y14732000D03*
X71882000Y14097000D03*
X48260000Y13970000D03*
X71882000Y15367000D03*
X71882000Y12827000D03*
X39370000Y13970000D03*
%TO.N,Net-(R1-Pad1)*%
X24529426Y29597632D03*
X26416000Y29591000D03*
%TD*%
D30*
%TO.N,/SHUNT_V_H*%
X53213000Y32639000D02*
X52832000Y32258000D01*
X59055000Y32639000D02*
X53213000Y32639000D01*
X60706000Y30988000D02*
X59055000Y32639000D01*
D31*
%TO.N,/USBD-*%
X71961001Y18570999D02*
X72136000Y18396000D01*
X62263802Y18570999D02*
X71961001Y18570999D01*
X61185157Y19402157D02*
X61432644Y19402157D01*
X61432644Y19402157D02*
X62263802Y18570999D01*
%TO.N,/USBD+*%
X71961001Y19021001D02*
X72136000Y19196000D01*
X61750843Y19967843D02*
X61750843Y19720356D01*
X61750843Y19720356D02*
X62450198Y19021001D01*
X62450198Y19021001D02*
X71961001Y19021001D01*
D30*
%TO.N,+12V*%
X59563000Y25019000D02*
X60960000Y25019000D01*
X58674000Y25908000D02*
X59563000Y25019000D01*
D31*
%TO.N,/USBD-*%
X59436706Y36003094D02*
X59436706Y35855980D01*
X56421800Y39018000D02*
X59436706Y36003094D01*
X33113199Y39018000D02*
X56421800Y39018000D01*
X32697657Y38602458D02*
X33113199Y39018000D01*
X32697657Y38354971D02*
X32697657Y38602458D01*
%TO.N,/USBD+*%
X59886708Y35855980D02*
X60061707Y35680981D01*
X59886708Y36189492D02*
X59886708Y35855980D01*
X56608200Y39468000D02*
X59886708Y36189492D01*
X32926801Y39468000D02*
X56608200Y39468000D01*
X32379458Y38920657D02*
X32926801Y39468000D01*
X32131971Y38920657D02*
X32379458Y38920657D01*
%TO.N,/USBD-*%
X59436706Y35855980D02*
X59261707Y35680981D01*
%TO.N,/MOTOR_PLS_L*%
X33782000Y37338000D02*
X33528000Y37084000D01*
X46863000Y37338000D02*
X33782000Y37338000D01*
X47625000Y38100000D02*
X46863000Y37338000D01*
%TO.N,/MOTOR_PLS_R*%
X33235194Y37846000D02*
X33052779Y37663585D01*
X46355000Y37846000D02*
X33235194Y37846000D01*
X46736000Y38227000D02*
X46355000Y37846000D01*
%TO.N,/BUZZER_PWM*%
X33909000Y40386000D02*
X33502600Y40792400D01*
X15697200Y40792400D02*
X14579600Y41910000D01*
X33502600Y40792400D02*
X15697200Y40792400D01*
%TO.N,/BATT_PWR_ADC*%
X40567810Y29899810D02*
X37290995Y29899810D01*
X40567810Y29899810D02*
X42291000Y31623000D01*
X50546000Y32893000D02*
X45339000Y32893000D01*
X45339000Y32893000D02*
X44069000Y31623000D01*
X44069000Y31623000D02*
X42291000Y31623000D01*
%TO.N,/CURRENT_SENSE_ADC*%
X39497000Y30607000D02*
X37539260Y30607000D01*
X40132000Y31242000D02*
X39497000Y30607000D01*
X46347307Y34663307D02*
X41279616Y34663307D01*
X55118000Y36449000D02*
X48133000Y36449000D01*
X46347307Y34663307D02*
X48133000Y36449000D01*
%TO.N,/PWR_GOOD_LED*%
X8763000Y48514000D02*
X8509000Y48768000D01*
X8763000Y48514000D02*
X16420631Y48514000D01*
X17088874Y47845757D02*
X16420631Y48514000D01*
X25597313Y24238480D02*
X25394134Y24035301D01*
X25597313Y24238480D02*
X28263994Y24238480D01*
X28753758Y23748716D02*
X28263994Y24238480D01*
%TO.N,/PWR_NORM_LED*%
X28429480Y24638000D02*
X25095534Y24638000D01*
X25095534Y24638000D02*
X25038485Y24695049D01*
X29682730Y24190489D02*
X28876991Y24190489D01*
X29815468Y24323227D02*
X29682730Y24190489D01*
X28876991Y24190489D02*
X28429480Y24638000D01*
%TO.N,/PWR_BAD_LED*%
X25400000Y25146000D02*
X25019000Y25527000D01*
X28829000Y25146000D02*
X25400000Y25146000D01*
X29210000Y24765000D02*
X28829000Y25146000D01*
%TO.N,/DXL_UART*%
X26797000Y23447020D02*
X29619220Y20624800D01*
X29619220Y20624800D02*
X43332400Y20624800D01*
X43332400Y20624800D02*
X44602400Y19354800D01*
%TO.N,/PWR_GOOD_LED*%
X30459369Y23939632D02*
X30268453Y23748716D01*
X30268453Y23748716D02*
X28753758Y23748716D01*
%TO.N,/PWR_NORM_LED*%
X13208000Y49149000D02*
X16824500Y49149000D01*
X17713500Y48260000D02*
X16824500Y49149000D01*
%TO.N,/DXL_UART*%
X25370189Y30581600D02*
X25166989Y30378400D01*
X26415989Y30581600D02*
X25370189Y30581600D01*
%TO.N,GND*%
X26416000Y28092400D02*
X26390600Y28067000D01*
X26390600Y28067000D02*
X24511000Y28067000D01*
%TO.N,+3V3*%
X34192145Y32893000D02*
X31369000Y32893000D01*
X34436378Y32648767D02*
X34192145Y32893000D01*
%TO.N,GND*%
X34721937Y31703000D02*
X34848942Y31830005D01*
X33147000Y31703000D02*
X34721937Y31703000D01*
X39141400Y32613600D02*
X39497000Y32258000D01*
X37287200Y32613600D02*
X39141400Y32613600D01*
%TO.N,/MOTOR_EN*%
X37938780Y28752800D02*
X37954491Y28768511D01*
X37954491Y28768511D02*
X40350911Y28768511D01*
D32*
%TO.N,+3V3*%
X35734000Y26416000D02*
X33147000Y29003000D01*
X40995600Y26416000D02*
X35734000Y26416000D01*
X41808400Y27228800D02*
X40995600Y26416000D01*
D31*
%TO.N,/MOTOR_PWM_R*%
X42418000Y26771600D02*
X40538400Y24892000D01*
X40538400Y24892000D02*
X35255200Y24892000D01*
%TO.N,/MOTOR_PWM_L*%
X37315397Y24142497D02*
X37490400Y24317500D01*
X35255200Y24142497D02*
X37315397Y24142497D01*
%TO.N,/MOTOR_EN*%
X42468800Y30886400D02*
X48514000Y30886400D01*
X40350911Y28768511D02*
X42468800Y30886400D01*
D30*
%TO.N,+3V3*%
X48564800Y35763200D02*
X54457600Y35763200D01*
X47904400Y35102800D02*
X48564800Y35763200D01*
D31*
%TO.N,/MOTOR_DIR_L*%
X35268500Y25691500D02*
X35255200Y25704800D01*
X38354000Y25691500D02*
X35268500Y25691500D01*
%TO.N,/MOTOR_DIR_R*%
X38963600Y27635200D02*
X39522400Y28194000D01*
X37388800Y27635200D02*
X38963600Y27635200D01*
%TO.N,/MOTOR_DIR_L*%
X42468800Y36068000D02*
X39319200Y36068000D01*
X43129200Y36728400D02*
X42468800Y36068000D01*
%TO.N,/MOTOR_DIR_R*%
X40894000Y35306000D02*
X43891200Y35306000D01*
X43891200Y35306000D02*
X44500800Y35915600D01*
%TO.N,/SWDIO*%
X29921200Y39166800D02*
X30175200Y39420800D01*
X2794000Y39166800D02*
X29921200Y39166800D01*
%TO.N,/SWCLK*%
X3352800Y38506400D02*
X24587200Y38506400D01*
X24587200Y38506400D02*
X25755600Y37338000D01*
D32*
%TO.N,+3V3*%
X37719000Y36068000D02*
X28702000Y36068000D01*
D30*
X9194800Y36068000D02*
X8331200Y36931600D01*
D31*
X28321000Y38327500D02*
X28347500Y38354000D01*
X23622000Y27331500D02*
X24156500Y26797000D01*
X29591000Y32893000D02*
X29210000Y33274000D01*
D32*
X28321000Y36195000D02*
X28448000Y36068000D01*
X28321000Y36449000D02*
X28321000Y36195000D01*
X28448000Y36068000D02*
X27940000Y36068000D01*
D31*
X24156500Y26797000D02*
X27178000Y26797000D01*
X31369000Y32893000D02*
X29591000Y32893000D01*
D32*
X39571000Y33909000D02*
X39497000Y33983000D01*
D31*
X28321000Y37211000D02*
X28321000Y38327500D01*
D32*
X28321000Y36449000D02*
X28702000Y36068000D01*
X28321000Y36322000D02*
X28575000Y36068000D01*
D30*
X25908000Y36068000D02*
X9194800Y36068000D01*
D31*
X34417000Y22098000D02*
X34417000Y23241000D01*
D32*
X39497000Y34290000D02*
X37719000Y36068000D01*
X28575000Y36068000D02*
X28448000Y36068000D01*
X28321000Y36449000D02*
X27940000Y36068000D01*
X25908000Y36068000D02*
X25146000Y35306000D01*
D31*
X39444000Y34036000D02*
X36576000Y34036000D01*
X33147000Y29003000D02*
X29972000Y29003000D01*
D32*
X28321000Y36449000D02*
X28321000Y36322000D01*
X28321000Y37211000D02*
X28321000Y36449000D01*
X27940000Y36068000D02*
X25908000Y36068000D01*
D31*
X29845000Y27686000D02*
X29845000Y28876000D01*
X39497000Y33983000D02*
X39444000Y34036000D01*
D32*
X39497000Y33983000D02*
X39497000Y34290000D01*
X45974000Y33909000D02*
X39571000Y33909000D01*
X28702000Y36068000D02*
X28575000Y36068000D01*
D31*
X29845000Y28876000D02*
X29972000Y29003000D01*
X33147000Y29003000D02*
X33147000Y27686000D01*
%TO.N,GND*%
X30072500Y37438500D02*
X29845000Y37211000D01*
X23622000Y29056500D02*
X23622000Y28956000D01*
X23622000Y28956000D02*
X24511000Y28067000D01*
X30072500Y38354000D02*
X30072500Y37438500D01*
X32692000Y22098000D02*
X32692000Y23188000D01*
X32692000Y23188000D02*
X32639000Y23241000D01*
D30*
X29972000Y31703000D02*
X33147000Y31703000D01*
D33*
%TO.N,+12V*%
X52010000Y50150000D02*
X52010000Y54823500D01*
X52010000Y47641200D02*
X51993800Y47625000D01*
X51993800Y47625000D02*
X32385000Y47625000D01*
X51969500Y46228000D02*
X51969500Y47600700D01*
X32385000Y47625000D02*
X23495000Y47625000D01*
X23495000Y47625000D02*
X22880000Y48240000D01*
X32385000Y47625000D02*
X31770000Y48240000D01*
X51969500Y41554500D02*
X52010000Y41514000D01*
X51993800Y47625000D02*
X69215000Y47625000D01*
X69596000Y47244000D02*
X69215000Y47625000D01*
X31770000Y48240000D02*
X31770000Y50150000D01*
X51969500Y46228000D02*
X51969500Y41554500D01*
X70104000Y46736000D02*
X70612000Y46228000D01*
X22880000Y48240000D02*
X22880000Y50150000D01*
X52010000Y54823500D02*
X51969500Y54864000D01*
X51969500Y47600700D02*
X51993800Y47625000D01*
X70612000Y46228000D02*
X71120000Y45720000D01*
X52010000Y50150000D02*
X52010000Y47641200D01*
D34*
%TO.N,5V_Reg_out*%
X39370000Y13970000D02*
X19320000Y13970000D01*
X71882000Y13970000D02*
X80010000Y22098000D01*
X71882000Y13970000D02*
X48260000Y13970000D01*
X48260000Y13970000D02*
X39370000Y13970000D01*
X80010000Y22098000D02*
X80010000Y22150000D01*
D31*
%TO.N,Net-(R1-Pad1)*%
X26409368Y29597632D02*
X26416000Y29591000D01*
X24529426Y29597632D02*
X26409368Y29597632D01*
D32*
%TO.N,+5V*%
X13820000Y13970000D02*
X11935000Y12085000D01*
X11935000Y12085000D02*
X4460000Y12085000D01*
%TD*%
%TA.AperFunction,Conductor*%
%TO.N,GND*%
G36*
X82878636Y55231076D02*
G01*
X83108153Y55127780D01*
X83121640Y55120700D01*
X83124203Y55119150D01*
X83172143Y55066783D01*
X83185000Y55011333D01*
X83185000Y2031000D01*
X83164998Y1962879D01*
X83111342Y1916386D01*
X83059000Y1905000D01*
X63619284Y1905000D01*
X63551163Y1925002D01*
X63504670Y1978658D01*
X63494566Y2048932D01*
X63512897Y2098512D01*
X63651635Y2317129D01*
X63653319Y2320708D01*
X63653323Y2320715D01*
X63781233Y2592537D01*
X63781235Y2592541D01*
X63782922Y2596127D01*
X63799343Y2646664D01*
X63876979Y2885605D01*
X63878206Y2889381D01*
X63935984Y3192264D01*
X63955345Y3500000D01*
X63935984Y3807736D01*
X63878206Y4110619D01*
X63782922Y4403873D01*
X63781233Y4407463D01*
X63653323Y4679285D01*
X63653319Y4679292D01*
X63651635Y4682871D01*
X63593888Y4773867D01*
X63488542Y4939867D01*
X63488537Y4939874D01*
X63486416Y4943216D01*
X63289869Y5180799D01*
X63065096Y5391876D01*
X62815640Y5573116D01*
X62545435Y5721663D01*
X62287615Y5823741D01*
X62262426Y5833714D01*
X62262423Y5833715D01*
X62258743Y5835172D01*
X62254909Y5836156D01*
X62254901Y5836159D01*
X62070393Y5883532D01*
X61960086Y5911854D01*
X61956158Y5912350D01*
X61956154Y5912351D01*
X61835220Y5927628D01*
X61654172Y5950500D01*
X61345828Y5950500D01*
X61164780Y5927628D01*
X61043846Y5912351D01*
X61043842Y5912350D01*
X61039914Y5911854D01*
X60929607Y5883532D01*
X60745099Y5836159D01*
X60745091Y5836156D01*
X60741257Y5835172D01*
X60737577Y5833715D01*
X60737574Y5833714D01*
X60712385Y5823741D01*
X60454565Y5721663D01*
X60184360Y5573116D01*
X59934904Y5391876D01*
X59710131Y5180799D01*
X59513584Y4943216D01*
X59511463Y4939874D01*
X59511458Y4939867D01*
X59406112Y4773867D01*
X59348365Y4682871D01*
X59346681Y4679292D01*
X59346677Y4679285D01*
X59218767Y4407463D01*
X59217078Y4403873D01*
X59121794Y4110619D01*
X59064016Y3807736D01*
X59044655Y3500000D01*
X59064016Y3192264D01*
X59121794Y2889381D01*
X59123021Y2885605D01*
X59200658Y2646664D01*
X59217078Y2596127D01*
X59218765Y2592541D01*
X59218767Y2592537D01*
X59346677Y2320715D01*
X59346681Y2320708D01*
X59348365Y2317129D01*
X59487102Y2098513D01*
X59506714Y2030280D01*
X59486323Y1962274D01*
X59432402Y1916089D01*
X59380716Y1905000D01*
X55743479Y1905000D01*
X55675358Y1925002D01*
X55628865Y1978658D01*
X55618761Y2048932D01*
X55652385Y2118051D01*
X55697542Y2165305D01*
X55697543Y2165306D01*
X55701113Y2169042D01*
X55835525Y2366082D01*
X55885737Y2474255D01*
X55933770Y2577733D01*
X55933771Y2577736D01*
X55935949Y2582428D01*
X55999691Y2812272D01*
X56009081Y2900135D01*
X56020144Y3003651D01*
X56020144Y3003659D01*
X56020500Y3006986D01*
X56020500Y3295463D01*
X56020288Y3298047D01*
X56006351Y3467565D01*
X56006350Y3467571D01*
X56005927Y3472716D01*
X55952708Y3684593D01*
X55949080Y3699037D01*
X55949079Y3699041D01*
X55947821Y3704048D01*
X55945762Y3708784D01*
X55854772Y3918047D01*
X55854770Y3918050D01*
X55852712Y3922784D01*
X55723155Y4123049D01*
X55716131Y4130769D01*
X55566107Y4295642D01*
X55566105Y4295643D01*
X55562629Y4299464D01*
X55558578Y4302663D01*
X55558574Y4302667D01*
X55379500Y4444091D01*
X55379496Y4444093D01*
X55375445Y4447293D01*
X55336125Y4468999D01*
X55258514Y4511842D01*
X55166631Y4562564D01*
X55161762Y4564288D01*
X55161758Y4564290D01*
X54946663Y4640459D01*
X54946661Y4640460D01*
X54941794Y4642183D01*
X54824383Y4663097D01*
X54712060Y4683106D01*
X54712056Y4683106D01*
X54706972Y4684012D01*
X54623140Y4685036D01*
X54473640Y4686863D01*
X54473638Y4686863D01*
X54468471Y4686926D01*
X54232698Y4650847D01*
X54005982Y4576745D01*
X54001394Y4574357D01*
X54001390Y4574355D01*
X53799003Y4468999D01*
X53794414Y4466610D01*
X53790281Y4463507D01*
X53790278Y4463505D01*
X53612630Y4330122D01*
X53603675Y4323398D01*
X53438887Y4150958D01*
X53435973Y4146686D01*
X53435972Y4146685D01*
X53425115Y4130769D01*
X53370204Y4085766D01*
X53299679Y4077595D01*
X53235932Y4108849D01*
X53223780Y4122083D01*
X53223155Y4123049D01*
X53150730Y4202643D01*
X53066107Y4295642D01*
X53066105Y4295643D01*
X53062629Y4299464D01*
X53058578Y4302663D01*
X53058574Y4302667D01*
X52879500Y4444091D01*
X52879496Y4444093D01*
X52875445Y4447293D01*
X52836125Y4468999D01*
X52758514Y4511842D01*
X52666631Y4562564D01*
X52661762Y4564288D01*
X52661758Y4564290D01*
X52446663Y4640459D01*
X52446661Y4640460D01*
X52441794Y4642183D01*
X52324383Y4663097D01*
X52212060Y4683106D01*
X52212056Y4683106D01*
X52206972Y4684012D01*
X52123140Y4685036D01*
X51973640Y4686863D01*
X51973638Y4686863D01*
X51968471Y4686926D01*
X51732698Y4650847D01*
X51505982Y4576745D01*
X51501394Y4574357D01*
X51501390Y4574355D01*
X51299003Y4468999D01*
X51294414Y4466610D01*
X51290281Y4463507D01*
X51290278Y4463505D01*
X51112630Y4330122D01*
X51103675Y4323398D01*
X51042079Y4258941D01*
X51007119Y4222358D01*
X50945595Y4186928D01*
X50874682Y4190385D01*
X50816896Y4231631D01*
X50808881Y4243106D01*
X50771937Y4302807D01*
X50762901Y4314208D01*
X50648171Y4428739D01*
X50636760Y4437751D01*
X50498757Y4522816D01*
X50485576Y4528963D01*
X50331290Y4580138D01*
X50317914Y4583005D01*
X50223562Y4592672D01*
X50217145Y4593000D01*
X49842115Y4593000D01*
X49826876Y4588525D01*
X49825671Y4587135D01*
X49824000Y4579452D01*
X49824000Y3032000D01*
X49803998Y2963879D01*
X49750342Y2917386D01*
X49698000Y2906000D01*
X48230116Y2906000D01*
X48214877Y2901525D01*
X48213672Y2900135D01*
X48212001Y2892452D01*
X48212001Y2437905D01*
X48212338Y2431386D01*
X48222257Y2335794D01*
X48225149Y2322400D01*
X48276588Y2168216D01*
X48282762Y2155038D01*
X48318489Y2097303D01*
X48337327Y2028851D01*
X48316166Y1961082D01*
X48261725Y1915510D01*
X48211345Y1905000D01*
X35827684Y1905000D01*
X35759563Y1925002D01*
X35713070Y1978658D01*
X35702966Y2048932D01*
X35732460Y2113512D01*
X35745104Y2126166D01*
X35751052Y2131327D01*
X35758472Y2138958D01*
X35897826Y2308911D01*
X35903850Y2317678D01*
X36012576Y2508682D01*
X36017041Y2518346D01*
X36092031Y2724941D01*
X36094802Y2735208D01*
X36122463Y2888174D01*
X36121045Y2901413D01*
X36106406Y2906000D01*
X34650000Y2906000D01*
X34581879Y2926002D01*
X34535386Y2979658D01*
X34524000Y3032000D01*
X34524000Y3432115D01*
X35032000Y3432115D01*
X35036475Y3416876D01*
X35037865Y3415671D01*
X35045548Y3414000D01*
X36107607Y3414000D01*
X36122285Y3418310D01*
X36124348Y3430193D01*
X36124185Y3432115D01*
X48212000Y3432115D01*
X48216475Y3416876D01*
X48217865Y3415671D01*
X48225548Y3414000D01*
X49297885Y3414000D01*
X49313124Y3418475D01*
X49314329Y3419865D01*
X49316000Y3427548D01*
X49316000Y4574884D01*
X49311525Y4590123D01*
X49310135Y4591328D01*
X49302452Y4592999D01*
X48922905Y4592999D01*
X48916386Y4592662D01*
X48820794Y4582743D01*
X48807400Y4579851D01*
X48653216Y4528412D01*
X48640038Y4522239D01*
X48502193Y4436937D01*
X48490792Y4427901D01*
X48376261Y4313171D01*
X48367249Y4301760D01*
X48282184Y4163757D01*
X48276037Y4150576D01*
X48224862Y3996290D01*
X48221995Y3982914D01*
X48212328Y3888562D01*
X48212000Y3882146D01*
X48212000Y3432115D01*
X36124185Y3432115D01*
X36121876Y3459324D01*
X36120085Y3469798D01*
X36064870Y3682535D01*
X36061335Y3692575D01*
X35971063Y3892970D01*
X35965894Y3902256D01*
X35843150Y4084575D01*
X35836481Y4092870D01*
X35684772Y4251900D01*
X35676814Y4258941D01*
X35500475Y4390141D01*
X35491438Y4395745D01*
X35295516Y4495357D01*
X35285665Y4499357D01*
X35075760Y4564534D01*
X35065376Y4566817D01*
X35049957Y4568861D01*
X35035793Y4566665D01*
X35032000Y4553478D01*
X35032000Y3432115D01*
X34524000Y3432115D01*
X34524000Y4551192D01*
X34520027Y4564723D01*
X34509420Y4566248D01*
X34391579Y4541523D01*
X34381383Y4538463D01*
X34176971Y4457737D01*
X34167439Y4453006D01*
X33979538Y4338984D01*
X33970948Y4332720D01*
X33821047Y4202643D01*
X33756487Y4173104D01*
X33686206Y4183158D01*
X33632518Y4229613D01*
X33625607Y4241785D01*
X33619769Y4253545D01*
X33598731Y4295926D01*
X33482940Y4439940D01*
X33338926Y4555731D01*
X33256167Y4596813D01*
X33179519Y4634862D01*
X33179515Y4634864D01*
X33173408Y4637895D01*
X33121461Y4650847D01*
X32999503Y4681255D01*
X32999499Y4681256D01*
X32994107Y4682600D01*
X32977294Y4683746D01*
X32953714Y4685354D01*
X32953701Y4685354D01*
X32951566Y4685500D01*
X31604434Y4685500D01*
X31602299Y4685354D01*
X31602286Y4685354D01*
X31578706Y4683746D01*
X31561893Y4682600D01*
X31556501Y4681256D01*
X31556497Y4681255D01*
X31434539Y4650847D01*
X31382592Y4637895D01*
X31376485Y4634864D01*
X31376481Y4634862D01*
X31299833Y4596813D01*
X31217074Y4555731D01*
X31073060Y4439940D01*
X30957269Y4295926D01*
X30916187Y4213167D01*
X30878138Y4136519D01*
X30878136Y4136515D01*
X30875105Y4130408D01*
X30830400Y3951107D01*
X30827500Y3908566D01*
X30827500Y2411434D01*
X30830400Y2368893D01*
X30831744Y2363501D01*
X30831745Y2363497D01*
X30841992Y2322400D01*
X30875105Y2189592D01*
X30878136Y2183485D01*
X30878138Y2183481D01*
X30926020Y2087024D01*
X30938392Y2017114D01*
X30911005Y1951612D01*
X30852552Y1911316D01*
X30813160Y1905000D01*
X5619284Y1905000D01*
X5551163Y1925002D01*
X5504670Y1978658D01*
X5494566Y2048932D01*
X5512897Y2098512D01*
X5651635Y2317129D01*
X5653319Y2320708D01*
X5653323Y2320715D01*
X5781233Y2592537D01*
X5781235Y2592541D01*
X5782922Y2596127D01*
X5799343Y2646664D01*
X5876979Y2885605D01*
X5878206Y2889381D01*
X5935984Y3192264D01*
X5955345Y3500000D01*
X5935984Y3807736D01*
X5878206Y4110619D01*
X5782922Y4403873D01*
X5781233Y4407463D01*
X5653323Y4679285D01*
X5653319Y4679292D01*
X5651635Y4682871D01*
X5593888Y4773867D01*
X5488542Y4939867D01*
X5488537Y4939874D01*
X5486416Y4943216D01*
X5289869Y5180799D01*
X5065096Y5391876D01*
X4815640Y5573116D01*
X4545435Y5721663D01*
X4287615Y5823741D01*
X4262426Y5833714D01*
X4262423Y5833715D01*
X4258743Y5835172D01*
X4254909Y5836156D01*
X4254901Y5836159D01*
X4070393Y5883532D01*
X3960086Y5911854D01*
X3956158Y5912350D01*
X3956154Y5912351D01*
X3835220Y5927628D01*
X3654172Y5950500D01*
X3345828Y5950500D01*
X3164780Y5927628D01*
X3043846Y5912351D01*
X3043842Y5912350D01*
X3039914Y5911854D01*
X2929607Y5883532D01*
X2745099Y5836159D01*
X2745091Y5836156D01*
X2741257Y5835172D01*
X2737571Y5833713D01*
X2737566Y5833711D01*
X2712385Y5823741D01*
X2641685Y5817260D01*
X2578704Y5850032D01*
X2543440Y5911652D01*
X2540000Y5940892D01*
X2540000Y6253565D01*
X11569500Y6253565D01*
X11569501Y3906436D01*
X11572400Y3863894D01*
X11617105Y3684593D01*
X11620137Y3678486D01*
X11620138Y3678482D01*
X11642583Y3633267D01*
X11699269Y3519074D01*
X11815060Y3375060D01*
X11959074Y3259269D01*
X12025994Y3226050D01*
X12118482Y3180138D01*
X12118486Y3180137D01*
X12124593Y3177105D01*
X12131215Y3175454D01*
X12298498Y3133745D01*
X12298502Y3133744D01*
X12303894Y3132400D01*
X12320707Y3131254D01*
X12344287Y3129646D01*
X12344300Y3129646D01*
X12346435Y3129500D01*
X13818972Y3129500D01*
X15293564Y3129501D01*
X15316943Y3131094D01*
X15330561Y3132022D01*
X15330563Y3132022D01*
X15336106Y3132400D01*
X15341494Y3133743D01*
X15341498Y3133744D01*
X15508785Y3175454D01*
X15515407Y3177105D01*
X15521514Y3180137D01*
X15521518Y3180138D01*
X15614006Y3226050D01*
X15680926Y3259269D01*
X15824940Y3375060D01*
X15940731Y3519074D01*
X15997417Y3633267D01*
X16019862Y3678482D01*
X16019863Y3678486D01*
X16022895Y3684593D01*
X16067600Y3863894D01*
X16069582Y3892970D01*
X16070354Y3904287D01*
X16070354Y3904300D01*
X16070500Y3906435D01*
X16070500Y4809488D01*
X17179286Y4809488D01*
X17182685Y4773867D01*
X17184205Y4764875D01*
X17246122Y4511842D01*
X17248922Y4503173D01*
X17346722Y4261718D01*
X17350744Y4253545D01*
X17482368Y4028747D01*
X17487531Y4021235D01*
X17650231Y3817787D01*
X17656420Y3811104D01*
X17846794Y3633267D01*
X17853871Y3627557D01*
X18067918Y3479066D01*
X18075759Y3474429D01*
X18308997Y3358396D01*
X18317422Y3354940D01*
X18564974Y3273788D01*
X18573799Y3271588D01*
X18831189Y3226897D01*
X18838807Y3226050D01*
X18918592Y3222078D01*
X18921733Y3222000D01*
X19047885Y3222000D01*
X19063124Y3226475D01*
X19064329Y3227865D01*
X19066000Y3235548D01*
X19066000Y3240115D01*
X19574000Y3240115D01*
X19578475Y3224876D01*
X19579865Y3223671D01*
X19587548Y3222000D01*
X19686206Y3222000D01*
X19690777Y3222165D01*
X19884380Y3236213D01*
X19893389Y3237527D01*
X20147769Y3293689D01*
X20156499Y3296292D01*
X20400107Y3388586D01*
X20408368Y3392421D01*
X20636101Y3518915D01*
X20643726Y3523905D01*
X20850809Y3681946D01*
X20857636Y3687986D01*
X21039735Y3874264D01*
X21045618Y3881226D01*
X21198922Y4091843D01*
X21203733Y4099573D01*
X21325031Y4330122D01*
X21328678Y4338472D01*
X21415419Y4584099D01*
X21417825Y4592894D01*
X21460267Y4808225D01*
X21459088Y4821137D01*
X21443985Y4826000D01*
X19592115Y4826000D01*
X19576876Y4821525D01*
X19575671Y4820135D01*
X19574000Y4812452D01*
X19574000Y3240115D01*
X19066000Y3240115D01*
X19066000Y4807885D01*
X19061525Y4823124D01*
X19060135Y4824329D01*
X19052452Y4826000D01*
X17195826Y4826000D01*
X17181349Y4821749D01*
X17179286Y4809488D01*
X16070500Y4809488D01*
X16070500Y5351775D01*
X17179733Y5351775D01*
X17180912Y5338863D01*
X17196015Y5334000D01*
X19047885Y5334000D01*
X19063124Y5338475D01*
X19064329Y5339865D01*
X19066000Y5347548D01*
X19066000Y5352115D01*
X19574000Y5352115D01*
X19578475Y5336876D01*
X19579865Y5335671D01*
X19587548Y5334000D01*
X21444174Y5334000D01*
X21458651Y5338251D01*
X21460714Y5350512D01*
X21457315Y5386133D01*
X21455795Y5395125D01*
X21393878Y5648158D01*
X21391078Y5656827D01*
X21293278Y5898282D01*
X21289256Y5906455D01*
X21157632Y6131253D01*
X21152469Y6138765D01*
X20989769Y6342213D01*
X20983580Y6348896D01*
X20793206Y6526733D01*
X20786129Y6532443D01*
X20572082Y6680934D01*
X20564241Y6685571D01*
X20331003Y6801604D01*
X20322578Y6805060D01*
X20075026Y6886212D01*
X20066201Y6888412D01*
X19808811Y6933103D01*
X19801193Y6933950D01*
X19721408Y6937922D01*
X19718267Y6938000D01*
X19592115Y6938000D01*
X19576876Y6933525D01*
X19575671Y6932135D01*
X19574000Y6924452D01*
X19574000Y5352115D01*
X19066000Y5352115D01*
X19066000Y6919885D01*
X19061525Y6935124D01*
X19060135Y6936329D01*
X19052452Y6938000D01*
X18953794Y6938000D01*
X18949223Y6937835D01*
X18755620Y6923787D01*
X18746611Y6922473D01*
X18492231Y6866311D01*
X18483501Y6863708D01*
X18239893Y6771414D01*
X18231632Y6767579D01*
X18003899Y6641085D01*
X17996274Y6636095D01*
X17789191Y6478054D01*
X17782364Y6472014D01*
X17600265Y6285736D01*
X17594382Y6278774D01*
X17441078Y6068157D01*
X17436267Y6060427D01*
X17314969Y5829878D01*
X17311322Y5821528D01*
X17224581Y5575901D01*
X17222175Y5567106D01*
X17179733Y5351775D01*
X16070500Y5351775D01*
X16070499Y6253564D01*
X16067600Y6296106D01*
X16022895Y6475407D01*
X16019863Y6481514D01*
X16019862Y6481518D01*
X15981813Y6558166D01*
X15940731Y6640926D01*
X15824940Y6784940D01*
X15680926Y6900731D01*
X15598167Y6941813D01*
X15521518Y6979862D01*
X15521514Y6979863D01*
X15515407Y6982895D01*
X15486396Y6990128D01*
X15341502Y7026255D01*
X15341498Y7026256D01*
X15336106Y7027600D01*
X15319293Y7028746D01*
X15295713Y7030354D01*
X15295700Y7030354D01*
X15293565Y7030500D01*
X13821028Y7030500D01*
X12346436Y7030499D01*
X12323057Y7028906D01*
X12309439Y7027978D01*
X12309437Y7027978D01*
X12303894Y7027600D01*
X12298506Y7026257D01*
X12298502Y7026256D01*
X12153469Y6990095D01*
X12124593Y6982895D01*
X12118486Y6979863D01*
X12118482Y6979862D01*
X12041833Y6941813D01*
X11959074Y6900731D01*
X11815060Y6784940D01*
X11699269Y6640926D01*
X11658187Y6558166D01*
X11620138Y6481518D01*
X11620137Y6481514D01*
X11617105Y6475407D01*
X11572400Y6296106D01*
X11572022Y6290561D01*
X11572022Y6290558D01*
X11569647Y6255718D01*
X11569500Y6253565D01*
X2540000Y6253565D01*
X2540000Y8174037D01*
X77944757Y8174037D01*
X77961175Y7978517D01*
X78015258Y7789909D01*
X78018076Y7784426D01*
X78102123Y7620887D01*
X78102126Y7620883D01*
X78104944Y7615399D01*
X78226818Y7461631D01*
X78376238Y7334465D01*
X78381616Y7331459D01*
X78381618Y7331458D01*
X78417932Y7311163D01*
X78547513Y7238743D01*
X78734118Y7178111D01*
X78928946Y7154879D01*
X78935081Y7155351D01*
X78935083Y7155351D01*
X79118434Y7169459D01*
X79118438Y7169460D01*
X79124576Y7169932D01*
X79313556Y7222697D01*
X79488689Y7311163D01*
X79518515Y7334465D01*
X79638453Y7428171D01*
X79643303Y7431960D01*
X79673084Y7466461D01*
X79767485Y7575827D01*
X79767485Y7575828D01*
X79771509Y7580489D01*
X79868425Y7751091D01*
X79930358Y7937268D01*
X79954949Y8131929D01*
X79955341Y8160000D01*
X79936194Y8355272D01*
X79934413Y8361171D01*
X79934412Y8361176D01*
X79881265Y8537207D01*
X79879484Y8543106D01*
X79787370Y8716347D01*
X79663361Y8868398D01*
X79512180Y8993465D01*
X79339585Y9086787D01*
X79245868Y9115797D01*
X79158039Y9142985D01*
X79158036Y9142986D01*
X79152152Y9144807D01*
X79146027Y9145451D01*
X79146026Y9145451D01*
X78963147Y9164673D01*
X78963146Y9164673D01*
X78957019Y9165317D01*
X78834383Y9154156D01*
X78767759Y9148093D01*
X78767758Y9148093D01*
X78761618Y9147534D01*
X78755704Y9145793D01*
X78755702Y9145793D01*
X78626734Y9107835D01*
X78573393Y9092136D01*
X78567928Y9089279D01*
X78404972Y9004088D01*
X78404968Y9004085D01*
X78399512Y9001233D01*
X78394712Y8997373D01*
X78394711Y8997373D01*
X78360326Y8969727D01*
X78246600Y8878289D01*
X78120480Y8727984D01*
X78117516Y8722592D01*
X78117513Y8722588D01*
X78038813Y8579433D01*
X78025956Y8556046D01*
X77966628Y8369022D01*
X77944757Y8174037D01*
X2540000Y8174037D01*
X2540000Y11411434D01*
X2934500Y11411434D01*
X2934646Y11409299D01*
X2934646Y11409286D01*
X2936254Y11385706D01*
X2937400Y11368893D01*
X2938744Y11363501D01*
X2938745Y11363497D01*
X2967183Y11249442D01*
X2982105Y11189592D01*
X2985136Y11183485D01*
X2985138Y11183481D01*
X3023187Y11106833D01*
X3064269Y11024074D01*
X3180060Y10880060D01*
X3324074Y10764269D01*
X3406833Y10723187D01*
X3483481Y10685138D01*
X3483485Y10685136D01*
X3489592Y10682105D01*
X3496214Y10680454D01*
X3663497Y10638745D01*
X3663501Y10638744D01*
X3668893Y10637400D01*
X3685706Y10636254D01*
X3709286Y10634646D01*
X3709299Y10634646D01*
X3711434Y10634500D01*
X5208566Y10634500D01*
X5210701Y10634646D01*
X5210714Y10634646D01*
X5234294Y10636254D01*
X5251107Y10637400D01*
X5256499Y10638744D01*
X5256503Y10638745D01*
X5423786Y10680454D01*
X5430408Y10682105D01*
X5436515Y10685136D01*
X5436519Y10685138D01*
X5513167Y10723187D01*
X5595926Y10764269D01*
X5739940Y10880060D01*
X5855731Y11024074D01*
X5925451Y11164524D01*
X5973656Y11216647D01*
X6038311Y11234500D01*
X11893938Y11234500D01*
X11904479Y11234058D01*
X11955902Y11229740D01*
X11962662Y11230642D01*
X11962666Y11230642D01*
X12035659Y11240381D01*
X12038713Y11240751D01*
X12111928Y11248705D01*
X12111931Y11248706D01*
X12118709Y11249442D01*
X12125169Y11251616D01*
X12128217Y11252286D01*
X12128678Y11252367D01*
X12128829Y11252403D01*
X12129288Y11252536D01*
X12132307Y11253278D01*
X12139069Y11254180D01*
X12145479Y11256513D01*
X12145483Y11256514D01*
X12214671Y11281697D01*
X12217577Y11282715D01*
X12287377Y11306205D01*
X12287379Y11306206D01*
X12293848Y11308383D01*
X12299702Y11311900D01*
X12302514Y11313200D01*
X12302957Y11313382D01*
X12303116Y11313458D01*
X12303534Y11313686D01*
X12306303Y11315049D01*
X12312715Y11317382D01*
X12318473Y11321036D01*
X12318479Y11321039D01*
X12380644Y11360490D01*
X12383263Y11362108D01*
X12446393Y11400041D01*
X12446395Y11400042D01*
X12452244Y11403557D01*
X12457203Y11408246D01*
X12459682Y11410128D01*
X12460459Y11410668D01*
X12464369Y11413625D01*
X12468738Y11416398D01*
X12472972Y11420183D01*
X12526478Y11473689D01*
X12529000Y11476142D01*
X12581549Y11525835D01*
X12581551Y11525837D01*
X12586507Y11530524D01*
X12590341Y11536166D01*
X12594767Y11541366D01*
X12595171Y11541022D01*
X12601707Y11548918D01*
X13035384Y11982595D01*
X13097696Y12016621D01*
X13124479Y12019500D01*
X15205599Y12019501D01*
X15293564Y12019501D01*
X15316943Y12021094D01*
X15330561Y12022022D01*
X15330563Y12022022D01*
X15336106Y12022400D01*
X15341494Y12023743D01*
X15341498Y12023744D01*
X15508785Y12065454D01*
X15515407Y12067105D01*
X15521514Y12070137D01*
X15521518Y12070138D01*
X15636736Y12127333D01*
X15680926Y12149269D01*
X15824940Y12265060D01*
X15940731Y12409074D01*
X16000138Y12528749D01*
X16019862Y12568482D01*
X16019863Y12568486D01*
X16022895Y12574593D01*
X16030128Y12603604D01*
X16066255Y12748498D01*
X16066256Y12748502D01*
X16067600Y12753894D01*
X16070500Y12796435D01*
X16070499Y14000715D01*
X17064759Y14000715D01*
X17065003Y13996280D01*
X17065003Y13996276D01*
X17065681Y13983971D01*
X17079938Y13724913D01*
X17133825Y13454001D01*
X17225347Y13193384D01*
X17352678Y12948263D01*
X17355261Y12944648D01*
X17355265Y12944642D01*
X17510091Y12727984D01*
X17513275Y12723529D01*
X17608606Y12623597D01*
X17691018Y12537207D01*
X17703936Y12523665D01*
X17707431Y12520909D01*
X17707433Y12520908D01*
X17907862Y12362903D01*
X17920856Y12352659D01*
X18159707Y12213923D01*
X18163265Y12212482D01*
X18180908Y12201924D01*
X18210543Y12180629D01*
X18463653Y12046614D01*
X18528130Y12023019D01*
X18665915Y11972597D01*
X18732610Y11948190D01*
X19012436Y11887178D01*
X19040847Y11884942D01*
X19234597Y11869693D01*
X19234604Y11869693D01*
X19237053Y11869500D01*
X71759174Y11869500D01*
X71773001Y11868739D01*
X71789576Y11866909D01*
X71789577Y11866909D01*
X71793834Y11866439D01*
X71798114Y11866551D01*
X71798115Y11866551D01*
X71909104Y11869457D01*
X71912402Y11869500D01*
X71953992Y11869500D01*
X71956131Y11869646D01*
X71956137Y11869646D01*
X71965432Y11870280D01*
X71978325Y11871159D01*
X71983573Y11871407D01*
X72080136Y11873935D01*
X72084373Y11874629D01*
X72084375Y11874629D01*
X72117849Y11880110D01*
X72129637Y11881474D01*
X72163459Y11883780D01*
X72163463Y11883781D01*
X72167737Y11884072D01*
X72217060Y11894286D01*
X72262268Y11903648D01*
X72267456Y11904610D01*
X72358546Y11919527D01*
X72358545Y11919527D01*
X72362772Y11920219D01*
X72366861Y11921477D01*
X72366874Y11921480D01*
X72399292Y11931454D01*
X72410771Y11934402D01*
X72448186Y11942150D01*
X72539215Y11974385D01*
X72544202Y11976034D01*
X72636511Y12004432D01*
X72671177Y12020524D01*
X72682146Y12025000D01*
X72718158Y12037752D01*
X72803980Y12082048D01*
X72808668Y12084345D01*
X72896288Y12125017D01*
X72928441Y12145659D01*
X72938706Y12151585D01*
X72968846Y12167141D01*
X72968851Y12167144D01*
X72972658Y12169109D01*
X72976159Y12171569D01*
X72976173Y12171578D01*
X72979672Y12174037D01*
X77944757Y12174037D01*
X77961175Y11978517D01*
X78015258Y11789909D01*
X78018076Y11784426D01*
X78102123Y11620887D01*
X78102126Y11620883D01*
X78104944Y11615399D01*
X78226818Y11461631D01*
X78231511Y11457637D01*
X78231512Y11457636D01*
X78345659Y11360490D01*
X78376238Y11334465D01*
X78381616Y11331459D01*
X78381618Y11331458D01*
X78461876Y11286604D01*
X78547513Y11238743D01*
X78734118Y11178111D01*
X78928946Y11154879D01*
X78935081Y11155351D01*
X78935083Y11155351D01*
X79118434Y11169459D01*
X79118438Y11169460D01*
X79124576Y11169932D01*
X79313556Y11222697D01*
X79488689Y11311163D01*
X79518515Y11334465D01*
X79602448Y11400041D01*
X79643303Y11431960D01*
X79673084Y11466461D01*
X79767485Y11575827D01*
X79767485Y11575828D01*
X79771509Y11580489D01*
X79868425Y11751091D01*
X79930358Y11937268D01*
X79954949Y12131929D01*
X79955155Y12146660D01*
X79955292Y12156477D01*
X79955292Y12156481D01*
X79955341Y12160000D01*
X79936194Y12355272D01*
X79934413Y12361171D01*
X79934412Y12361176D01*
X79881265Y12537207D01*
X79879484Y12543106D01*
X79787370Y12716347D01*
X79663361Y12868398D01*
X79512180Y12993465D01*
X79339585Y13086787D01*
X79245868Y13115797D01*
X79158039Y13142985D01*
X79158036Y13142986D01*
X79152152Y13144807D01*
X79146027Y13145451D01*
X79146026Y13145451D01*
X78963147Y13164673D01*
X78963146Y13164673D01*
X78957019Y13165317D01*
X78834383Y13154156D01*
X78767759Y13148093D01*
X78767758Y13148093D01*
X78761618Y13147534D01*
X78755704Y13145793D01*
X78755702Y13145793D01*
X78735391Y13139815D01*
X78573393Y13092136D01*
X78567928Y13089279D01*
X78404972Y13004088D01*
X78404968Y13004085D01*
X78399512Y13001233D01*
X78394712Y12997373D01*
X78394711Y12997373D01*
X78381211Y12986519D01*
X78246600Y12878289D01*
X78120480Y12727984D01*
X78117516Y12722592D01*
X78117513Y12722588D01*
X78039793Y12581215D01*
X78025956Y12556046D01*
X78024095Y12550179D01*
X78024094Y12550177D01*
X78016370Y12525828D01*
X77966628Y12369022D01*
X77944757Y12174037D01*
X72979672Y12174037D01*
X73051674Y12224642D01*
X73056005Y12227553D01*
X73137297Y12279742D01*
X73140552Y12282522D01*
X73140556Y12282525D01*
X73166346Y12304552D01*
X73175724Y12311826D01*
X73203459Y12331319D01*
X73203461Y12331321D01*
X73206976Y12333791D01*
X73223492Y12349138D01*
X73236446Y12361176D01*
X73277730Y12399540D01*
X73281604Y12402992D01*
X73308625Y12426070D01*
X73337784Y12455229D01*
X73341108Y12458434D01*
X73413633Y12525828D01*
X73413636Y12525831D01*
X73416776Y12528749D01*
X73432982Y12548548D01*
X73437484Y12554049D01*
X73445893Y12563338D01*
X80745152Y19862596D01*
X80807464Y19896622D01*
X80834247Y19899501D01*
X81183564Y19899501D01*
X81206943Y19901094D01*
X81220561Y19902022D01*
X81220563Y19902022D01*
X81226106Y19902400D01*
X81231494Y19903743D01*
X81231498Y19903744D01*
X81382221Y19941324D01*
X81405407Y19947105D01*
X81411514Y19950137D01*
X81411518Y19950138D01*
X81520215Y20004096D01*
X81570926Y20029269D01*
X81714940Y20145060D01*
X81830731Y20289074D01*
X81871813Y20371833D01*
X81909862Y20448482D01*
X81909863Y20448486D01*
X81912895Y20454593D01*
X81921771Y20490191D01*
X81956255Y20628498D01*
X81956256Y20628502D01*
X81957600Y20633894D01*
X81960500Y20676435D01*
X81960500Y21281875D01*
X81968292Y21322713D01*
X81967559Y21322947D01*
X81996916Y21414937D01*
X81998626Y21419932D01*
X82031810Y21510610D01*
X82032723Y21514796D01*
X82032725Y21514804D01*
X82039947Y21547931D01*
X82043017Y21559389D01*
X82054634Y21595790D01*
X82071235Y21690909D01*
X82072251Y21696088D01*
X82091909Y21786248D01*
X82091909Y21786250D01*
X82092822Y21790436D01*
X82095822Y21828544D01*
X82097304Y21840281D01*
X82103874Y21877925D01*
X82107412Y21974392D01*
X82107715Y21979658D01*
X82110306Y22012592D01*
X82110500Y22015053D01*
X82110500Y22056322D01*
X82110585Y22060939D01*
X82114212Y22159840D01*
X82114212Y22159846D01*
X82114369Y22164132D01*
X82111123Y22196653D01*
X82110500Y22209167D01*
X82110500Y22221992D01*
X82101237Y22357865D01*
X82096220Y22431460D01*
X82096219Y22431466D01*
X82095928Y22435737D01*
X82037850Y22716186D01*
X81967726Y22914210D01*
X81960499Y22956270D01*
X81960499Y23623564D01*
X81957600Y23666106D01*
X81956251Y23671519D01*
X81914546Y23838785D01*
X81912895Y23845407D01*
X81909863Y23851514D01*
X81909862Y23851518D01*
X81868486Y23934869D01*
X81830731Y24010926D01*
X81714940Y24154940D01*
X81570926Y24270731D01*
X81462782Y24324414D01*
X81411518Y24349862D01*
X81411514Y24349863D01*
X81405407Y24352895D01*
X81352489Y24366089D01*
X81231502Y24396255D01*
X81231498Y24396256D01*
X81226106Y24397600D01*
X81209293Y24398746D01*
X81185713Y24400354D01*
X81185700Y24400354D01*
X81183565Y24400500D01*
X80010819Y24400500D01*
X78836436Y24400499D01*
X78813057Y24398906D01*
X78799439Y24397978D01*
X78799437Y24397978D01*
X78793894Y24397600D01*
X78788506Y24396257D01*
X78788502Y24396256D01*
X78667511Y24366089D01*
X78614593Y24352895D01*
X78608486Y24349863D01*
X78608482Y24349862D01*
X78557218Y24324414D01*
X78449074Y24270731D01*
X78305060Y24154940D01*
X78189269Y24010926D01*
X78151514Y23934869D01*
X78110138Y23851518D01*
X78110137Y23851514D01*
X78107105Y23845407D01*
X78105454Y23838785D01*
X78063750Y23671519D01*
X78062400Y23666106D01*
X78062022Y23660561D01*
X78062022Y23660558D01*
X78059647Y23625718D01*
X78059500Y23623565D01*
X78059500Y23170245D01*
X78039498Y23102124D01*
X78022595Y23081150D01*
X73230204Y18288759D01*
X73167892Y18254733D01*
X73097077Y18259798D01*
X73040241Y18302345D01*
X73015430Y18368865D01*
X73015663Y18382829D01*
X73015632Y18382829D01*
X73015632Y18389435D01*
X73016322Y18396000D01*
X73003263Y18520249D01*
X72997775Y18572465D01*
X72997775Y18572466D01*
X72997085Y18579029D01*
X72978220Y18637091D01*
X72940214Y18754059D01*
X72942266Y18754726D01*
X72934167Y18815115D01*
X72940813Y18837746D01*
X72940214Y18837941D01*
X72995045Y19006692D01*
X72995045Y19006694D01*
X72997085Y19012971D01*
X73016322Y19196000D01*
X72997085Y19379029D01*
X72940214Y19554059D01*
X72926033Y19578622D01*
X72851496Y19707722D01*
X72848195Y19713440D01*
X72730878Y19843735D01*
X72729472Y19845296D01*
X72729471Y19845297D01*
X72725050Y19850207D01*
X72719708Y19854088D01*
X72719706Y19854090D01*
X72581503Y19954500D01*
X72581502Y19954501D01*
X72576161Y19958381D01*
X72570133Y19961065D01*
X72570131Y19961066D01*
X72414065Y20030551D01*
X72414064Y20030551D01*
X72408034Y20033236D01*
X72318027Y20052368D01*
X72234476Y20070128D01*
X72234471Y20070128D01*
X72228019Y20071500D01*
X72043981Y20071500D01*
X72037529Y20070128D01*
X72037524Y20070128D01*
X71953973Y20052368D01*
X71863966Y20033236D01*
X71857936Y20030551D01*
X71857935Y20030551D01*
X71701869Y19961066D01*
X71701867Y19961065D01*
X71695839Y19958381D01*
X71690498Y19954501D01*
X71690497Y19954500D01*
X71552294Y19854090D01*
X71552292Y19854088D01*
X71546950Y19850207D01*
X71468599Y19763189D01*
X71408156Y19725951D01*
X71374965Y19721501D01*
X62792545Y19721501D01*
X62724424Y19741503D01*
X62703450Y19758406D01*
X62660618Y19801238D01*
X62626592Y19863550D01*
X62624403Y19903503D01*
X62630475Y19961278D01*
X62631165Y19967843D01*
X62625555Y20021216D01*
X62612618Y20144308D01*
X62612618Y20144309D01*
X62611928Y20150872D01*
X62555057Y20325902D01*
X62463038Y20485283D01*
X62339893Y20622050D01*
X62334551Y20625931D01*
X62334549Y20625933D01*
X62196346Y20726343D01*
X62196345Y20726344D01*
X62191004Y20730224D01*
X62184976Y20732908D01*
X62184974Y20732909D01*
X62028908Y20802394D01*
X62028907Y20802394D01*
X62022877Y20805079D01*
X61932870Y20824211D01*
X61849319Y20841971D01*
X61849314Y20841971D01*
X61842862Y20843343D01*
X61658824Y20843343D01*
X61652372Y20841971D01*
X61652367Y20841971D01*
X61568816Y20824211D01*
X61478809Y20805079D01*
X61472779Y20802394D01*
X61472778Y20802394D01*
X61316712Y20732909D01*
X61316710Y20732908D01*
X61310682Y20730224D01*
X61305341Y20726344D01*
X61305340Y20726343D01*
X61167137Y20625933D01*
X61167135Y20625931D01*
X61161793Y20622050D01*
X61038648Y20485283D01*
X60946629Y20325902D01*
X60944587Y20319617D01*
X60936769Y20295556D01*
X60896696Y20236950D01*
X60868187Y20219386D01*
X60861242Y20216294D01*
X60751026Y20167223D01*
X60751024Y20167222D01*
X60744996Y20164538D01*
X60739655Y20160658D01*
X60739654Y20160657D01*
X60601451Y20060247D01*
X60601449Y20060245D01*
X60596107Y20056364D01*
X60591686Y20051454D01*
X60591685Y20051453D01*
X60484718Y19932653D01*
X60472962Y19919597D01*
X60380943Y19760216D01*
X60324072Y19585186D01*
X60323382Y19578623D01*
X60323382Y19578622D01*
X60319095Y19537829D01*
X60304835Y19402157D01*
X60324072Y19219128D01*
X60326112Y19212851D01*
X60326112Y19212849D01*
X60339459Y19171771D01*
X60380943Y19044098D01*
X60384246Y19038376D01*
X60384247Y19038375D01*
X60398914Y19012971D01*
X60472962Y18884717D01*
X60477380Y18879810D01*
X60477381Y18879809D01*
X60552843Y18796000D01*
X60596107Y18747950D01*
X60601449Y18744069D01*
X60601451Y18744067D01*
X60654529Y18705504D01*
X60744996Y18639776D01*
X60751024Y18637092D01*
X60751026Y18637091D01*
X60907092Y18567606D01*
X60913123Y18564921D01*
X61003130Y18545789D01*
X61086681Y18528029D01*
X61086686Y18528029D01*
X61093138Y18526657D01*
X61265297Y18526657D01*
X61333418Y18506655D01*
X61354392Y18489752D01*
X61748226Y18095918D01*
X61754079Y18089652D01*
X61791633Y18046603D01*
X61843275Y18010309D01*
X61848560Y18006383D01*
X61892278Y17972104D01*
X61892282Y17972102D01*
X61898259Y17967415D01*
X61905182Y17964289D01*
X61908130Y17962504D01*
X61921090Y17955112D01*
X61924136Y17953479D01*
X61930349Y17949112D01*
X61940229Y17945260D01*
X61989168Y17926179D01*
X61995247Y17923624D01*
X62052786Y17897644D01*
X62060257Y17896259D01*
X62063525Y17895235D01*
X62077966Y17891122D01*
X62081239Y17890282D01*
X62088315Y17887523D01*
X62132985Y17881643D01*
X62150908Y17879283D01*
X62157425Y17878251D01*
X62198837Y17870576D01*
X62219494Y17866747D01*
X62227074Y17867184D01*
X62227075Y17867184D01*
X62280946Y17870290D01*
X62288198Y17870499D01*
X71374965Y17870499D01*
X71443086Y17850497D01*
X71468597Y17828814D01*
X71546950Y17741793D01*
X71552292Y17737912D01*
X71552294Y17737910D01*
X71690497Y17637500D01*
X71695839Y17633619D01*
X71701867Y17630935D01*
X71701869Y17630934D01*
X71857935Y17561449D01*
X71863966Y17558764D01*
X71953974Y17539632D01*
X72037524Y17521872D01*
X72037529Y17521872D01*
X72043981Y17520500D01*
X72157754Y17520500D01*
X72225875Y17500498D01*
X72272368Y17446842D01*
X72282472Y17376568D01*
X72252978Y17311988D01*
X72246849Y17305405D01*
X71048849Y16107405D01*
X70986537Y16073379D01*
X70959754Y16070500D01*
X19248008Y16070500D01*
X19245872Y16070354D01*
X19245861Y16070354D01*
X19038540Y16056220D01*
X19038534Y16056219D01*
X19034263Y16055928D01*
X19030068Y16055059D01*
X19030066Y16055059D01*
X18894039Y16026889D01*
X18753814Y15997850D01*
X18483842Y15902248D01*
X18424986Y15871870D01*
X18243238Y15778063D01*
X18229342Y15770891D01*
X18225833Y15768425D01*
X18225830Y15768423D01*
X18167566Y15727475D01*
X18154948Y15719674D01*
X18079965Y15679215D01*
X17972200Y15621068D01*
X17750016Y15456960D01*
X17553171Y15263183D01*
X17385594Y15043604D01*
X17383416Y15039715D01*
X17271946Y14840671D01*
X17250627Y14802604D01*
X17150964Y14544991D01*
X17088593Y14275905D01*
X17064759Y14000715D01*
X16070499Y14000715D01*
X16070499Y15143564D01*
X16067600Y15186106D01*
X16048383Y15263183D01*
X16024546Y15358785D01*
X16022895Y15365407D01*
X16019863Y15371514D01*
X16019862Y15371518D01*
X15976131Y15459613D01*
X15940731Y15530926D01*
X15824940Y15674940D01*
X15680926Y15790731D01*
X15598167Y15831813D01*
X15521518Y15869862D01*
X15521514Y15869863D01*
X15515407Y15872895D01*
X15486396Y15880128D01*
X15341502Y15916255D01*
X15341498Y15916256D01*
X15336106Y15917600D01*
X15319293Y15918746D01*
X15295713Y15920354D01*
X15295700Y15920354D01*
X15293565Y15920500D01*
X13821028Y15920500D01*
X12346436Y15920499D01*
X12323057Y15918906D01*
X12309439Y15917978D01*
X12309437Y15917978D01*
X12303894Y15917600D01*
X12298506Y15916257D01*
X12298502Y15916256D01*
X12153469Y15880095D01*
X12124593Y15872895D01*
X12118486Y15869863D01*
X12118482Y15869862D01*
X12041833Y15831813D01*
X11959074Y15790731D01*
X11815060Y15674940D01*
X11699269Y15530926D01*
X11663869Y15459613D01*
X11620138Y15371518D01*
X11620137Y15371514D01*
X11617105Y15365407D01*
X11615454Y15358785D01*
X11591618Y15263183D01*
X11572400Y15186106D01*
X11572022Y15180561D01*
X11572022Y15180558D01*
X11569647Y15145718D01*
X11569500Y15143565D01*
X11569501Y14067484D01*
X11569501Y13061500D01*
X11549499Y12993379D01*
X11495843Y12946886D01*
X11443501Y12935500D01*
X6038311Y12935500D01*
X5970190Y12955502D01*
X5925451Y13005476D01*
X5855731Y13145926D01*
X5739940Y13289940D01*
X5595926Y13405731D01*
X5540117Y13433435D01*
X5487994Y13481641D01*
X5470207Y13550373D01*
X5492403Y13617811D01*
X5509169Y13637464D01*
X5551900Y13678228D01*
X5558941Y13686186D01*
X5690141Y13862525D01*
X5695745Y13871562D01*
X5795357Y14067484D01*
X5799357Y14077335D01*
X5864534Y14287240D01*
X5866817Y14297624D01*
X5868861Y14313043D01*
X5866665Y14327207D01*
X5853478Y14331000D01*
X3068808Y14331000D01*
X3055277Y14327027D01*
X3053752Y14316420D01*
X3078477Y14198579D01*
X3081537Y14188383D01*
X3162263Y13983971D01*
X3166994Y13974439D01*
X3281016Y13786538D01*
X3287280Y13777948D01*
X3417357Y13628047D01*
X3446896Y13563487D01*
X3436842Y13493206D01*
X3390387Y13439518D01*
X3378215Y13432607D01*
X3324074Y13405731D01*
X3180060Y13289940D01*
X3064269Y13145926D01*
X3036149Y13089279D01*
X2985138Y12986519D01*
X2985136Y12986515D01*
X2982105Y12980408D01*
X2980454Y12973786D01*
X2954178Y12868398D01*
X2937400Y12801107D01*
X2934500Y12758566D01*
X2934500Y11411434D01*
X2540000Y11411434D01*
X2540000Y14856957D01*
X3051139Y14856957D01*
X3053335Y14842793D01*
X3066522Y14839000D01*
X4187885Y14839000D01*
X4203124Y14843475D01*
X4204329Y14844865D01*
X4206000Y14852548D01*
X4206000Y14857115D01*
X4714000Y14857115D01*
X4718475Y14841876D01*
X4719865Y14840671D01*
X4727548Y14839000D01*
X5851192Y14839000D01*
X5864723Y14842973D01*
X5866248Y14853580D01*
X5841523Y14971421D01*
X5838463Y14981617D01*
X5757737Y15186029D01*
X5753006Y15195561D01*
X5638984Y15383462D01*
X5632720Y15392052D01*
X5488673Y15558052D01*
X5481042Y15565472D01*
X5311089Y15704826D01*
X5302322Y15710850D01*
X5111318Y15819576D01*
X5101654Y15824041D01*
X4895059Y15899031D01*
X4884792Y15901802D01*
X4731826Y15929463D01*
X4718587Y15928045D01*
X4714000Y15913406D01*
X4714000Y14857115D01*
X4206000Y14857115D01*
X4206000Y15914607D01*
X4201690Y15929285D01*
X4189807Y15931348D01*
X4160676Y15928876D01*
X4150202Y15927085D01*
X3937465Y15871870D01*
X3927425Y15868335D01*
X3727030Y15778063D01*
X3717744Y15772894D01*
X3535425Y15650150D01*
X3527130Y15643481D01*
X3368100Y15491772D01*
X3361059Y15483814D01*
X3229859Y15307475D01*
X3224255Y15298438D01*
X3124643Y15102516D01*
X3120643Y15092665D01*
X3055466Y14882760D01*
X3053183Y14872376D01*
X3051139Y14856957D01*
X2540000Y14856957D01*
X2540000Y24915710D01*
X2560002Y24983831D01*
X2613658Y25030324D01*
X2683932Y25040428D01*
X2738270Y25018923D01*
X2873656Y24924125D01*
X2873662Y24924122D01*
X2878170Y24920965D01*
X2883152Y24918642D01*
X2883157Y24918639D01*
X3073905Y24829692D01*
X3092337Y24821097D01*
X3097645Y24819675D01*
X3097647Y24819674D01*
X3315277Y24761361D01*
X3320592Y24759937D01*
X3556000Y24739341D01*
X3791408Y24759937D01*
X3796723Y24761361D01*
X4014353Y24819674D01*
X4014355Y24819675D01*
X4019663Y24821097D01*
X4038095Y24829692D01*
X4228843Y24918639D01*
X4228848Y24918642D01*
X4233830Y24920965D01*
X4364463Y25012435D01*
X4422890Y25053346D01*
X4422893Y25053348D01*
X4427401Y25056505D01*
X4594495Y25223599D01*
X4730035Y25417171D01*
X4773748Y25510912D01*
X4827580Y25626355D01*
X4827581Y25626357D01*
X4829903Y25631337D01*
X4832579Y25641322D01*
X4889639Y25854277D01*
X4889639Y25854278D01*
X4891063Y25859592D01*
X4911659Y26095000D01*
X4891063Y26330408D01*
X4865600Y26425440D01*
X4831326Y26553353D01*
X4831325Y26553355D01*
X4829903Y26558663D01*
X4818885Y26582292D01*
X4732358Y26767848D01*
X4732356Y26767851D01*
X4730035Y26772829D01*
X4594495Y26966401D01*
X4427401Y27133495D01*
X4422893Y27136652D01*
X4422890Y27136654D01*
X4272744Y27241787D01*
X4228416Y27297244D01*
X4221107Y27367863D01*
X4253138Y27431224D01*
X4272744Y27448213D01*
X4282566Y27455090D01*
X4323612Y27483831D01*
X4422890Y27553346D01*
X4422893Y27553348D01*
X4427401Y27556505D01*
X4594495Y27723599D01*
X4730035Y27917171D01*
X4735401Y27928677D01*
X4827580Y28126355D01*
X4827581Y28126357D01*
X4829903Y28131337D01*
X4836602Y28156336D01*
X4889639Y28354277D01*
X4889639Y28354278D01*
X4891063Y28359592D01*
X4911659Y28595000D01*
X4891063Y28830408D01*
X4889639Y28835723D01*
X4831326Y29053353D01*
X4831325Y29053355D01*
X4829903Y29058663D01*
X4825110Y29068941D01*
X4732358Y29267848D01*
X4732356Y29267851D01*
X4730035Y29272829D01*
X4690973Y29328615D01*
X22639000Y29328615D01*
X22643475Y29313376D01*
X22644865Y29312171D01*
X22652548Y29310500D01*
X23349885Y29310500D01*
X23365124Y29314975D01*
X23366329Y29316365D01*
X23368000Y29324048D01*
X23368000Y30083885D01*
X23363525Y30099124D01*
X23362135Y30100329D01*
X23354452Y30102000D01*
X23338234Y30102000D01*
X23331718Y30101663D01*
X23237868Y30091925D01*
X23224472Y30089032D01*
X23073047Y30038512D01*
X23059885Y30032347D01*
X22924508Y29948574D01*
X22913110Y29939540D01*
X22800637Y29826871D01*
X22791625Y29815460D01*
X22708088Y29679937D01*
X22701944Y29666759D01*
X22651685Y29515234D01*
X22648819Y29501868D01*
X22639328Y29409230D01*
X22639000Y29402815D01*
X22639000Y29328615D01*
X4690973Y29328615D01*
X4594495Y29466401D01*
X4427401Y29633495D01*
X4422893Y29636652D01*
X4422890Y29636654D01*
X4272744Y29741787D01*
X4228416Y29797244D01*
X4221107Y29867863D01*
X4253138Y29931224D01*
X4272744Y29948213D01*
X4422890Y30053346D01*
X4422893Y30053348D01*
X4427401Y30056505D01*
X4594495Y30223599D01*
X4730035Y30417171D01*
X4738288Y30434868D01*
X4827580Y30626355D01*
X4827581Y30626357D01*
X4829903Y30631337D01*
X4834971Y30650249D01*
X4889639Y30854277D01*
X4889639Y30854278D01*
X4891063Y30859592D01*
X4911659Y31095000D01*
X4891063Y31330408D01*
X4889639Y31335723D01*
X4831326Y31553353D01*
X4831325Y31553355D01*
X4829903Y31558663D01*
X4816736Y31586900D01*
X4732358Y31767848D01*
X4732356Y31767851D01*
X4730035Y31772829D01*
X4594495Y31966401D01*
X4427401Y32133495D01*
X4422893Y32136652D01*
X4422890Y32136654D01*
X4238339Y32265878D01*
X4238336Y32265880D01*
X4233830Y32269035D01*
X4228848Y32271358D01*
X4228843Y32271361D01*
X4204358Y32282778D01*
X4151073Y32329695D01*
X4131612Y32397973D01*
X4152154Y32465932D01*
X4188287Y32500116D01*
X4187403Y32501379D01*
X4233148Y32533410D01*
X4241523Y32543887D01*
X4234455Y32557333D01*
X3285884Y33505905D01*
X3251859Y33568217D01*
X3253694Y33593868D01*
X3920408Y33593868D01*
X3920539Y33592034D01*
X3924790Y33585420D01*
X4594391Y32915820D01*
X4606161Y32909393D01*
X4618176Y32918689D01*
X4646466Y32959093D01*
X4651946Y32968583D01*
X4740326Y33158113D01*
X4744072Y33168405D01*
X4772366Y33274000D01*
X28329678Y33274000D01*
X28330368Y33267435D01*
X28346105Y33117711D01*
X28348915Y33090971D01*
X28350955Y33084694D01*
X28350955Y33084692D01*
X28378298Y33000541D01*
X28405786Y32915941D01*
X28409089Y32910219D01*
X28409090Y32910218D01*
X28410777Y32907296D01*
X28497805Y32756560D01*
X28502223Y32751653D01*
X28502224Y32751652D01*
X28615375Y32625985D01*
X28620950Y32619793D01*
X28626292Y32615912D01*
X28626294Y32615910D01*
X28769839Y32511619D01*
X28768831Y32510231D01*
X28811952Y32464997D01*
X28825381Y32395282D01*
X28819546Y32367605D01*
X28801861Y32314285D01*
X28798995Y32300920D01*
X28789328Y32206562D01*
X28789000Y32200146D01*
X28789000Y31975115D01*
X28793475Y31959876D01*
X28794865Y31958671D01*
X28802548Y31957000D01*
X31136884Y31957000D01*
X31152123Y31961475D01*
X31164553Y31975820D01*
X31224279Y32014204D01*
X31272088Y32018540D01*
X31276981Y32017500D01*
X31461019Y32017500D01*
X31467471Y32018872D01*
X31467476Y32018872D01*
X31551026Y32036632D01*
X31641034Y32055764D01*
X31684174Y32074971D01*
X31786751Y32120641D01*
X31857118Y32130075D01*
X31921415Y32099968D01*
X31959229Y32039880D01*
X31964000Y32005534D01*
X31964000Y31975115D01*
X31968475Y31959876D01*
X31969865Y31958671D01*
X31977548Y31957000D01*
X33858085Y31957000D01*
X33932146Y31932936D01*
X33985437Y31894218D01*
X33996217Y31886386D01*
X34002245Y31883702D01*
X34002247Y31883701D01*
X34130476Y31826610D01*
X34164344Y31811531D01*
X34240177Y31795412D01*
X34337902Y31774639D01*
X34337907Y31774639D01*
X34344359Y31773267D01*
X34528397Y31773267D01*
X34534849Y31774639D01*
X34534854Y31774639D01*
X34632579Y31795412D01*
X34708412Y31811531D01*
X34742280Y31826610D01*
X34870509Y31883701D01*
X34870511Y31883702D01*
X34876539Y31886386D01*
X34887319Y31894218D01*
X35020084Y31990677D01*
X35020086Y31990679D01*
X35025428Y31994560D01*
X35029850Y31999471D01*
X35144154Y32126419D01*
X35144155Y32126420D01*
X35148573Y32131327D01*
X35226256Y32265878D01*
X35237288Y32284985D01*
X35237289Y32284986D01*
X35240592Y32290708D01*
X35277755Y32405084D01*
X35295423Y32459459D01*
X35295423Y32459461D01*
X35297463Y32465738D01*
X35304737Y32534941D01*
X35316010Y32642202D01*
X35316700Y32648767D01*
X35297463Y32831796D01*
X35293173Y32845001D01*
X35242634Y33000541D01*
X35240592Y33006826D01*
X35148573Y33166207D01*
X35142414Y33173048D01*
X35029850Y33298063D01*
X35029849Y33298064D01*
X35025428Y33302974D01*
X35020086Y33306855D01*
X35020084Y33306857D01*
X34881881Y33407267D01*
X34881880Y33407268D01*
X34876539Y33411148D01*
X34870511Y33413832D01*
X34870509Y33413833D01*
X34714443Y33483318D01*
X34714442Y33483318D01*
X34708412Y33486003D01*
X34614782Y33505905D01*
X34534854Y33522895D01*
X34534849Y33522895D01*
X34528397Y33524267D01*
X34521795Y33524267D01*
X34515228Y33524957D01*
X34515351Y33526126D01*
X34479466Y33532874D01*
X34466780Y33537820D01*
X34460699Y33540376D01*
X34445570Y33547207D01*
X34403161Y33566355D01*
X34395690Y33567740D01*
X34392422Y33568764D01*
X34377981Y33572877D01*
X34374708Y33573717D01*
X34367632Y33576476D01*
X34322962Y33582356D01*
X34305039Y33584716D01*
X34298522Y33585748D01*
X34243920Y33595868D01*
X34236453Y33597252D01*
X34228873Y33596815D01*
X34228872Y33596815D01*
X34175001Y33593709D01*
X34167749Y33593500D01*
X31935273Y33593500D01*
X31861212Y33617564D01*
X31814503Y33651500D01*
X31814502Y33651501D01*
X31809161Y33655381D01*
X31803133Y33658065D01*
X31803131Y33658066D01*
X31647065Y33727551D01*
X31647064Y33727551D01*
X31641034Y33730236D01*
X31551027Y33749368D01*
X31467476Y33767128D01*
X31467471Y33767128D01*
X31461019Y33768500D01*
X31276981Y33768500D01*
X31270529Y33767128D01*
X31270524Y33767128D01*
X31186973Y33749368D01*
X31096966Y33730236D01*
X31090936Y33727551D01*
X31090935Y33727551D01*
X30934869Y33658066D01*
X30934867Y33658065D01*
X30928839Y33655381D01*
X30923498Y33651501D01*
X30923497Y33651500D01*
X30876788Y33617564D01*
X30802727Y33593500D01*
X30109222Y33593500D01*
X30041101Y33613502D01*
X30000103Y33656500D01*
X29956125Y33732671D01*
X29922195Y33791440D01*
X29906561Y33808804D01*
X29803472Y33923296D01*
X29803471Y33923297D01*
X29799050Y33928207D01*
X29793708Y33932088D01*
X29793706Y33932090D01*
X29655503Y34032500D01*
X29655502Y34032501D01*
X29650161Y34036381D01*
X29644133Y34039065D01*
X29644131Y34039066D01*
X29488065Y34108551D01*
X29488064Y34108551D01*
X29482034Y34111236D01*
X29392027Y34130368D01*
X29308476Y34148128D01*
X29308471Y34148128D01*
X29302019Y34149500D01*
X29117981Y34149500D01*
X29111529Y34148128D01*
X29111524Y34148128D01*
X29027973Y34130368D01*
X28937966Y34111236D01*
X28931936Y34108551D01*
X28931935Y34108551D01*
X28775869Y34039066D01*
X28775867Y34039065D01*
X28769839Y34036381D01*
X28764498Y34032501D01*
X28764497Y34032500D01*
X28626294Y33932090D01*
X28626292Y33932088D01*
X28620950Y33928207D01*
X28616529Y33923297D01*
X28616528Y33923296D01*
X28513440Y33808804D01*
X28497805Y33791440D01*
X28405786Y33632059D01*
X28348915Y33457029D01*
X28348225Y33450466D01*
X28348225Y33450465D01*
X28331456Y33290920D01*
X28329678Y33274000D01*
X4772366Y33274000D01*
X4798196Y33370401D01*
X4800099Y33381196D01*
X4818326Y33589525D01*
X4818326Y33600475D01*
X4800099Y33808804D01*
X4798196Y33819599D01*
X4744072Y34021595D01*
X4740326Y34031887D01*
X4651946Y34221417D01*
X4646466Y34230907D01*
X4617589Y34272149D01*
X4607113Y34280523D01*
X4593666Y34273455D01*
X3928021Y33607811D01*
X3920408Y33593868D01*
X3253694Y33593868D01*
X3256924Y33639033D01*
X3285885Y33684095D01*
X3556000Y33954210D01*
X4235176Y34633387D01*
X4241606Y34645162D01*
X4232310Y34657176D01*
X4191912Y34685464D01*
X4182416Y34690947D01*
X3992887Y34779326D01*
X3982595Y34783072D01*
X3780599Y34837196D01*
X3769804Y34839099D01*
X3561475Y34857326D01*
X3550525Y34857326D01*
X3342196Y34839099D01*
X3331401Y34837196D01*
X3129405Y34783072D01*
X3119113Y34779326D01*
X2929579Y34690944D01*
X2920093Y34685466D01*
X2748798Y34565525D01*
X2746990Y34564008D01*
X2746034Y34563590D01*
X2744285Y34562365D01*
X2744039Y34562717D01*
X2681948Y34535544D01*
X2611844Y34546763D01*
X2558933Y34594103D01*
X2540000Y34660531D01*
X2540000Y37772452D01*
X2560002Y37840573D01*
X2613658Y37887066D01*
X2683932Y37897170D01*
X2748512Y37867676D01*
X2758845Y37857539D01*
X2759328Y37857104D01*
X2763750Y37852193D01*
X2769092Y37848312D01*
X2769094Y37848310D01*
X2907297Y37747900D01*
X2912639Y37744019D01*
X2918667Y37741335D01*
X2918669Y37741334D01*
X3021547Y37695530D01*
X3080766Y37669164D01*
X3170774Y37650032D01*
X3254324Y37632272D01*
X3254329Y37632272D01*
X3260781Y37630900D01*
X3444819Y37630900D01*
X3451271Y37632272D01*
X3451276Y37632272D01*
X3534826Y37650032D01*
X3624834Y37669164D01*
X3684053Y37695530D01*
X3786931Y37741334D01*
X3786933Y37741335D01*
X3792961Y37744019D01*
X3798303Y37747900D01*
X3845012Y37781836D01*
X3919073Y37805900D01*
X7659379Y37805900D01*
X7727500Y37785898D01*
X7773993Y37732242D01*
X7784097Y37661968D01*
X7754603Y37597388D01*
X7745951Y37588568D01*
X7742150Y37585807D01*
X7737728Y37580896D01*
X7737727Y37580895D01*
X7658215Y37492587D01*
X7619005Y37449040D01*
X7577664Y37377436D01*
X7532843Y37299803D01*
X7526986Y37289659D01*
X7524944Y37283374D01*
X7474368Y37127717D01*
X7470115Y37114629D01*
X7469425Y37108066D01*
X7469425Y37108065D01*
X7465881Y37074345D01*
X7450878Y36931600D01*
X7451568Y36925035D01*
X7463291Y36813502D01*
X7470115Y36748571D01*
X7472155Y36742294D01*
X7472155Y36742292D01*
X7478557Y36722588D01*
X7526986Y36573541D01*
X7619005Y36414160D01*
X7623423Y36409253D01*
X7623424Y36409252D01*
X7647704Y36382286D01*
X7742150Y36277393D01*
X7747492Y36273512D01*
X7747494Y36273510D01*
X7850846Y36198421D01*
X7891039Y36169219D01*
X7897067Y36166535D01*
X7897069Y36166534D01*
X7961930Y36137656D01*
X8059166Y36094364D01*
X8065630Y36092990D01*
X8128392Y36079649D01*
X8191290Y36045498D01*
X8636141Y35600647D01*
X8648527Y35586235D01*
X8660591Y35569842D01*
X8666167Y35565105D01*
X8698947Y35537256D01*
X8706462Y35530326D01*
X8711749Y35525039D01*
X8733002Y35508224D01*
X8736379Y35505455D01*
X8745211Y35497952D01*
X8789520Y35460308D01*
X8796037Y35456981D01*
X8800581Y35453950D01*
X8805234Y35451077D01*
X8810975Y35446534D01*
X8874177Y35416995D01*
X8878077Y35415089D01*
X8906233Y35400712D01*
X8940189Y35383373D01*
X8947296Y35381634D01*
X8952402Y35379735D01*
X8957603Y35378005D01*
X8964238Y35374904D01*
X9017589Y35363807D01*
X9032512Y35360703D01*
X9036796Y35359733D01*
X9104517Y35343162D01*
X9110119Y35342814D01*
X9110122Y35342814D01*
X9115188Y35342500D01*
X9115187Y35342481D01*
X9119744Y35342207D01*
X9122708Y35341943D01*
X9129869Y35340453D01*
X9203819Y35342454D01*
X9207227Y35342500D01*
X24148390Y35342500D01*
X24216511Y35322498D01*
X24263004Y35268842D01*
X24273700Y35229671D01*
X24280050Y35169259D01*
X24284915Y35122971D01*
X24286955Y35116694D01*
X24286955Y35116692D01*
X24307714Y35052803D01*
X24341786Y34947941D01*
X24345089Y34942219D01*
X24345090Y34942218D01*
X24356485Y34922481D01*
X24433805Y34788560D01*
X24438223Y34783653D01*
X24438224Y34783652D01*
X24526784Y34685296D01*
X24556950Y34651793D01*
X24562292Y34647912D01*
X24562294Y34647910D01*
X24700497Y34547500D01*
X24705839Y34543619D01*
X24711867Y34540935D01*
X24711869Y34540934D01*
X24867935Y34471449D01*
X24873966Y34468764D01*
X24963973Y34449632D01*
X25047524Y34431872D01*
X25047529Y34431872D01*
X25053981Y34430500D01*
X25238019Y34430500D01*
X25244471Y34431872D01*
X25244476Y34431872D01*
X25328027Y34449632D01*
X25418034Y34468764D01*
X25424065Y34471449D01*
X25580131Y34540934D01*
X25580133Y34540935D01*
X25586161Y34543619D01*
X25591503Y34547500D01*
X25729706Y34647910D01*
X25729708Y34647912D01*
X25735050Y34651793D01*
X25765216Y34685296D01*
X25853776Y34783652D01*
X25853777Y34783653D01*
X25858195Y34788560D01*
X25886574Y34837713D01*
X25906596Y34863807D01*
X26060487Y35017698D01*
X26223383Y35180595D01*
X26285696Y35214620D01*
X26312479Y35217500D01*
X27898938Y35217500D01*
X27909479Y35217058D01*
X27960902Y35212740D01*
X27967661Y35213642D01*
X27967665Y35213642D01*
X27988281Y35216393D01*
X28004945Y35217500D01*
X28433964Y35217500D01*
X28437483Y35217451D01*
X28516611Y35215241D01*
X28523317Y35216520D01*
X28530114Y35217067D01*
X28530157Y35216538D01*
X28540363Y35217500D01*
X28560964Y35217500D01*
X28564483Y35217451D01*
X28643611Y35215241D01*
X28650317Y35216520D01*
X28657114Y35217067D01*
X28657157Y35216538D01*
X28667363Y35217500D01*
X28688000Y35217500D01*
X28691519Y35217451D01*
X28770611Y35215242D01*
X28777317Y35216521D01*
X28784114Y35217068D01*
X28784157Y35216534D01*
X28794357Y35217500D01*
X37314521Y35217500D01*
X37382642Y35197498D01*
X37403616Y35180595D01*
X37632616Y34951595D01*
X37666642Y34889283D01*
X37661577Y34818468D01*
X37619030Y34761632D01*
X37552510Y34736821D01*
X37543521Y34736500D01*
X37142273Y34736500D01*
X37068212Y34760564D01*
X37021503Y34794500D01*
X37021502Y34794501D01*
X37016161Y34798381D01*
X37010133Y34801065D01*
X37010131Y34801066D01*
X36854065Y34870551D01*
X36854064Y34870551D01*
X36848034Y34873236D01*
X36758027Y34892368D01*
X36674476Y34910128D01*
X36674471Y34910128D01*
X36668019Y34911500D01*
X36483981Y34911500D01*
X36477529Y34910128D01*
X36477524Y34910128D01*
X36393973Y34892368D01*
X36303966Y34873236D01*
X36297936Y34870551D01*
X36297935Y34870551D01*
X36141869Y34801066D01*
X36141867Y34801065D01*
X36135839Y34798381D01*
X36130498Y34794501D01*
X36130497Y34794500D01*
X35992294Y34694090D01*
X35992292Y34694088D01*
X35986950Y34690207D01*
X35982529Y34685297D01*
X35982528Y34685296D01*
X35888127Y34580452D01*
X35863805Y34553440D01*
X35771786Y34394059D01*
X35769744Y34387774D01*
X35730908Y34268249D01*
X35714915Y34219029D01*
X35714225Y34212466D01*
X35714225Y34212465D01*
X35707840Y34151715D01*
X35695678Y34036000D01*
X35696368Y34029435D01*
X35712732Y33873745D01*
X35714915Y33852971D01*
X35771786Y33677941D01*
X35775089Y33672219D01*
X35775090Y33672218D01*
X35783261Y33658066D01*
X35863805Y33518560D01*
X35868223Y33513653D01*
X35868224Y33513652D01*
X35925118Y33450465D01*
X35986950Y33381793D01*
X35992292Y33377912D01*
X35992294Y33377910D01*
X36130497Y33277500D01*
X36135839Y33273619D01*
X36141867Y33270935D01*
X36141869Y33270934D01*
X36297935Y33201449D01*
X36303966Y33198764D01*
X36372380Y33184222D01*
X36477524Y33161872D01*
X36477529Y33161872D01*
X36483981Y33160500D01*
X36668019Y33160500D01*
X36674471Y33161872D01*
X36674476Y33161872D01*
X36779620Y33184222D01*
X36848034Y33198764D01*
X36854065Y33201449D01*
X37010131Y33270934D01*
X37010133Y33270935D01*
X37016161Y33273619D01*
X37021503Y33277500D01*
X37068212Y33311436D01*
X37142273Y33335500D01*
X38418296Y33335500D01*
X38486417Y33315498D01*
X38531156Y33265524D01*
X38549362Y33228848D01*
X38633923Y33123676D01*
X38661019Y33058056D01*
X38648336Y32988202D01*
X38642986Y32978610D01*
X38583088Y32881437D01*
X38576944Y32868259D01*
X38526685Y32716734D01*
X38523819Y32703368D01*
X38514328Y32610730D01*
X38514000Y32604315D01*
X38514000Y32530115D01*
X38518475Y32514876D01*
X38519865Y32513671D01*
X38527548Y32512000D01*
X40461885Y32512000D01*
X40477124Y32516475D01*
X40478329Y32517865D01*
X40480000Y32525548D01*
X40480000Y32604266D01*
X40479663Y32610782D01*
X40469925Y32704632D01*
X40467032Y32718028D01*
X40416512Y32869453D01*
X40412016Y32879052D01*
X40401233Y32949225D01*
X40430100Y33014088D01*
X40489452Y33053047D01*
X40526118Y33058500D01*
X41814122Y33058500D01*
X41840319Y33055747D01*
X41938524Y33034872D01*
X41938529Y33034872D01*
X41944981Y33033500D01*
X42129019Y33033500D01*
X42135471Y33034872D01*
X42135476Y33034872D01*
X42233681Y33055747D01*
X42259878Y33058500D01*
X44209653Y33058500D01*
X44277774Y33038498D01*
X44324267Y32984842D01*
X44334371Y32914568D01*
X44304877Y32849988D01*
X44298748Y32843405D01*
X43815748Y32360405D01*
X43753436Y32326379D01*
X43726653Y32323500D01*
X42319641Y32323500D01*
X42311071Y32323792D01*
X42310211Y32323851D01*
X42254070Y32327678D01*
X42246593Y32326373D01*
X42246590Y32326373D01*
X42191870Y32316823D01*
X42185346Y32315860D01*
X42130221Y32309189D01*
X42130218Y32309188D01*
X42122680Y32308276D01*
X42115578Y32305592D01*
X42112242Y32304773D01*
X42097785Y32300817D01*
X42094528Y32299834D01*
X42087047Y32298528D01*
X42080095Y32295476D01*
X42080094Y32295476D01*
X42029233Y32273151D01*
X42023128Y32270660D01*
X41971189Y32251033D01*
X41971185Y32251031D01*
X41964077Y32248345D01*
X41957813Y32244040D01*
X41954774Y32242451D01*
X41941701Y32235176D01*
X41938750Y32233431D01*
X41931798Y32230379D01*
X41925770Y32225754D01*
X41925769Y32225753D01*
X41881727Y32191958D01*
X41876391Y32188081D01*
X41830614Y32156619D01*
X41830608Y32156614D01*
X41824349Y32152312D01*
X41802629Y32127934D01*
X41783400Y32106352D01*
X41778419Y32101075D01*
X41165276Y31487933D01*
X41102964Y31453908D01*
X41032148Y31458973D01*
X40975313Y31501520D01*
X40956348Y31538093D01*
X40955531Y31540607D01*
X40936214Y31600059D01*
X40844195Y31759440D01*
X40836625Y31767848D01*
X40725472Y31891296D01*
X40725471Y31891297D01*
X40721050Y31896207D01*
X40715708Y31900088D01*
X40715706Y31900090D01*
X40577503Y32000500D01*
X40577502Y32000501D01*
X40572161Y32004381D01*
X40566133Y32007065D01*
X40566131Y32007066D01*
X40410065Y32076551D01*
X40410064Y32076551D01*
X40404034Y32079236D01*
X40306499Y32099968D01*
X40230476Y32116128D01*
X40230471Y32116128D01*
X40224019Y32117500D01*
X40039981Y32117500D01*
X40033529Y32116128D01*
X40033524Y32116128D01*
X39957501Y32099968D01*
X39859966Y32079236D01*
X39853936Y32076551D01*
X39853935Y32076551D01*
X39715449Y32014893D01*
X39664200Y32004000D01*
X38532115Y32004000D01*
X38516876Y31999525D01*
X38515671Y31998135D01*
X38514000Y31990452D01*
X38514000Y31911734D01*
X38514337Y31905218D01*
X38524075Y31811368D01*
X38526968Y31797972D01*
X38577488Y31646547D01*
X38583653Y31633385D01*
X38666316Y31499802D01*
X38685153Y31431350D01*
X38663991Y31363581D01*
X38609550Y31318010D01*
X38559171Y31307500D01*
X38105533Y31307500D01*
X38031472Y31331564D01*
X37984763Y31365500D01*
X37984762Y31365501D01*
X37979421Y31369381D01*
X37973393Y31372065D01*
X37973391Y31372066D01*
X37817325Y31441551D01*
X37817324Y31441551D01*
X37811294Y31444236D01*
X37721287Y31463368D01*
X37637736Y31481128D01*
X37637731Y31481128D01*
X37631279Y31482500D01*
X37447241Y31482500D01*
X37440789Y31481128D01*
X37440784Y31481128D01*
X37357233Y31463368D01*
X37267226Y31444236D01*
X37261196Y31441551D01*
X37261195Y31441551D01*
X37105129Y31372066D01*
X37105127Y31372065D01*
X37099099Y31369381D01*
X37093758Y31365501D01*
X37093757Y31365500D01*
X36955554Y31265090D01*
X36955552Y31265088D01*
X36950210Y31261207D01*
X36945789Y31256297D01*
X36945788Y31256296D01*
X36863104Y31164465D01*
X36827065Y31124440D01*
X36735046Y30965059D01*
X36714150Y30900748D01*
X36699051Y30854277D01*
X36678175Y30790029D01*
X36658938Y30607000D01*
X36659628Y30600435D01*
X36662556Y30572575D01*
X36649783Y30502737D01*
X36630883Y30475095D01*
X36578800Y30417250D01*
X36575498Y30411531D01*
X36575496Y30411528D01*
X36498394Y30277984D01*
X36486781Y30257869D01*
X36484739Y30251584D01*
X36451406Y30148995D01*
X36429910Y30082839D01*
X36410673Y29899810D01*
X36429910Y29716781D01*
X36486781Y29541751D01*
X36490084Y29536029D01*
X36490085Y29536028D01*
X36518027Y29487632D01*
X36578800Y29382370D01*
X36583218Y29377463D01*
X36583219Y29377462D01*
X36697523Y29250514D01*
X36701945Y29245603D01*
X36707287Y29241722D01*
X36707289Y29241720D01*
X36781730Y29187636D01*
X36850834Y29137429D01*
X36856862Y29134745D01*
X36856864Y29134744D01*
X36937170Y29098990D01*
X37004662Y29068941D01*
X37058757Y29022961D01*
X37079406Y28955034D01*
X37077483Y28935851D01*
X37077695Y28935829D01*
X37067174Y28835723D01*
X37058458Y28752800D01*
X37059148Y28746235D01*
X37075619Y28589525D01*
X37077695Y28569771D01*
X37079370Y28564615D01*
X37074005Y28494264D01*
X37031190Y28437630D01*
X37007406Y28423746D01*
X36954672Y28400268D01*
X36954665Y28400264D01*
X36948639Y28397581D01*
X36943298Y28393701D01*
X36943297Y28393700D01*
X36805094Y28293290D01*
X36805092Y28293288D01*
X36799750Y28289407D01*
X36795329Y28284497D01*
X36795328Y28284496D01*
X36687187Y28164392D01*
X36676605Y28152640D01*
X36631926Y28075254D01*
X36597835Y28016206D01*
X36584586Y27993259D01*
X36569900Y27948060D01*
X36533667Y27836546D01*
X36527715Y27818229D01*
X36527025Y27811666D01*
X36527025Y27811665D01*
X36520375Y27748397D01*
X36508478Y27635200D01*
X36509168Y27628635D01*
X36520422Y27521564D01*
X36527715Y27452171D01*
X36529755Y27445892D01*
X36529756Y27445888D01*
X36534452Y27431435D01*
X36536479Y27360467D01*
X36499816Y27299670D01*
X36436104Y27268345D01*
X36414619Y27266500D01*
X36138479Y27266500D01*
X36070358Y27286502D01*
X36049384Y27303405D01*
X34459405Y28893383D01*
X34425380Y28955695D01*
X34422500Y28982478D01*
X34422500Y29526566D01*
X34422340Y29528922D01*
X34419978Y29563559D01*
X34419600Y29569107D01*
X34415779Y29584435D01*
X34376546Y29741787D01*
X34376545Y29741789D01*
X34374895Y29748408D01*
X34371864Y29754515D01*
X34371862Y29754519D01*
X34315597Y29867863D01*
X34292731Y29913926D01*
X34176940Y30057940D01*
X34032926Y30173731D01*
X33940314Y30219704D01*
X33873519Y30252862D01*
X33873515Y30252864D01*
X33867408Y30255895D01*
X33778812Y30277985D01*
X33717555Y30313871D01*
X33685423Y30377181D01*
X33692620Y30447812D01*
X33736860Y30503339D01*
X33769419Y30519765D01*
X33888784Y30559588D01*
X33901962Y30565761D01*
X34039807Y30651063D01*
X34051208Y30660099D01*
X34165739Y30774829D01*
X34174751Y30786240D01*
X34259816Y30924243D01*
X34265963Y30937424D01*
X34317138Y31091710D01*
X34320005Y31105086D01*
X34329672Y31199438D01*
X34330000Y31205855D01*
X34330000Y31430885D01*
X34325525Y31446124D01*
X34324135Y31447329D01*
X34316452Y31449000D01*
X31982116Y31449000D01*
X31966877Y31444525D01*
X31965672Y31443135D01*
X31964001Y31435452D01*
X31964001Y31205905D01*
X31964338Y31199386D01*
X31974257Y31103794D01*
X31977149Y31090400D01*
X32028588Y30936216D01*
X32034761Y30923038D01*
X32120063Y30785193D01*
X32129099Y30773792D01*
X32243829Y30659261D01*
X32255240Y30650249D01*
X32393243Y30565184D01*
X32406426Y30559036D01*
X32524511Y30519869D01*
X32582871Y30479438D01*
X32610108Y30413874D01*
X32597575Y30343993D01*
X32549250Y30291981D01*
X32515326Y30278019D01*
X32426592Y30255895D01*
X32420485Y30252864D01*
X32420481Y30252862D01*
X32353686Y30219704D01*
X32261074Y30173731D01*
X32117060Y30057940D01*
X32001269Y29913926D01*
X31998233Y29907810D01*
X31996533Y29904387D01*
X31994945Y29902669D01*
X31994556Y29902062D01*
X31994447Y29902132D01*
X31948327Y29852265D01*
X31879594Y29834480D01*
X31848888Y29839856D01*
X31848034Y29840236D01*
X31841584Y29841607D01*
X31841581Y29841608D01*
X31674476Y29877128D01*
X31674471Y29877128D01*
X31668019Y29878500D01*
X31483981Y29878500D01*
X31477529Y29877128D01*
X31477524Y29877128D01*
X31393974Y29859368D01*
X31303966Y29840236D01*
X31297936Y29837551D01*
X31297935Y29837551D01*
X31291786Y29834813D01*
X31221419Y29825378D01*
X31157121Y29855483D01*
X31127676Y29893893D01*
X31120765Y29907814D01*
X31117731Y29913926D01*
X31001940Y30057940D01*
X30857926Y30173731D01*
X30765314Y30219704D01*
X30698519Y30252862D01*
X30698515Y30252864D01*
X30692408Y30255895D01*
X30603812Y30277985D01*
X30542555Y30313871D01*
X30510423Y30377181D01*
X30517620Y30447812D01*
X30561860Y30503339D01*
X30594419Y30519765D01*
X30713784Y30559588D01*
X30726962Y30565761D01*
X30864807Y30651063D01*
X30876208Y30660099D01*
X30990739Y30774829D01*
X30999751Y30786240D01*
X31084816Y30924243D01*
X31090963Y30937424D01*
X31142138Y31091710D01*
X31145005Y31105086D01*
X31154672Y31199438D01*
X31155000Y31205855D01*
X31155000Y31430885D01*
X31150525Y31446124D01*
X31149135Y31447329D01*
X31141452Y31449000D01*
X28807116Y31449000D01*
X28791877Y31444525D01*
X28790672Y31443135D01*
X28789001Y31435452D01*
X28789001Y31205905D01*
X28789338Y31199386D01*
X28799257Y31103794D01*
X28802149Y31090400D01*
X28853588Y30936216D01*
X28859761Y30923038D01*
X28945063Y30785193D01*
X28954099Y30773792D01*
X29068829Y30659261D01*
X29080240Y30650249D01*
X29218243Y30565184D01*
X29231426Y30559036D01*
X29349511Y30519869D01*
X29407871Y30479438D01*
X29435108Y30413874D01*
X29422575Y30343993D01*
X29374250Y30291981D01*
X29340326Y30278019D01*
X29251592Y30255895D01*
X29245485Y30252864D01*
X29245481Y30252862D01*
X29178686Y30219704D01*
X29086074Y30173731D01*
X28942060Y30057940D01*
X28826269Y29913926D01*
X28803403Y29867863D01*
X28747138Y29754519D01*
X28747136Y29754515D01*
X28744105Y29748408D01*
X28742455Y29741789D01*
X28742454Y29741787D01*
X28703222Y29584435D01*
X28699400Y29569107D01*
X28699022Y29563559D01*
X28696661Y29528922D01*
X28696500Y29526566D01*
X28696500Y28479434D01*
X28699400Y28436893D01*
X28700744Y28431501D01*
X28700745Y28431497D01*
X28735204Y28293290D01*
X28744105Y28257592D01*
X28747136Y28251485D01*
X28747138Y28251481D01*
X28772741Y28199905D01*
X28826269Y28092074D01*
X28942060Y27948060D01*
X28945496Y27945297D01*
X28979079Y27883797D01*
X28981268Y27843844D01*
X28964678Y27686000D01*
X28965368Y27679435D01*
X28980374Y27536666D01*
X28983915Y27502971D01*
X28985955Y27496694D01*
X28985955Y27496692D01*
X29010583Y27420896D01*
X29040786Y27327941D01*
X29044089Y27322219D01*
X29044090Y27322218D01*
X29071762Y27274289D01*
X29132805Y27168560D01*
X29137223Y27163653D01*
X29137224Y27163652D01*
X29173490Y27123374D01*
X29255950Y27031793D01*
X29261292Y27027912D01*
X29261294Y27027910D01*
X29353149Y26961174D01*
X29404839Y26923619D01*
X29410867Y26920935D01*
X29410869Y26920934D01*
X29566935Y26851449D01*
X29572966Y26848764D01*
X29662973Y26829632D01*
X29746524Y26811872D01*
X29746529Y26811872D01*
X29752981Y26810500D01*
X29937019Y26810500D01*
X29943471Y26811872D01*
X29943476Y26811872D01*
X30027027Y26829632D01*
X30117034Y26848764D01*
X30123065Y26851449D01*
X30279131Y26920934D01*
X30279133Y26920935D01*
X30285161Y26923619D01*
X30336851Y26961174D01*
X30428706Y27027910D01*
X30428708Y27027912D01*
X30434050Y27031793D01*
X30516510Y27123374D01*
X30552776Y27163652D01*
X30552777Y27163653D01*
X30557195Y27168560D01*
X30618238Y27274289D01*
X30645910Y27322218D01*
X30645911Y27322219D01*
X30649214Y27327941D01*
X30679417Y27420896D01*
X30704045Y27496692D01*
X30704045Y27496694D01*
X30706085Y27502971D01*
X30709627Y27536666D01*
X30724632Y27679435D01*
X30725322Y27686000D01*
X30724987Y27689187D01*
X30744634Y27756099D01*
X30794608Y27800838D01*
X30795922Y27801490D01*
X30857926Y27832269D01*
X31001940Y27948060D01*
X31117731Y28092074D01*
X31123800Y28104300D01*
X31127676Y28112107D01*
X31175883Y28164229D01*
X31244615Y28182015D01*
X31291786Y28171187D01*
X31303966Y28165764D01*
X31365709Y28152640D01*
X31477524Y28128872D01*
X31477529Y28128872D01*
X31483981Y28127500D01*
X31668019Y28127500D01*
X31674471Y28128872D01*
X31674476Y28128872D01*
X31841581Y28164392D01*
X31841584Y28164393D01*
X31846660Y28165472D01*
X31846661Y28165472D01*
X31848034Y28165764D01*
X31848087Y28165513D01*
X31915701Y28167448D01*
X31976501Y28130788D01*
X31996533Y28101613D01*
X31998167Y28098322D01*
X32001269Y28092074D01*
X32117060Y27948060D01*
X32226879Y27859763D01*
X32267434Y27801490D01*
X32273236Y27748397D01*
X32266678Y27686000D01*
X32267368Y27679435D01*
X32282374Y27536666D01*
X32285915Y27502971D01*
X32287955Y27496694D01*
X32287955Y27496692D01*
X32312583Y27420896D01*
X32342786Y27327941D01*
X32346089Y27322219D01*
X32346090Y27322218D01*
X32373762Y27274289D01*
X32434805Y27168560D01*
X32439223Y27163653D01*
X32439224Y27163652D01*
X32475490Y27123374D01*
X32557950Y27031793D01*
X32563292Y27027912D01*
X32563294Y27027910D01*
X32655149Y26961174D01*
X32706839Y26923619D01*
X32712867Y26920935D01*
X32712869Y26920934D01*
X32868935Y26851449D01*
X32874966Y26848764D01*
X32964973Y26829632D01*
X33048524Y26811872D01*
X33048529Y26811872D01*
X33054981Y26810500D01*
X33239019Y26810500D01*
X33245471Y26811872D01*
X33245476Y26811872D01*
X33329027Y26829632D01*
X33419034Y26848764D01*
X33425065Y26851449D01*
X33581131Y26920934D01*
X33581133Y26920935D01*
X33587161Y26923619D01*
X33646046Y26966401D01*
X33730711Y27027914D01*
X33736050Y27031793D01*
X33740465Y27036696D01*
X33741090Y27037259D01*
X33805098Y27067976D01*
X33875551Y27059211D01*
X33914494Y27032717D01*
X34544671Y26402540D01*
X34578697Y26340228D01*
X34573632Y26269413D01*
X34551266Y26232520D01*
X34551306Y26232491D01*
X34550958Y26232012D01*
X34549215Y26229137D01*
X34543005Y26222240D01*
X34539702Y26216519D01*
X34469042Y26094132D01*
X34450986Y26062859D01*
X34448944Y26056574D01*
X34396283Y25894500D01*
X34394115Y25887829D01*
X34393425Y25881266D01*
X34393425Y25881265D01*
X34380101Y25754495D01*
X34374878Y25704800D01*
X34375568Y25698235D01*
X34390667Y25554581D01*
X34394115Y25521771D01*
X34396155Y25515494D01*
X34396155Y25515492D01*
X34420837Y25439529D01*
X34450733Y25347520D01*
X34450986Y25346741D01*
X34450844Y25346695D01*
X34459881Y25279278D01*
X34451627Y25251168D01*
X34450986Y25250059D01*
X34448947Y25243783D01*
X34397428Y25085224D01*
X34394115Y25075029D01*
X34393425Y25068466D01*
X34393425Y25068465D01*
X34383857Y24977434D01*
X34374878Y24892000D01*
X34394115Y24708971D01*
X34443759Y24556183D01*
X34445787Y24485218D01*
X34443761Y24478320D01*
X34436857Y24457072D01*
X34396990Y24334373D01*
X34394115Y24325526D01*
X34393425Y24318963D01*
X34393425Y24318962D01*
X34382792Y24217797D01*
X34355779Y24152140D01*
X34297557Y24111511D01*
X34283679Y24107722D01*
X34151432Y24079611D01*
X34151427Y24079609D01*
X34144966Y24078236D01*
X34138936Y24075551D01*
X34138935Y24075551D01*
X33982869Y24006066D01*
X33982867Y24006065D01*
X33976839Y24003381D01*
X33971498Y23999501D01*
X33971497Y23999500D01*
X33833294Y23899090D01*
X33833292Y23899088D01*
X33827950Y23895207D01*
X33823529Y23890297D01*
X33823528Y23890296D01*
X33742280Y23800060D01*
X33704805Y23758440D01*
X33661554Y23683527D01*
X33626935Y23623565D01*
X33612786Y23599059D01*
X33605245Y23575850D01*
X33560396Y23437819D01*
X33555915Y23424029D01*
X33555225Y23417466D01*
X33555225Y23417465D01*
X33551707Y23383997D01*
X33536678Y23241000D01*
X33543661Y23174566D01*
X33550955Y23105164D01*
X33538183Y23035325D01*
X33489681Y22983479D01*
X33420848Y22966084D01*
X33359529Y22984733D01*
X33315437Y23011912D01*
X33302259Y23018056D01*
X33150734Y23068315D01*
X33137368Y23071181D01*
X33044730Y23080672D01*
X33038315Y23081000D01*
X32964115Y23081000D01*
X32948876Y23076525D01*
X32947671Y23075135D01*
X32946000Y23067452D01*
X32946000Y21970000D01*
X32925998Y21901879D01*
X32872342Y21855386D01*
X32820000Y21844000D01*
X31664615Y21844000D01*
X31649376Y21839525D01*
X31648171Y21838135D01*
X31646500Y21830452D01*
X31646500Y21814234D01*
X31646837Y21807718D01*
X31656575Y21713868D01*
X31659468Y21700472D01*
X31709988Y21549047D01*
X31716153Y21535885D01*
X31727467Y21517602D01*
X31746304Y21449150D01*
X31725142Y21381381D01*
X31670701Y21335810D01*
X31620322Y21325300D01*
X29961566Y21325300D01*
X29893445Y21345302D01*
X29872471Y21362205D01*
X28864562Y22370115D01*
X31646500Y22370115D01*
X31650975Y22354876D01*
X31652365Y22353671D01*
X31660048Y22352000D01*
X32419885Y22352000D01*
X32435124Y22356475D01*
X32436329Y22357865D01*
X32438000Y22365548D01*
X32438000Y23062885D01*
X32433525Y23078124D01*
X32432135Y23079329D01*
X32424452Y23081000D01*
X32345734Y23081000D01*
X32339218Y23080663D01*
X32245368Y23070925D01*
X32231972Y23068032D01*
X32080547Y23017512D01*
X32067385Y23011347D01*
X31932008Y22927574D01*
X31920610Y22918540D01*
X31808137Y22805871D01*
X31799125Y22794460D01*
X31715588Y22658937D01*
X31709444Y22645759D01*
X31659185Y22494234D01*
X31656319Y22480868D01*
X31646828Y22388230D01*
X31646500Y22381815D01*
X31646500Y22370115D01*
X28864562Y22370115D01*
X28332802Y22901875D01*
X28298776Y22964187D01*
X28303841Y23035003D01*
X28346388Y23091838D01*
X28412908Y23116649D01*
X28467666Y23108363D01*
X28479139Y23103890D01*
X28485203Y23101341D01*
X28542742Y23075361D01*
X28550213Y23073976D01*
X28553481Y23072952D01*
X28567922Y23068839D01*
X28571195Y23067999D01*
X28578271Y23065240D01*
X28622941Y23059360D01*
X28640864Y23057000D01*
X28647381Y23055968D01*
X28653176Y23054894D01*
X28709450Y23044464D01*
X28717030Y23044901D01*
X28717031Y23044901D01*
X28770902Y23048007D01*
X28778154Y23048216D01*
X30239812Y23048216D01*
X30248382Y23047924D01*
X30297807Y23044554D01*
X30297811Y23044554D01*
X30305383Y23044038D01*
X30312859Y23045343D01*
X30312862Y23045343D01*
X30367585Y23054894D01*
X30374111Y23055857D01*
X30434947Y23063219D01*
X30450084Y23064132D01*
X30551388Y23064132D01*
X30557840Y23065504D01*
X30557845Y23065504D01*
X30668197Y23088961D01*
X30731403Y23102396D01*
X30766574Y23118055D01*
X30893500Y23174566D01*
X30893502Y23174567D01*
X30899530Y23177251D01*
X30977263Y23233727D01*
X31043075Y23281542D01*
X31043077Y23281544D01*
X31048419Y23285425D01*
X31133679Y23380116D01*
X31167145Y23417284D01*
X31167146Y23417285D01*
X31171564Y23422192D01*
X31230100Y23523579D01*
X31260279Y23575850D01*
X31260280Y23575851D01*
X31263583Y23581573D01*
X31320454Y23756603D01*
X31325022Y23800060D01*
X31339001Y23933067D01*
X31339691Y23939632D01*
X31329461Y24036962D01*
X31321144Y24116097D01*
X31321144Y24116098D01*
X31320454Y24122661D01*
X31311694Y24149623D01*
X31274540Y24263970D01*
X31263583Y24297691D01*
X31248155Y24324414D01*
X31226057Y24362688D01*
X31171564Y24457072D01*
X31146222Y24485218D01*
X31052841Y24588928D01*
X31052840Y24588929D01*
X31048419Y24593839D01*
X31043077Y24597720D01*
X31043075Y24597722D01*
X30904872Y24698132D01*
X30904871Y24698133D01*
X30899530Y24702013D01*
X30893502Y24704697D01*
X30893500Y24704698D01*
X30737434Y24774183D01*
X30737433Y24774183D01*
X30731403Y24776868D01*
X30590525Y24806813D01*
X30528051Y24840542D01*
X30523108Y24845726D01*
X30404518Y24977434D01*
X30399176Y24981315D01*
X30399174Y24981317D01*
X30260971Y25081727D01*
X30260970Y25081728D01*
X30255629Y25085608D01*
X30249601Y25088292D01*
X30249599Y25088293D01*
X30184738Y25117171D01*
X30087502Y25160463D01*
X30034216Y25171790D01*
X29971745Y25205517D01*
X29951297Y25232035D01*
X29925499Y25276718D01*
X29925497Y25276720D01*
X29922195Y25282440D01*
X29872446Y25337692D01*
X29803472Y25414296D01*
X29803471Y25414297D01*
X29799050Y25419207D01*
X29793708Y25423088D01*
X29793706Y25423090D01*
X29655503Y25523500D01*
X29655502Y25523501D01*
X29650161Y25527381D01*
X29644133Y25530065D01*
X29644131Y25530066D01*
X29488065Y25599551D01*
X29488064Y25599551D01*
X29482034Y25602236D01*
X29374110Y25625176D01*
X29311637Y25658904D01*
X29306554Y25664320D01*
X29306159Y25664675D01*
X29301169Y25670396D01*
X29249527Y25706690D01*
X29244242Y25710616D01*
X29200524Y25744895D01*
X29200520Y25744897D01*
X29194543Y25749584D01*
X29187620Y25752710D01*
X29184672Y25754495D01*
X29171712Y25761887D01*
X29168666Y25763520D01*
X29162453Y25767887D01*
X29103633Y25790820D01*
X29097554Y25793376D01*
X29040016Y25819355D01*
X29032545Y25820740D01*
X29029277Y25821764D01*
X29014836Y25825877D01*
X29011563Y25826717D01*
X29004487Y25829476D01*
X28959817Y25835356D01*
X28941894Y25837716D01*
X28935377Y25838748D01*
X28880775Y25848868D01*
X28873308Y25850252D01*
X28865728Y25849815D01*
X28865727Y25849815D01*
X28811856Y25846709D01*
X28804604Y25846500D01*
X27747025Y25846500D01*
X27678904Y25866502D01*
X27632411Y25920158D01*
X27622307Y25990432D01*
X27651801Y26055012D01*
X27672964Y26074436D01*
X27693733Y26089525D01*
X27734565Y26119191D01*
X27761706Y26138910D01*
X27761708Y26138912D01*
X27767050Y26142793D01*
X27773202Y26149625D01*
X27885776Y26274652D01*
X27885777Y26274653D01*
X27890195Y26279560D01*
X27982214Y26438941D01*
X28022733Y26563645D01*
X28037045Y26607692D01*
X28037045Y26607694D01*
X28039085Y26613971D01*
X28058322Y26797000D01*
X28039085Y26980029D01*
X28023528Y27027910D01*
X27988194Y27136654D01*
X27982214Y27155059D01*
X27976086Y27165674D01*
X27946101Y27217609D01*
X27890195Y27314440D01*
X27880916Y27324746D01*
X27771472Y27446296D01*
X27771471Y27446297D01*
X27767050Y27451207D01*
X27761708Y27455088D01*
X27761706Y27455090D01*
X27623503Y27555500D01*
X27623502Y27555501D01*
X27618161Y27559381D01*
X27612133Y27562065D01*
X27612131Y27562066D01*
X27456065Y27631551D01*
X27456064Y27631551D01*
X27450034Y27634236D01*
X27360026Y27653368D01*
X27276476Y27671128D01*
X27276471Y27671128D01*
X27270019Y27672500D01*
X27085981Y27672500D01*
X27079529Y27671128D01*
X27079524Y27671128D01*
X26995973Y27653368D01*
X26905966Y27634236D01*
X26899936Y27631551D01*
X26899935Y27631551D01*
X26743869Y27562066D01*
X26743867Y27562065D01*
X26737839Y27559381D01*
X26732498Y27555501D01*
X26732497Y27555500D01*
X26685788Y27521564D01*
X26611727Y27497500D01*
X24823499Y27497500D01*
X24755378Y27517502D01*
X24708885Y27571158D01*
X24697499Y27623500D01*
X24697499Y27703976D01*
X24694642Y27745900D01*
X24650594Y27922566D01*
X24647562Y27928673D01*
X24647561Y27928677D01*
X24588196Y28048267D01*
X24569638Y28085652D01*
X24485077Y28190824D01*
X24457981Y28256444D01*
X24470664Y28326298D01*
X24476014Y28335890D01*
X24535912Y28433063D01*
X24542056Y28446241D01*
X24592315Y28597766D01*
X24595181Y28611132D01*
X24596866Y28627579D01*
X24623708Y28693306D01*
X24681824Y28734087D01*
X24696013Y28737981D01*
X24794994Y28759021D01*
X24794999Y28759023D01*
X24801460Y28760396D01*
X24865598Y28788952D01*
X24963557Y28832566D01*
X24963559Y28832567D01*
X24969587Y28835251D01*
X25021637Y28873068D01*
X25095699Y28897132D01*
X25840599Y28897132D01*
X25914660Y28873068D01*
X25975839Y28828619D01*
X25981867Y28825935D01*
X25981869Y28825934D01*
X26137935Y28756449D01*
X26143966Y28753764D01*
X26218218Y28737981D01*
X26317524Y28716872D01*
X26317529Y28716872D01*
X26323981Y28715500D01*
X26508019Y28715500D01*
X26514471Y28716872D01*
X26514476Y28716872D01*
X26613782Y28737981D01*
X26688034Y28753764D01*
X26694065Y28756449D01*
X26850131Y28825934D01*
X26850133Y28825935D01*
X26856161Y28828619D01*
X26917340Y28873068D01*
X26999706Y28932910D01*
X26999708Y28932912D01*
X27005050Y28936793D01*
X27009472Y28941704D01*
X27123776Y29068652D01*
X27123777Y29068653D01*
X27128195Y29073560D01*
X27184101Y29170391D01*
X27216910Y29227218D01*
X27216911Y29227219D01*
X27220214Y29232941D01*
X27277085Y29407971D01*
X27296322Y29591000D01*
X27289209Y29658678D01*
X27277775Y29767465D01*
X27277775Y29767466D01*
X27277085Y29774029D01*
X27220214Y29949059D01*
X27177345Y30023310D01*
X27160607Y30092305D01*
X27177344Y30149308D01*
X27220203Y30223541D01*
X27257622Y30338704D01*
X27275034Y30392292D01*
X27275034Y30392294D01*
X27277074Y30398571D01*
X27278556Y30412666D01*
X27295621Y30575035D01*
X27296311Y30581600D01*
X27288149Y30659261D01*
X27277764Y30758065D01*
X27277764Y30758066D01*
X27277074Y30764629D01*
X27220203Y30939659D01*
X27128184Y31099040D01*
X27090601Y31140781D01*
X27009461Y31230896D01*
X27009460Y31230897D01*
X27005039Y31235807D01*
X26999697Y31239688D01*
X26999695Y31239690D01*
X26861492Y31340100D01*
X26861491Y31340101D01*
X26856150Y31343981D01*
X26850122Y31346665D01*
X26850120Y31346666D01*
X26694054Y31416151D01*
X26694053Y31416151D01*
X26688023Y31418836D01*
X26598015Y31437968D01*
X26514465Y31455728D01*
X26514460Y31455728D01*
X26508008Y31457100D01*
X26323970Y31457100D01*
X26317518Y31455728D01*
X26317513Y31455728D01*
X26233963Y31437968D01*
X26143955Y31418836D01*
X26137925Y31416151D01*
X26137924Y31416151D01*
X25981858Y31346666D01*
X25981856Y31346665D01*
X25975828Y31343981D01*
X25970487Y31340101D01*
X25970486Y31340100D01*
X25923777Y31306164D01*
X25849716Y31282100D01*
X25398830Y31282100D01*
X25390260Y31282392D01*
X25340835Y31285762D01*
X25340831Y31285762D01*
X25333259Y31286278D01*
X25325783Y31284973D01*
X25325780Y31284973D01*
X25271057Y31275422D01*
X25264531Y31274459D01*
X25224093Y31269565D01*
X25201869Y31266876D01*
X25194762Y31264191D01*
X25191469Y31263382D01*
X25176976Y31259417D01*
X25176519Y31259279D01*
X25176416Y31259264D01*
X25172784Y31258270D01*
X25166235Y31257127D01*
X25166233Y31257126D01*
X25166125Y31257744D01*
X25140098Y31253900D01*
X25074970Y31253900D01*
X25068518Y31252528D01*
X25068513Y31252528D01*
X24984963Y31234768D01*
X24894955Y31215636D01*
X24888925Y31212951D01*
X24888924Y31212951D01*
X24732858Y31143466D01*
X24732856Y31143465D01*
X24726828Y31140781D01*
X24721487Y31136901D01*
X24721486Y31136900D01*
X24583283Y31036490D01*
X24583281Y31036488D01*
X24577939Y31032607D01*
X24573518Y31027697D01*
X24573517Y31027696D01*
X24488590Y30933374D01*
X24454794Y30895840D01*
X24362775Y30736459D01*
X24305904Y30561429D01*
X24302427Y30528341D01*
X24301935Y30523664D01*
X24274922Y30458007D01*
X24227874Y30421726D01*
X24095295Y30362698D01*
X24095293Y30362697D01*
X24089265Y30360013D01*
X24083924Y30356133D01*
X24083923Y30356132D01*
X23945720Y30255722D01*
X23945718Y30255720D01*
X23940376Y30251839D01*
X23935955Y30246929D01*
X23935954Y30246928D01*
X23851786Y30153449D01*
X23817231Y30115072D01*
X23725212Y29955691D01*
X23723170Y29949406D01*
X23682871Y29825378D01*
X23668341Y29780661D01*
X23649104Y29597632D01*
X23649794Y29591067D01*
X23656348Y29528714D01*
X23668341Y29414603D01*
X23670381Y29408326D01*
X23670381Y29408324D01*
X23696280Y29328615D01*
X23725212Y29239573D01*
X23728515Y29233851D01*
X23728516Y29233850D01*
X23796483Y29116129D01*
X23817231Y29080192D01*
X23821653Y29075281D01*
X23821655Y29075278D01*
X23843636Y29050865D01*
X23874354Y28986858D01*
X23876000Y28966555D01*
X23876000Y28928500D01*
X23855998Y28860379D01*
X23802342Y28813886D01*
X23750000Y28802500D01*
X22657115Y28802500D01*
X22641876Y28798025D01*
X22640671Y28796635D01*
X22639000Y28788952D01*
X22639000Y28710234D01*
X22639337Y28703718D01*
X22649075Y28609868D01*
X22651968Y28596472D01*
X22702488Y28445047D01*
X22708653Y28431885D01*
X22767910Y28336126D01*
X22786747Y28267674D01*
X22765585Y28199905D01*
X22758965Y28190876D01*
X22674362Y28085652D01*
X22655804Y28048267D01*
X22596439Y27928677D01*
X22596438Y27928673D01*
X22593406Y27922566D01*
X22549358Y27745900D01*
X22548980Y27740354D01*
X22548980Y27740351D01*
X22546647Y27706128D01*
X22546500Y27703977D01*
X22546501Y26959024D01*
X22549358Y26917100D01*
X22593406Y26740434D01*
X22596438Y26734327D01*
X22596439Y26734323D01*
X22628180Y26670381D01*
X22674362Y26577348D01*
X22788451Y26435451D01*
X22930348Y26321362D01*
X23003039Y26285278D01*
X23087323Y26243439D01*
X23087327Y26243438D01*
X23093434Y26240406D01*
X23270100Y26196358D01*
X23290760Y26194950D01*
X23309876Y26193646D01*
X23309887Y26193646D01*
X23312023Y26193500D01*
X23342307Y26193500D01*
X23759035Y26193501D01*
X23817933Y26178707D01*
X23823047Y26175113D01*
X23830122Y26172355D01*
X23830123Y26172354D01*
X23881864Y26152181D01*
X23887945Y26149625D01*
X23945484Y26123645D01*
X23952950Y26122261D01*
X23956199Y26121243D01*
X23970664Y26117123D01*
X23973937Y26116283D01*
X23981013Y26113524D01*
X24025683Y26107644D01*
X24043606Y26105284D01*
X24050123Y26104252D01*
X24068744Y26100801D01*
X24112192Y26092748D01*
X24119773Y26093185D01*
X24124590Y26092882D01*
X24191320Y26068642D01*
X24234352Y26012173D01*
X24240023Y25941403D01*
X24225798Y25904133D01*
X24214786Y25885059D01*
X24157915Y25710029D01*
X24138678Y25527000D01*
X24157915Y25343971D01*
X24214786Y25168941D01*
X24223288Y25154216D01*
X24240026Y25085224D01*
X24234002Y25052280D01*
X24181924Y24892000D01*
X24177400Y24878078D01*
X24176710Y24871515D01*
X24176710Y24871514D01*
X24170784Y24815132D01*
X24158163Y24695049D01*
X24158853Y24688484D01*
X24173944Y24544906D01*
X24177400Y24512020D01*
X24179440Y24505743D01*
X24179440Y24505741D01*
X24195254Y24457072D01*
X24234271Y24336990D01*
X24237574Y24331268D01*
X24237575Y24331267D01*
X24264506Y24284621D01*
X24326290Y24177609D01*
X24330708Y24172702D01*
X24330709Y24172701D01*
X24389216Y24107722D01*
X24449435Y24040842D01*
X24473118Y24023635D01*
X24516472Y23967415D01*
X24524368Y23934870D01*
X24533049Y23852272D01*
X24589920Y23677242D01*
X24593223Y23671520D01*
X24593224Y23671519D01*
X24619670Y23625713D01*
X24681939Y23517861D01*
X24686357Y23512954D01*
X24686358Y23512953D01*
X24800662Y23386005D01*
X24805084Y23381094D01*
X24810426Y23377213D01*
X24810428Y23377211D01*
X24909459Y23305261D01*
X24953973Y23272920D01*
X24960001Y23270236D01*
X24960003Y23270235D01*
X25063130Y23224320D01*
X25122100Y23198065D01*
X25201762Y23181132D01*
X25295658Y23161173D01*
X25295663Y23161173D01*
X25302115Y23159801D01*
X25486153Y23159801D01*
X25492605Y23161173D01*
X25492610Y23161173D01*
X25586506Y23181132D01*
X25666168Y23198065D01*
X25725138Y23224320D01*
X25792699Y23254400D01*
X25863066Y23263834D01*
X25927363Y23233727D01*
X25963781Y23178229D01*
X25992786Y23088961D01*
X25996089Y23083239D01*
X25996090Y23083238D01*
X26011899Y23055857D01*
X26084805Y22929580D01*
X26089223Y22924673D01*
X26089224Y22924672D01*
X26203528Y22797724D01*
X26207950Y22792813D01*
X26213292Y22788932D01*
X26213294Y22788930D01*
X26307860Y22720224D01*
X26356839Y22684639D01*
X26362867Y22681955D01*
X26362869Y22681954D01*
X26487273Y22626566D01*
X26524966Y22609784D01*
X26639093Y22585525D01*
X26701990Y22551374D01*
X29103636Y20149728D01*
X29109491Y20143461D01*
X29142059Y20106126D01*
X29142061Y20106124D01*
X29147051Y20100404D01*
X29198693Y20064110D01*
X29203978Y20060184D01*
X29247696Y20025905D01*
X29247700Y20025903D01*
X29253677Y20021216D01*
X29260600Y20018090D01*
X29263548Y20016305D01*
X29276508Y20008913D01*
X29279554Y20007280D01*
X29285767Y20002913D01*
X29344586Y19979980D01*
X29350665Y19977425D01*
X29408204Y19951445D01*
X29415675Y19950060D01*
X29418943Y19949036D01*
X29433384Y19944923D01*
X29436657Y19944083D01*
X29443733Y19941324D01*
X29488403Y19935444D01*
X29506326Y19933084D01*
X29512843Y19932052D01*
X29554255Y19924377D01*
X29574912Y19920548D01*
X29582492Y19920985D01*
X29582493Y19920985D01*
X29636364Y19924091D01*
X29643616Y19924300D01*
X42990054Y19924300D01*
X43058175Y19904298D01*
X43079149Y19887395D01*
X43703485Y19263059D01*
X43737511Y19200747D01*
X43739700Y19187136D01*
X43741315Y19171771D01*
X43798186Y18996741D01*
X43890205Y18837360D01*
X43894623Y18832453D01*
X43894624Y18832452D01*
X43964609Y18754726D01*
X44013350Y18700593D01*
X44018692Y18696712D01*
X44018694Y18696710D01*
X44100753Y18637091D01*
X44162239Y18592419D01*
X44168267Y18589735D01*
X44168269Y18589734D01*
X44324335Y18520249D01*
X44330366Y18517564D01*
X44420373Y18498432D01*
X44503924Y18480672D01*
X44503929Y18480672D01*
X44510381Y18479300D01*
X44694419Y18479300D01*
X44700871Y18480672D01*
X44700876Y18480672D01*
X44784427Y18498432D01*
X44874434Y18517564D01*
X44880465Y18520249D01*
X45036531Y18589734D01*
X45036533Y18589735D01*
X45042561Y18592419D01*
X45104047Y18637091D01*
X45186106Y18696710D01*
X45186108Y18696712D01*
X45191450Y18700593D01*
X45240191Y18754726D01*
X45310176Y18832452D01*
X45310177Y18832453D01*
X45314595Y18837360D01*
X45406614Y18996741D01*
X45463485Y19171771D01*
X45466531Y19200747D01*
X45482032Y19348235D01*
X45482722Y19354800D01*
X45463485Y19537829D01*
X45450231Y19578622D01*
X45408656Y19706574D01*
X45406614Y19712859D01*
X45314595Y19872240D01*
X45300950Y19887395D01*
X45195872Y20004096D01*
X45195871Y20004097D01*
X45191450Y20009007D01*
X45186108Y20012888D01*
X45186106Y20012890D01*
X45047903Y20113300D01*
X45047902Y20113301D01*
X45042561Y20117181D01*
X45036533Y20119865D01*
X45036531Y20119866D01*
X44880465Y20189351D01*
X44880464Y20189351D01*
X44874434Y20192036D01*
X44760308Y20216295D01*
X44697411Y20250446D01*
X43847982Y21099875D01*
X43842128Y21106141D01*
X43809565Y21143469D01*
X43804569Y21149196D01*
X43752927Y21185490D01*
X43747642Y21189416D01*
X43703924Y21223695D01*
X43703920Y21223697D01*
X43697943Y21228384D01*
X43691020Y21231510D01*
X43688072Y21233295D01*
X43675112Y21240687D01*
X43672066Y21242320D01*
X43665853Y21246687D01*
X43607033Y21269620D01*
X43600954Y21272176D01*
X43543416Y21298155D01*
X43535945Y21299540D01*
X43532677Y21300564D01*
X43518236Y21304677D01*
X43514963Y21305517D01*
X43507887Y21308276D01*
X43463217Y21314156D01*
X43445294Y21316516D01*
X43438777Y21317548D01*
X43384175Y21327668D01*
X43376708Y21329052D01*
X43369128Y21328615D01*
X43369127Y21328615D01*
X43315256Y21325509D01*
X43308004Y21325300D01*
X35590123Y21325300D01*
X35522002Y21345302D01*
X35475509Y21398958D01*
X35465405Y21469232D01*
X35477263Y21507323D01*
X35505059Y21563319D01*
X35505060Y21563323D01*
X35508094Y21569434D01*
X35552142Y21746100D01*
X35555000Y21788023D01*
X35554999Y22407976D01*
X35552142Y22449900D01*
X35508094Y22626566D01*
X35505062Y22632673D01*
X35505061Y22632677D01*
X35461602Y22720224D01*
X35427138Y22789652D01*
X35336908Y22901875D01*
X35317327Y22926229D01*
X35317324Y22926232D01*
X35313049Y22931549D01*
X35309292Y22934569D01*
X35275637Y22996210D01*
X35275512Y23049183D01*
X35276046Y23051696D01*
X35278085Y23057971D01*
X35278877Y23065504D01*
X35289408Y23165700D01*
X35316421Y23231357D01*
X35374643Y23271986D01*
X35388521Y23275775D01*
X35520768Y23303886D01*
X35520773Y23303888D01*
X35527234Y23305261D01*
X35607236Y23340880D01*
X35689331Y23377431D01*
X35689333Y23377432D01*
X35695361Y23380116D01*
X35703467Y23386005D01*
X35747412Y23417933D01*
X35821473Y23441997D01*
X37286756Y23441997D01*
X37295326Y23441705D01*
X37344751Y23438335D01*
X37344755Y23438335D01*
X37352327Y23437819D01*
X37359802Y23439124D01*
X37359809Y23439124D01*
X37369735Y23440857D01*
X37398381Y23441832D01*
X37398381Y23442000D01*
X37582419Y23442000D01*
X37588871Y23443372D01*
X37588876Y23443372D01*
X37672427Y23461132D01*
X37762434Y23480264D01*
X37835855Y23512953D01*
X37924531Y23552434D01*
X37924533Y23552435D01*
X37930561Y23555119D01*
X37966972Y23581573D01*
X38074106Y23659410D01*
X38074108Y23659412D01*
X38079450Y23663293D01*
X38086838Y23671498D01*
X38198176Y23795152D01*
X38198177Y23795153D01*
X38202595Y23800060D01*
X38294614Y23959441D01*
X38341726Y24104436D01*
X38381800Y24163042D01*
X38447196Y24190679D01*
X38461559Y24191500D01*
X40509759Y24191500D01*
X40518329Y24191208D01*
X40567754Y24187838D01*
X40567758Y24187838D01*
X40575330Y24187322D01*
X40582806Y24188627D01*
X40582809Y24188627D01*
X40637532Y24198178D01*
X40644058Y24199141D01*
X40684496Y24204035D01*
X40706720Y24206724D01*
X40713827Y24209409D01*
X40717120Y24210218D01*
X40731591Y24214177D01*
X40734867Y24215166D01*
X40742354Y24216473D01*
X40749314Y24219528D01*
X40800160Y24241847D01*
X40806266Y24244339D01*
X40858218Y24263970D01*
X40858220Y24263971D01*
X40865323Y24266655D01*
X40871578Y24270954D01*
X40874603Y24272535D01*
X40887699Y24279825D01*
X40890643Y24281566D01*
X40897602Y24284621D01*
X40906445Y24291406D01*
X40947673Y24323042D01*
X40953009Y24326919D01*
X40998786Y24358381D01*
X40998792Y24358386D01*
X41005051Y24362688D01*
X41046009Y24408658D01*
X41050989Y24413933D01*
X42513011Y25875954D01*
X42572031Y25908000D01*
X57793678Y25908000D01*
X57794368Y25901435D01*
X57809526Y25757220D01*
X57812915Y25724971D01*
X57814955Y25718694D01*
X57814955Y25718692D01*
X57831330Y25668296D01*
X57869786Y25549941D01*
X57961805Y25390560D01*
X57966223Y25385653D01*
X57966224Y25385652D01*
X58001301Y25346695D01*
X58084950Y25253793D01*
X58090292Y25249912D01*
X58090294Y25249910D01*
X58181765Y25183453D01*
X58233839Y25145619D01*
X58239867Y25142935D01*
X58239869Y25142934D01*
X58304730Y25114056D01*
X58401966Y25070764D01*
X58408430Y25069390D01*
X58471192Y25056049D01*
X58534090Y25021898D01*
X59004341Y24551647D01*
X59016727Y24537235D01*
X59028791Y24520842D01*
X59034367Y24516105D01*
X59067147Y24488256D01*
X59074662Y24481326D01*
X59079949Y24476039D01*
X59101202Y24459224D01*
X59104579Y24456455D01*
X59157720Y24411308D01*
X59164237Y24407981D01*
X59168781Y24404950D01*
X59173434Y24402077D01*
X59179175Y24397534D01*
X59242377Y24367995D01*
X59246277Y24366089D01*
X59278056Y24349862D01*
X59308389Y24334373D01*
X59315496Y24332634D01*
X59320602Y24330735D01*
X59325803Y24329005D01*
X59332438Y24325904D01*
X59400712Y24311703D01*
X59404996Y24310733D01*
X59472717Y24294162D01*
X59478319Y24293814D01*
X59478322Y24293814D01*
X59483388Y24293500D01*
X59483387Y24293481D01*
X59487944Y24293207D01*
X59490908Y24292943D01*
X59498069Y24291453D01*
X59572019Y24293454D01*
X59575427Y24293500D01*
X60428137Y24293500D01*
X60496258Y24273498D01*
X60502199Y24269436D01*
X60519839Y24256619D01*
X60525867Y24253935D01*
X60525869Y24253934D01*
X60681935Y24184449D01*
X60687966Y24181764D01*
X60776045Y24163042D01*
X60861524Y24144872D01*
X60861529Y24144872D01*
X60867981Y24143500D01*
X61052019Y24143500D01*
X61058471Y24144872D01*
X61058476Y24144872D01*
X61143955Y24163042D01*
X61232034Y24181764D01*
X61238065Y24184449D01*
X61394131Y24253934D01*
X61394133Y24253935D01*
X61400161Y24256619D01*
X61413698Y24266454D01*
X61543706Y24360910D01*
X61543708Y24360912D01*
X61549050Y24364793D01*
X61553472Y24369704D01*
X61667776Y24496652D01*
X61667777Y24496653D01*
X61672195Y24501560D01*
X61764214Y24660941D01*
X61821085Y24835971D01*
X61840322Y25019000D01*
X61833039Y25088293D01*
X61821775Y25195465D01*
X61821775Y25195466D01*
X61821085Y25202029D01*
X61814077Y25223599D01*
X61766256Y25370774D01*
X61764214Y25377059D01*
X61738180Y25422152D01*
X61687614Y25509733D01*
X61672195Y25536440D01*
X61574476Y25644969D01*
X61553472Y25668296D01*
X61553471Y25668297D01*
X61549050Y25673207D01*
X61543708Y25677088D01*
X61543706Y25677090D01*
X61405503Y25777500D01*
X61405502Y25777501D01*
X61400161Y25781381D01*
X61394133Y25784065D01*
X61394131Y25784066D01*
X61238065Y25853551D01*
X61238064Y25853551D01*
X61232034Y25856236D01*
X61126003Y25878774D01*
X61058476Y25893128D01*
X61058471Y25893128D01*
X61052019Y25894500D01*
X60867981Y25894500D01*
X60861529Y25893128D01*
X60861524Y25893128D01*
X60793997Y25878774D01*
X60687966Y25856236D01*
X60681936Y25853551D01*
X60681935Y25853551D01*
X60525869Y25784066D01*
X60525867Y25784065D01*
X60519839Y25781381D01*
X60514498Y25777501D01*
X60514497Y25777500D01*
X60502198Y25768564D01*
X60435330Y25744706D01*
X60428137Y25744500D01*
X59915702Y25744500D01*
X59847581Y25764502D01*
X59826607Y25781405D01*
X59565188Y26042824D01*
X59534450Y26092983D01*
X59532016Y26100475D01*
X59478214Y26266059D01*
X59386195Y26425440D01*
X59263050Y26562207D01*
X59257708Y26566088D01*
X59257706Y26566090D01*
X59119503Y26666500D01*
X59119502Y26666501D01*
X59114161Y26670381D01*
X59108133Y26673065D01*
X59108131Y26673066D01*
X58952065Y26742551D01*
X58952064Y26742551D01*
X58946034Y26745236D01*
X58839655Y26767848D01*
X58772476Y26782128D01*
X58772471Y26782128D01*
X58766019Y26783500D01*
X58581981Y26783500D01*
X58575529Y26782128D01*
X58575524Y26782128D01*
X58508345Y26767848D01*
X58401966Y26745236D01*
X58395936Y26742551D01*
X58395935Y26742551D01*
X58239869Y26673066D01*
X58239867Y26673065D01*
X58233839Y26670381D01*
X58228498Y26666501D01*
X58228497Y26666500D01*
X58090294Y26566090D01*
X58090292Y26566088D01*
X58084950Y26562207D01*
X57961805Y26425440D01*
X57869786Y26266059D01*
X57858879Y26232491D01*
X57820220Y26113510D01*
X57812915Y26091029D01*
X57793678Y25908000D01*
X42572031Y25908000D01*
X42575908Y25910105D01*
X42690034Y25934364D01*
X42705844Y25941403D01*
X42852131Y26006534D01*
X42852133Y26006535D01*
X42858161Y26009219D01*
X42893121Y26034619D01*
X43001706Y26113510D01*
X43001708Y26113512D01*
X43007050Y26117393D01*
X43066907Y26183871D01*
X43125776Y26249252D01*
X43125777Y26249253D01*
X43130195Y26254160D01*
X43222214Y26413541D01*
X43270986Y26563645D01*
X43277045Y26582292D01*
X43277045Y26582294D01*
X43279085Y26588571D01*
X43285271Y26647422D01*
X43297632Y26765035D01*
X43298322Y26771600D01*
X43283596Y26911707D01*
X43279775Y26948065D01*
X43279775Y26948066D01*
X43279085Y26954629D01*
X43276959Y26961174D01*
X43224256Y27123374D01*
X43222214Y27129659D01*
X43218176Y27136654D01*
X43157478Y27241785D01*
X43133224Y27283794D01*
X78152000Y27283794D01*
X78152165Y27279223D01*
X78166213Y27085620D01*
X78167527Y27076611D01*
X78223689Y26822231D01*
X78226292Y26813501D01*
X78318586Y26569893D01*
X78322421Y26561632D01*
X78448915Y26333899D01*
X78453905Y26326274D01*
X78611946Y26119191D01*
X78617986Y26112364D01*
X78804264Y25930265D01*
X78811226Y25924382D01*
X79021843Y25771078D01*
X79029573Y25766267D01*
X79260122Y25644969D01*
X79268472Y25641322D01*
X79514099Y25554581D01*
X79522894Y25552175D01*
X79738225Y25509733D01*
X79751137Y25510912D01*
X79755939Y25525826D01*
X80264000Y25525826D01*
X80268251Y25511349D01*
X80280512Y25509286D01*
X80316133Y25512685D01*
X80325125Y25514205D01*
X80578158Y25576122D01*
X80586827Y25578922D01*
X80828282Y25676722D01*
X80836455Y25680744D01*
X81061253Y25812368D01*
X81068765Y25817531D01*
X81272213Y25980231D01*
X81278896Y25986420D01*
X81456733Y26176794D01*
X81462443Y26183871D01*
X81610934Y26397918D01*
X81615571Y26405759D01*
X81731604Y26638997D01*
X81735060Y26647422D01*
X81816212Y26894974D01*
X81818412Y26903799D01*
X81863103Y27161189D01*
X81863950Y27168807D01*
X81867922Y27248592D01*
X81868000Y27251733D01*
X81868000Y27377885D01*
X81863525Y27393124D01*
X81862135Y27394329D01*
X81854452Y27396000D01*
X80282115Y27396000D01*
X80266876Y27391525D01*
X80265671Y27390135D01*
X80264000Y27382452D01*
X80264000Y25525826D01*
X79755939Y25525826D01*
X79756000Y25526015D01*
X79756000Y27377885D01*
X79751525Y27393124D01*
X79750135Y27394329D01*
X79742452Y27396000D01*
X78170115Y27396000D01*
X78154876Y27391525D01*
X78153671Y27390135D01*
X78152000Y27382452D01*
X78152000Y27283794D01*
X43133224Y27283794D01*
X43130195Y27289040D01*
X43100396Y27322136D01*
X43011472Y27420896D01*
X43011471Y27420897D01*
X43007050Y27425807D01*
X43001708Y27429688D01*
X43001706Y27429690D01*
X42863503Y27530100D01*
X42863502Y27530101D01*
X42858161Y27533981D01*
X42852133Y27536665D01*
X42852131Y27536666D01*
X42696062Y27606152D01*
X42696063Y27606152D01*
X42690034Y27608836D01*
X42642190Y27619006D01*
X42579720Y27652733D01*
X42559271Y27679251D01*
X42559165Y27679435D01*
X42520595Y27746240D01*
X42450123Y27824508D01*
X42401872Y27878096D01*
X42401871Y27878097D01*
X42397450Y27883007D01*
X42392108Y27886888D01*
X42392106Y27886890D01*
X42343623Y27922115D01*
X78152000Y27922115D01*
X78156475Y27906876D01*
X78157865Y27905671D01*
X78165548Y27904000D01*
X79737885Y27904000D01*
X79753124Y27908475D01*
X79754329Y27909865D01*
X79756000Y27917548D01*
X79756000Y27922115D01*
X80264000Y27922115D01*
X80268475Y27906876D01*
X80269865Y27905671D01*
X80277548Y27904000D01*
X81849885Y27904000D01*
X81865124Y27908475D01*
X81866329Y27909865D01*
X81868000Y27917548D01*
X81868000Y28016206D01*
X81867835Y28020777D01*
X81853787Y28214380D01*
X81852473Y28223389D01*
X81796311Y28477769D01*
X81793708Y28486499D01*
X81701414Y28730107D01*
X81697579Y28738368D01*
X81571085Y28966101D01*
X81566095Y28973726D01*
X81408054Y29180809D01*
X81402014Y29187636D01*
X81215736Y29369735D01*
X81208774Y29375618D01*
X80998157Y29528922D01*
X80990427Y29533733D01*
X80759878Y29655031D01*
X80751528Y29658678D01*
X80505901Y29745419D01*
X80497106Y29747825D01*
X80281775Y29790267D01*
X80268863Y29789088D01*
X80264000Y29773985D01*
X80264000Y27922115D01*
X79756000Y27922115D01*
X79756000Y29774174D01*
X79751749Y29788651D01*
X79739488Y29790714D01*
X79703867Y29787315D01*
X79694875Y29785795D01*
X79441842Y29723878D01*
X79433173Y29721078D01*
X79191718Y29623278D01*
X79183545Y29619256D01*
X78958747Y29487632D01*
X78951235Y29482469D01*
X78747787Y29319769D01*
X78741104Y29313580D01*
X78563267Y29123206D01*
X78557557Y29116129D01*
X78409066Y28902082D01*
X78404429Y28894241D01*
X78288396Y28661003D01*
X78284940Y28652578D01*
X78203788Y28405026D01*
X78201588Y28396201D01*
X78156897Y28138811D01*
X78156050Y28131193D01*
X78152078Y28051408D01*
X78152000Y28048267D01*
X78152000Y27922115D01*
X42343623Y27922115D01*
X42253903Y27987300D01*
X42253902Y27987301D01*
X42248561Y27991181D01*
X42242533Y27993865D01*
X42242531Y27993866D01*
X42086465Y28063351D01*
X42086464Y28063351D01*
X42080434Y28066036D01*
X41990426Y28085168D01*
X41906876Y28102928D01*
X41906871Y28102928D01*
X41900419Y28104300D01*
X41716381Y28104300D01*
X41709929Y28102928D01*
X41709924Y28102928D01*
X41626373Y28085168D01*
X41536366Y28066036D01*
X41530336Y28063351D01*
X41530335Y28063351D01*
X41374269Y27993866D01*
X41374267Y27993865D01*
X41368239Y27991181D01*
X41362898Y27987301D01*
X41362897Y27987300D01*
X41224694Y27886890D01*
X41224692Y27886888D01*
X41219350Y27883007D01*
X41214929Y27878097D01*
X41214928Y27878096D01*
X41166678Y27824508D01*
X41096205Y27746240D01*
X41067827Y27697088D01*
X41047804Y27670993D01*
X40851824Y27475012D01*
X40680217Y27303405D01*
X40617904Y27269380D01*
X40591121Y27266500D01*
X40123082Y27266500D01*
X40054961Y27286502D01*
X40008468Y27340158D01*
X39998364Y27410432D01*
X40027858Y27475012D01*
X40049021Y27494436D01*
X40053239Y27497500D01*
X40098417Y27530324D01*
X40106106Y27535910D01*
X40106108Y27535912D01*
X40111450Y27539793D01*
X40125593Y27555500D01*
X40230176Y27671652D01*
X40230177Y27671653D01*
X40234595Y27676560D01*
X40326614Y27835941D01*
X40377518Y27992606D01*
X40417590Y28051211D01*
X40482211Y28078755D01*
X40519231Y28083235D01*
X40526338Y28085920D01*
X40529631Y28086729D01*
X40544102Y28090688D01*
X40547378Y28091677D01*
X40554865Y28092984D01*
X40561825Y28096039D01*
X40612671Y28118358D01*
X40618777Y28120850D01*
X40670729Y28140481D01*
X40670731Y28140482D01*
X40677834Y28143166D01*
X40684089Y28147465D01*
X40687114Y28149046D01*
X40700210Y28156336D01*
X40703154Y28158077D01*
X40710113Y28161132D01*
X40716150Y28165764D01*
X40760184Y28199553D01*
X40765520Y28203430D01*
X40811297Y28234892D01*
X40811303Y28234897D01*
X40817562Y28239199D01*
X40858520Y28285169D01*
X40863500Y28290444D01*
X42722051Y30148995D01*
X42784363Y30183021D01*
X42811146Y30185900D01*
X47947727Y30185900D01*
X48021788Y30161836D01*
X48039462Y30148995D01*
X48073839Y30124019D01*
X48079867Y30121335D01*
X48079869Y30121334D01*
X48232573Y30053346D01*
X48241966Y30049164D01*
X48330600Y30030324D01*
X48415524Y30012272D01*
X48415529Y30012272D01*
X48421981Y30010900D01*
X48606019Y30010900D01*
X48612471Y30012272D01*
X48612476Y30012272D01*
X48697400Y30030324D01*
X48786034Y30049164D01*
X48795427Y30053346D01*
X48948131Y30121334D01*
X48948133Y30121335D01*
X48954161Y30124019D01*
X48989084Y30149392D01*
X49097706Y30228310D01*
X49097708Y30228312D01*
X49103050Y30232193D01*
X49107472Y30237104D01*
X49221776Y30364052D01*
X49221777Y30364053D01*
X49226195Y30368960D01*
X49289980Y30479438D01*
X49314910Y30522618D01*
X49314911Y30522619D01*
X49318214Y30528341D01*
X49345905Y30613565D01*
X49373045Y30697092D01*
X49373045Y30697094D01*
X49375085Y30703371D01*
X49381524Y30764629D01*
X49393632Y30879835D01*
X49394322Y30886400D01*
X49385453Y30970782D01*
X49375775Y31062865D01*
X49375775Y31062866D01*
X49375085Y31069429D01*
X49368556Y31089525D01*
X49320256Y31238174D01*
X49318214Y31244459D01*
X49313556Y31252528D01*
X49267924Y31331564D01*
X49226195Y31403840D01*
X49207117Y31425029D01*
X49107472Y31535696D01*
X49107471Y31535697D01*
X49103050Y31540607D01*
X49097708Y31544488D01*
X49097706Y31544490D01*
X48959503Y31644900D01*
X48959502Y31644901D01*
X48954161Y31648781D01*
X48948133Y31651465D01*
X48948131Y31651466D01*
X48792065Y31720951D01*
X48792064Y31720951D01*
X48786034Y31723636D01*
X48679514Y31746278D01*
X48612476Y31760528D01*
X48612471Y31760528D01*
X48606019Y31761900D01*
X48421981Y31761900D01*
X48415529Y31760528D01*
X48415524Y31760528D01*
X48348486Y31746278D01*
X48241966Y31723636D01*
X48235936Y31720951D01*
X48235935Y31720951D01*
X48079869Y31651466D01*
X48079867Y31651465D01*
X48073839Y31648781D01*
X48068498Y31644901D01*
X48068497Y31644900D01*
X48021788Y31610964D01*
X47947727Y31586900D01*
X45327746Y31586900D01*
X45259625Y31606902D01*
X45213132Y31660558D01*
X45203028Y31730832D01*
X45232522Y31795412D01*
X45238651Y31801995D01*
X45592251Y32155595D01*
X45654563Y32189621D01*
X45681346Y32192500D01*
X49979727Y32192500D01*
X50053788Y32168436D01*
X50100497Y32134500D01*
X50105839Y32130619D01*
X50111867Y32127935D01*
X50111869Y32127934D01*
X50230826Y32074971D01*
X50273966Y32055764D01*
X50363974Y32036632D01*
X50447524Y32018872D01*
X50447529Y32018872D01*
X50453981Y32017500D01*
X50638019Y32017500D01*
X50644471Y32018872D01*
X50644476Y32018872D01*
X50728026Y32036632D01*
X50818034Y32055764D01*
X50861174Y32074971D01*
X50980131Y32127934D01*
X50980133Y32127935D01*
X50986161Y32130619D01*
X50991503Y32134500D01*
X51129706Y32234910D01*
X51129708Y32234912D01*
X51135050Y32238793D01*
X51139472Y32243704D01*
X51152344Y32258000D01*
X51951678Y32258000D01*
X51952368Y32251435D01*
X51965174Y32129598D01*
X51970915Y32074971D01*
X51972955Y32068694D01*
X51972955Y32068692D01*
X51992979Y32007066D01*
X52027786Y31899941D01*
X52119805Y31740560D01*
X52242950Y31603793D01*
X52248292Y31599912D01*
X52248294Y31599910D01*
X52386497Y31499500D01*
X52391839Y31495619D01*
X52397867Y31492935D01*
X52397869Y31492934D01*
X52553935Y31423449D01*
X52559966Y31420764D01*
X52639586Y31403840D01*
X52733524Y31383872D01*
X52733529Y31383872D01*
X52739981Y31382500D01*
X52924019Y31382500D01*
X52930471Y31383872D01*
X52930476Y31383872D01*
X53024414Y31403840D01*
X53104034Y31420764D01*
X53110065Y31423449D01*
X53266131Y31492934D01*
X53266133Y31492935D01*
X53272161Y31495619D01*
X53277503Y31499500D01*
X53415706Y31599910D01*
X53415708Y31599912D01*
X53421050Y31603793D01*
X53544195Y31740560D01*
X53607669Y31850500D01*
X53659052Y31899493D01*
X53716788Y31913500D01*
X58702298Y31913500D01*
X58770419Y31893498D01*
X58791393Y31876595D01*
X59814812Y30853176D01*
X59845550Y30803017D01*
X59901786Y30629941D01*
X59993805Y30470560D01*
X59998223Y30465653D01*
X59998224Y30465652D01*
X60096836Y30356132D01*
X60116950Y30333793D01*
X60122292Y30329912D01*
X60122294Y30329910D01*
X60260497Y30229500D01*
X60265839Y30225619D01*
X60271867Y30222935D01*
X60271869Y30222934D01*
X60427935Y30153449D01*
X60433966Y30150764D01*
X60523973Y30131632D01*
X60607524Y30113872D01*
X60607529Y30113872D01*
X60613981Y30112500D01*
X60798019Y30112500D01*
X60804471Y30113872D01*
X60804476Y30113872D01*
X60888027Y30131632D01*
X60978034Y30150764D01*
X60984065Y30153449D01*
X61140131Y30222934D01*
X61140133Y30222935D01*
X61146161Y30225619D01*
X61151503Y30229500D01*
X61289706Y30329910D01*
X61289708Y30329912D01*
X61295050Y30333793D01*
X61315164Y30356132D01*
X61413776Y30465652D01*
X61413777Y30465653D01*
X61418195Y30470560D01*
X61510214Y30629941D01*
X61567085Y30804971D01*
X61574954Y30879835D01*
X61585632Y30981435D01*
X61586322Y30988000D01*
X61574651Y31099040D01*
X61567775Y31164465D01*
X61567775Y31164466D01*
X61567085Y31171029D01*
X61552146Y31217008D01*
X61512256Y31339774D01*
X61510214Y31346059D01*
X61418195Y31505440D01*
X61390953Y31535696D01*
X61299472Y31637296D01*
X61299471Y31637297D01*
X61295050Y31642207D01*
X61289708Y31646088D01*
X61289706Y31646090D01*
X61151503Y31746500D01*
X61151502Y31746501D01*
X61146161Y31750381D01*
X61140133Y31753065D01*
X61140131Y31753066D01*
X61075270Y31781944D01*
X60978034Y31825236D01*
X60908808Y31839951D01*
X60845910Y31874102D01*
X59613659Y33106353D01*
X59601272Y33120766D01*
X59593546Y33131264D01*
X59589209Y33137158D01*
X59550853Y33169744D01*
X59543338Y33176674D01*
X59538051Y33181961D01*
X59516798Y33198776D01*
X59513421Y33201545D01*
X59465856Y33241955D01*
X59465855Y33241956D01*
X59460280Y33246692D01*
X59453763Y33250019D01*
X59449219Y33253050D01*
X59444566Y33255923D01*
X59438825Y33260466D01*
X59375623Y33290005D01*
X59371723Y33291911D01*
X59316127Y33320300D01*
X59316125Y33320301D01*
X59309611Y33323627D01*
X59302504Y33325366D01*
X59297398Y33327265D01*
X59292197Y33328995D01*
X59285562Y33332096D01*
X59217283Y33346298D01*
X59212999Y33347268D01*
X59212660Y33347351D01*
X59145283Y33363838D01*
X59139681Y33364186D01*
X59139678Y33364186D01*
X59134612Y33364500D01*
X59134613Y33364519D01*
X59130056Y33364793D01*
X59127092Y33365057D01*
X59119931Y33366547D01*
X59045981Y33364546D01*
X59042573Y33364500D01*
X53277557Y33364500D01*
X53258607Y33365933D01*
X53245726Y33367893D01*
X53245722Y33367893D01*
X53238492Y33368993D01*
X53231200Y33368400D01*
X53231197Y33368400D01*
X53188352Y33364915D01*
X53178138Y33364500D01*
X53170637Y33364500D01*
X53166992Y33364075D01*
X53166991Y33364075D01*
X53143725Y33361363D01*
X53139351Y33360930D01*
X53077171Y33355873D01*
X53077167Y33355872D01*
X53069873Y33355279D01*
X53062909Y33353023D01*
X53057528Y33351948D01*
X53052231Y33350696D01*
X53044963Y33349848D01*
X52979395Y33326048D01*
X52975264Y33324630D01*
X52908933Y33303141D01*
X52902675Y33299343D01*
X52897697Y33297064D01*
X52892824Y33294624D01*
X52885939Y33292125D01*
X52837651Y33260466D01*
X52827624Y33253892D01*
X52823904Y33251545D01*
X52769103Y33218291D01*
X52769098Y33218287D01*
X52764302Y33215377D01*
X52756288Y33208300D01*
X52756276Y33208314D01*
X52752851Y33205279D01*
X52750577Y33203378D01*
X52744460Y33199367D01*
X52739430Y33194057D01*
X52694409Y33146532D01*
X52629134Y33109939D01*
X52566428Y33096610D01*
X52566424Y33096609D01*
X52559966Y33095236D01*
X52471272Y33055747D01*
X52397869Y33023066D01*
X52397867Y33023065D01*
X52391839Y33020381D01*
X52386498Y33016501D01*
X52386497Y33016500D01*
X52248294Y32916090D01*
X52248292Y32916088D01*
X52242950Y32912207D01*
X52238529Y32907297D01*
X52238528Y32907296D01*
X52176202Y32838075D01*
X52119805Y32775440D01*
X52027786Y32616059D01*
X52025744Y32609774D01*
X51975358Y32454702D01*
X51970915Y32441029D01*
X51970225Y32434466D01*
X51970225Y32434465D01*
X51957801Y32316257D01*
X51951678Y32258000D01*
X51152344Y32258000D01*
X51253776Y32370652D01*
X51253777Y32370653D01*
X51258195Y32375560D01*
X51337934Y32513671D01*
X51346910Y32529218D01*
X51346911Y32529219D01*
X51350214Y32534941D01*
X51407085Y32709971D01*
X51426322Y32893000D01*
X51415019Y33000541D01*
X51407775Y33069465D01*
X51407775Y33069466D01*
X51407085Y33076029D01*
X51391603Y33123679D01*
X51352256Y33244774D01*
X51350214Y33251059D01*
X51327744Y33289979D01*
X51294971Y33346742D01*
X51258195Y33410440D01*
X51222157Y33450465D01*
X51139472Y33542296D01*
X51139471Y33542297D01*
X51135050Y33547207D01*
X51129708Y33551088D01*
X51129706Y33551090D01*
X50991503Y33651500D01*
X50991502Y33651501D01*
X50986161Y33655381D01*
X50980133Y33658065D01*
X50980131Y33658066D01*
X50824065Y33727551D01*
X50824064Y33727551D01*
X50818034Y33730236D01*
X50728027Y33749368D01*
X50644476Y33767128D01*
X50644471Y33767128D01*
X50638019Y33768500D01*
X50453981Y33768500D01*
X50447529Y33767128D01*
X50447524Y33767128D01*
X50363973Y33749368D01*
X50273966Y33730236D01*
X50267936Y33727551D01*
X50267935Y33727551D01*
X50111869Y33658066D01*
X50111867Y33658065D01*
X50105839Y33655381D01*
X50100498Y33651501D01*
X50100497Y33651500D01*
X50053788Y33617564D01*
X49979727Y33593500D01*
X46961099Y33593500D01*
X46892978Y33613502D01*
X46846485Y33667158D01*
X46835789Y33732671D01*
X46850171Y33869501D01*
X46854322Y33909000D01*
X46835085Y34092029D01*
X46837606Y34092294D01*
X46842132Y34151715D01*
X46870888Y34196232D01*
X47130446Y34455790D01*
X47192758Y34489816D01*
X47263573Y34484751D01*
X47304880Y34456651D01*
X47306023Y34457920D01*
X47310932Y34453500D01*
X47315350Y34448593D01*
X47320692Y34444712D01*
X47320694Y34444710D01*
X47399060Y34387774D01*
X47464239Y34340419D01*
X47470267Y34337735D01*
X47470269Y34337734D01*
X47626335Y34268249D01*
X47632366Y34265564D01*
X47722373Y34246432D01*
X47805924Y34228672D01*
X47805929Y34228672D01*
X47812381Y34227300D01*
X47996419Y34227300D01*
X48002871Y34228672D01*
X48002876Y34228672D01*
X48086427Y34246432D01*
X48176434Y34265564D01*
X48182465Y34268249D01*
X48338531Y34337734D01*
X48338533Y34337735D01*
X48344561Y34340419D01*
X48409740Y34387774D01*
X48488106Y34444710D01*
X48488108Y34444712D01*
X48493450Y34448593D01*
X48499930Y34455790D01*
X48612176Y34580452D01*
X48612177Y34580453D01*
X48616595Y34585360D01*
X48703856Y34736500D01*
X48705310Y34739018D01*
X48705311Y34739019D01*
X48708614Y34744741D01*
X48764850Y34917817D01*
X48795588Y34967976D01*
X48828407Y35000795D01*
X48890719Y35034821D01*
X48917502Y35037700D01*
X53925737Y35037700D01*
X53993858Y35017698D01*
X53999799Y35013636D01*
X54017439Y35000819D01*
X54023467Y34998135D01*
X54023469Y34998134D01*
X54167910Y34933825D01*
X54185566Y34925964D01*
X54275573Y34906832D01*
X54359124Y34889072D01*
X54359129Y34889072D01*
X54365581Y34887700D01*
X54549619Y34887700D01*
X54556071Y34889072D01*
X54556076Y34889072D01*
X54639627Y34906832D01*
X54729634Y34925964D01*
X54747290Y34933825D01*
X54891731Y34998134D01*
X54891733Y34998135D01*
X54897761Y35000819D01*
X54928141Y35022891D01*
X55041306Y35105110D01*
X55041308Y35105112D01*
X55046650Y35108993D01*
X55100914Y35169259D01*
X55165376Y35240852D01*
X55165377Y35240853D01*
X55169795Y35245760D01*
X55261814Y35405141D01*
X55302165Y35529328D01*
X55342239Y35587933D01*
X55383062Y35610224D01*
X55383578Y35610392D01*
X55390034Y35611764D01*
X55396061Y35614447D01*
X55396063Y35614448D01*
X55552131Y35683934D01*
X55552133Y35683935D01*
X55558161Y35686619D01*
X55600474Y35717361D01*
X55701706Y35790910D01*
X55701708Y35790912D01*
X55707050Y35794793D01*
X55775027Y35870289D01*
X55825776Y35926652D01*
X55825777Y35926653D01*
X55830195Y35931560D01*
X55922214Y36090941D01*
X55979085Y36265971D01*
X55980286Y36277393D01*
X55997632Y36442435D01*
X55998322Y36449000D01*
X55979085Y36632029D01*
X55922214Y36807059D01*
X55830195Y36966440D01*
X55819506Y36978312D01*
X55711472Y37098296D01*
X55711471Y37098297D01*
X55707050Y37103207D01*
X55701708Y37107088D01*
X55701706Y37107090D01*
X55563503Y37207500D01*
X55563502Y37207501D01*
X55558161Y37211381D01*
X55552133Y37214065D01*
X55552131Y37214066D01*
X55396065Y37283551D01*
X55396064Y37283551D01*
X55390034Y37286236D01*
X55299283Y37305526D01*
X55216476Y37323128D01*
X55216471Y37323128D01*
X55210019Y37324500D01*
X55025981Y37324500D01*
X55019529Y37323128D01*
X55019524Y37323128D01*
X54936717Y37305526D01*
X54845966Y37286236D01*
X54839936Y37283551D01*
X54839935Y37283551D01*
X54683869Y37214066D01*
X54683867Y37214065D01*
X54677839Y37211381D01*
X54672498Y37207501D01*
X54672497Y37207500D01*
X54625788Y37173564D01*
X54551727Y37149500D01*
X48194025Y37149500D01*
X48125904Y37169502D01*
X48079411Y37223158D01*
X48069307Y37293432D01*
X48098801Y37358012D01*
X48119964Y37377436D01*
X48124621Y37380819D01*
X48167225Y37411773D01*
X48208706Y37441910D01*
X48208708Y37441912D01*
X48214050Y37445793D01*
X48222414Y37455082D01*
X48332776Y37577652D01*
X48332777Y37577653D01*
X48337195Y37582560D01*
X48401524Y37693981D01*
X48425910Y37736218D01*
X48425911Y37736219D01*
X48429214Y37741941D01*
X48486085Y37916971D01*
X48505322Y38100000D01*
X48497089Y38178330D01*
X48509861Y38248167D01*
X48558363Y38300014D01*
X48622399Y38317500D01*
X56079454Y38317500D01*
X56147575Y38297498D01*
X56168549Y38280595D01*
X58391273Y36057870D01*
X58425299Y35995558D01*
X58422011Y35929839D01*
X58415252Y35909035D01*
X58400622Y35864010D01*
X58381385Y35680981D01*
X58382075Y35674416D01*
X58399626Y35507433D01*
X58400622Y35497952D01*
X58402662Y35491675D01*
X58402662Y35491673D01*
X58426918Y35417021D01*
X58457493Y35322922D01*
X58549512Y35163541D01*
X58672657Y35026774D01*
X58677999Y35022893D01*
X58678001Y35022891D01*
X58816204Y34922481D01*
X58821546Y34918600D01*
X58827574Y34915916D01*
X58827576Y34915915D01*
X58983642Y34846430D01*
X58989673Y34843745D01*
X59079681Y34824613D01*
X59163231Y34806853D01*
X59163236Y34806853D01*
X59169688Y34805481D01*
X59353726Y34805481D01*
X59360178Y34806853D01*
X59360183Y34806853D01*
X59443733Y34824613D01*
X59533741Y34843745D01*
X59610460Y34877902D01*
X59680825Y34887336D01*
X59712953Y34877903D01*
X59789673Y34843745D01*
X59879681Y34824613D01*
X59963231Y34806853D01*
X59963236Y34806853D01*
X59969688Y34805481D01*
X60153726Y34805481D01*
X60160178Y34806853D01*
X60160183Y34806853D01*
X60243733Y34824613D01*
X60333741Y34843745D01*
X60339772Y34846430D01*
X60495838Y34915915D01*
X60495840Y34915916D01*
X60501868Y34918600D01*
X60507210Y34922481D01*
X60645413Y35022891D01*
X60645415Y35022893D01*
X60650757Y35026774D01*
X60773902Y35163541D01*
X60865921Y35322922D01*
X60896496Y35417021D01*
X60920752Y35491673D01*
X60920752Y35491675D01*
X60922792Y35497952D01*
X60923789Y35507433D01*
X60941339Y35674416D01*
X60942029Y35680981D01*
X60922792Y35864010D01*
X60908163Y35909035D01*
X60874911Y36011373D01*
X60865921Y36039040D01*
X60862193Y36045498D01*
X60777203Y36192703D01*
X60773902Y36198421D01*
X60754436Y36220041D01*
X60655179Y36330277D01*
X60655178Y36330278D01*
X60650757Y36335188D01*
X60645415Y36339069D01*
X60645413Y36339071D01*
X60585932Y36382286D01*
X60544619Y36433577D01*
X60536862Y36451248D01*
X60534370Y36457355D01*
X60514737Y36509313D01*
X60514736Y36509316D01*
X60512053Y36516415D01*
X60507756Y36522667D01*
X60506171Y36525699D01*
X60498891Y36538776D01*
X60497141Y36541735D01*
X60494086Y36548695D01*
X60489461Y36554722D01*
X60489459Y36554726D01*
X60455646Y36598792D01*
X60451781Y36604111D01*
X60416020Y36656143D01*
X60370059Y36697093D01*
X60364784Y36702073D01*
X60317219Y36749638D01*
X61549500Y36749638D01*
X61564027Y36544470D01*
X61564965Y36540115D01*
X61564965Y36540112D01*
X61621227Y36278785D01*
X61622163Y36274438D01*
X61717767Y36015291D01*
X61848932Y35772200D01*
X62013040Y35550016D01*
X62016169Y35546837D01*
X62016172Y35546834D01*
X62070474Y35491673D01*
X62206817Y35353171D01*
X62426396Y35185594D01*
X62430285Y35183416D01*
X62625493Y35074094D01*
X62667396Y35050627D01*
X62671541Y35049023D01*
X62671544Y35049022D01*
X62736543Y35023876D01*
X62925009Y34950964D01*
X62929334Y34949961D01*
X62929339Y34949960D01*
X63059584Y34919771D01*
X63194095Y34888593D01*
X63469285Y34864759D01*
X63473720Y34865003D01*
X63473724Y34865003D01*
X63740644Y34879693D01*
X63740651Y34879694D01*
X63745087Y34879938D01*
X63976479Y34925964D01*
X64011636Y34932957D01*
X64011638Y34932958D01*
X64015999Y34933825D01*
X64276616Y35025347D01*
X64521737Y35152678D01*
X64525352Y35155261D01*
X64525358Y35155265D01*
X64742850Y35310687D01*
X64742854Y35310690D01*
X64746471Y35313275D01*
X64846403Y35408605D01*
X64943115Y35500864D01*
X64943117Y35500866D01*
X64946335Y35503936D01*
X64962971Y35525039D01*
X65114586Y35717361D01*
X65114587Y35717363D01*
X65117341Y35720856D01*
X65204139Y35870289D01*
X65253839Y35955853D01*
X65253842Y35955859D01*
X65256077Y35959707D01*
X65326786Y36134280D01*
X65358103Y36211597D01*
X65358104Y36211599D01*
X65359774Y36215723D01*
X65372605Y36267374D01*
X65425291Y36479475D01*
X65425292Y36479480D01*
X65426364Y36483796D01*
X65450500Y36719370D01*
X65450500Y37490362D01*
X65443193Y37593565D01*
X78059500Y37593565D01*
X78059501Y34646436D01*
X78062400Y34603894D01*
X78063743Y34598506D01*
X78063744Y34598502D01*
X78090843Y34489816D01*
X78107105Y34424593D01*
X78110137Y34418486D01*
X78110138Y34418482D01*
X78119421Y34399782D01*
X78189269Y34259074D01*
X78305060Y34115060D01*
X78449074Y33999269D01*
X78531834Y33958187D01*
X78608482Y33920138D01*
X78608486Y33920137D01*
X78614593Y33917105D01*
X78621215Y33915454D01*
X78788498Y33873745D01*
X78788502Y33873744D01*
X78793894Y33872400D01*
X78810707Y33871254D01*
X78834287Y33869646D01*
X78834300Y33869646D01*
X78836435Y33869500D01*
X80009181Y33869500D01*
X81183564Y33869501D01*
X81206943Y33871094D01*
X81220561Y33872022D01*
X81220563Y33872022D01*
X81226106Y33872400D01*
X81231494Y33873743D01*
X81231498Y33873744D01*
X81398785Y33915454D01*
X81405407Y33917105D01*
X81411514Y33920137D01*
X81411518Y33920138D01*
X81488167Y33958187D01*
X81570926Y33999269D01*
X81714940Y34115060D01*
X81830731Y34259074D01*
X81900579Y34399782D01*
X81909862Y34418482D01*
X81909863Y34418486D01*
X81912895Y34424593D01*
X81929157Y34489816D01*
X81956255Y34598498D01*
X81956256Y34598502D01*
X81957600Y34603894D01*
X81959611Y34633387D01*
X81960354Y34644287D01*
X81960354Y34644300D01*
X81960500Y34646435D01*
X81960499Y37593564D01*
X81957600Y37636106D01*
X81952384Y37657029D01*
X81914546Y37808785D01*
X81912895Y37815407D01*
X81909863Y37821514D01*
X81909862Y37821518D01*
X81859220Y37923535D01*
X81830731Y37980926D01*
X81714940Y38124940D01*
X81570926Y38240731D01*
X81483465Y38284147D01*
X81411518Y38319862D01*
X81411514Y38319863D01*
X81405407Y38322895D01*
X81335600Y38340300D01*
X81231502Y38366255D01*
X81231498Y38366256D01*
X81226106Y38367600D01*
X81209293Y38368746D01*
X81185713Y38370354D01*
X81185700Y38370354D01*
X81183565Y38370500D01*
X80010819Y38370500D01*
X78836436Y38370499D01*
X78813057Y38368906D01*
X78799439Y38367978D01*
X78799437Y38367978D01*
X78793894Y38367600D01*
X78788506Y38366257D01*
X78788502Y38366256D01*
X78684400Y38340300D01*
X78614593Y38322895D01*
X78608486Y38319863D01*
X78608482Y38319862D01*
X78536535Y38284147D01*
X78449074Y38240731D01*
X78305060Y38124940D01*
X78189269Y37980926D01*
X78160780Y37923535D01*
X78110138Y37821518D01*
X78110137Y37821514D01*
X78107105Y37815407D01*
X78105454Y37808785D01*
X78067617Y37657029D01*
X78062400Y37636106D01*
X78062022Y37630561D01*
X78062022Y37630558D01*
X78059647Y37595718D01*
X78059500Y37593565D01*
X65443193Y37593565D01*
X65435973Y37695530D01*
X65422911Y37756204D01*
X65378773Y37961215D01*
X65378773Y37961217D01*
X65377837Y37965562D01*
X65282233Y38224709D01*
X65271952Y38243764D01*
X65153181Y38463884D01*
X65151068Y38467800D01*
X64986960Y38689984D01*
X64793183Y38886829D01*
X64573604Y39054406D01*
X64569715Y39056584D01*
X64336490Y39187197D01*
X64336487Y39187198D01*
X64332604Y39189373D01*
X64328459Y39190977D01*
X64328456Y39190978D01*
X64117912Y39272431D01*
X64074991Y39289036D01*
X64070666Y39290039D01*
X64070661Y39290040D01*
X63922567Y39324366D01*
X63805905Y39351407D01*
X63530715Y39375241D01*
X63526280Y39374997D01*
X63526276Y39374997D01*
X63259356Y39360307D01*
X63259349Y39360306D01*
X63254913Y39360062D01*
X63067848Y39322853D01*
X62988364Y39307043D01*
X62988362Y39307042D01*
X62984001Y39306175D01*
X62723384Y39214653D01*
X62478263Y39087322D01*
X62474648Y39084739D01*
X62474642Y39084735D01*
X62257150Y38929313D01*
X62257146Y38929310D01*
X62253529Y38926725D01*
X62218673Y38893474D01*
X62085668Y38766593D01*
X62053665Y38736064D01*
X62050909Y38732569D01*
X62050908Y38732567D01*
X61900248Y38541455D01*
X61882659Y38519144D01*
X61840347Y38446298D01*
X61746161Y38284147D01*
X61746158Y38284141D01*
X61743923Y38280293D01*
X61640226Y38024277D01*
X61639155Y38019964D01*
X61639153Y38019959D01*
X61574709Y37760525D01*
X61573636Y37756204D01*
X61573182Y37751776D01*
X61573182Y37751774D01*
X61572175Y37741941D01*
X61549500Y37520630D01*
X61549500Y36749638D01*
X60317219Y36749638D01*
X57123782Y39943075D01*
X57117928Y39949341D01*
X57085365Y39986669D01*
X57080369Y39992396D01*
X57028727Y40028690D01*
X57023442Y40032616D01*
X56979724Y40066895D01*
X56979720Y40066897D01*
X56973743Y40071584D01*
X56966820Y40074710D01*
X56963872Y40076495D01*
X56950912Y40083887D01*
X56947866Y40085520D01*
X56941653Y40089887D01*
X56882833Y40112820D01*
X56876754Y40115376D01*
X56861709Y40122169D01*
X56819216Y40141355D01*
X56811745Y40142740D01*
X56808477Y40143764D01*
X56794036Y40147877D01*
X56790763Y40148717D01*
X56783687Y40151476D01*
X56739017Y40157356D01*
X56721094Y40159716D01*
X56714577Y40160748D01*
X56671624Y40168709D01*
X56652508Y40172252D01*
X56644928Y40171815D01*
X56644927Y40171815D01*
X56591056Y40168709D01*
X56583804Y40168500D01*
X55455392Y40168500D01*
X55387271Y40188502D01*
X55340778Y40242158D01*
X55330674Y40312432D01*
X55360168Y40377012D01*
X55372812Y40389666D01*
X55483052Y40485327D01*
X55490472Y40492958D01*
X55629826Y40662911D01*
X55635850Y40671678D01*
X55744576Y40862682D01*
X55749041Y40872346D01*
X55824031Y41078941D01*
X55826802Y41089208D01*
X55854463Y41242174D01*
X55853045Y41255413D01*
X55838406Y41260000D01*
X54382000Y41260000D01*
X54313879Y41280002D01*
X54267386Y41333658D01*
X54256000Y41386000D01*
X54256000Y41786115D01*
X54764000Y41786115D01*
X54768475Y41770876D01*
X54769865Y41769671D01*
X54777548Y41768000D01*
X55839607Y41768000D01*
X55854285Y41772310D01*
X55856348Y41784193D01*
X55853876Y41813324D01*
X55852085Y41823798D01*
X55796870Y42036535D01*
X55793335Y42046575D01*
X55703063Y42246970D01*
X55697894Y42256256D01*
X55575150Y42438575D01*
X55568481Y42446870D01*
X55416772Y42605900D01*
X55408814Y42612941D01*
X55232475Y42744141D01*
X55223438Y42749745D01*
X55027516Y42849357D01*
X55017665Y42853357D01*
X54807760Y42918534D01*
X54797376Y42920817D01*
X54781957Y42922861D01*
X54767793Y42920665D01*
X54764000Y42907478D01*
X54764000Y41786115D01*
X54256000Y41786115D01*
X54256000Y42905192D01*
X54252027Y42918723D01*
X54241420Y42920248D01*
X54123579Y42895523D01*
X54113383Y42892463D01*
X53908971Y42811737D01*
X53899439Y42807006D01*
X53711538Y42692984D01*
X53702948Y42686720D01*
X53536948Y42542673D01*
X53529528Y42535042D01*
X53413220Y42393195D01*
X53354560Y42353200D01*
X53283590Y42351269D01*
X53222842Y42388013D01*
X53209998Y42404640D01*
X53163155Y42477049D01*
X53156131Y42484769D01*
X53006107Y42649642D01*
X53006105Y42649643D01*
X53002629Y42653464D01*
X52998578Y42656663D01*
X52998574Y42656667D01*
X52967908Y42680885D01*
X52926845Y42738802D01*
X52920000Y42779767D01*
X52920000Y44093565D01*
X61549500Y44093565D01*
X61549501Y41146436D01*
X61552400Y41103894D01*
X61553743Y41098506D01*
X61553744Y41098502D01*
X61568279Y41040207D01*
X61597105Y40924593D01*
X61600137Y40918486D01*
X61600138Y40918482D01*
X61626700Y40864974D01*
X61679269Y40759074D01*
X61795060Y40615060D01*
X61939074Y40499269D01*
X62021834Y40458187D01*
X62098482Y40420138D01*
X62098486Y40420137D01*
X62104593Y40417105D01*
X62111215Y40415454D01*
X62278498Y40373745D01*
X62278502Y40373744D01*
X62283894Y40372400D01*
X62300707Y40371254D01*
X62324287Y40369646D01*
X62324300Y40369646D01*
X62326435Y40369500D01*
X63499181Y40369500D01*
X64673564Y40369501D01*
X64696943Y40371094D01*
X64710561Y40372022D01*
X64710563Y40372022D01*
X64716106Y40372400D01*
X64721494Y40373743D01*
X64721498Y40373744D01*
X64888785Y40415454D01*
X64895407Y40417105D01*
X64901514Y40420137D01*
X64901518Y40420138D01*
X64978166Y40458187D01*
X65060926Y40499269D01*
X65204940Y40615060D01*
X65320731Y40759074D01*
X65373300Y40864974D01*
X65399862Y40918482D01*
X65399863Y40918486D01*
X65402895Y40924593D01*
X65431721Y41040207D01*
X65446255Y41098498D01*
X65446256Y41098502D01*
X65447600Y41103894D01*
X65449980Y41138807D01*
X65450354Y41144287D01*
X65450354Y41144300D01*
X65450500Y41146435D01*
X65450500Y41253794D01*
X78152000Y41253794D01*
X78152165Y41249223D01*
X78166213Y41055620D01*
X78167527Y41046611D01*
X78223689Y40792231D01*
X78226292Y40783501D01*
X78318586Y40539893D01*
X78322421Y40531632D01*
X78448915Y40303899D01*
X78453905Y40296274D01*
X78611946Y40089191D01*
X78617986Y40082364D01*
X78804264Y39900265D01*
X78811226Y39894382D01*
X79021843Y39741078D01*
X79029573Y39736267D01*
X79260122Y39614969D01*
X79268472Y39611322D01*
X79514099Y39524581D01*
X79522894Y39522175D01*
X79738225Y39479733D01*
X79751137Y39480912D01*
X79755939Y39495826D01*
X80264000Y39495826D01*
X80268251Y39481349D01*
X80280512Y39479286D01*
X80316133Y39482685D01*
X80325125Y39484205D01*
X80578158Y39546122D01*
X80586827Y39548922D01*
X80828282Y39646722D01*
X80836455Y39650744D01*
X81061253Y39782368D01*
X81068765Y39787531D01*
X81272213Y39950231D01*
X81278896Y39956420D01*
X81456733Y40146794D01*
X81462443Y40153871D01*
X81610934Y40367918D01*
X81615571Y40375759D01*
X81731604Y40608997D01*
X81735060Y40617422D01*
X81816212Y40864974D01*
X81818412Y40873799D01*
X81863103Y41131189D01*
X81863950Y41138807D01*
X81867922Y41218592D01*
X81868000Y41221733D01*
X81868000Y41347885D01*
X81863525Y41363124D01*
X81862135Y41364329D01*
X81854452Y41366000D01*
X80282115Y41366000D01*
X80266876Y41361525D01*
X80265671Y41360135D01*
X80264000Y41352452D01*
X80264000Y39495826D01*
X79755939Y39495826D01*
X79756000Y39496015D01*
X79756000Y41347885D01*
X79751525Y41363124D01*
X79750135Y41364329D01*
X79742452Y41366000D01*
X78170115Y41366000D01*
X78154876Y41361525D01*
X78153671Y41360135D01*
X78152000Y41352452D01*
X78152000Y41253794D01*
X65450500Y41253794D01*
X65450500Y41892115D01*
X78152000Y41892115D01*
X78156475Y41876876D01*
X78157865Y41875671D01*
X78165548Y41874000D01*
X79737885Y41874000D01*
X79753124Y41878475D01*
X79754329Y41879865D01*
X79756000Y41887548D01*
X79756000Y41892115D01*
X80264000Y41892115D01*
X80268475Y41876876D01*
X80269865Y41875671D01*
X80277548Y41874000D01*
X81849885Y41874000D01*
X81865124Y41878475D01*
X81866329Y41879865D01*
X81868000Y41887548D01*
X81868000Y41986206D01*
X81867835Y41990777D01*
X81853787Y42184380D01*
X81852473Y42193389D01*
X81796311Y42447769D01*
X81793708Y42456499D01*
X81701414Y42700107D01*
X81697579Y42708368D01*
X81571085Y42936101D01*
X81566095Y42943726D01*
X81408054Y43150809D01*
X81402014Y43157636D01*
X81215736Y43339735D01*
X81208774Y43345618D01*
X80998157Y43498922D01*
X80990427Y43503733D01*
X80759878Y43625031D01*
X80751528Y43628678D01*
X80505901Y43715419D01*
X80497106Y43717825D01*
X80281775Y43760267D01*
X80268863Y43759088D01*
X80264000Y43743985D01*
X80264000Y41892115D01*
X79756000Y41892115D01*
X79756000Y43744174D01*
X79751749Y43758651D01*
X79739488Y43760714D01*
X79703867Y43757315D01*
X79694875Y43755795D01*
X79441842Y43693878D01*
X79433173Y43691078D01*
X79191718Y43593278D01*
X79183545Y43589256D01*
X78958747Y43457632D01*
X78951235Y43452469D01*
X78747787Y43289769D01*
X78741104Y43283580D01*
X78563267Y43093206D01*
X78557557Y43086129D01*
X78409066Y42872082D01*
X78404429Y42864241D01*
X78288396Y42631003D01*
X78284940Y42622578D01*
X78203788Y42375026D01*
X78201588Y42366201D01*
X78156897Y42108811D01*
X78156050Y42101193D01*
X78152078Y42021408D01*
X78152000Y42018267D01*
X78152000Y41892115D01*
X65450500Y41892115D01*
X65450499Y44093564D01*
X65447600Y44136106D01*
X65402895Y44315407D01*
X65399863Y44321514D01*
X65399862Y44321518D01*
X65361813Y44398166D01*
X65320731Y44480926D01*
X65204940Y44624940D01*
X65060926Y44740731D01*
X64963517Y44789085D01*
X64901518Y44819862D01*
X64901514Y44819863D01*
X64895407Y44822895D01*
X64855187Y44832923D01*
X64721502Y44866255D01*
X64721498Y44866256D01*
X64716106Y44867600D01*
X64699293Y44868746D01*
X64675713Y44870354D01*
X64675700Y44870354D01*
X64673565Y44870500D01*
X63500819Y44870500D01*
X62326436Y44870499D01*
X62303057Y44868906D01*
X62289439Y44867978D01*
X62289437Y44867978D01*
X62283894Y44867600D01*
X62278506Y44866257D01*
X62278502Y44866256D01*
X62144813Y44832923D01*
X62104593Y44822895D01*
X62098486Y44819863D01*
X62098482Y44819862D01*
X62036483Y44789085D01*
X61939074Y44740731D01*
X61795060Y44624940D01*
X61679269Y44480926D01*
X61638187Y44398167D01*
X61600138Y44321518D01*
X61600137Y44321514D01*
X61597105Y44315407D01*
X61552400Y44136106D01*
X61552022Y44130561D01*
X61552022Y44130558D01*
X61549647Y44095718D01*
X61549500Y44093565D01*
X52920000Y44093565D01*
X52920000Y45187877D01*
X52940002Y45255998D01*
X52993658Y45302491D01*
X53063932Y45312595D01*
X53085667Y45307470D01*
X53235765Y45257685D01*
X53249132Y45254819D01*
X53341770Y45245328D01*
X53348185Y45245000D01*
X53422385Y45245000D01*
X53437624Y45249475D01*
X53438829Y45250865D01*
X53440500Y45258548D01*
X53440500Y45263115D01*
X53948500Y45263115D01*
X53952975Y45247876D01*
X53954365Y45246671D01*
X53962048Y45245000D01*
X54040766Y45245000D01*
X54047282Y45245337D01*
X54141132Y45255075D01*
X54154528Y45257968D01*
X54305953Y45308488D01*
X54319115Y45314653D01*
X54454492Y45398426D01*
X54465890Y45407460D01*
X54578363Y45520129D01*
X54587375Y45531540D01*
X54670912Y45667063D01*
X54677056Y45680241D01*
X54727315Y45831766D01*
X54730181Y45845132D01*
X54739672Y45937770D01*
X54740000Y45944185D01*
X54740000Y45955885D01*
X54735525Y45971124D01*
X54734135Y45972329D01*
X54726452Y45974000D01*
X53966615Y45974000D01*
X53951376Y45969525D01*
X53950171Y45968135D01*
X53948500Y45960452D01*
X53948500Y45263115D01*
X53440500Y45263115D01*
X53440500Y46356000D01*
X53460502Y46424121D01*
X53514158Y46470614D01*
X53566500Y46482000D01*
X54721885Y46482000D01*
X54737124Y46486475D01*
X54738329Y46487865D01*
X54740000Y46495548D01*
X54740000Y46511766D01*
X54739663Y46518287D01*
X54737877Y46535498D01*
X54750743Y46605319D01*
X54799314Y46657101D01*
X54863204Y46674500D01*
X68769100Y46674500D01*
X68837221Y46654498D01*
X68858195Y46637595D01*
X68958019Y46537771D01*
X68960485Y46535759D01*
X68960487Y46535758D01*
X69019210Y46487865D01*
X69070069Y46446385D01*
X69075722Y46443430D01*
X69075723Y46443429D01*
X69187804Y46384835D01*
X69238906Y46335549D01*
X69246581Y46319556D01*
X69255779Y46296325D01*
X69361513Y46134746D01*
X69365758Y46130032D01*
X70482019Y45013771D01*
X70594069Y44922385D01*
X70765194Y44832923D01*
X70950812Y44779698D01*
X71099457Y44768261D01*
X71136986Y44765373D01*
X71136987Y44765373D01*
X71143342Y44764884D01*
X71274527Y44781456D01*
X71328594Y44788286D01*
X71328595Y44788286D01*
X71334918Y44789085D01*
X71517715Y44851315D01*
X71684265Y44949029D01*
X71827765Y45078237D01*
X71942354Y45233661D01*
X71947594Y45245000D01*
X72020675Y45403163D01*
X72023350Y45408952D01*
X72067444Y45596949D01*
X72072836Y45789973D01*
X72045644Y45944185D01*
X72040412Y45973853D01*
X72039304Y45980137D01*
X72004336Y46068458D01*
X71970572Y46153737D01*
X71970569Y46153742D01*
X71968220Y46159676D01*
X71862487Y46321254D01*
X71858242Y46325968D01*
X70741981Y47442229D01*
X70739506Y47444247D01*
X70739500Y47444253D01*
X70634880Y47529578D01*
X70634879Y47529578D01*
X70629930Y47533615D01*
X70512193Y47595167D01*
X70461093Y47644451D01*
X70453417Y47660446D01*
X70446571Y47677739D01*
X70446569Y47677742D01*
X70444220Y47683676D01*
X70351505Y47825361D01*
X70341134Y47841209D01*
X70338487Y47845254D01*
X70334242Y47849968D01*
X69898021Y48286189D01*
X69895568Y48288711D01*
X69843666Y48343596D01*
X69843665Y48343597D01*
X69839279Y48348235D01*
X69792514Y48380980D01*
X69785171Y48386533D01*
X69740930Y48422615D01*
X69717053Y48435098D01*
X69703171Y48443538D01*
X69681102Y48458991D01*
X69628695Y48481669D01*
X69620407Y48485623D01*
X69569806Y48512077D01*
X69543913Y48519502D01*
X69528600Y48524985D01*
X69509749Y48533143D01*
X69509744Y48533145D01*
X69503885Y48535680D01*
X69448000Y48547355D01*
X69439084Y48549561D01*
X69384187Y48565303D01*
X69357318Y48567371D01*
X69341228Y48569661D01*
X69327108Y48572611D01*
X69319612Y48574177D01*
X69319609Y48574177D01*
X69314867Y48575168D01*
X69308532Y48575500D01*
X69256506Y48575500D01*
X69246842Y48575871D01*
X69233930Y48576864D01*
X69198017Y48579628D01*
X69198014Y48579628D01*
X69191658Y48580117D01*
X69180378Y48578692D01*
X69162979Y48576494D01*
X69147187Y48575500D01*
X55072303Y48575500D01*
X55004182Y48595502D01*
X54957689Y48649158D01*
X54947585Y48719432D01*
X54977079Y48784012D01*
X55026022Y48818692D01*
X55111029Y48852263D01*
X55120561Y48856994D01*
X55308462Y48971016D01*
X55317052Y48977280D01*
X55483052Y49121327D01*
X55490472Y49128958D01*
X55629826Y49298911D01*
X55635850Y49307678D01*
X55744576Y49498682D01*
X55749041Y49508346D01*
X55824031Y49714941D01*
X55826802Y49725208D01*
X55854463Y49878174D01*
X55853045Y49891413D01*
X55838406Y49896000D01*
X54382000Y49896000D01*
X54313879Y49916002D01*
X54267386Y49969658D01*
X54256000Y50022000D01*
X54256000Y50422115D01*
X54764000Y50422115D01*
X54768475Y50406876D01*
X54769865Y50405671D01*
X54777548Y50404000D01*
X55839607Y50404000D01*
X55854285Y50408310D01*
X55856348Y50420193D01*
X55853876Y50449324D01*
X55852085Y50459798D01*
X55796870Y50672535D01*
X55793335Y50682575D01*
X55703063Y50882970D01*
X55697894Y50892256D01*
X55575150Y51074575D01*
X55568481Y51082870D01*
X55416772Y51241900D01*
X55408814Y51248941D01*
X55232475Y51380141D01*
X55223438Y51385745D01*
X55027516Y51485357D01*
X55017665Y51489357D01*
X54807760Y51554534D01*
X54797376Y51556817D01*
X54781957Y51558861D01*
X54767793Y51556665D01*
X54764000Y51543478D01*
X54764000Y50422115D01*
X54256000Y50422115D01*
X54256000Y51541192D01*
X54252027Y51554723D01*
X54241420Y51556248D01*
X54123579Y51531523D01*
X54113383Y51528463D01*
X53908971Y51447737D01*
X53899439Y51443006D01*
X53711538Y51328984D01*
X53702948Y51322720D01*
X53536948Y51178673D01*
X53529528Y51171042D01*
X53413220Y51029195D01*
X53354560Y50989200D01*
X53283590Y50987269D01*
X53222842Y51024013D01*
X53209998Y51040640D01*
X53163155Y51113049D01*
X53156131Y51120769D01*
X53006111Y51285637D01*
X53002629Y51289464D01*
X53000254Y51291340D01*
X52964391Y51351886D01*
X52960500Y51382956D01*
X52960500Y53810444D01*
X52980502Y53878565D01*
X53034158Y53925058D01*
X53104432Y53935162D01*
X53126167Y53930037D01*
X53235765Y53893685D01*
X53249132Y53890819D01*
X53341770Y53881328D01*
X53348185Y53881000D01*
X53422385Y53881000D01*
X53437624Y53885475D01*
X53438829Y53886865D01*
X53440500Y53894548D01*
X53440500Y53899115D01*
X53948500Y53899115D01*
X53952975Y53883876D01*
X53954365Y53882671D01*
X53962048Y53881000D01*
X54040766Y53881000D01*
X54047282Y53881337D01*
X54141132Y53891075D01*
X54154528Y53893968D01*
X54305953Y53944488D01*
X54319115Y53950653D01*
X54454492Y54034426D01*
X54465890Y54043460D01*
X54578363Y54156129D01*
X54587375Y54167540D01*
X54670912Y54303063D01*
X54677056Y54316241D01*
X54727315Y54467766D01*
X54730181Y54481132D01*
X54739672Y54573770D01*
X54740000Y54580185D01*
X54740000Y54591885D01*
X54735525Y54607124D01*
X54734135Y54608329D01*
X54726452Y54610000D01*
X53966615Y54610000D01*
X53951376Y54605525D01*
X53950171Y54604135D01*
X53948500Y54596452D01*
X53948500Y53899115D01*
X53440500Y53899115D01*
X53440500Y54992000D01*
X53446030Y55010835D01*
X60667045Y55067693D01*
X60735318Y55048229D01*
X60782232Y54994941D01*
X60792889Y54924749D01*
X60763905Y54859938D01*
X60714418Y54824546D01*
X60577220Y54770225D01*
X60454565Y54721663D01*
X60184360Y54573116D01*
X59934904Y54391876D01*
X59710131Y54180799D01*
X59513584Y53943216D01*
X59511463Y53939874D01*
X59511458Y53939867D01*
X59350489Y53686218D01*
X59348365Y53682871D01*
X59346681Y53679292D01*
X59346677Y53679285D01*
X59297246Y53574238D01*
X59217078Y53403873D01*
X59215852Y53400101D01*
X59215852Y53400100D01*
X59194352Y53333931D01*
X59121794Y53110619D01*
X59064016Y52807736D01*
X59044655Y52500000D01*
X59064016Y52192264D01*
X59121794Y51889381D01*
X59123021Y51885605D01*
X59206220Y51629546D01*
X59217078Y51596127D01*
X59218765Y51592541D01*
X59218767Y51592537D01*
X59346677Y51320715D01*
X59346681Y51320708D01*
X59348365Y51317129D01*
X59350489Y51313783D01*
X59350489Y51313782D01*
X59511458Y51060133D01*
X59511463Y51060126D01*
X59513584Y51056784D01*
X59710131Y50819201D01*
X59934904Y50608124D01*
X60184360Y50426884D01*
X60225986Y50404000D01*
X60441603Y50285463D01*
X60454565Y50278337D01*
X60610944Y50216422D01*
X60737567Y50166289D01*
X60741257Y50164828D01*
X60745091Y50163844D01*
X60745099Y50163841D01*
X60929607Y50116468D01*
X61039914Y50088146D01*
X61043842Y50087650D01*
X61043846Y50087649D01*
X61164780Y50072372D01*
X61345828Y50049500D01*
X61654172Y50049500D01*
X61835220Y50072372D01*
X61956154Y50087649D01*
X61956158Y50087650D01*
X61960086Y50088146D01*
X62070393Y50116468D01*
X62254901Y50163841D01*
X62254909Y50163844D01*
X62258743Y50164828D01*
X62262434Y50166289D01*
X62389056Y50216422D01*
X62545435Y50278337D01*
X62558398Y50285463D01*
X62774014Y50404000D01*
X62815640Y50426884D01*
X63065096Y50608124D01*
X63289869Y50819201D01*
X63296554Y50827282D01*
X72364890Y50827282D01*
X72365427Y50816490D01*
X72379185Y50540135D01*
X72380480Y50514114D01*
X72381121Y50510383D01*
X72381122Y50510375D01*
X72420667Y50280240D01*
X72433581Y50205088D01*
X72434669Y50201449D01*
X72434670Y50201446D01*
X72499835Y49983551D01*
X72523422Y49904680D01*
X72648703Y49617240D01*
X72650626Y49613968D01*
X72650628Y49613965D01*
X72693108Y49541705D01*
X72807608Y49346933D01*
X72809909Y49343918D01*
X72995536Y49100687D01*
X72995541Y49100681D01*
X72997836Y49097674D01*
X73000480Y49094960D01*
X73105028Y48987639D01*
X73216632Y48873074D01*
X73329214Y48782394D01*
X73457873Y48678764D01*
X73457878Y48678760D01*
X73460826Y48676386D01*
X73726881Y48510459D01*
X74010942Y48377697D01*
X74014551Y48376514D01*
X74290087Y48286189D01*
X74308896Y48280023D01*
X74616427Y48218851D01*
X74620199Y48218564D01*
X74620207Y48218563D01*
X74925301Y48195355D01*
X74925306Y48195355D01*
X74929078Y48195068D01*
X75242323Y48209019D01*
X75551623Y48260500D01*
X75555257Y48261566D01*
X75555261Y48261567D01*
X75848856Y48347699D01*
X75848864Y48347702D01*
X75852498Y48348768D01*
X75963539Y48396475D01*
X76137106Y48471045D01*
X76137108Y48471046D01*
X76140590Y48472542D01*
X76411725Y48630029D01*
X76661976Y48818950D01*
X76856601Y49006569D01*
X76884988Y49033934D01*
X76884990Y49033937D01*
X76887719Y49036567D01*
X76890113Y49039507D01*
X76890118Y49039513D01*
X77083283Y49276780D01*
X77085683Y49279728D01*
X77253001Y49544910D01*
X77322134Y49690834D01*
X77369375Y49743831D01*
X77437770Y49762875D01*
X77505603Y49741918D01*
X77551338Y49687615D01*
X77562001Y49636887D01*
X77562001Y48855331D01*
X77562371Y48848510D01*
X77567895Y48797648D01*
X77571521Y48782396D01*
X77616676Y48661946D01*
X77625214Y48646351D01*
X77701715Y48544276D01*
X77714276Y48531715D01*
X77816351Y48455214D01*
X77831946Y48446676D01*
X77952394Y48401522D01*
X77967649Y48397895D01*
X78018514Y48392369D01*
X78025328Y48392000D01*
X79697885Y48392000D01*
X79713124Y48396475D01*
X79714329Y48397865D01*
X79716000Y48405548D01*
X79716000Y48410116D01*
X80224000Y48410116D01*
X80228475Y48394877D01*
X80229865Y48393672D01*
X80237548Y48392001D01*
X81914669Y48392001D01*
X81921490Y48392371D01*
X81972352Y48397895D01*
X81987604Y48401521D01*
X82108054Y48446676D01*
X82123649Y48455214D01*
X82225724Y48531715D01*
X82238285Y48544276D01*
X82314786Y48646351D01*
X82323324Y48661946D01*
X82368478Y48782394D01*
X82372105Y48797649D01*
X82377631Y48848514D01*
X82378000Y48855328D01*
X82378000Y50527885D01*
X82373525Y50543124D01*
X82372135Y50544329D01*
X82364452Y50546000D01*
X80242115Y50546000D01*
X80226876Y50541525D01*
X80225671Y50540135D01*
X80224000Y50532452D01*
X80224000Y48410116D01*
X79716000Y48410116D01*
X79716000Y51072115D01*
X80224000Y51072115D01*
X80228475Y51056876D01*
X80229865Y51055671D01*
X80237548Y51054000D01*
X82359884Y51054000D01*
X82375123Y51058475D01*
X82376328Y51059865D01*
X82377999Y51067548D01*
X82377999Y52744669D01*
X82377629Y52751490D01*
X82372105Y52802352D01*
X82368479Y52817604D01*
X82323324Y52938054D01*
X82314786Y52953649D01*
X82238285Y53055724D01*
X82225724Y53068285D01*
X82123649Y53144786D01*
X82108054Y53153324D01*
X81987606Y53198478D01*
X81972351Y53202105D01*
X81921486Y53207631D01*
X81914672Y53208000D01*
X80242115Y53208000D01*
X80226876Y53203525D01*
X80225671Y53202135D01*
X80224000Y53194452D01*
X80224000Y51072115D01*
X79716000Y51072115D01*
X79716000Y53189884D01*
X79711525Y53205123D01*
X79710135Y53206328D01*
X79702452Y53207999D01*
X78025331Y53207999D01*
X78018510Y53207629D01*
X77967648Y53202105D01*
X77952396Y53198479D01*
X77831946Y53153324D01*
X77816351Y53144786D01*
X77714276Y53068285D01*
X77701715Y53055724D01*
X77625214Y52953649D01*
X77616676Y52938054D01*
X77571522Y52817606D01*
X77567895Y52802351D01*
X77562369Y52751486D01*
X77562000Y52744672D01*
X77562000Y51964338D01*
X77541998Y51896217D01*
X77488342Y51849724D01*
X77418068Y51839620D01*
X77353488Y51869114D01*
X77321028Y51912788D01*
X77308929Y51939773D01*
X77278785Y52007003D01*
X77117057Y52275632D01*
X77114730Y52278616D01*
X77114725Y52278623D01*
X76926565Y52519890D01*
X76926563Y52519893D01*
X76924229Y52522885D01*
X76703093Y52745181D01*
X76628770Y52803773D01*
X76578708Y52843238D01*
X76456853Y52939301D01*
X76189076Y53102433D01*
X76185632Y53103999D01*
X76185628Y53104001D01*
X75969792Y53202135D01*
X75903639Y53232213D01*
X75604679Y53326762D01*
X75463365Y53353336D01*
X75300249Y53384010D01*
X75300244Y53384011D01*
X75296525Y53384710D01*
X74983641Y53405217D01*
X74979861Y53405009D01*
X74979860Y53405009D01*
X74890662Y53400100D01*
X74670560Y53387987D01*
X74666833Y53387326D01*
X74666829Y53387326D01*
X74418024Y53343232D01*
X74361816Y53333270D01*
X74358191Y53332165D01*
X74358186Y53332164D01*
X74217310Y53289228D01*
X74061882Y53241857D01*
X74058418Y53240326D01*
X74058411Y53240323D01*
X73944321Y53189884D01*
X73775102Y53115073D01*
X73771848Y53113137D01*
X73771842Y53113134D01*
X73581682Y53000000D01*
X73505631Y52954754D01*
X73502630Y52952439D01*
X73502626Y52952436D01*
X73412083Y52882583D01*
X73257371Y52763223D01*
X73033920Y52543255D01*
X72838513Y52298034D01*
X72673982Y52031114D01*
X72542709Y51746361D01*
X72541550Y51742761D01*
X72541547Y51742754D01*
X72459946Y51489357D01*
X72446596Y51447900D01*
X72445877Y51444184D01*
X72445875Y51444176D01*
X72390382Y51157354D01*
X72387035Y51140054D01*
X72386768Y51136278D01*
X72386767Y51136273D01*
X72370608Y50908047D01*
X72364890Y50827282D01*
X63296554Y50827282D01*
X63486416Y51056784D01*
X63488537Y51060126D01*
X63488542Y51060133D01*
X63649511Y51313782D01*
X63649511Y51313783D01*
X63651635Y51317129D01*
X63653319Y51320708D01*
X63653323Y51320715D01*
X63781233Y51592537D01*
X63781235Y51592541D01*
X63782922Y51596127D01*
X63793781Y51629546D01*
X63876979Y51885605D01*
X63878206Y51889381D01*
X63935984Y52192264D01*
X63955345Y52500000D01*
X63935984Y52807736D01*
X63878206Y53110619D01*
X63805648Y53333931D01*
X63784148Y53400100D01*
X63784148Y53400101D01*
X63782922Y53403873D01*
X63702754Y53574238D01*
X63653323Y53679285D01*
X63653319Y53679292D01*
X63651635Y53682871D01*
X63649511Y53686218D01*
X63488542Y53939867D01*
X63488537Y53939874D01*
X63486416Y53943216D01*
X63289869Y54180799D01*
X63065096Y54391876D01*
X62815640Y54573116D01*
X62545435Y54721663D01*
X62357549Y54796052D01*
X62262421Y54833716D01*
X62262418Y54833717D01*
X62258743Y54835172D01*
X62258670Y54835191D01*
X62200779Y54874779D01*
X62173144Y54940176D01*
X62185253Y55010133D01*
X62233260Y55062437D01*
X62297328Y55080530D01*
X82825935Y55242173D01*
X82878636Y55231076D01*
G37*
%TD.AperFunction*%
%TA.AperFunction,Conductor*%
G36*
X31302320Y38608723D02*
G01*
X31321742Y38574337D01*
X31323031Y38574911D01*
X31325715Y38568882D01*
X31327757Y38562598D01*
X31331060Y38556876D01*
X31331061Y38556875D01*
X31363870Y38500048D01*
X31419776Y38403217D01*
X31424194Y38398310D01*
X31424195Y38398309D01*
X31527993Y38283029D01*
X31542921Y38266450D01*
X31548263Y38262569D01*
X31548265Y38262567D01*
X31672162Y38172551D01*
X31691810Y38158276D01*
X31697838Y38155592D01*
X31697840Y38155591D01*
X31714124Y38148341D01*
X31815000Y38103428D01*
X31869095Y38057449D01*
X31883583Y38027258D01*
X31893443Y37996912D01*
X31896746Y37991190D01*
X31896747Y37991189D01*
X31906201Y37974815D01*
X31985462Y37837531D01*
X31989880Y37832624D01*
X31989881Y37832623D01*
X32065872Y37748226D01*
X32108607Y37700764D01*
X32113949Y37696883D01*
X32113951Y37696881D01*
X32128120Y37686587D01*
X32171474Y37630365D01*
X32179369Y37597821D01*
X32191694Y37480556D01*
X32193734Y37474279D01*
X32193734Y37474277D01*
X32201934Y37449040D01*
X32248565Y37305526D01*
X32251868Y37299804D01*
X32251869Y37299803D01*
X32273254Y37262764D01*
X32340584Y37146145D01*
X32356195Y37128807D01*
X32386910Y37064801D01*
X32378145Y36994347D01*
X32332681Y36939817D01*
X32262556Y36918500D01*
X29310517Y36918500D01*
X29242396Y36938502D01*
X29195903Y36992158D01*
X29185207Y37057670D01*
X29200632Y37204434D01*
X29200632Y37204435D01*
X29201322Y37211000D01*
X29185209Y37364303D01*
X29197981Y37434141D01*
X29246483Y37485987D01*
X29315316Y37503382D01*
X29376634Y37484733D01*
X29449059Y37440090D01*
X29462241Y37433944D01*
X29613766Y37383685D01*
X29627132Y37380819D01*
X29719770Y37371328D01*
X29726185Y37371000D01*
X29800385Y37371000D01*
X29815624Y37375475D01*
X29816829Y37376865D01*
X29818500Y37384548D01*
X29818500Y37389115D01*
X30326500Y37389115D01*
X30330975Y37373876D01*
X30332365Y37372671D01*
X30340048Y37371000D01*
X30418766Y37371000D01*
X30425282Y37371337D01*
X30519132Y37381075D01*
X30532528Y37383968D01*
X30683953Y37434488D01*
X30697115Y37440653D01*
X30832492Y37524426D01*
X30843890Y37533460D01*
X30956363Y37646129D01*
X30965375Y37657540D01*
X31048912Y37793063D01*
X31055056Y37806241D01*
X31105315Y37957766D01*
X31108181Y37971132D01*
X31117672Y38063770D01*
X31118000Y38070185D01*
X31118000Y38081885D01*
X31113525Y38097124D01*
X31112135Y38098329D01*
X31104452Y38100000D01*
X30344615Y38100000D01*
X30329376Y38095525D01*
X30328171Y38094135D01*
X30326500Y38086452D01*
X30326500Y37389115D01*
X29818500Y37389115D01*
X29818500Y38336759D01*
X29838502Y38404880D01*
X29892158Y38451373D01*
X29943052Y38460642D01*
X29942968Y38462241D01*
X29950555Y38462638D01*
X29958130Y38462122D01*
X29965606Y38463427D01*
X29965609Y38463427D01*
X30020332Y38472978D01*
X30026858Y38473941D01*
X30067296Y38478835D01*
X30089520Y38481524D01*
X30096627Y38484209D01*
X30099920Y38485018D01*
X30114391Y38488977D01*
X30117667Y38489966D01*
X30125154Y38491273D01*
X30132114Y38494328D01*
X30182960Y38516647D01*
X30189066Y38519139D01*
X30242201Y38539217D01*
X30267248Y38545161D01*
X30267219Y38545300D01*
X30447234Y38583564D01*
X30477652Y38597107D01*
X30528901Y38608000D01*
X31099885Y38608000D01*
X31119891Y38613874D01*
X31171596Y38647105D01*
X31242593Y38647106D01*
X31302320Y38608723D01*
G37*
%TD.AperFunction*%
%TA.AperFunction,Conductor*%
G36*
X50772784Y54969783D02*
G01*
X50819698Y54916495D01*
X50831500Y54863252D01*
X50831501Y54699311D01*
X50831501Y54554024D01*
X50834358Y54512100D01*
X50878406Y54335434D01*
X50881438Y54329327D01*
X50881439Y54329323D01*
X50887933Y54316241D01*
X50959362Y54172348D01*
X50963637Y54167030D01*
X50963639Y54167028D01*
X51031696Y54082383D01*
X51058793Y54016761D01*
X51059500Y54003431D01*
X51059500Y51380482D01*
X51039498Y51312361D01*
X51024594Y51293431D01*
X50965684Y51231785D01*
X50878887Y51140958D01*
X50875973Y51136686D01*
X50875972Y51136685D01*
X50865115Y51120769D01*
X50810204Y51075766D01*
X50739679Y51067595D01*
X50675932Y51098849D01*
X50663780Y51112083D01*
X50663155Y51113049D01*
X50608460Y51173158D01*
X50506107Y51285642D01*
X50506105Y51285643D01*
X50502629Y51289464D01*
X50498578Y51292663D01*
X50498574Y51292667D01*
X50319500Y51434091D01*
X50319496Y51434093D01*
X50315445Y51437293D01*
X50302977Y51444176D01*
X50221131Y51489357D01*
X50106631Y51552564D01*
X50101762Y51554288D01*
X50101758Y51554290D01*
X49886663Y51630459D01*
X49886661Y51630460D01*
X49881794Y51632183D01*
X49764383Y51653097D01*
X49652060Y51673106D01*
X49652056Y51673106D01*
X49646972Y51674012D01*
X49563140Y51675036D01*
X49413640Y51676863D01*
X49413638Y51676863D01*
X49408471Y51676926D01*
X49172698Y51640847D01*
X48945982Y51566745D01*
X48941394Y51564357D01*
X48941390Y51564355D01*
X48739003Y51458999D01*
X48734414Y51456610D01*
X48730281Y51453507D01*
X48730278Y51453505D01*
X48553420Y51320715D01*
X48543675Y51313398D01*
X48378887Y51140958D01*
X48375973Y51136686D01*
X48375972Y51136685D01*
X48365115Y51120769D01*
X48310204Y51075766D01*
X48239679Y51067595D01*
X48175932Y51098849D01*
X48163780Y51112083D01*
X48163155Y51113049D01*
X48108460Y51173158D01*
X48006107Y51285642D01*
X48006105Y51285643D01*
X48002629Y51289464D01*
X47998578Y51292663D01*
X47998574Y51292667D01*
X47819500Y51434091D01*
X47819496Y51434093D01*
X47815445Y51437293D01*
X47802977Y51444176D01*
X47721131Y51489357D01*
X47606631Y51552564D01*
X47601762Y51554288D01*
X47601758Y51554290D01*
X47386663Y51630459D01*
X47386661Y51630460D01*
X47381794Y51632183D01*
X47264383Y51653097D01*
X47152060Y51673106D01*
X47152056Y51673106D01*
X47146972Y51674012D01*
X47063140Y51675036D01*
X46913640Y51676863D01*
X46913638Y51676863D01*
X46908471Y51676926D01*
X46672698Y51640847D01*
X46445982Y51566745D01*
X46441394Y51564357D01*
X46441390Y51564355D01*
X46239003Y51458999D01*
X46234414Y51456610D01*
X46230281Y51453507D01*
X46230278Y51453505D01*
X46053420Y51320715D01*
X46043675Y51313398D01*
X45878887Y51140958D01*
X45875973Y51136686D01*
X45875972Y51136685D01*
X45865115Y51120769D01*
X45810204Y51075766D01*
X45739679Y51067595D01*
X45675932Y51098849D01*
X45663780Y51112083D01*
X45663155Y51113049D01*
X45608460Y51173158D01*
X45506107Y51285642D01*
X45506105Y51285643D01*
X45502629Y51289464D01*
X45498578Y51292663D01*
X45498574Y51292667D01*
X45319500Y51434091D01*
X45319496Y51434093D01*
X45315445Y51437293D01*
X45302977Y51444176D01*
X45221131Y51489357D01*
X45106631Y51552564D01*
X45101762Y51554288D01*
X45101758Y51554290D01*
X44886663Y51630459D01*
X44886661Y51630460D01*
X44881794Y51632183D01*
X44764383Y51653097D01*
X44652060Y51673106D01*
X44652056Y51673106D01*
X44646972Y51674012D01*
X44563140Y51675036D01*
X44413640Y51676863D01*
X44413638Y51676863D01*
X44408471Y51676926D01*
X44172698Y51640847D01*
X43945982Y51566745D01*
X43941394Y51564357D01*
X43941390Y51564355D01*
X43739003Y51458999D01*
X43734414Y51456610D01*
X43730281Y51453507D01*
X43730278Y51453505D01*
X43687572Y51421440D01*
X43543675Y51313398D01*
X43540106Y51309663D01*
X43540099Y51309657D01*
X43515297Y51283703D01*
X43453773Y51248273D01*
X43382860Y51251730D01*
X43326007Y51291801D01*
X43325311Y51292667D01*
X43214940Y51429940D01*
X43070926Y51545731D01*
X42969404Y51596127D01*
X42911519Y51624862D01*
X42911515Y51624864D01*
X42905408Y51627895D01*
X42853461Y51640847D01*
X42731503Y51671255D01*
X42731499Y51671256D01*
X42726107Y51672600D01*
X42709294Y51673746D01*
X42685714Y51675354D01*
X42685701Y51675354D01*
X42683566Y51675500D01*
X41336434Y51675500D01*
X41334299Y51675354D01*
X41334286Y51675354D01*
X41310706Y51673746D01*
X41293893Y51672600D01*
X41288501Y51671256D01*
X41288497Y51671255D01*
X41166539Y51640847D01*
X41114592Y51627895D01*
X41108485Y51624864D01*
X41108481Y51624862D01*
X41050596Y51596127D01*
X40949074Y51545731D01*
X40805060Y51429940D01*
X40689269Y51285926D01*
X40662393Y51231785D01*
X40610138Y51126519D01*
X40610136Y51126515D01*
X40607105Y51120408D01*
X40605454Y51113786D01*
X40573910Y50987269D01*
X40562400Y50941107D01*
X40559500Y50898566D01*
X40559500Y49401434D01*
X40562400Y49358893D01*
X40563744Y49353501D01*
X40563745Y49353497D01*
X40582693Y49277502D01*
X40607105Y49179592D01*
X40610136Y49173485D01*
X40610138Y49173481D01*
X40646202Y49100831D01*
X40689269Y49014074D01*
X40805060Y48870060D01*
X40892577Y48799694D01*
X40933131Y48741423D01*
X40935744Y48670475D01*
X40899584Y48609377D01*
X40836132Y48577527D01*
X40813623Y48575500D01*
X35045892Y48575500D01*
X34977771Y48595502D01*
X34931278Y48649158D01*
X34921174Y48719432D01*
X34950668Y48784012D01*
X34987708Y48813260D01*
X35045586Y48843390D01*
X35049719Y48846493D01*
X35049722Y48846495D01*
X35232190Y48983497D01*
X35232192Y48983499D01*
X35236325Y48986602D01*
X35343361Y49098608D01*
X35397542Y49155305D01*
X35397543Y49155306D01*
X35401113Y49159042D01*
X35452589Y49234502D01*
X35532606Y49351803D01*
X35535525Y49356082D01*
X35585737Y49464255D01*
X35633770Y49567733D01*
X35633771Y49567736D01*
X35635949Y49572428D01*
X35699691Y49802272D01*
X35703025Y49833467D01*
X35720144Y49993651D01*
X35720144Y49993659D01*
X35720500Y49996986D01*
X35720500Y50285463D01*
X35720288Y50288047D01*
X35706351Y50457565D01*
X35706350Y50457571D01*
X35705927Y50462716D01*
X35669403Y50608124D01*
X35649080Y50689037D01*
X35649079Y50689041D01*
X35647821Y50694048D01*
X35591538Y50823490D01*
X35554772Y50908047D01*
X35554770Y50908050D01*
X35552712Y50912784D01*
X35423155Y51113049D01*
X35416131Y51120769D01*
X35266107Y51285642D01*
X35266105Y51285643D01*
X35262629Y51289464D01*
X35258578Y51292663D01*
X35258574Y51292667D01*
X35079500Y51434091D01*
X35079496Y51434093D01*
X35075445Y51437293D01*
X35062977Y51444176D01*
X34981131Y51489357D01*
X34866631Y51552564D01*
X34861762Y51554288D01*
X34861758Y51554290D01*
X34646663Y51630459D01*
X34646661Y51630460D01*
X34641794Y51632183D01*
X34524383Y51653097D01*
X34412060Y51673106D01*
X34412056Y51673106D01*
X34406972Y51674012D01*
X34323140Y51675036D01*
X34173640Y51676863D01*
X34173638Y51676863D01*
X34168471Y51676926D01*
X33932698Y51640847D01*
X33705982Y51566745D01*
X33701394Y51564357D01*
X33701390Y51564355D01*
X33499003Y51458999D01*
X33494414Y51456610D01*
X33490281Y51453507D01*
X33490278Y51453505D01*
X33447572Y51421440D01*
X33303675Y51313398D01*
X33300106Y51309663D01*
X33300099Y51309657D01*
X33275297Y51283703D01*
X33213773Y51248273D01*
X33142860Y51251730D01*
X33086007Y51291801D01*
X33085311Y51292667D01*
X32974940Y51429940D01*
X32830926Y51545731D01*
X32729404Y51596127D01*
X32671519Y51624862D01*
X32671515Y51624864D01*
X32665408Y51627895D01*
X32613461Y51640847D01*
X32491503Y51671255D01*
X32491499Y51671256D01*
X32486107Y51672600D01*
X32469294Y51673746D01*
X32445714Y51675354D01*
X32445701Y51675354D01*
X32443566Y51675500D01*
X31096434Y51675500D01*
X31094299Y51675354D01*
X31094286Y51675354D01*
X31070706Y51673746D01*
X31053893Y51672600D01*
X31048501Y51671256D01*
X31048497Y51671255D01*
X30926539Y51640847D01*
X30874592Y51627895D01*
X30868485Y51624864D01*
X30868481Y51624862D01*
X30810596Y51596127D01*
X30709074Y51545731D01*
X30565060Y51429940D01*
X30449269Y51285926D01*
X30422393Y51231785D01*
X30370138Y51126519D01*
X30370136Y51126515D01*
X30367105Y51120408D01*
X30365454Y51113786D01*
X30333910Y50987269D01*
X30322400Y50941107D01*
X30319500Y50898566D01*
X30319500Y49401434D01*
X30322400Y49358893D01*
X30323744Y49353501D01*
X30323745Y49353497D01*
X30342693Y49277502D01*
X30367105Y49179592D01*
X30370136Y49173485D01*
X30370138Y49173481D01*
X30406202Y49100831D01*
X30449269Y49014074D01*
X30565060Y48870060D01*
X30652577Y48799694D01*
X30693131Y48741423D01*
X30695744Y48670475D01*
X30659584Y48609377D01*
X30596132Y48577527D01*
X30573623Y48575500D01*
X25942303Y48575500D01*
X25874182Y48595502D01*
X25827689Y48649158D01*
X25817585Y48719432D01*
X25847079Y48784012D01*
X25896022Y48818692D01*
X25981029Y48852263D01*
X25990561Y48856994D01*
X26178462Y48971016D01*
X26187052Y48977280D01*
X26353052Y49121327D01*
X26360472Y49128958D01*
X26499826Y49298911D01*
X26505850Y49307678D01*
X26614576Y49498682D01*
X26619041Y49508346D01*
X26694031Y49714941D01*
X26696802Y49725208D01*
X26724463Y49878174D01*
X26723045Y49891413D01*
X26708406Y49896000D01*
X25252000Y49896000D01*
X25183879Y49916002D01*
X25137386Y49969658D01*
X25126000Y50022000D01*
X25126000Y50422115D01*
X25634000Y50422115D01*
X25638475Y50406876D01*
X25639865Y50405671D01*
X25647548Y50404000D01*
X26709607Y50404000D01*
X26724285Y50408310D01*
X26726348Y50420193D01*
X26723876Y50449324D01*
X26722085Y50459798D01*
X26666870Y50672535D01*
X26663335Y50682575D01*
X26573063Y50882970D01*
X26567894Y50892256D01*
X26445150Y51074575D01*
X26438481Y51082870D01*
X26286772Y51241900D01*
X26278814Y51248941D01*
X26102475Y51380141D01*
X26093438Y51385745D01*
X25897516Y51485357D01*
X25887665Y51489357D01*
X25677760Y51554534D01*
X25667376Y51556817D01*
X25651957Y51558861D01*
X25637793Y51556665D01*
X25634000Y51543478D01*
X25634000Y50422115D01*
X25126000Y50422115D01*
X25126000Y51541192D01*
X25122027Y51554723D01*
X25111420Y51556248D01*
X24993579Y51531523D01*
X24983383Y51528463D01*
X24778971Y51447737D01*
X24769439Y51443006D01*
X24581538Y51328984D01*
X24572948Y51322720D01*
X24423047Y51192643D01*
X24358487Y51163104D01*
X24288206Y51173158D01*
X24234518Y51219613D01*
X24227607Y51231785D01*
X24219422Y51248273D01*
X24200731Y51285926D01*
X24084940Y51429940D01*
X23940926Y51545731D01*
X23839404Y51596127D01*
X23781519Y51624862D01*
X23781515Y51624864D01*
X23775408Y51627895D01*
X23723461Y51640847D01*
X23601503Y51671255D01*
X23601499Y51671256D01*
X23596107Y51672600D01*
X23579294Y51673746D01*
X23555714Y51675354D01*
X23555701Y51675354D01*
X23553566Y51675500D01*
X22206434Y51675500D01*
X22204299Y51675354D01*
X22204286Y51675354D01*
X22180706Y51673746D01*
X22163893Y51672600D01*
X22158501Y51671256D01*
X22158497Y51671255D01*
X22036539Y51640847D01*
X21984592Y51627895D01*
X21978485Y51624864D01*
X21978481Y51624862D01*
X21920596Y51596127D01*
X21819074Y51545731D01*
X21675060Y51429940D01*
X21559269Y51285926D01*
X21532393Y51231785D01*
X21480138Y51126519D01*
X21480136Y51126515D01*
X21477105Y51120408D01*
X21475454Y51113786D01*
X21443910Y50987269D01*
X21432400Y50941107D01*
X21429500Y50898566D01*
X21429500Y49401434D01*
X21432400Y49358893D01*
X21433744Y49353501D01*
X21433745Y49353497D01*
X21452693Y49277502D01*
X21477105Y49179592D01*
X21480136Y49173485D01*
X21480138Y49173481D01*
X21516202Y49100831D01*
X21559269Y49014074D01*
X21675060Y48870060D01*
X21819074Y48754269D01*
X21825186Y48751235D01*
X21825189Y48751233D01*
X21859525Y48734188D01*
X21911648Y48685983D01*
X21929500Y48621329D01*
X21929500Y48255432D01*
X21929451Y48251914D01*
X21928520Y48218563D01*
X21927164Y48170028D01*
X21936214Y48118704D01*
X21937075Y48113821D01*
X21938343Y48104678D01*
X21944112Y48047890D01*
X21950704Y48026855D01*
X21952166Y48022189D01*
X21956016Y48006393D01*
X21959585Y47986153D01*
X21959587Y47986144D01*
X21960695Y47979863D01*
X21963044Y47973930D01*
X21981706Y47926794D01*
X21984788Y47918091D01*
X22001856Y47863627D01*
X22004950Y47858044D01*
X22004951Y47858043D01*
X22014918Y47840062D01*
X22021862Y47825371D01*
X22031779Y47800325D01*
X22047308Y47776595D01*
X22063028Y47752572D01*
X22067798Y47744664D01*
X22071685Y47737652D01*
X22095472Y47694739D01*
X22099626Y47689893D01*
X22099627Y47689891D01*
X22113001Y47674288D01*
X22122766Y47661282D01*
X22137513Y47638746D01*
X22141758Y47634032D01*
X22178543Y47597247D01*
X22185116Y47590150D01*
X22221136Y47548125D01*
X22243986Y47530400D01*
X22255848Y47519942D01*
X22811979Y46963811D01*
X22814431Y46961290D01*
X22870721Y46901765D01*
X22875950Y46898104D01*
X22875953Y46898101D01*
X22917475Y46869027D01*
X22924839Y46863457D01*
X22964120Y46831421D01*
X22969069Y46827385D01*
X22992950Y46814900D01*
X23006832Y46806460D01*
X23028898Y46791009D01*
X23081293Y46768336D01*
X23089591Y46764378D01*
X23140194Y46737923D01*
X23146333Y46736163D01*
X23146332Y46736163D01*
X23166087Y46730498D01*
X23181400Y46725015D01*
X23200255Y46716855D01*
X23200262Y46716853D01*
X23206115Y46714320D01*
X23212363Y46713015D01*
X23212362Y46713015D01*
X23261974Y46702650D01*
X23270937Y46700432D01*
X23325812Y46684697D01*
X23349428Y46682880D01*
X23352673Y46682630D01*
X23368771Y46680339D01*
X23395133Y46674832D01*
X23401468Y46674500D01*
X23453502Y46674500D01*
X23463168Y46674129D01*
X23511985Y46670373D01*
X23511986Y46670373D01*
X23518342Y46669884D01*
X23547023Y46673507D01*
X23562813Y46674500D01*
X32343502Y46674500D01*
X32353168Y46674129D01*
X32401985Y46670373D01*
X32401986Y46670373D01*
X32408342Y46669884D01*
X32437023Y46673507D01*
X32452813Y46674500D01*
X50705925Y46674500D01*
X50774046Y46654498D01*
X50820539Y46600842D01*
X50831209Y46542273D01*
X50831719Y46542256D01*
X50831646Y46540124D01*
X50831500Y46537977D01*
X50831501Y45918024D01*
X50834358Y45876100D01*
X50878406Y45699434D01*
X50881438Y45693327D01*
X50881439Y45693323D01*
X50956330Y45542455D01*
X50959362Y45536348D01*
X50963633Y45531035D01*
X50963635Y45531033D01*
X50991196Y45496755D01*
X51018293Y45431132D01*
X51019000Y45417802D01*
X51019000Y42702101D01*
X50998998Y42633980D01*
X50984099Y42615056D01*
X50878887Y42504958D01*
X50875973Y42500686D01*
X50875972Y42500685D01*
X50865115Y42484769D01*
X50810204Y42439766D01*
X50739679Y42431595D01*
X50675932Y42462849D01*
X50663780Y42476083D01*
X50663155Y42477049D01*
X50610385Y42535042D01*
X50506107Y42649642D01*
X50506105Y42649643D01*
X50502629Y42653464D01*
X50498578Y42656663D01*
X50498574Y42656667D01*
X50319500Y42798091D01*
X50319496Y42798093D01*
X50315445Y42801293D01*
X50276125Y42822999D01*
X50187210Y42872082D01*
X50106631Y42916564D01*
X50101762Y42918288D01*
X50101758Y42918290D01*
X49886663Y42994459D01*
X49886661Y42994460D01*
X49881794Y42996183D01*
X49764383Y43017097D01*
X49652060Y43037106D01*
X49652056Y43037106D01*
X49646972Y43038012D01*
X49563140Y43039036D01*
X49413640Y43040863D01*
X49413638Y43040863D01*
X49408471Y43040926D01*
X49172698Y43004847D01*
X48945982Y42930745D01*
X48941394Y42928357D01*
X48941390Y42928355D01*
X48739003Y42822999D01*
X48734414Y42820610D01*
X48730281Y42817507D01*
X48730278Y42817505D01*
X48548319Y42680885D01*
X48543675Y42677398D01*
X48540103Y42673660D01*
X48439218Y42568090D01*
X48378887Y42504958D01*
X48375973Y42500686D01*
X48375972Y42500685D01*
X48365115Y42484769D01*
X48310204Y42439766D01*
X48239679Y42431595D01*
X48175932Y42462849D01*
X48163780Y42476083D01*
X48163155Y42477049D01*
X48110385Y42535042D01*
X48006107Y42649642D01*
X48006105Y42649643D01*
X48002629Y42653464D01*
X47998578Y42656663D01*
X47998574Y42656667D01*
X47819500Y42798091D01*
X47819496Y42798093D01*
X47815445Y42801293D01*
X47776125Y42822999D01*
X47687210Y42872082D01*
X47606631Y42916564D01*
X47601762Y42918288D01*
X47601758Y42918290D01*
X47386663Y42994459D01*
X47386661Y42994460D01*
X47381794Y42996183D01*
X47264383Y43017097D01*
X47152060Y43037106D01*
X47152056Y43037106D01*
X47146972Y43038012D01*
X47063140Y43039036D01*
X46913640Y43040863D01*
X46913638Y43040863D01*
X46908471Y43040926D01*
X46672698Y43004847D01*
X46445982Y42930745D01*
X46441394Y42928357D01*
X46441390Y42928355D01*
X46239003Y42822999D01*
X46234414Y42820610D01*
X46230281Y42817507D01*
X46230278Y42817505D01*
X46048319Y42680885D01*
X46043675Y42677398D01*
X46040103Y42673660D01*
X45939218Y42568090D01*
X45878887Y42504958D01*
X45875973Y42500686D01*
X45875972Y42500685D01*
X45865115Y42484769D01*
X45810204Y42439766D01*
X45739679Y42431595D01*
X45675932Y42462849D01*
X45663780Y42476083D01*
X45663155Y42477049D01*
X45610385Y42535042D01*
X45506107Y42649642D01*
X45506105Y42649643D01*
X45502629Y42653464D01*
X45498578Y42656663D01*
X45498574Y42656667D01*
X45319500Y42798091D01*
X45319496Y42798093D01*
X45315445Y42801293D01*
X45276125Y42822999D01*
X45187210Y42872082D01*
X45106631Y42916564D01*
X45101762Y42918288D01*
X45101758Y42918290D01*
X44886663Y42994459D01*
X44886661Y42994460D01*
X44881794Y42996183D01*
X44764383Y43017097D01*
X44652060Y43037106D01*
X44652056Y43037106D01*
X44646972Y43038012D01*
X44563140Y43039036D01*
X44413640Y43040863D01*
X44413638Y43040863D01*
X44408471Y43040926D01*
X44172698Y43004847D01*
X43945982Y42930745D01*
X43941394Y42928357D01*
X43941390Y42928355D01*
X43739003Y42822999D01*
X43734414Y42820610D01*
X43730281Y42817507D01*
X43730278Y42817505D01*
X43640031Y42749745D01*
X43543675Y42677398D01*
X43540106Y42673663D01*
X43540099Y42673657D01*
X43515297Y42647703D01*
X43453773Y42612273D01*
X43382860Y42615730D01*
X43326007Y42655801D01*
X43315797Y42668500D01*
X43214940Y42793940D01*
X43070926Y42909731D01*
X42988167Y42950813D01*
X42911519Y42988862D01*
X42911515Y42988864D01*
X42905408Y42991895D01*
X42853461Y43004847D01*
X42731503Y43035255D01*
X42731499Y43035256D01*
X42726107Y43036600D01*
X42709294Y43037746D01*
X42685714Y43039354D01*
X42685701Y43039354D01*
X42683566Y43039500D01*
X41336434Y43039500D01*
X41334299Y43039354D01*
X41334286Y43039354D01*
X41310706Y43037746D01*
X41293893Y43036600D01*
X41288501Y43035256D01*
X41288497Y43035255D01*
X41166539Y43004847D01*
X41114592Y42991895D01*
X41108485Y42988864D01*
X41108481Y42988862D01*
X41031833Y42950813D01*
X40949074Y42909731D01*
X40805060Y42793940D01*
X40689269Y42649926D01*
X40648645Y42568090D01*
X40610138Y42490519D01*
X40610136Y42490515D01*
X40607105Y42484408D01*
X40605454Y42477786D01*
X40573910Y42351269D01*
X40562400Y42305107D01*
X40562022Y42299559D01*
X40560265Y42273782D01*
X40559500Y42262566D01*
X40559500Y40765434D01*
X40559646Y40763299D01*
X40559646Y40763286D01*
X40560296Y40753755D01*
X40562400Y40722893D01*
X40563744Y40717501D01*
X40563745Y40717497D01*
X40575169Y40671678D01*
X40607105Y40543592D01*
X40610136Y40537485D01*
X40610138Y40537481D01*
X40613042Y40531632D01*
X40689269Y40378074D01*
X40693547Y40372753D01*
X40697220Y40367010D01*
X40695975Y40366214D01*
X40720082Y40307827D01*
X40707397Y40237972D01*
X40658960Y40186065D01*
X40594789Y40168500D01*
X34906399Y40168500D01*
X34838278Y40188502D01*
X34791785Y40242158D01*
X34781089Y40307671D01*
X34781106Y40307827D01*
X34789322Y40386000D01*
X34777417Y40499269D01*
X34770775Y40562465D01*
X34770775Y40562466D01*
X34770085Y40569029D01*
X34713214Y40744059D01*
X34621195Y40903440D01*
X34596187Y40931215D01*
X34502472Y41035296D01*
X34502471Y41035297D01*
X34498050Y41040207D01*
X34492708Y41044088D01*
X34492706Y41044090D01*
X34354503Y41144500D01*
X34354502Y41144501D01*
X34349161Y41148381D01*
X34343133Y41151065D01*
X34343131Y41151066D01*
X34187065Y41220551D01*
X34187064Y41220551D01*
X34181034Y41223236D01*
X34069128Y41247023D01*
X34006656Y41280750D01*
X34000388Y41287428D01*
X33974769Y41316796D01*
X33923127Y41353090D01*
X33917842Y41357016D01*
X33874124Y41391295D01*
X33874120Y41391297D01*
X33868143Y41395984D01*
X33861220Y41399110D01*
X33858272Y41400895D01*
X33845312Y41408287D01*
X33842266Y41409920D01*
X33836053Y41414287D01*
X33777233Y41437220D01*
X33771154Y41439776D01*
X33713616Y41465755D01*
X33706145Y41467140D01*
X33702877Y41468164D01*
X33688436Y41472277D01*
X33685163Y41473117D01*
X33678087Y41475876D01*
X33633417Y41481756D01*
X33615494Y41484116D01*
X33608977Y41485148D01*
X33554375Y41495268D01*
X33546908Y41496652D01*
X33539328Y41496215D01*
X33539327Y41496215D01*
X33485456Y41493109D01*
X33478204Y41492900D01*
X16039546Y41492900D01*
X15971425Y41512902D01*
X15950451Y41529805D01*
X15478515Y42001741D01*
X15444489Y42064053D01*
X15442300Y42077663D01*
X15442176Y42078841D01*
X15440685Y42093029D01*
X15383814Y42268059D01*
X15365628Y42299559D01*
X15347701Y42330609D01*
X15291795Y42427440D01*
X15246464Y42477786D01*
X15173072Y42559296D01*
X15173071Y42559297D01*
X15168650Y42564207D01*
X15163308Y42568088D01*
X15163306Y42568090D01*
X15025103Y42668500D01*
X15025102Y42668501D01*
X15019761Y42672381D01*
X15013733Y42675065D01*
X15013731Y42675066D01*
X14857665Y42744551D01*
X14857664Y42744551D01*
X14851634Y42747236D01*
X14761627Y42766368D01*
X14678076Y42784128D01*
X14678071Y42784128D01*
X14671619Y42785500D01*
X14487581Y42785500D01*
X14481129Y42784128D01*
X14481124Y42784128D01*
X14397573Y42766368D01*
X14307566Y42747236D01*
X14301536Y42744551D01*
X14301535Y42744551D01*
X14145469Y42675066D01*
X14145467Y42675065D01*
X14139439Y42672381D01*
X14134098Y42668501D01*
X14134097Y42668500D01*
X13995894Y42568090D01*
X13995892Y42568088D01*
X13990550Y42564207D01*
X13986129Y42559297D01*
X13986128Y42559296D01*
X13912737Y42477786D01*
X13867405Y42427440D01*
X13811499Y42330609D01*
X13793573Y42299559D01*
X13775386Y42268059D01*
X13773344Y42261774D01*
X13721168Y42101193D01*
X13718515Y42093029D01*
X13717825Y42086467D01*
X13717825Y42086465D01*
X13699968Y41916565D01*
X13699278Y41910000D01*
X13718515Y41726971D01*
X13775386Y41551941D01*
X13867405Y41392560D01*
X13871823Y41387653D01*
X13871824Y41387652D01*
X13962054Y41287441D01*
X13990550Y41255793D01*
X13995892Y41251912D01*
X13995894Y41251910D01*
X14113765Y41166272D01*
X14139439Y41147619D01*
X14145467Y41144935D01*
X14145469Y41144934D01*
X14270632Y41089208D01*
X14307566Y41072764D01*
X14421691Y41048506D01*
X14484590Y41014354D01*
X14836032Y40662911D01*
X15181624Y40317319D01*
X15187477Y40311053D01*
X15225031Y40268004D01*
X15276690Y40231698D01*
X15281974Y40227773D01*
X15331657Y40188817D01*
X15338584Y40185689D01*
X15341515Y40183914D01*
X15354518Y40176497D01*
X15357532Y40174881D01*
X15363747Y40170513D01*
X15370823Y40167754D01*
X15370827Y40167752D01*
X15422564Y40147581D01*
X15428645Y40145025D01*
X15486184Y40119045D01*
X15493649Y40117661D01*
X15496886Y40116647D01*
X15515492Y40111349D01*
X15517145Y40110705D01*
X15573358Y40067338D01*
X15597201Y40000465D01*
X15581105Y39931317D01*
X15530180Y39881848D01*
X15471405Y39867300D01*
X3360273Y39867300D01*
X3286212Y39891364D01*
X3239503Y39925300D01*
X3239502Y39925301D01*
X3234161Y39929181D01*
X3228133Y39931865D01*
X3228131Y39931866D01*
X3072065Y40001351D01*
X3072064Y40001351D01*
X3066034Y40004036D01*
X2976027Y40023168D01*
X2892476Y40040928D01*
X2892471Y40040928D01*
X2886019Y40042300D01*
X2701981Y40042300D01*
X2692191Y40040219D01*
X2690224Y40040369D01*
X2688956Y40040236D01*
X2688932Y40040468D01*
X2621401Y40045624D01*
X2564770Y40088443D01*
X2540279Y40155082D01*
X2540000Y40163467D01*
X2540000Y48768000D01*
X7628678Y48768000D01*
X7629368Y48761435D01*
X7643456Y48627400D01*
X7647915Y48584971D01*
X7649955Y48578694D01*
X7649955Y48578692D01*
X7672560Y48509122D01*
X7704786Y48409941D01*
X7708089Y48404219D01*
X7708090Y48404218D01*
X7713483Y48394877D01*
X7796805Y48250560D01*
X7801223Y48245653D01*
X7801224Y48245652D01*
X7846618Y48195237D01*
X7919950Y48113793D01*
X7925292Y48109912D01*
X7925294Y48109910D01*
X8010658Y48047890D01*
X8068839Y48005619D01*
X8074867Y48002935D01*
X8074869Y48002934D01*
X8230935Y47933449D01*
X8236966Y47930764D01*
X8416981Y47892500D01*
X8417894Y47892500D01*
X8446154Y47885638D01*
X8488376Y47869177D01*
X8494445Y47866625D01*
X8541776Y47845254D01*
X8551984Y47840645D01*
X8559450Y47839261D01*
X8562699Y47838243D01*
X8577164Y47834123D01*
X8580437Y47833283D01*
X8587513Y47830524D01*
X8626733Y47825361D01*
X8650106Y47822284D01*
X8656623Y47821252D01*
X8698035Y47813577D01*
X8718692Y47809748D01*
X8726272Y47810185D01*
X8726273Y47810185D01*
X8780144Y47813291D01*
X8787396Y47813500D01*
X16078285Y47813500D01*
X16146406Y47793498D01*
X16167380Y47776595D01*
X16189959Y47754016D01*
X16223985Y47691704D01*
X16226174Y47678093D01*
X16227789Y47662728D01*
X16229829Y47656451D01*
X16229829Y47656449D01*
X16242687Y47616876D01*
X16284660Y47487698D01*
X16376679Y47328317D01*
X16499824Y47191550D01*
X16505166Y47187669D01*
X16505168Y47187667D01*
X16643371Y47087257D01*
X16648713Y47083376D01*
X16654741Y47080692D01*
X16654743Y47080691D01*
X16810809Y47011206D01*
X16816840Y47008521D01*
X16906847Y46989389D01*
X16990398Y46971629D01*
X16990403Y46971629D01*
X16996855Y46970257D01*
X17180893Y46970257D01*
X17187345Y46971629D01*
X17187350Y46971629D01*
X17270901Y46989389D01*
X17360908Y47008521D01*
X17366939Y47011206D01*
X17523005Y47080691D01*
X17523007Y47080692D01*
X17529035Y47083376D01*
X17534377Y47087257D01*
X17672580Y47187667D01*
X17672582Y47187669D01*
X17677924Y47191550D01*
X17801069Y47328317D01*
X17804369Y47334032D01*
X17804373Y47334038D01*
X17809373Y47342699D01*
X17860755Y47391692D01*
X17892288Y47402943D01*
X17985534Y47422764D01*
X18118524Y47481975D01*
X18147631Y47494934D01*
X18147633Y47494935D01*
X18153661Y47497619D01*
X18198789Y47530406D01*
X18297206Y47601910D01*
X18297208Y47601912D01*
X18302550Y47605793D01*
X18326902Y47632839D01*
X18421276Y47737652D01*
X18421277Y47737653D01*
X18425695Y47742560D01*
X18512872Y47893554D01*
X18514410Y47896218D01*
X18514411Y47896219D01*
X18517714Y47901941D01*
X18574585Y48076971D01*
X18585037Y48176411D01*
X18593132Y48253435D01*
X18593822Y48260000D01*
X18574585Y48443029D01*
X18517714Y48618059D01*
X18509485Y48632313D01*
X18451205Y48733255D01*
X18425695Y48777440D01*
X18421235Y48782394D01*
X18306972Y48909296D01*
X18306971Y48909297D01*
X18302550Y48914207D01*
X18297208Y48918088D01*
X18297206Y48918090D01*
X18159003Y49018500D01*
X18159002Y49018501D01*
X18153661Y49022381D01*
X18147633Y49025065D01*
X18147631Y49025066D01*
X17991565Y49094551D01*
X17991564Y49094551D01*
X17985534Y49097236D01*
X17871409Y49121494D01*
X17808510Y49155646D01*
X17340076Y49624081D01*
X17334223Y49630347D01*
X17301665Y49667669D01*
X17296669Y49673396D01*
X17245027Y49709690D01*
X17239742Y49713616D01*
X17196024Y49747895D01*
X17196020Y49747897D01*
X17190043Y49752584D01*
X17183120Y49755710D01*
X17180172Y49757495D01*
X17167212Y49764887D01*
X17164166Y49766520D01*
X17157953Y49770887D01*
X17099133Y49793820D01*
X17093054Y49796376D01*
X17088802Y49798296D01*
X17035516Y49822355D01*
X17028045Y49823740D01*
X17024777Y49824764D01*
X17010336Y49828877D01*
X17007063Y49829717D01*
X16999987Y49832476D01*
X16955317Y49838356D01*
X16937394Y49840716D01*
X16930877Y49841748D01*
X16876275Y49851868D01*
X16868808Y49853252D01*
X16861228Y49852815D01*
X16861227Y49852815D01*
X16807356Y49849709D01*
X16800104Y49849500D01*
X13774273Y49849500D01*
X13700212Y49873564D01*
X13653503Y49907500D01*
X13653502Y49907501D01*
X13648161Y49911381D01*
X13642133Y49914065D01*
X13642131Y49914066D01*
X13486065Y49983551D01*
X13486064Y49983551D01*
X13480034Y49986236D01*
X13390027Y50005368D01*
X13306476Y50023128D01*
X13306471Y50023128D01*
X13300019Y50024500D01*
X13115981Y50024500D01*
X13109529Y50023128D01*
X13109524Y50023128D01*
X13025973Y50005368D01*
X12935966Y49986236D01*
X12929936Y49983551D01*
X12929935Y49983551D01*
X12773869Y49914066D01*
X12773867Y49914065D01*
X12767839Y49911381D01*
X12762498Y49907501D01*
X12762497Y49907500D01*
X12624294Y49807090D01*
X12624292Y49807088D01*
X12618950Y49803207D01*
X12614529Y49798297D01*
X12614528Y49798296D01*
X12580245Y49760220D01*
X12495805Y49666440D01*
X12403786Y49507059D01*
X12401744Y49500774D01*
X12351758Y49346933D01*
X12346915Y49332029D01*
X12346225Y49325466D01*
X12344851Y49319001D01*
X12343144Y49319364D01*
X12319408Y49261672D01*
X12261186Y49221043D01*
X12221111Y49214500D01*
X9334898Y49214500D01*
X9266777Y49234502D01*
X9228602Y49274540D01*
X9228379Y49274378D01*
X9227170Y49276042D01*
X9225778Y49277502D01*
X9224497Y49279722D01*
X9224493Y49279728D01*
X9221195Y49285440D01*
X9168542Y49343918D01*
X9102472Y49417296D01*
X9102471Y49417297D01*
X9098050Y49422207D01*
X9092708Y49426088D01*
X9092706Y49426090D01*
X8954503Y49526500D01*
X8954502Y49526501D01*
X8949161Y49530381D01*
X8943133Y49533065D01*
X8943131Y49533066D01*
X8787065Y49602551D01*
X8787064Y49602551D01*
X8781034Y49605236D01*
X8691027Y49624368D01*
X8607476Y49642128D01*
X8607471Y49642128D01*
X8601019Y49643500D01*
X8416981Y49643500D01*
X8410529Y49642128D01*
X8410524Y49642128D01*
X8326973Y49624368D01*
X8236966Y49605236D01*
X8230936Y49602551D01*
X8230935Y49602551D01*
X8074869Y49533066D01*
X8074867Y49533065D01*
X8068839Y49530381D01*
X8063498Y49526501D01*
X8063497Y49526500D01*
X7925294Y49426090D01*
X7925292Y49426088D01*
X7919950Y49422207D01*
X7915529Y49417297D01*
X7915528Y49417296D01*
X7849459Y49343918D01*
X7796805Y49285440D01*
X7704786Y49126059D01*
X7702744Y49119774D01*
X7656440Y48977265D01*
X7647915Y48951029D01*
X7647225Y48944466D01*
X7647225Y48944465D01*
X7638632Y48862707D01*
X7628678Y48768000D01*
X2540000Y48768000D01*
X2540000Y50059108D01*
X2560002Y50127229D01*
X2613658Y50173722D01*
X2683932Y50183826D01*
X2712385Y50176259D01*
X2737566Y50166289D01*
X2737571Y50166287D01*
X2741257Y50164828D01*
X2745091Y50163844D01*
X2745099Y50163841D01*
X2929607Y50116468D01*
X3039914Y50088146D01*
X3043842Y50087650D01*
X3043846Y50087649D01*
X3164780Y50072372D01*
X3345828Y50049500D01*
X3654172Y50049500D01*
X3835220Y50072372D01*
X3956154Y50087649D01*
X3956158Y50087650D01*
X3960086Y50088146D01*
X4070393Y50116468D01*
X4254901Y50163841D01*
X4254909Y50163844D01*
X4258743Y50164828D01*
X4262434Y50166289D01*
X4389056Y50216422D01*
X4545435Y50278337D01*
X4558398Y50285463D01*
X4774014Y50404000D01*
X4815640Y50426884D01*
X5065096Y50608124D01*
X5289869Y50819201D01*
X5486416Y51056784D01*
X5488537Y51060126D01*
X5488542Y51060133D01*
X5649511Y51313782D01*
X5649511Y51313783D01*
X5651635Y51317129D01*
X5653319Y51320708D01*
X5653323Y51320715D01*
X5781233Y51592537D01*
X5781235Y51592541D01*
X5782922Y51596127D01*
X5793781Y51629546D01*
X5876979Y51885605D01*
X5878206Y51889381D01*
X5935984Y52192264D01*
X5955345Y52500000D01*
X5935984Y52807736D01*
X5878206Y53110619D01*
X5805648Y53333931D01*
X5784148Y53400100D01*
X5784148Y53400101D01*
X5782922Y53403873D01*
X5702754Y53574238D01*
X5653323Y53679285D01*
X5653319Y53679292D01*
X5651635Y53682871D01*
X5649511Y53686218D01*
X5488542Y53939867D01*
X5488537Y53939874D01*
X5486416Y53943216D01*
X5289869Y54180799D01*
X5065096Y54391876D01*
X5050596Y54402411D01*
X5007241Y54458633D01*
X5001164Y54529369D01*
X5034295Y54592161D01*
X5096115Y54627073D01*
X5123661Y54630344D01*
X36166933Y54874779D01*
X50704508Y54989248D01*
X50772784Y54969783D01*
G37*
%TD.AperFunction*%
%TD*%
M02*
