%TF.GenerationSoftware,KiCad,Pcbnew,(6.0.4)*%
%TF.CreationDate,2022-08-07T13:44:39+09:00*%
%TF.ProjectId,cleanbot,636c6561-6e62-46f7-942e-6b696361645f,rev?*%
%TF.SameCoordinates,Original*%
%TF.FileFunction,Legend,Bot*%
%TF.FilePolarity,Positive*%
%FSLAX46Y46*%
G04 Gerber Fmt 4.6, Leading zero omitted, Abs format (unit mm)*
G04 Created by KiCad (PCBNEW (6.0.4)) date 2022-08-07 13:44:39*
%MOMM*%
%LPD*%
G01*
G04 APERTURE LIST*
%ADD10C,0.150000*%
%ADD11C,0.120000*%
G04 APERTURE END LIST*
D10*
%TO.C,R17*%
X38514257Y18216619D02*
X38847590Y18692809D01*
X39085685Y18216619D02*
X39085685Y19216619D01*
X38704733Y19216619D01*
X38609495Y19169000D01*
X38561876Y19121380D01*
X38514257Y19026142D01*
X38514257Y18883285D01*
X38561876Y18788047D01*
X38609495Y18740428D01*
X38704733Y18692809D01*
X39085685Y18692809D01*
X37561876Y18216619D02*
X38133304Y18216619D01*
X37847590Y18216619D02*
X37847590Y19216619D01*
X37942828Y19073761D01*
X38038066Y18978523D01*
X38133304Y18930904D01*
X37228542Y19216619D02*
X36561876Y19216619D01*
X36990447Y18216619D01*
%TO.C,C2*%
X56046666Y54506857D02*
X56094285Y54459238D01*
X56237142Y54411619D01*
X56332380Y54411619D01*
X56475238Y54459238D01*
X56570476Y54554476D01*
X56618095Y54649714D01*
X56665714Y54840190D01*
X56665714Y54983047D01*
X56618095Y55173523D01*
X56570476Y55268761D01*
X56475238Y55364000D01*
X56332380Y55411619D01*
X56237142Y55411619D01*
X56094285Y55364000D01*
X56046666Y55316380D01*
X55665714Y55316380D02*
X55618095Y55364000D01*
X55522857Y55411619D01*
X55284761Y55411619D01*
X55189523Y55364000D01*
X55141904Y55316380D01*
X55094285Y55221142D01*
X55094285Y55125904D01*
X55141904Y54983047D01*
X55713333Y54411619D01*
X55094285Y54411619D01*
%TO.C,C5*%
X26582666Y36980857D02*
X26630285Y36933238D01*
X26773142Y36885619D01*
X26868380Y36885619D01*
X27011238Y36933238D01*
X27106476Y37028476D01*
X27154095Y37123714D01*
X27201714Y37314190D01*
X27201714Y37457047D01*
X27154095Y37647523D01*
X27106476Y37742761D01*
X27011238Y37838000D01*
X26868380Y37885619D01*
X26773142Y37885619D01*
X26630285Y37838000D01*
X26582666Y37790380D01*
X25677904Y37885619D02*
X26154095Y37885619D01*
X26201714Y37409428D01*
X26154095Y37457047D01*
X26058857Y37504666D01*
X25820761Y37504666D01*
X25725523Y37457047D01*
X25677904Y37409428D01*
X25630285Y37314190D01*
X25630285Y37076095D01*
X25677904Y36980857D01*
X25725523Y36933238D01*
X25820761Y36885619D01*
X26058857Y36885619D01*
X26154095Y36933238D01*
X26201714Y36980857D01*
%TO.C,C21*%
X38539657Y16787857D02*
X38587276Y16740238D01*
X38730133Y16692619D01*
X38825371Y16692619D01*
X38968228Y16740238D01*
X39063466Y16835476D01*
X39111085Y16930714D01*
X39158704Y17121190D01*
X39158704Y17264047D01*
X39111085Y17454523D01*
X39063466Y17549761D01*
X38968228Y17645000D01*
X38825371Y17692619D01*
X38730133Y17692619D01*
X38587276Y17645000D01*
X38539657Y17597380D01*
X38158704Y17597380D02*
X38111085Y17645000D01*
X38015847Y17692619D01*
X37777752Y17692619D01*
X37682514Y17645000D01*
X37634895Y17597380D01*
X37587276Y17502142D01*
X37587276Y17406904D01*
X37634895Y17264047D01*
X38206323Y16692619D01*
X37587276Y16692619D01*
X36634895Y16692619D02*
X37206323Y16692619D01*
X36920609Y16692619D02*
X36920609Y17692619D01*
X37015847Y17549761D01*
X37111085Y17454523D01*
X37206323Y17406904D01*
%TO.C,C3*%
X26582666Y31011857D02*
X26630285Y30964238D01*
X26773142Y30916619D01*
X26868380Y30916619D01*
X27011238Y30964238D01*
X27106476Y31059476D01*
X27154095Y31154714D01*
X27201714Y31345190D01*
X27201714Y31488047D01*
X27154095Y31678523D01*
X27106476Y31773761D01*
X27011238Y31869000D01*
X26868380Y31916619D01*
X26773142Y31916619D01*
X26630285Y31869000D01*
X26582666Y31821380D01*
X26249333Y31916619D02*
X25630285Y31916619D01*
X25963619Y31535666D01*
X25820761Y31535666D01*
X25725523Y31488047D01*
X25677904Y31440428D01*
X25630285Y31345190D01*
X25630285Y31107095D01*
X25677904Y31011857D01*
X25725523Y30964238D01*
X25820761Y30916619D01*
X26106476Y30916619D01*
X26201714Y30964238D01*
X26249333Y31011857D01*
%TO.C,R14*%
X38693957Y6202419D02*
X39027290Y6678609D01*
X39265385Y6202419D02*
X39265385Y7202419D01*
X38884433Y7202419D01*
X38789195Y7154800D01*
X38741576Y7107180D01*
X38693957Y7011942D01*
X38693957Y6869085D01*
X38741576Y6773847D01*
X38789195Y6726228D01*
X38884433Y6678609D01*
X39265385Y6678609D01*
X37741576Y6202419D02*
X38313004Y6202419D01*
X38027290Y6202419D02*
X38027290Y7202419D01*
X38122528Y7059561D01*
X38217766Y6964323D01*
X38313004Y6916704D01*
X36884433Y6869085D02*
X36884433Y6202419D01*
X37122528Y7250038D02*
X37360623Y6535752D01*
X36741576Y6535752D01*
%TO.C,C18*%
X31568106Y25525830D02*
X31635450Y25525830D01*
X31770137Y25593174D01*
X31837480Y25660517D01*
X31904824Y25795204D01*
X31904824Y25929891D01*
X31871152Y26030906D01*
X31770137Y26199265D01*
X31669122Y26300280D01*
X31500763Y26401296D01*
X31399748Y26434967D01*
X31265061Y26434967D01*
X31130374Y26367624D01*
X31063030Y26300280D01*
X30995687Y26165593D01*
X30995687Y26098250D01*
X30962015Y24785051D02*
X31366076Y25189112D01*
X31164045Y24987082D02*
X30456938Y25694189D01*
X30625297Y25660517D01*
X30759984Y25660517D01*
X30861000Y25694189D01*
X30153893Y24785051D02*
X30187564Y24886067D01*
X30187564Y24953410D01*
X30153893Y25054425D01*
X30120221Y25088097D01*
X30019206Y25121769D01*
X29951862Y25121769D01*
X29850847Y25088097D01*
X29716160Y24953410D01*
X29682488Y24852395D01*
X29682488Y24785051D01*
X29716160Y24684036D01*
X29749832Y24650364D01*
X29850847Y24616693D01*
X29918190Y24616693D01*
X30019206Y24650364D01*
X30153893Y24785051D01*
X30254908Y24818723D01*
X30322251Y24818723D01*
X30423267Y24785051D01*
X30557954Y24650364D01*
X30591625Y24549349D01*
X30591625Y24482006D01*
X30557954Y24380990D01*
X30423267Y24246303D01*
X30322251Y24212632D01*
X30254908Y24212632D01*
X30153893Y24246303D01*
X30019206Y24380990D01*
X29985534Y24482006D01*
X29985534Y24549349D01*
X30019206Y24650364D01*
%TO.C,R19*%
X15151380Y46235857D02*
X14675190Y46569190D01*
X15151380Y46807285D02*
X14151380Y46807285D01*
X14151380Y46426333D01*
X14199000Y46331095D01*
X14246619Y46283476D01*
X14341857Y46235857D01*
X14484714Y46235857D01*
X14579952Y46283476D01*
X14627571Y46331095D01*
X14675190Y46426333D01*
X14675190Y46807285D01*
X15151380Y45283476D02*
X15151380Y45854904D01*
X15151380Y45569190D02*
X14151380Y45569190D01*
X14294238Y45664428D01*
X14389476Y45759666D01*
X14437095Y45854904D01*
X15151380Y44807285D02*
X15151380Y44616809D01*
X15103761Y44521571D01*
X15056142Y44473952D01*
X14913285Y44378714D01*
X14722809Y44331095D01*
X14341857Y44331095D01*
X14246619Y44378714D01*
X14199000Y44426333D01*
X14151380Y44521571D01*
X14151380Y44712047D01*
X14199000Y44807285D01*
X14246619Y44854904D01*
X14341857Y44902523D01*
X14579952Y44902523D01*
X14675190Y44854904D01*
X14722809Y44807285D01*
X14770428Y44712047D01*
X14770428Y44521571D01*
X14722809Y44426333D01*
X14675190Y44378714D01*
X14579952Y44331095D01*
%TO.C,C7*%
X16486142Y36469399D02*
X16533761Y36517018D01*
X16581380Y36659875D01*
X16581380Y36755113D01*
X16533761Y36897971D01*
X16438523Y36993209D01*
X16343285Y37040828D01*
X16152809Y37088447D01*
X16009952Y37088447D01*
X15819476Y37040828D01*
X15724238Y36993209D01*
X15629000Y36897971D01*
X15581380Y36755113D01*
X15581380Y36659875D01*
X15629000Y36517018D01*
X15676619Y36469399D01*
X15581380Y36136066D02*
X15581380Y35469399D01*
X16581380Y35897971D01*
%TO.C,C8*%
X55893166Y45870857D02*
X55940785Y45823238D01*
X56083642Y45775619D01*
X56178880Y45775619D01*
X56321738Y45823238D01*
X56416976Y45918476D01*
X56464595Y46013714D01*
X56512214Y46204190D01*
X56512214Y46347047D01*
X56464595Y46537523D01*
X56416976Y46632761D01*
X56321738Y46728000D01*
X56178880Y46775619D01*
X56083642Y46775619D01*
X55940785Y46728000D01*
X55893166Y46680380D01*
X55321738Y46347047D02*
X55416976Y46394666D01*
X55464595Y46442285D01*
X55512214Y46537523D01*
X55512214Y46585142D01*
X55464595Y46680380D01*
X55416976Y46728000D01*
X55321738Y46775619D01*
X55131261Y46775619D01*
X55036023Y46728000D01*
X54988404Y46680380D01*
X54940785Y46585142D01*
X54940785Y46537523D01*
X54988404Y46442285D01*
X55036023Y46394666D01*
X55131261Y46347047D01*
X55321738Y46347047D01*
X55416976Y46299428D01*
X55464595Y46251809D01*
X55512214Y46156571D01*
X55512214Y45966095D01*
X55464595Y45870857D01*
X55416976Y45823238D01*
X55321738Y45775619D01*
X55131261Y45775619D01*
X55036023Y45823238D01*
X54988404Y45870857D01*
X54940785Y45966095D01*
X54940785Y46156571D01*
X54988404Y46251809D01*
X55036023Y46299428D01*
X55131261Y46347047D01*
%TO.C,C22*%
X25026857Y47267857D02*
X25074476Y47220238D01*
X25217333Y47172619D01*
X25312571Y47172619D01*
X25455428Y47220238D01*
X25550666Y47315476D01*
X25598285Y47410714D01*
X25645904Y47601190D01*
X25645904Y47744047D01*
X25598285Y47934523D01*
X25550666Y48029761D01*
X25455428Y48125000D01*
X25312571Y48172619D01*
X25217333Y48172619D01*
X25074476Y48125000D01*
X25026857Y48077380D01*
X24645904Y48077380D02*
X24598285Y48125000D01*
X24503047Y48172619D01*
X24264952Y48172619D01*
X24169714Y48125000D01*
X24122095Y48077380D01*
X24074476Y47982142D01*
X24074476Y47886904D01*
X24122095Y47744047D01*
X24693523Y47172619D01*
X24074476Y47172619D01*
X23693523Y48077380D02*
X23645904Y48125000D01*
X23550666Y48172619D01*
X23312571Y48172619D01*
X23217333Y48125000D01*
X23169714Y48077380D01*
X23122095Y47982142D01*
X23122095Y47886904D01*
X23169714Y47744047D01*
X23741142Y47172619D01*
X23122095Y47172619D01*
%TO.C,C1*%
X23433836Y32290840D02*
X23433836Y32358183D01*
X23366492Y32492870D01*
X23299149Y32560214D01*
X23164461Y32627557D01*
X23029774Y32627557D01*
X22928759Y32593886D01*
X22760400Y32492870D01*
X22659385Y32391855D01*
X22558370Y32223496D01*
X22524698Y32122481D01*
X22524698Y31987794D01*
X22592042Y31853107D01*
X22659385Y31785763D01*
X22794072Y31718420D01*
X22861416Y31718420D01*
X24174614Y31684748D02*
X23770553Y32088809D01*
X23972584Y31886779D02*
X23265477Y31179672D01*
X23299149Y31348031D01*
X23299149Y31482718D01*
X23265477Y31583733D01*
%TO.C,R16*%
X38639357Y12298419D02*
X38972690Y12774609D01*
X39210785Y12298419D02*
X39210785Y13298419D01*
X38829833Y13298419D01*
X38734595Y13250800D01*
X38686976Y13203180D01*
X38639357Y13107942D01*
X38639357Y12965085D01*
X38686976Y12869847D01*
X38734595Y12822228D01*
X38829833Y12774609D01*
X39210785Y12774609D01*
X37686976Y12298419D02*
X38258404Y12298419D01*
X37972690Y12298419D02*
X37972690Y13298419D01*
X38067928Y13155561D01*
X38163166Y13060323D01*
X38258404Y13012704D01*
X36829833Y13298419D02*
X37020309Y13298419D01*
X37115547Y13250800D01*
X37163166Y13203180D01*
X37258404Y13060323D01*
X37306023Y12869847D01*
X37306023Y12488895D01*
X37258404Y12393657D01*
X37210785Y12346038D01*
X37115547Y12298419D01*
X36925071Y12298419D01*
X36829833Y12346038D01*
X36782214Y12393657D01*
X36734595Y12488895D01*
X36734595Y12726990D01*
X36782214Y12822228D01*
X36829833Y12869847D01*
X36925071Y12917466D01*
X37115547Y12917466D01*
X37210785Y12869847D01*
X37258404Y12822228D01*
X37306023Y12726990D01*
%TO.C,C9*%
X28455687Y42026390D02*
X28455687Y42093733D01*
X28388343Y42228420D01*
X28321000Y42295764D01*
X28186312Y42363107D01*
X28051625Y42363107D01*
X27950610Y42329436D01*
X27782251Y42228420D01*
X27681236Y42127405D01*
X27580221Y41959046D01*
X27546549Y41858031D01*
X27546549Y41723344D01*
X27613893Y41588657D01*
X27681236Y41521313D01*
X27815923Y41453970D01*
X27883267Y41453970D01*
X28859748Y41757016D02*
X28994435Y41622329D01*
X29028106Y41521313D01*
X29028106Y41453970D01*
X28994435Y41285611D01*
X28893419Y41117252D01*
X28624045Y40847878D01*
X28523030Y40814207D01*
X28455687Y40814207D01*
X28354671Y40847878D01*
X28219984Y40982565D01*
X28186312Y41083581D01*
X28186312Y41150924D01*
X28219984Y41251939D01*
X28388343Y41420298D01*
X28489358Y41453970D01*
X28556702Y41453970D01*
X28657717Y41420298D01*
X28792404Y41285611D01*
X28826076Y41184596D01*
X28826076Y41117252D01*
X28792404Y41016237D01*
%TO.C,R18*%
X23726380Y45473857D02*
X23250190Y45807190D01*
X23726380Y46045285D02*
X22726380Y46045285D01*
X22726380Y45664333D01*
X22774000Y45569095D01*
X22821619Y45521476D01*
X22916857Y45473857D01*
X23059714Y45473857D01*
X23154952Y45521476D01*
X23202571Y45569095D01*
X23250190Y45664333D01*
X23250190Y46045285D01*
X23726380Y44521476D02*
X23726380Y45092904D01*
X23726380Y44807190D02*
X22726380Y44807190D01*
X22869238Y44902428D01*
X22964476Y44997666D01*
X23012095Y45092904D01*
X23154952Y43950047D02*
X23107333Y44045285D01*
X23059714Y44092904D01*
X22964476Y44140523D01*
X22916857Y44140523D01*
X22821619Y44092904D01*
X22774000Y44045285D01*
X22726380Y43950047D01*
X22726380Y43759571D01*
X22774000Y43664333D01*
X22821619Y43616714D01*
X22916857Y43569095D01*
X22964476Y43569095D01*
X23059714Y43616714D01*
X23107333Y43664333D01*
X23154952Y43759571D01*
X23154952Y43950047D01*
X23202571Y44045285D01*
X23250190Y44092904D01*
X23345428Y44140523D01*
X23535904Y44140523D01*
X23631142Y44092904D01*
X23678761Y44045285D01*
X23726380Y43950047D01*
X23726380Y43759571D01*
X23678761Y43664333D01*
X23631142Y43616714D01*
X23535904Y43569095D01*
X23345428Y43569095D01*
X23250190Y43616714D01*
X23202571Y43664333D01*
X23154952Y43759571D01*
%TO.C,C20*%
X38588557Y10971257D02*
X38636176Y10923638D01*
X38779033Y10876019D01*
X38874271Y10876019D01*
X39017128Y10923638D01*
X39112366Y11018876D01*
X39159985Y11114114D01*
X39207604Y11304590D01*
X39207604Y11447447D01*
X39159985Y11637923D01*
X39112366Y11733161D01*
X39017128Y11828400D01*
X38874271Y11876019D01*
X38779033Y11876019D01*
X38636176Y11828400D01*
X38588557Y11780780D01*
X38207604Y11780780D02*
X38159985Y11828400D01*
X38064747Y11876019D01*
X37826652Y11876019D01*
X37731414Y11828400D01*
X37683795Y11780780D01*
X37636176Y11685542D01*
X37636176Y11590304D01*
X37683795Y11447447D01*
X38255223Y10876019D01*
X37636176Y10876019D01*
X37017128Y11876019D02*
X36921890Y11876019D01*
X36826652Y11828400D01*
X36779033Y11780780D01*
X36731414Y11685542D01*
X36683795Y11495066D01*
X36683795Y11256971D01*
X36731414Y11066495D01*
X36779033Y10971257D01*
X36826652Y10923638D01*
X36921890Y10876019D01*
X37017128Y10876019D01*
X37112366Y10923638D01*
X37159985Y10971257D01*
X37207604Y11066495D01*
X37255223Y11256971D01*
X37255223Y11495066D01*
X37207604Y11685542D01*
X37159985Y11780780D01*
X37112366Y11828400D01*
X37017128Y11876019D01*
%TO.C,C19*%
X38643157Y4773657D02*
X38690776Y4726038D01*
X38833633Y4678419D01*
X38928871Y4678419D01*
X39071728Y4726038D01*
X39166966Y4821276D01*
X39214585Y4916514D01*
X39262204Y5106990D01*
X39262204Y5249847D01*
X39214585Y5440323D01*
X39166966Y5535561D01*
X39071728Y5630800D01*
X38928871Y5678419D01*
X38833633Y5678419D01*
X38690776Y5630800D01*
X38643157Y5583180D01*
X37690776Y4678419D02*
X38262204Y4678419D01*
X37976490Y4678419D02*
X37976490Y5678419D01*
X38071728Y5535561D01*
X38166966Y5440323D01*
X38262204Y5392704D01*
X37214585Y4678419D02*
X37024109Y4678419D01*
X36928871Y4726038D01*
X36881252Y4773657D01*
X36786014Y4916514D01*
X36738395Y5106990D01*
X36738395Y5487942D01*
X36786014Y5583180D01*
X36833633Y5630800D01*
X36928871Y5678419D01*
X37119347Y5678419D01*
X37214585Y5630800D01*
X37262204Y5583180D01*
X37309823Y5487942D01*
X37309823Y5249847D01*
X37262204Y5154609D01*
X37214585Y5106990D01*
X37119347Y5059371D01*
X36928871Y5059371D01*
X36833633Y5106990D01*
X36786014Y5154609D01*
X36738395Y5249847D01*
%TO.C,C10*%
X38203142Y32773857D02*
X38250761Y32821476D01*
X38298380Y32964333D01*
X38298380Y33059571D01*
X38250761Y33202428D01*
X38155523Y33297666D01*
X38060285Y33345285D01*
X37869809Y33392904D01*
X37726952Y33392904D01*
X37536476Y33345285D01*
X37441238Y33297666D01*
X37346000Y33202428D01*
X37298380Y33059571D01*
X37298380Y32964333D01*
X37346000Y32821476D01*
X37393619Y32773857D01*
X38298380Y31821476D02*
X38298380Y32392904D01*
X38298380Y32107190D02*
X37298380Y32107190D01*
X37441238Y32202428D01*
X37536476Y32297666D01*
X37584095Y32392904D01*
X37298380Y31202428D02*
X37298380Y31107190D01*
X37346000Y31011952D01*
X37393619Y30964333D01*
X37488857Y30916714D01*
X37679333Y30869095D01*
X37917428Y30869095D01*
X38107904Y30916714D01*
X38203142Y30964333D01*
X38250761Y31011952D01*
X38298380Y31107190D01*
X38298380Y31202428D01*
X38250761Y31297666D01*
X38203142Y31345285D01*
X38107904Y31392904D01*
X37917428Y31440523D01*
X37679333Y31440523D01*
X37488857Y31392904D01*
X37393619Y31345285D01*
X37346000Y31297666D01*
X37298380Y31202428D01*
%TO.C,R20*%
X14993857Y48315619D02*
X15327190Y48791809D01*
X15565285Y48315619D02*
X15565285Y49315619D01*
X15184333Y49315619D01*
X15089095Y49268000D01*
X15041476Y49220380D01*
X14993857Y49125142D01*
X14993857Y48982285D01*
X15041476Y48887047D01*
X15089095Y48839428D01*
X15184333Y48791809D01*
X15565285Y48791809D01*
X14612904Y49220380D02*
X14565285Y49268000D01*
X14470047Y49315619D01*
X14231952Y49315619D01*
X14136714Y49268000D01*
X14089095Y49220380D01*
X14041476Y49125142D01*
X14041476Y49029904D01*
X14089095Y48887047D01*
X14660523Y48315619D01*
X14041476Y48315619D01*
X13422428Y49315619D02*
X13327190Y49315619D01*
X13231952Y49268000D01*
X13184333Y49220380D01*
X13136714Y49125142D01*
X13089095Y48934666D01*
X13089095Y48696571D01*
X13136714Y48506095D01*
X13184333Y48410857D01*
X13231952Y48363238D01*
X13327190Y48315619D01*
X13422428Y48315619D01*
X13517666Y48363238D01*
X13565285Y48410857D01*
X13612904Y48506095D01*
X13660523Y48696571D01*
X13660523Y48934666D01*
X13612904Y49125142D01*
X13565285Y49220380D01*
X13517666Y49268000D01*
X13422428Y49315619D01*
D11*
%TO.C,R17*%
X41275724Y18146500D02*
X40766276Y18146500D01*
X41275724Y19191500D02*
X40766276Y19191500D01*
%TO.C,C2*%
X52685733Y54354000D02*
X52978267Y54354000D01*
X52685733Y55374000D02*
X52978267Y55374000D01*
%TO.C,C5*%
X24106000Y36622000D02*
X28016000Y36622000D01*
X28016000Y34752000D02*
X24106000Y34752000D01*
X24106000Y34752000D02*
X24106000Y36622000D01*
%TO.C,C21*%
X40875833Y17655000D02*
X41168367Y17655000D01*
X40875833Y16635000D02*
X41168367Y16635000D01*
%TO.C,C3*%
X24106000Y32212000D02*
X24106000Y34082000D01*
X24106000Y34082000D02*
X28016000Y34082000D01*
X28016000Y32212000D02*
X24106000Y32212000D01*
%TO.C,R14*%
X41303024Y7177300D02*
X40793576Y7177300D01*
X41303024Y6132300D02*
X40793576Y6132300D01*
%TO.C,C18*%
X29460802Y26930851D02*
X29253949Y26723998D01*
X30182051Y26209602D02*
X29975198Y26002749D01*
%TO.C,R19*%
X16651500Y45847724D02*
X16651500Y45338276D01*
X15606500Y45847724D02*
X15606500Y45338276D01*
%TO.C,C7*%
X17016000Y36302733D02*
X17016000Y36595267D01*
X18036000Y36302733D02*
X18036000Y36595267D01*
%TO.C,C8*%
X52685733Y46738000D02*
X52978267Y46738000D01*
X52685733Y45718000D02*
X52978267Y45718000D01*
%TO.C,C22*%
X21189733Y47242000D02*
X21482267Y47242000D01*
X21189733Y48262000D02*
X21482267Y48262000D01*
%TO.C,C1*%
X25559251Y30381598D02*
X25352398Y30588451D01*
X24838002Y29660349D02*
X24631149Y29867202D01*
%TO.C,R16*%
X41299224Y12228300D02*
X40789776Y12228300D01*
X41299224Y13273300D02*
X40789776Y13273300D01*
%TO.C,C9*%
X29594198Y43009051D02*
X29801051Y42802198D01*
X28872949Y42287802D02*
X29079802Y42080949D01*
%TO.C,R18*%
X22366500Y44576276D02*
X22366500Y45085724D01*
X21321500Y44576276D02*
X21321500Y45085724D01*
%TO.C,C20*%
X40898233Y11736800D02*
X41190767Y11736800D01*
X40898233Y10716800D02*
X41190767Y10716800D01*
%TO.C,C19*%
X40902033Y5640800D02*
X41194567Y5640800D01*
X40902033Y4620800D02*
X41194567Y4620800D01*
%TO.C,C10*%
X35761200Y32251867D02*
X35761200Y31959333D01*
X36781200Y32251867D02*
X36781200Y31959333D01*
%TO.C,R20*%
X17653724Y48245500D02*
X17144276Y48245500D01*
X17653724Y49290500D02*
X17144276Y49290500D01*
%TD*%
M02*
