%TF.GenerationSoftware,KiCad,Pcbnew,(6.0.4)*%
%TF.CreationDate,2022-08-07T13:44:39+09:00*%
%TF.ProjectId,cleanbot,636c6561-6e62-46f7-942e-6b696361645f,rev?*%
%TF.SameCoordinates,Original*%
%TF.FileFunction,Legend,Top*%
%TF.FilePolarity,Positive*%
%FSLAX46Y46*%
G04 Gerber Fmt 4.6, Leading zero omitted, Abs format (unit mm)*
G04 Created by KiCad (PCBNEW (6.0.4)) date 2022-08-07 13:44:39*
%MOMM*%
%LPD*%
G01*
G04 APERTURE LIST*
%ADD10C,0.150000*%
%ADD11C,0.120000*%
G04 APERTURE END LIST*
D10*
X57564976Y16878380D02*
X57612595Y16926000D01*
X57707833Y16973619D01*
X57945928Y16973619D01*
X58041166Y16926000D01*
X58088785Y16878380D01*
X58136404Y16783142D01*
X58136404Y16687904D01*
X58088785Y16545047D01*
X57517357Y15973619D01*
X58136404Y15973619D01*
X58755452Y16973619D02*
X58850690Y16973619D01*
X58945928Y16926000D01*
X58993547Y16878380D01*
X59041166Y16783142D01*
X59088785Y16592666D01*
X59088785Y16354571D01*
X59041166Y16164095D01*
X58993547Y16068857D01*
X58945928Y16021238D01*
X58850690Y15973619D01*
X58755452Y15973619D01*
X58660214Y16021238D01*
X58612595Y16068857D01*
X58564976Y16164095D01*
X58517357Y16354571D01*
X58517357Y16592666D01*
X58564976Y16783142D01*
X58612595Y16878380D01*
X58660214Y16926000D01*
X58755452Y16973619D01*
X59469738Y16878380D02*
X59517357Y16926000D01*
X59612595Y16973619D01*
X59850690Y16973619D01*
X59945928Y16926000D01*
X59993547Y16878380D01*
X60041166Y16783142D01*
X60041166Y16687904D01*
X59993547Y16545047D01*
X59422119Y15973619D01*
X60041166Y15973619D01*
X60422119Y16878380D02*
X60469738Y16926000D01*
X60564976Y16973619D01*
X60803071Y16973619D01*
X60898309Y16926000D01*
X60945928Y16878380D01*
X60993547Y16783142D01*
X60993547Y16687904D01*
X60945928Y16545047D01*
X60374500Y15973619D01*
X60993547Y15973619D01*
X62707833Y16926000D02*
X62612595Y16973619D01*
X62469738Y16973619D01*
X62326880Y16926000D01*
X62231642Y16830761D01*
X62184023Y16735523D01*
X62136404Y16545047D01*
X62136404Y16402190D01*
X62184023Y16211714D01*
X62231642Y16116476D01*
X62326880Y16021238D01*
X62469738Y15973619D01*
X62564976Y15973619D01*
X62707833Y16021238D01*
X62755452Y16068857D01*
X62755452Y16402190D01*
X62564976Y16402190D01*
X63136404Y16021238D02*
X63279261Y15973619D01*
X63517357Y15973619D01*
X63612595Y16021238D01*
X63660214Y16068857D01*
X63707833Y16164095D01*
X63707833Y16259333D01*
X63660214Y16354571D01*
X63612595Y16402190D01*
X63517357Y16449809D01*
X63326880Y16497428D01*
X63231642Y16545047D01*
X63184023Y16592666D01*
X63136404Y16687904D01*
X63136404Y16783142D01*
X63184023Y16878380D01*
X63231642Y16926000D01*
X63326880Y16973619D01*
X63564976Y16973619D01*
X63707833Y16926000D01*
X64707833Y15973619D02*
X64374500Y16449809D01*
X64136404Y15973619D02*
X64136404Y16973619D01*
X64517357Y16973619D01*
X64612595Y16926000D01*
X64660214Y16878380D01*
X64707833Y16783142D01*
X64707833Y16640285D01*
X64660214Y16545047D01*
X64612595Y16497428D01*
X64517357Y16449809D01*
X64136404Y16449809D01*
X66469738Y16068857D02*
X66422119Y16021238D01*
X66279261Y15973619D01*
X66184023Y15973619D01*
X66041166Y16021238D01*
X65945928Y16116476D01*
X65898309Y16211714D01*
X65850690Y16402190D01*
X65850690Y16545047D01*
X65898309Y16735523D01*
X65945928Y16830761D01*
X66041166Y16926000D01*
X66184023Y16973619D01*
X66279261Y16973619D01*
X66422119Y16926000D01*
X66469738Y16878380D01*
X67041166Y15973619D02*
X66945928Y16021238D01*
X66898309Y16116476D01*
X66898309Y16973619D01*
X67803071Y16021238D02*
X67707833Y15973619D01*
X67517357Y15973619D01*
X67422119Y16021238D01*
X67374500Y16116476D01*
X67374500Y16497428D01*
X67422119Y16592666D01*
X67517357Y16640285D01*
X67707833Y16640285D01*
X67803071Y16592666D01*
X67850690Y16497428D01*
X67850690Y16402190D01*
X67374500Y16306952D01*
X68707833Y15973619D02*
X68707833Y16497428D01*
X68660214Y16592666D01*
X68564976Y16640285D01*
X68374500Y16640285D01*
X68279261Y16592666D01*
X68707833Y16021238D02*
X68612595Y15973619D01*
X68374500Y15973619D01*
X68279261Y16021238D01*
X68231642Y16116476D01*
X68231642Y16211714D01*
X68279261Y16306952D01*
X68374500Y16354571D01*
X68612595Y16354571D01*
X68707833Y16402190D01*
X69184023Y16640285D02*
X69184023Y15973619D01*
X69184023Y16545047D02*
X69231642Y16592666D01*
X69326880Y16640285D01*
X69469738Y16640285D01*
X69564976Y16592666D01*
X69612595Y16497428D01*
X69612595Y15973619D01*
X70088785Y15973619D02*
X70088785Y16973619D01*
X70088785Y16592666D02*
X70184023Y16640285D01*
X70374500Y16640285D01*
X70469738Y16592666D01*
X70517357Y16545047D01*
X70564976Y16449809D01*
X70564976Y16164095D01*
X70517357Y16068857D01*
X70469738Y16021238D01*
X70374500Y15973619D01*
X70184023Y15973619D01*
X70088785Y16021238D01*
X71136404Y15973619D02*
X71041166Y16021238D01*
X70993547Y16068857D01*
X70945928Y16164095D01*
X70945928Y16449809D01*
X70993547Y16545047D01*
X71041166Y16592666D01*
X71136404Y16640285D01*
X71279261Y16640285D01*
X71374500Y16592666D01*
X71422119Y16545047D01*
X71469738Y16449809D01*
X71469738Y16164095D01*
X71422119Y16068857D01*
X71374500Y16021238D01*
X71279261Y15973619D01*
X71136404Y15973619D01*
X71755452Y16640285D02*
X72136404Y16640285D01*
X71898309Y16973619D02*
X71898309Y16116476D01*
X71945928Y16021238D01*
X72041166Y15973619D01*
X72136404Y15973619D01*
X73136404Y16640285D02*
X73374500Y15973619D01*
X73612595Y16640285D01*
X74374500Y16021238D02*
X74279261Y15973619D01*
X74088785Y15973619D01*
X73993547Y16021238D01*
X73945928Y16116476D01*
X73945928Y16497428D01*
X73993547Y16592666D01*
X74088785Y16640285D01*
X74279261Y16640285D01*
X74374500Y16592666D01*
X74422119Y16497428D01*
X74422119Y16402190D01*
X73945928Y16306952D01*
X74850690Y15973619D02*
X74850690Y16640285D01*
X74850690Y16449809D02*
X74898309Y16545047D01*
X74945928Y16592666D01*
X75041166Y16640285D01*
X75136404Y16640285D01*
X75469738Y16068857D02*
X75517357Y16021238D01*
X75469738Y15973619D01*
X75422119Y16021238D01*
X75469738Y16068857D01*
X75469738Y15973619D01*
X75898309Y16878380D02*
X75945928Y16926000D01*
X76041166Y16973619D01*
X76279261Y16973619D01*
X76374500Y16926000D01*
X76422119Y16878380D01*
X76469738Y16783142D01*
X76469738Y16687904D01*
X76422119Y16545047D01*
X75850690Y15973619D01*
X76469738Y15973619D01*
X57612595Y14363619D02*
X57612595Y15363619D01*
X57612595Y14982666D02*
X57707833Y15030285D01*
X57898309Y15030285D01*
X57993547Y14982666D01*
X58041166Y14935047D01*
X58088785Y14839809D01*
X58088785Y14554095D01*
X58041166Y14458857D01*
X57993547Y14411238D01*
X57898309Y14363619D01*
X57707833Y14363619D01*
X57612595Y14411238D01*
X58422119Y15030285D02*
X58660214Y14363619D01*
X58898309Y15030285D02*
X58660214Y14363619D01*
X58564976Y14125523D01*
X58517357Y14077904D01*
X58422119Y14030285D01*
X60517357Y14363619D02*
X60041166Y14363619D01*
X60041166Y15363619D01*
X60803071Y14411238D02*
X60945928Y14363619D01*
X61184023Y14363619D01*
X61279261Y14411238D01*
X61326880Y14458857D01*
X61374500Y14554095D01*
X61374500Y14649333D01*
X61326880Y14744571D01*
X61279261Y14792190D01*
X61184023Y14839809D01*
X60993547Y14887428D01*
X60898309Y14935047D01*
X60850690Y14982666D01*
X60803071Y15077904D01*
X60803071Y15173142D01*
X60850690Y15268380D01*
X60898309Y15316000D01*
X60993547Y15363619D01*
X61231642Y15363619D01*
X61374500Y15316000D01*
X61803071Y14363619D02*
X61803071Y15363619D01*
X61803071Y14887428D02*
X62374500Y14887428D01*
X62374500Y14363619D02*
X62374500Y15363619D01*
%TO.C,U3*%
X53583380Y30226095D02*
X54392904Y30226095D01*
X54488142Y30273714D01*
X54535761Y30321333D01*
X54583380Y30416571D01*
X54583380Y30607047D01*
X54535761Y30702285D01*
X54488142Y30749904D01*
X54392904Y30797523D01*
X53583380Y30797523D01*
X53583380Y31178476D02*
X53583380Y31797523D01*
X53964333Y31464190D01*
X53964333Y31607047D01*
X54011952Y31702285D01*
X54059571Y31749904D01*
X54154809Y31797523D01*
X54392904Y31797523D01*
X54488142Y31749904D01*
X54535761Y31702285D01*
X54583380Y31607047D01*
X54583380Y31321333D01*
X54535761Y31226095D01*
X54488142Y31178476D01*
%TO.C,J11*%
X57407276Y1462019D02*
X57407276Y747733D01*
X57359657Y604876D01*
X57264419Y509638D01*
X57121561Y462019D01*
X57026323Y462019D01*
X58407276Y462019D02*
X57835847Y462019D01*
X58121561Y462019D02*
X58121561Y1462019D01*
X58026323Y1319161D01*
X57931085Y1223923D01*
X57835847Y1176304D01*
X59359657Y462019D02*
X58788228Y462019D01*
X59073942Y462019D02*
X59073942Y1462019D01*
X58978704Y1319161D01*
X58883466Y1223923D01*
X58788228Y1176304D01*
X48627161Y7116819D02*
X48627161Y8116819D01*
X48865257Y8116819D01*
X49008114Y8069200D01*
X49103352Y7973961D01*
X49150971Y7878723D01*
X49198590Y7688247D01*
X49198590Y7545390D01*
X49150971Y7354914D01*
X49103352Y7259676D01*
X49008114Y7164438D01*
X48865257Y7116819D01*
X48627161Y7116819D01*
X49531923Y8116819D02*
X50198590Y7116819D01*
X50198590Y8116819D02*
X49531923Y7116819D01*
X51055733Y7116819D02*
X50579542Y7116819D01*
X50579542Y8116819D01*
X51150971Y7021580D02*
X51912876Y7021580D01*
X52722400Y7212057D02*
X52674780Y7164438D01*
X52531923Y7116819D01*
X52436685Y7116819D01*
X52293828Y7164438D01*
X52198590Y7259676D01*
X52150971Y7354914D01*
X52103352Y7545390D01*
X52103352Y7688247D01*
X52150971Y7878723D01*
X52198590Y7973961D01*
X52293828Y8069200D01*
X52436685Y8116819D01*
X52531923Y8116819D01*
X52674780Y8069200D01*
X52722400Y8021580D01*
X53341447Y8116819D02*
X53531923Y8116819D01*
X53627161Y8069200D01*
X53722400Y7973961D01*
X53770019Y7783485D01*
X53770019Y7450152D01*
X53722400Y7259676D01*
X53627161Y7164438D01*
X53531923Y7116819D01*
X53341447Y7116819D01*
X53246209Y7164438D01*
X53150971Y7259676D01*
X53103352Y7450152D01*
X53103352Y7783485D01*
X53150971Y7973961D01*
X53246209Y8069200D01*
X53341447Y8116819D01*
X54198590Y7116819D02*
X54198590Y8116819D01*
X54770019Y7116819D01*
X54770019Y8116819D01*
X55246209Y7116819D02*
X55246209Y8116819D01*
X55817638Y7116819D01*
X55817638Y8116819D01*
%TO.C,J14*%
X3567180Y35512476D02*
X4281466Y35512476D01*
X4424323Y35464857D01*
X4519561Y35369619D01*
X4567180Y35226761D01*
X4567180Y35131523D01*
X4567180Y36512476D02*
X4567180Y35941047D01*
X4567180Y36226761D02*
X3567180Y36226761D01*
X3710038Y36131523D01*
X3805276Y36036285D01*
X3852895Y35941047D01*
X3900514Y37369619D02*
X4567180Y37369619D01*
X3519561Y37131523D02*
X4233847Y36893428D01*
X4233847Y37512476D01*
X7973961Y27525980D02*
X8021580Y27668838D01*
X8021580Y27906933D01*
X7973961Y28002171D01*
X7926342Y28049790D01*
X7831104Y28097409D01*
X7735866Y28097409D01*
X7640628Y28049790D01*
X7593009Y28002171D01*
X7545390Y27906933D01*
X7497771Y27716457D01*
X7450152Y27621219D01*
X7402533Y27573600D01*
X7307295Y27525980D01*
X7212057Y27525980D01*
X7116819Y27573600D01*
X7069200Y27621219D01*
X7021580Y27716457D01*
X7021580Y27954552D01*
X7069200Y28097409D01*
X7021580Y28383123D02*
X7021580Y28954552D01*
X8021580Y28668838D02*
X7021580Y28668838D01*
X8021580Y30525980D02*
X8021580Y30049790D01*
X7021580Y30049790D01*
X8021580Y30859314D02*
X7354914Y30859314D01*
X7021580Y30859314D02*
X7069200Y30811695D01*
X7116819Y30859314D01*
X7069200Y30906933D01*
X7021580Y30859314D01*
X7116819Y30859314D01*
X7354914Y31335504D02*
X8021580Y31335504D01*
X7450152Y31335504D02*
X7402533Y31383123D01*
X7354914Y31478361D01*
X7354914Y31621219D01*
X7402533Y31716457D01*
X7497771Y31764076D01*
X8021580Y31764076D01*
X8021580Y32240266D02*
X7021580Y32240266D01*
X7640628Y32335504D02*
X8021580Y32621219D01*
X7354914Y32621219D02*
X7735866Y32240266D01*
%TO.C,U5*%
X21209095Y43209619D02*
X21209095Y42400095D01*
X21256714Y42304857D01*
X21304333Y42257238D01*
X21399571Y42209619D01*
X21590047Y42209619D01*
X21685285Y42257238D01*
X21732904Y42304857D01*
X21780523Y42400095D01*
X21780523Y43209619D01*
X22732904Y43209619D02*
X22256714Y43209619D01*
X22209095Y42733428D01*
X22256714Y42781047D01*
X22351952Y42828666D01*
X22590047Y42828666D01*
X22685285Y42781047D01*
X22732904Y42733428D01*
X22780523Y42638190D01*
X22780523Y42400095D01*
X22732904Y42304857D01*
X22685285Y42257238D01*
X22590047Y42209619D01*
X22351952Y42209619D01*
X22256714Y42257238D01*
X22209095Y42304857D01*
%TO.C,R9*%
X24709380Y8215333D02*
X24233190Y7882000D01*
X24709380Y7643904D02*
X23709380Y7643904D01*
X23709380Y8024857D01*
X23757000Y8120095D01*
X23804619Y8167714D01*
X23899857Y8215333D01*
X24042714Y8215333D01*
X24137952Y8167714D01*
X24185571Y8120095D01*
X24233190Y8024857D01*
X24233190Y7643904D01*
X24709380Y8691523D02*
X24709380Y8882000D01*
X24661761Y8977238D01*
X24614142Y9024857D01*
X24471285Y9120095D01*
X24280809Y9167714D01*
X23899857Y9167714D01*
X23804619Y9120095D01*
X23757000Y9072476D01*
X23709380Y8977238D01*
X23709380Y8786761D01*
X23757000Y8691523D01*
X23804619Y8643904D01*
X23899857Y8596285D01*
X24137952Y8596285D01*
X24233190Y8643904D01*
X24280809Y8691523D01*
X24328428Y8786761D01*
X24328428Y8977238D01*
X24280809Y9072476D01*
X24233190Y9120095D01*
X24137952Y9167714D01*
%TO.C,R12*%
X9644142Y48188619D02*
X9310809Y48664809D01*
X9072714Y48188619D02*
X9072714Y49188619D01*
X9453666Y49188619D01*
X9548904Y49141000D01*
X9596523Y49093380D01*
X9644142Y48998142D01*
X9644142Y48855285D01*
X9596523Y48760047D01*
X9548904Y48712428D01*
X9453666Y48664809D01*
X9072714Y48664809D01*
X10596523Y48188619D02*
X10025095Y48188619D01*
X10310809Y48188619D02*
X10310809Y49188619D01*
X10215571Y49045761D01*
X10120333Y48950523D01*
X10025095Y48902904D01*
X10977476Y49093380D02*
X11025095Y49141000D01*
X11120333Y49188619D01*
X11358428Y49188619D01*
X11453666Y49141000D01*
X11501285Y49093380D01*
X11548904Y48998142D01*
X11548904Y48902904D01*
X11501285Y48760047D01*
X10929857Y48188619D01*
X11548904Y48188619D01*
%TO.C,C17*%
X70334142Y4310142D02*
X70381761Y4262523D01*
X70429380Y4119666D01*
X70429380Y4024428D01*
X70381761Y3881571D01*
X70286523Y3786333D01*
X70191285Y3738714D01*
X70000809Y3691095D01*
X69857952Y3691095D01*
X69667476Y3738714D01*
X69572238Y3786333D01*
X69477000Y3881571D01*
X69429380Y4024428D01*
X69429380Y4119666D01*
X69477000Y4262523D01*
X69524619Y4310142D01*
X70429380Y5262523D02*
X70429380Y4691095D01*
X70429380Y4976809D02*
X69429380Y4976809D01*
X69572238Y4881571D01*
X69667476Y4786333D01*
X69715095Y4691095D01*
X69429380Y5595857D02*
X69429380Y6262523D01*
X70429380Y5833952D01*
%TO.C,U4*%
X20257436Y39371067D02*
X20829856Y38798647D01*
X20930871Y38764975D01*
X20998215Y38764975D01*
X21099230Y38798647D01*
X21233917Y38933334D01*
X21267589Y39034349D01*
X21267589Y39101693D01*
X21233917Y39202708D01*
X20661497Y39775128D01*
X21536963Y40179189D02*
X22008367Y39707784D01*
X21099230Y40280204D02*
X21435948Y39606769D01*
X21873680Y40044502D01*
%TO.C,R4*%
X38298380Y44791333D02*
X37822190Y44458000D01*
X38298380Y44219904D02*
X37298380Y44219904D01*
X37298380Y44600857D01*
X37346000Y44696095D01*
X37393619Y44743714D01*
X37488857Y44791333D01*
X37631714Y44791333D01*
X37726952Y44743714D01*
X37774571Y44696095D01*
X37822190Y44600857D01*
X37822190Y44219904D01*
X37631714Y45648476D02*
X38298380Y45648476D01*
X37250761Y45410380D02*
X37965047Y45172285D01*
X37965047Y45791333D01*
%TO.C,R21*%
X54879642Y10088619D02*
X54546309Y10564809D01*
X54308214Y10088619D02*
X54308214Y11088619D01*
X54689166Y11088619D01*
X54784404Y11041000D01*
X54832023Y10993380D01*
X54879642Y10898142D01*
X54879642Y10755285D01*
X54832023Y10660047D01*
X54784404Y10612428D01*
X54689166Y10564809D01*
X54308214Y10564809D01*
X55260595Y10993380D02*
X55308214Y11041000D01*
X55403452Y11088619D01*
X55641547Y11088619D01*
X55736785Y11041000D01*
X55784404Y10993380D01*
X55832023Y10898142D01*
X55832023Y10802904D01*
X55784404Y10660047D01*
X55212976Y10088619D01*
X55832023Y10088619D01*
X56784404Y10088619D02*
X56212976Y10088619D01*
X56498690Y10088619D02*
X56498690Y11088619D01*
X56403452Y10945761D01*
X56308214Y10850523D01*
X56212976Y10802904D01*
%TO.C,C4*%
X12299363Y25219056D02*
X12366706Y25219056D01*
X12501393Y25151712D01*
X12568737Y25084369D01*
X12636080Y24949681D01*
X12636080Y24814994D01*
X12602409Y24713979D01*
X12501393Y24545620D01*
X12400378Y24444605D01*
X12232019Y24343590D01*
X12131004Y24309918D01*
X11996317Y24309918D01*
X11861630Y24377262D01*
X11794286Y24444605D01*
X11726943Y24579292D01*
X11726943Y24646636D01*
X11289210Y25421086D02*
X11760615Y25892491D01*
X11188195Y24983353D02*
X11861630Y25320071D01*
X11423897Y25757804D01*
%TO.C,D6*%
X7897904Y51363619D02*
X7897904Y52363619D01*
X8136000Y52363619D01*
X8278857Y52316000D01*
X8374095Y52220761D01*
X8421714Y52125523D01*
X8469333Y51935047D01*
X8469333Y51792190D01*
X8421714Y51601714D01*
X8374095Y51506476D01*
X8278857Y51411238D01*
X8136000Y51363619D01*
X7897904Y51363619D01*
X9326476Y52363619D02*
X9136000Y52363619D01*
X9040761Y52316000D01*
X8993142Y52268380D01*
X8897904Y52125523D01*
X8850285Y51935047D01*
X8850285Y51554095D01*
X8897904Y51458857D01*
X8945523Y51411238D01*
X9040761Y51363619D01*
X9231238Y51363619D01*
X9326476Y51411238D01*
X9374095Y51458857D01*
X9421714Y51554095D01*
X9421714Y51792190D01*
X9374095Y51887428D01*
X9326476Y51935047D01*
X9231238Y51982666D01*
X9040761Y51982666D01*
X8945523Y51935047D01*
X8897904Y51887428D01*
X8850285Y51792190D01*
X6791485Y55414800D02*
X6696247Y55462419D01*
X6553390Y55462419D01*
X6410533Y55414800D01*
X6315295Y55319561D01*
X6267676Y55224323D01*
X6220057Y55033847D01*
X6220057Y54890990D01*
X6267676Y54700514D01*
X6315295Y54605276D01*
X6410533Y54510038D01*
X6553390Y54462419D01*
X6648628Y54462419D01*
X6791485Y54510038D01*
X6839104Y54557657D01*
X6839104Y54890990D01*
X6648628Y54890990D01*
X7458152Y55462419D02*
X7648628Y55462419D01*
X7743866Y55414800D01*
X7839104Y55319561D01*
X7886723Y55129085D01*
X7886723Y54795752D01*
X7839104Y54605276D01*
X7743866Y54510038D01*
X7648628Y54462419D01*
X7458152Y54462419D01*
X7362914Y54510038D01*
X7267676Y54605276D01*
X7220057Y54795752D01*
X7220057Y55129085D01*
X7267676Y55319561D01*
X7362914Y55414800D01*
X7458152Y55462419D01*
X8505771Y55462419D02*
X8696247Y55462419D01*
X8791485Y55414800D01*
X8886723Y55319561D01*
X8934342Y55129085D01*
X8934342Y54795752D01*
X8886723Y54605276D01*
X8791485Y54510038D01*
X8696247Y54462419D01*
X8505771Y54462419D01*
X8410533Y54510038D01*
X8315295Y54605276D01*
X8267676Y54795752D01*
X8267676Y55129085D01*
X8315295Y55319561D01*
X8410533Y55414800D01*
X8505771Y55462419D01*
X9362914Y54462419D02*
X9362914Y55462419D01*
X9601009Y55462419D01*
X9743866Y55414800D01*
X9839104Y55319561D01*
X9886723Y55224323D01*
X9934342Y55033847D01*
X9934342Y54890990D01*
X9886723Y54700514D01*
X9839104Y54605276D01*
X9743866Y54510038D01*
X9601009Y54462419D01*
X9362914Y54462419D01*
%TO.C,J17*%
X44918380Y8334476D02*
X45632666Y8334476D01*
X45775523Y8286857D01*
X45870761Y8191619D01*
X45918380Y8048761D01*
X45918380Y7953523D01*
X45918380Y9334476D02*
X45918380Y8763047D01*
X45918380Y9048761D02*
X44918380Y9048761D01*
X45061238Y8953523D01*
X45156476Y8858285D01*
X45204095Y8763047D01*
X44918380Y9667809D02*
X44918380Y10334476D01*
X45918380Y9905904D01*
X36091761Y7810666D02*
X36139380Y7953523D01*
X36139380Y8191619D01*
X36091761Y8286857D01*
X36044142Y8334476D01*
X35948904Y8382095D01*
X35853666Y8382095D01*
X35758428Y8334476D01*
X35710809Y8286857D01*
X35663190Y8191619D01*
X35615571Y8001142D01*
X35567952Y7905904D01*
X35520333Y7858285D01*
X35425095Y7810666D01*
X35329857Y7810666D01*
X35234619Y7858285D01*
X35187000Y7905904D01*
X35139380Y8001142D01*
X35139380Y8239238D01*
X35187000Y8382095D01*
X35139380Y8715428D02*
X36139380Y8953523D01*
X35425095Y9144000D01*
X36139380Y9334476D01*
X35139380Y9572571D01*
X35234619Y9905904D02*
X35187000Y9953523D01*
X35139380Y10048761D01*
X35139380Y10286857D01*
X35187000Y10382095D01*
X35234619Y10429714D01*
X35329857Y10477333D01*
X35425095Y10477333D01*
X35567952Y10429714D01*
X36139380Y9858285D01*
X36139380Y10477333D01*
%TO.C,JP1*%
X63200066Y9640819D02*
X63200066Y8926533D01*
X63152447Y8783676D01*
X63057209Y8688438D01*
X62914352Y8640819D01*
X62819114Y8640819D01*
X63676257Y8640819D02*
X63676257Y9640819D01*
X64057209Y9640819D01*
X64152447Y9593200D01*
X64200066Y9545580D01*
X64247685Y9450342D01*
X64247685Y9307485D01*
X64200066Y9212247D01*
X64152447Y9164628D01*
X64057209Y9117009D01*
X63676257Y9117009D01*
X65200066Y8640819D02*
X64628638Y8640819D01*
X64914352Y8640819D02*
X64914352Y9640819D01*
X64819114Y9497961D01*
X64723876Y9402723D01*
X64628638Y9355104D01*
%TO.C,J16*%
X44918380Y2365476D02*
X45632666Y2365476D01*
X45775523Y2317857D01*
X45870761Y2222619D01*
X45918380Y2079761D01*
X45918380Y1984523D01*
X45918380Y3365476D02*
X45918380Y2794047D01*
X45918380Y3079761D02*
X44918380Y3079761D01*
X45061238Y2984523D01*
X45156476Y2889285D01*
X45204095Y2794047D01*
X44918380Y4222619D02*
X44918380Y4032142D01*
X44966000Y3936904D01*
X45013619Y3889285D01*
X45156476Y3794047D01*
X45346952Y3746428D01*
X45727904Y3746428D01*
X45823142Y3794047D01*
X45870761Y3841666D01*
X45918380Y3936904D01*
X45918380Y4127380D01*
X45870761Y4222619D01*
X45823142Y4270238D01*
X45727904Y4317857D01*
X45489809Y4317857D01*
X45394571Y4270238D01*
X45346952Y4222619D01*
X45299333Y4127380D01*
X45299333Y3936904D01*
X45346952Y3841666D01*
X45394571Y3794047D01*
X45489809Y3746428D01*
X36218761Y1841666D02*
X36266380Y1984523D01*
X36266380Y2222619D01*
X36218761Y2317857D01*
X36171142Y2365476D01*
X36075904Y2413095D01*
X35980666Y2413095D01*
X35885428Y2365476D01*
X35837809Y2317857D01*
X35790190Y2222619D01*
X35742571Y2032142D01*
X35694952Y1936904D01*
X35647333Y1889285D01*
X35552095Y1841666D01*
X35456857Y1841666D01*
X35361619Y1889285D01*
X35314000Y1936904D01*
X35266380Y2032142D01*
X35266380Y2270238D01*
X35314000Y2413095D01*
X35266380Y2746428D02*
X36266380Y2984523D01*
X35552095Y3175000D01*
X36266380Y3365476D01*
X35266380Y3603571D01*
X36266380Y4508333D02*
X36266380Y3936904D01*
X36266380Y4222619D02*
X35266380Y4222619D01*
X35409238Y4127380D01*
X35504476Y4032142D01*
X35552095Y3936904D01*
%TO.C,R13*%
X49776142Y37172619D02*
X49442809Y37648809D01*
X49204714Y37172619D02*
X49204714Y38172619D01*
X49585666Y38172619D01*
X49680904Y38125000D01*
X49728523Y38077380D01*
X49776142Y37982142D01*
X49776142Y37839285D01*
X49728523Y37744047D01*
X49680904Y37696428D01*
X49585666Y37648809D01*
X49204714Y37648809D01*
X50728523Y37172619D02*
X50157095Y37172619D01*
X50442809Y37172619D02*
X50442809Y38172619D01*
X50347571Y38029761D01*
X50252333Y37934523D01*
X50157095Y37886904D01*
X51061857Y38172619D02*
X51680904Y38172619D01*
X51347571Y37791666D01*
X51490428Y37791666D01*
X51585666Y37744047D01*
X51633285Y37696428D01*
X51680904Y37601190D01*
X51680904Y37363095D01*
X51633285Y37267857D01*
X51585666Y37220238D01*
X51490428Y37172619D01*
X51204714Y37172619D01*
X51109476Y37220238D01*
X51061857Y37267857D01*
%TO.C,D2*%
X72639180Y43102304D02*
X71639180Y43102304D01*
X71639180Y43340400D01*
X71686800Y43483257D01*
X71782038Y43578495D01*
X71877276Y43626114D01*
X72067752Y43673733D01*
X72210609Y43673733D01*
X72401085Y43626114D01*
X72496323Y43578495D01*
X72591561Y43483257D01*
X72639180Y43340400D01*
X72639180Y43102304D01*
X71734419Y44054685D02*
X71686800Y44102304D01*
X71639180Y44197542D01*
X71639180Y44435638D01*
X71686800Y44530876D01*
X71734419Y44578495D01*
X71829657Y44626114D01*
X71924895Y44626114D01*
X72067752Y44578495D01*
X72639180Y44007066D01*
X72639180Y44626114D01*
%TO.C,R5*%
X63342780Y23836333D02*
X62866590Y23503000D01*
X63342780Y23264904D02*
X62342780Y23264904D01*
X62342780Y23645857D01*
X62390400Y23741095D01*
X62438019Y23788714D01*
X62533257Y23836333D01*
X62676114Y23836333D01*
X62771352Y23788714D01*
X62818971Y23741095D01*
X62866590Y23645857D01*
X62866590Y23264904D01*
X62342780Y24741095D02*
X62342780Y24264904D01*
X62818971Y24217285D01*
X62771352Y24264904D01*
X62723733Y24360142D01*
X62723733Y24598238D01*
X62771352Y24693476D01*
X62818971Y24741095D01*
X62914209Y24788714D01*
X63152304Y24788714D01*
X63247542Y24741095D01*
X63295161Y24693476D01*
X63342780Y24598238D01*
X63342780Y24360142D01*
X63295161Y24264904D01*
X63247542Y24217285D01*
%TO.C,J9*%
X9822380Y13636666D02*
X10536666Y13636666D01*
X10679523Y13589047D01*
X10774761Y13493809D01*
X10822380Y13350952D01*
X10822380Y13255714D01*
X10822380Y14160476D02*
X10822380Y14350952D01*
X10774761Y14446190D01*
X10727142Y14493809D01*
X10584285Y14589047D01*
X10393809Y14636666D01*
X10012857Y14636666D01*
X9917619Y14589047D01*
X9870000Y14541428D01*
X9822380Y14446190D01*
X9822380Y14255714D01*
X9870000Y14160476D01*
X9917619Y14112857D01*
X10012857Y14065238D01*
X10250952Y14065238D01*
X10346190Y14112857D01*
X10393809Y14160476D01*
X10441428Y14255714D01*
X10441428Y14446190D01*
X10393809Y14541428D01*
X10346190Y14589047D01*
X10250952Y14636666D01*
X15406904Y17581619D02*
X15073571Y18057809D01*
X14835476Y17581619D02*
X14835476Y18581619D01*
X15216428Y18581619D01*
X15311666Y18534000D01*
X15359285Y18486380D01*
X15406904Y18391142D01*
X15406904Y18248285D01*
X15359285Y18153047D01*
X15311666Y18105428D01*
X15216428Y18057809D01*
X14835476Y18057809D01*
X15835476Y17581619D02*
X15835476Y18581619D01*
X16216428Y18581619D01*
X16311666Y18534000D01*
X16359285Y18486380D01*
X16406904Y18391142D01*
X16406904Y18248285D01*
X16359285Y18153047D01*
X16311666Y18105428D01*
X16216428Y18057809D01*
X15835476Y18057809D01*
X16835476Y17581619D02*
X16835476Y18581619D01*
X17073571Y17486380D02*
X17835476Y17486380D01*
X18025952Y17629238D02*
X18121190Y17581619D01*
X18311666Y17581619D01*
X18406904Y17629238D01*
X18454523Y17724476D01*
X18454523Y17772095D01*
X18406904Y17867333D01*
X18311666Y17914952D01*
X18168809Y17914952D01*
X18073571Y17962571D01*
X18025952Y18057809D01*
X18025952Y18105428D01*
X18073571Y18200666D01*
X18168809Y18248285D01*
X18311666Y18248285D01*
X18406904Y18200666D01*
X18787857Y18248285D02*
X18978333Y17581619D01*
X19168809Y18057809D01*
X19359285Y17581619D01*
X19549761Y18248285D01*
%TO.C,R15*%
X63063380Y27297142D02*
X62587190Y26963809D01*
X63063380Y26725714D02*
X62063380Y26725714D01*
X62063380Y27106666D01*
X62111000Y27201904D01*
X62158619Y27249523D01*
X62253857Y27297142D01*
X62396714Y27297142D01*
X62491952Y27249523D01*
X62539571Y27201904D01*
X62587190Y27106666D01*
X62587190Y26725714D01*
X63063380Y28249523D02*
X63063380Y27678095D01*
X63063380Y27963809D02*
X62063380Y27963809D01*
X62206238Y27868571D01*
X62301476Y27773333D01*
X62349095Y27678095D01*
X62063380Y29154285D02*
X62063380Y28678095D01*
X62539571Y28630476D01*
X62491952Y28678095D01*
X62444333Y28773333D01*
X62444333Y29011428D01*
X62491952Y29106666D01*
X62539571Y29154285D01*
X62634809Y29201904D01*
X62872904Y29201904D01*
X62968142Y29154285D01*
X63015761Y29106666D01*
X63063380Y29011428D01*
X63063380Y28773333D01*
X63015761Y28678095D01*
X62968142Y28630476D01*
%TO.C,R6*%
X63342780Y19796557D02*
X62866590Y19463224D01*
X63342780Y19225128D02*
X62342780Y19225128D01*
X62342780Y19606081D01*
X62390400Y19701319D01*
X62438019Y19748938D01*
X62533257Y19796557D01*
X62676114Y19796557D01*
X62771352Y19748938D01*
X62818971Y19701319D01*
X62866590Y19606081D01*
X62866590Y19225128D01*
X62342780Y20653700D02*
X62342780Y20463224D01*
X62390400Y20367985D01*
X62438019Y20320366D01*
X62580876Y20225128D01*
X62771352Y20177509D01*
X63152304Y20177509D01*
X63247542Y20225128D01*
X63295161Y20272747D01*
X63342780Y20367985D01*
X63342780Y20558462D01*
X63295161Y20653700D01*
X63247542Y20701319D01*
X63152304Y20748938D01*
X62914209Y20748938D01*
X62818971Y20701319D01*
X62771352Y20653700D01*
X62723733Y20558462D01*
X62723733Y20367985D01*
X62771352Y20272747D01*
X62818971Y20225128D01*
X62914209Y20177509D01*
%TO.C,Q2*%
X16498819Y45116761D02*
X16451200Y45021523D01*
X16355961Y44926285D01*
X16213104Y44783428D01*
X16165485Y44688190D01*
X16165485Y44592952D01*
X16403580Y44640571D02*
X16355961Y44545333D01*
X16260723Y44450095D01*
X16070247Y44402476D01*
X15736914Y44402476D01*
X15546438Y44450095D01*
X15451200Y44545333D01*
X15403580Y44640571D01*
X15403580Y44831047D01*
X15451200Y44926285D01*
X15546438Y45021523D01*
X15736914Y45069142D01*
X16070247Y45069142D01*
X16260723Y45021523D01*
X16355961Y44926285D01*
X16403580Y44831047D01*
X16403580Y44640571D01*
X15498819Y45450095D02*
X15451200Y45497714D01*
X15403580Y45592952D01*
X15403580Y45831047D01*
X15451200Y45926285D01*
X15498819Y45973904D01*
X15594057Y46021523D01*
X15689295Y46021523D01*
X15832152Y45973904D01*
X16403580Y45402476D01*
X16403580Y46021523D01*
%TO.C,C6*%
X74812142Y4786333D02*
X74859761Y4738714D01*
X74907380Y4595857D01*
X74907380Y4500619D01*
X74859761Y4357761D01*
X74764523Y4262523D01*
X74669285Y4214904D01*
X74478809Y4167285D01*
X74335952Y4167285D01*
X74145476Y4214904D01*
X74050238Y4262523D01*
X73955000Y4357761D01*
X73907380Y4500619D01*
X73907380Y4595857D01*
X73955000Y4738714D01*
X74002619Y4786333D01*
X73907380Y5643476D02*
X73907380Y5453000D01*
X73955000Y5357761D01*
X74002619Y5310142D01*
X74145476Y5214904D01*
X74335952Y5167285D01*
X74716904Y5167285D01*
X74812142Y5214904D01*
X74859761Y5262523D01*
X74907380Y5357761D01*
X74907380Y5548238D01*
X74859761Y5643476D01*
X74812142Y5691095D01*
X74716904Y5738714D01*
X74478809Y5738714D01*
X74383571Y5691095D01*
X74335952Y5643476D01*
X74288333Y5548238D01*
X74288333Y5357761D01*
X74335952Y5262523D01*
X74383571Y5214904D01*
X74478809Y5167285D01*
%TO.C,D1*%
X17092704Y51363619D02*
X17092704Y52363619D01*
X17330800Y52363619D01*
X17473657Y52316000D01*
X17568895Y52220761D01*
X17616514Y52125523D01*
X17664133Y51935047D01*
X17664133Y51792190D01*
X17616514Y51601714D01*
X17568895Y51506476D01*
X17473657Y51411238D01*
X17330800Y51363619D01*
X17092704Y51363619D01*
X18616514Y51363619D02*
X18045085Y51363619D01*
X18330800Y51363619D02*
X18330800Y52363619D01*
X18235561Y52220761D01*
X18140323Y52125523D01*
X18045085Y52077904D01*
X17786457Y54935428D02*
X17929314Y54887809D01*
X17976933Y54840190D01*
X18024552Y54744952D01*
X18024552Y54602095D01*
X17976933Y54506857D01*
X17929314Y54459238D01*
X17834076Y54411619D01*
X17453123Y54411619D01*
X17453123Y55411619D01*
X17786457Y55411619D01*
X17881695Y55364000D01*
X17929314Y55316380D01*
X17976933Y55221142D01*
X17976933Y55125904D01*
X17929314Y55030666D01*
X17881695Y54983047D01*
X17786457Y54935428D01*
X17453123Y54935428D01*
X18405504Y54697333D02*
X18881695Y54697333D01*
X18310266Y54411619D02*
X18643600Y55411619D01*
X18976933Y54411619D01*
X19310266Y54411619D02*
X19310266Y55411619D01*
X19548361Y55411619D01*
X19691219Y55364000D01*
X19786457Y55268761D01*
X19834076Y55173523D01*
X19881695Y54983047D01*
X19881695Y54840190D01*
X19834076Y54649714D01*
X19786457Y54554476D01*
X19691219Y54459238D01*
X19548361Y54411619D01*
X19310266Y54411619D01*
%TO.C,J13*%
X3160780Y18189676D02*
X3875066Y18189676D01*
X4017923Y18142057D01*
X4113161Y18046819D01*
X4160780Y17903961D01*
X4160780Y17808723D01*
X4160780Y19189676D02*
X4160780Y18618247D01*
X4160780Y18903961D02*
X3160780Y18903961D01*
X3303638Y18808723D01*
X3398876Y18713485D01*
X3446495Y18618247D01*
X3160780Y19523009D02*
X3160780Y20142057D01*
X3541733Y19808723D01*
X3541733Y19951580D01*
X3589352Y20046819D01*
X3636971Y20094438D01*
X3732209Y20142057D01*
X3970304Y20142057D01*
X4065542Y20094438D01*
X4113161Y20046819D01*
X4160780Y19951580D01*
X4160780Y19665866D01*
X4113161Y19570628D01*
X4065542Y19523009D01*
X7875542Y9646114D02*
X7923161Y9598495D01*
X7970780Y9455638D01*
X7970780Y9360400D01*
X7923161Y9217542D01*
X7827923Y9122304D01*
X7732685Y9074685D01*
X7542209Y9027066D01*
X7399352Y9027066D01*
X7208876Y9074685D01*
X7113638Y9122304D01*
X7018400Y9217542D01*
X6970780Y9360400D01*
X6970780Y9455638D01*
X7018400Y9598495D01*
X7066019Y9646114D01*
X7970780Y10217542D02*
X7923161Y10122304D01*
X7875542Y10074685D01*
X7780304Y10027066D01*
X7494590Y10027066D01*
X7399352Y10074685D01*
X7351733Y10122304D01*
X7304114Y10217542D01*
X7304114Y10360400D01*
X7351733Y10455638D01*
X7399352Y10503257D01*
X7494590Y10550876D01*
X7780304Y10550876D01*
X7875542Y10503257D01*
X7923161Y10455638D01*
X7970780Y10360400D01*
X7970780Y10217542D01*
X7970780Y11122304D02*
X7923161Y11027066D01*
X7875542Y10979447D01*
X7780304Y10931828D01*
X7494590Y10931828D01*
X7399352Y10979447D01*
X7351733Y11027066D01*
X7304114Y11122304D01*
X7304114Y11265161D01*
X7351733Y11360400D01*
X7399352Y11408019D01*
X7494590Y11455638D01*
X7780304Y11455638D01*
X7875542Y11408019D01*
X7923161Y11360400D01*
X7970780Y11265161D01*
X7970780Y11122304D01*
X7970780Y12027066D02*
X7923161Y11931828D01*
X7827923Y11884209D01*
X6970780Y11884209D01*
X7970780Y12408019D02*
X7304114Y12408019D01*
X6970780Y12408019D02*
X7018400Y12360400D01*
X7066019Y12408019D01*
X7018400Y12455638D01*
X6970780Y12408019D01*
X7066019Y12408019D01*
X7304114Y12884209D02*
X7970780Y12884209D01*
X7399352Y12884209D02*
X7351733Y12931828D01*
X7304114Y13027066D01*
X7304114Y13169923D01*
X7351733Y13265161D01*
X7446971Y13312780D01*
X7970780Y13312780D01*
X7304114Y14217542D02*
X8113638Y14217542D01*
X8208876Y14169923D01*
X8256495Y14122304D01*
X8304114Y14027066D01*
X8304114Y13884209D01*
X8256495Y13788971D01*
X7923161Y14217542D02*
X7970780Y14122304D01*
X7970780Y13931828D01*
X7923161Y13836590D01*
X7875542Y13788971D01*
X7780304Y13741352D01*
X7494590Y13741352D01*
X7399352Y13788971D01*
X7351733Y13836590D01*
X7304114Y13931828D01*
X7304114Y14122304D01*
X7351733Y14217542D01*
X7446971Y15788971D02*
X7446971Y15455638D01*
X7970780Y15455638D02*
X6970780Y15455638D01*
X6970780Y15931828D01*
X7970780Y16741352D02*
X7446971Y16741352D01*
X7351733Y16693733D01*
X7304114Y16598495D01*
X7304114Y16408019D01*
X7351733Y16312780D01*
X7923161Y16741352D02*
X7970780Y16646114D01*
X7970780Y16408019D01*
X7923161Y16312780D01*
X7827923Y16265161D01*
X7732685Y16265161D01*
X7637447Y16312780D01*
X7589828Y16408019D01*
X7589828Y16646114D01*
X7542209Y16741352D01*
X7304114Y17217542D02*
X7970780Y17217542D01*
X7399352Y17217542D02*
X7351733Y17265161D01*
X7304114Y17360400D01*
X7304114Y17503257D01*
X7351733Y17598495D01*
X7446971Y17646114D01*
X7970780Y17646114D01*
%TO.C,U1*%
X69596095Y14771619D02*
X69596095Y13962095D01*
X69643714Y13866857D01*
X69691333Y13819238D01*
X69786571Y13771619D01*
X69977047Y13771619D01*
X70072285Y13819238D01*
X70119904Y13866857D01*
X70167523Y13962095D01*
X70167523Y14771619D01*
X71167523Y13771619D02*
X70596095Y13771619D01*
X70881809Y13771619D02*
X70881809Y14771619D01*
X70786571Y14628761D01*
X70691333Y14533523D01*
X70596095Y14485904D01*
%TO.C,J4*%
X82877066Y48350419D02*
X82877066Y47636133D01*
X82829447Y47493276D01*
X82734209Y47398038D01*
X82591352Y47350419D01*
X82496114Y47350419D01*
X83781828Y48017085D02*
X83781828Y47350419D01*
X83543733Y48398038D02*
X83305638Y47683752D01*
X83924685Y47683752D01*
X74160476Y54871428D02*
X74303333Y54823809D01*
X74350952Y54776190D01*
X74398571Y54680952D01*
X74398571Y54538095D01*
X74350952Y54442857D01*
X74303333Y54395238D01*
X74208095Y54347619D01*
X73827142Y54347619D01*
X73827142Y55347619D01*
X74160476Y55347619D01*
X74255714Y55300000D01*
X74303333Y55252380D01*
X74350952Y55157142D01*
X74350952Y55061904D01*
X74303333Y54966666D01*
X74255714Y54919047D01*
X74160476Y54871428D01*
X73827142Y54871428D01*
X74779523Y54633333D02*
X75255714Y54633333D01*
X74684285Y54347619D02*
X75017619Y55347619D01*
X75350952Y54347619D01*
X75541428Y55347619D02*
X76112857Y55347619D01*
X75827142Y54347619D02*
X75827142Y55347619D01*
X76303333Y55347619D02*
X76874761Y55347619D01*
X76589047Y54347619D02*
X76589047Y55347619D01*
X76970000Y54252380D02*
X77731904Y54252380D01*
X78255714Y55347619D02*
X78255714Y54633333D01*
X78208095Y54490476D01*
X78112857Y54395238D01*
X77970000Y54347619D01*
X77874761Y54347619D01*
X78684285Y54633333D02*
X79160476Y54633333D01*
X78589047Y54347619D02*
X78922380Y55347619D01*
X79255714Y54347619D01*
X80160476Y54442857D02*
X80112857Y54395238D01*
X79970000Y54347619D01*
X79874761Y54347619D01*
X79731904Y54395238D01*
X79636666Y54490476D01*
X79589047Y54585714D01*
X79541428Y54776190D01*
X79541428Y54919047D01*
X79589047Y55109523D01*
X79636666Y55204761D01*
X79731904Y55300000D01*
X79874761Y55347619D01*
X79970000Y55347619D01*
X80112857Y55300000D01*
X80160476Y55252380D01*
X80589047Y54347619D02*
X80589047Y55347619D01*
X81160476Y54347619D02*
X80731904Y54919047D01*
X81160476Y55347619D02*
X80589047Y54776190D01*
X83398571Y50692857D02*
X84541428Y50692857D01*
X70398571Y50692857D02*
X71541428Y50692857D01*
X70970000Y50121428D02*
X70970000Y51264285D01*
%TO.C,J15*%
X31194476Y8167619D02*
X31194476Y7453333D01*
X31146857Y7310476D01*
X31051619Y7215238D01*
X30908761Y7167619D01*
X30813523Y7167619D01*
X32194476Y7167619D02*
X31623047Y7167619D01*
X31908761Y7167619D02*
X31908761Y8167619D01*
X31813523Y8024761D01*
X31718285Y7929523D01*
X31623047Y7881904D01*
X33099238Y8167619D02*
X32623047Y8167619D01*
X32575428Y7691428D01*
X32623047Y7739047D01*
X32718285Y7786666D01*
X32956380Y7786666D01*
X33051619Y7739047D01*
X33099238Y7691428D01*
X33146857Y7596190D01*
X33146857Y7358095D01*
X33099238Y7262857D01*
X33051619Y7215238D01*
X32956380Y7167619D01*
X32718285Y7167619D01*
X32623047Y7215238D01*
X32575428Y7262857D01*
X26932142Y7167619D02*
X26932142Y8167619D01*
X27503571Y7167619D01*
X27503571Y8167619D01*
X28551190Y7167619D02*
X28217857Y7643809D01*
X27979761Y7167619D02*
X27979761Y8167619D01*
X28360714Y8167619D01*
X28455952Y8120000D01*
X28503571Y8072380D01*
X28551190Y7977142D01*
X28551190Y7834285D01*
X28503571Y7739047D01*
X28455952Y7691428D01*
X28360714Y7643809D01*
X27979761Y7643809D01*
X28932142Y7215238D02*
X29075000Y7167619D01*
X29313095Y7167619D01*
X29408333Y7215238D01*
X29455952Y7262857D01*
X29503571Y7358095D01*
X29503571Y7453333D01*
X29455952Y7548571D01*
X29408333Y7596190D01*
X29313095Y7643809D01*
X29122619Y7691428D01*
X29027380Y7739047D01*
X28979761Y7786666D01*
X28932142Y7881904D01*
X28932142Y7977142D01*
X28979761Y8072380D01*
X29027380Y8120000D01*
X29122619Y8167619D01*
X29360714Y8167619D01*
X29503571Y8120000D01*
X29789285Y8167619D02*
X30360714Y8167619D01*
X30075000Y7167619D02*
X30075000Y8167619D01*
%TO.C,R1*%
X13295333Y38122619D02*
X12962000Y38598809D01*
X12723904Y38122619D02*
X12723904Y39122619D01*
X13104857Y39122619D01*
X13200095Y39075000D01*
X13247714Y39027380D01*
X13295333Y38932142D01*
X13295333Y38789285D01*
X13247714Y38694047D01*
X13200095Y38646428D01*
X13104857Y38598809D01*
X12723904Y38598809D01*
X14247714Y38122619D02*
X13676285Y38122619D01*
X13962000Y38122619D02*
X13962000Y39122619D01*
X13866761Y38979761D01*
X13771523Y38884523D01*
X13676285Y38836904D01*
%TO.C,J10*%
X27079676Y47740819D02*
X27079676Y47026533D01*
X27032057Y46883676D01*
X26936819Y46788438D01*
X26793961Y46740819D01*
X26698723Y46740819D01*
X28079676Y46740819D02*
X27508247Y46740819D01*
X27793961Y46740819D02*
X27793961Y47740819D01*
X27698723Y47597961D01*
X27603485Y47502723D01*
X27508247Y47455104D01*
X28698723Y47740819D02*
X28793961Y47740819D01*
X28889200Y47693200D01*
X28936819Y47645580D01*
X28984438Y47550342D01*
X29032057Y47359866D01*
X29032057Y47121771D01*
X28984438Y46931295D01*
X28936819Y46836057D01*
X28889200Y46788438D01*
X28793961Y46740819D01*
X28698723Y46740819D01*
X28603485Y46788438D01*
X28555866Y46836057D01*
X28508247Y46931295D01*
X28460628Y47121771D01*
X28460628Y47359866D01*
X28508247Y47550342D01*
X28555866Y47645580D01*
X28603485Y47693200D01*
X28698723Y47740819D01*
X21487142Y54208419D02*
X21010952Y54208419D01*
X21010952Y55208419D01*
X21820476Y54208419D02*
X21820476Y55208419D01*
X22296666Y54208419D02*
X22296666Y55208419D01*
X22868095Y54208419D01*
X22868095Y55208419D01*
X23344285Y54732228D02*
X23677619Y54732228D01*
X23820476Y54208419D02*
X23344285Y54208419D01*
X23344285Y55208419D01*
X23820476Y55208419D01*
X24010952Y54113180D02*
X24772857Y54113180D01*
X25487142Y54208419D02*
X25010952Y54208419D01*
X25010952Y55208419D01*
X25820476Y54732228D02*
X26153809Y54732228D01*
X26296666Y54208419D02*
X25820476Y54208419D01*
X25820476Y55208419D01*
X26296666Y55208419D01*
X26725238Y54208419D02*
X26725238Y55208419D01*
X26963333Y55208419D01*
X27106190Y55160800D01*
X27201428Y55065561D01*
X27249047Y54970323D01*
X27296666Y54779847D01*
X27296666Y54636990D01*
X27249047Y54446514D01*
X27201428Y54351276D01*
X27106190Y54256038D01*
X26963333Y54208419D01*
X26725238Y54208419D01*
%TO.C,J7*%
X9822380Y4746666D02*
X10536666Y4746666D01*
X10679523Y4699047D01*
X10774761Y4603809D01*
X10822380Y4460952D01*
X10822380Y4365714D01*
X9822380Y5127619D02*
X9822380Y5794285D01*
X10822380Y5365714D01*
X14129047Y563619D02*
X13795714Y1039809D01*
X13557619Y563619D02*
X13557619Y1563619D01*
X13938571Y1563619D01*
X14033809Y1516000D01*
X14081428Y1468380D01*
X14129047Y1373142D01*
X14129047Y1230285D01*
X14081428Y1135047D01*
X14033809Y1087428D01*
X13938571Y1039809D01*
X13557619Y1039809D01*
X14557619Y563619D02*
X14557619Y1563619D01*
X14938571Y1563619D01*
X15033809Y1516000D01*
X15081428Y1468380D01*
X15129047Y1373142D01*
X15129047Y1230285D01*
X15081428Y1135047D01*
X15033809Y1087428D01*
X14938571Y1039809D01*
X14557619Y1039809D01*
X15557619Y563619D02*
X15557619Y1563619D01*
X15795714Y468380D02*
X16557619Y468380D01*
X16795714Y563619D02*
X16795714Y1563619D01*
X17176666Y1563619D01*
X17271904Y1516000D01*
X17319523Y1468380D01*
X17367142Y1373142D01*
X17367142Y1230285D01*
X17319523Y1135047D01*
X17271904Y1087428D01*
X17176666Y1039809D01*
X16795714Y1039809D01*
X17700476Y1563619D02*
X17938571Y563619D01*
X18129047Y1277904D01*
X18319523Y563619D01*
X18557619Y1563619D01*
X19510000Y563619D02*
X19176666Y1039809D01*
X18938571Y563619D02*
X18938571Y1563619D01*
X19319523Y1563619D01*
X19414761Y1516000D01*
X19462380Y1468380D01*
X19510000Y1373142D01*
X19510000Y1230285D01*
X19462380Y1135047D01*
X19414761Y1087428D01*
X19319523Y1039809D01*
X18938571Y1039809D01*
%TO.C,C15*%
X30472142Y11105857D02*
X30424523Y11058238D01*
X30281666Y11010619D01*
X30186428Y11010619D01*
X30043571Y11058238D01*
X29948333Y11153476D01*
X29900714Y11248714D01*
X29853095Y11439190D01*
X29853095Y11582047D01*
X29900714Y11772523D01*
X29948333Y11867761D01*
X30043571Y11963000D01*
X30186428Y12010619D01*
X30281666Y12010619D01*
X30424523Y11963000D01*
X30472142Y11915380D01*
X31424523Y11010619D02*
X30853095Y11010619D01*
X31138809Y11010619D02*
X31138809Y12010619D01*
X31043571Y11867761D01*
X30948333Y11772523D01*
X30853095Y11724904D01*
X32329285Y12010619D02*
X31853095Y12010619D01*
X31805476Y11534428D01*
X31853095Y11582047D01*
X31948333Y11629666D01*
X32186428Y11629666D01*
X32281666Y11582047D01*
X32329285Y11534428D01*
X32376904Y11439190D01*
X32376904Y11201095D01*
X32329285Y11105857D01*
X32281666Y11058238D01*
X32186428Y11010619D01*
X31948333Y11010619D01*
X31853095Y11058238D01*
X31805476Y11105857D01*
%TO.C,D4*%
X12596904Y51363619D02*
X12596904Y52363619D01*
X12835000Y52363619D01*
X12977857Y52316000D01*
X13073095Y52220761D01*
X13120714Y52125523D01*
X13168333Y51935047D01*
X13168333Y51792190D01*
X13120714Y51601714D01*
X13073095Y51506476D01*
X12977857Y51411238D01*
X12835000Y51363619D01*
X12596904Y51363619D01*
X14025476Y52030285D02*
X14025476Y51363619D01*
X13787380Y52411238D02*
X13549285Y51696952D01*
X14168333Y51696952D01*
X10798514Y54411619D02*
X10798514Y55411619D01*
X11369942Y54411619D01*
X11369942Y55411619D01*
X12036609Y55411619D02*
X12227085Y55411619D01*
X12322323Y55364000D01*
X12417561Y55268761D01*
X12465180Y55078285D01*
X12465180Y54744952D01*
X12417561Y54554476D01*
X12322323Y54459238D01*
X12227085Y54411619D01*
X12036609Y54411619D01*
X11941371Y54459238D01*
X11846133Y54554476D01*
X11798514Y54744952D01*
X11798514Y55078285D01*
X11846133Y55268761D01*
X11941371Y55364000D01*
X12036609Y55411619D01*
X13465180Y54411619D02*
X13131847Y54887809D01*
X12893752Y54411619D02*
X12893752Y55411619D01*
X13274704Y55411619D01*
X13369942Y55364000D01*
X13417561Y55316380D01*
X13465180Y55221142D01*
X13465180Y55078285D01*
X13417561Y54983047D01*
X13369942Y54935428D01*
X13274704Y54887809D01*
X12893752Y54887809D01*
X13893752Y54411619D02*
X13893752Y55411619D01*
X14227085Y54697333D01*
X14560419Y55411619D01*
X14560419Y54411619D01*
X14988990Y54697333D02*
X15465180Y54697333D01*
X14893752Y54411619D02*
X15227085Y55411619D01*
X15560419Y54411619D01*
X16369942Y54411619D02*
X15893752Y54411619D01*
X15893752Y55411619D01*
%TO.C,R7*%
X18756333Y48061619D02*
X18423000Y48537809D01*
X18184904Y48061619D02*
X18184904Y49061619D01*
X18565857Y49061619D01*
X18661095Y49014000D01*
X18708714Y48966380D01*
X18756333Y48871142D01*
X18756333Y48728285D01*
X18708714Y48633047D01*
X18661095Y48585428D01*
X18565857Y48537809D01*
X18184904Y48537809D01*
X19089666Y49061619D02*
X19756333Y49061619D01*
X19327761Y48061619D01*
%TO.C,J18*%
X44918380Y14303476D02*
X45632666Y14303476D01*
X45775523Y14255857D01*
X45870761Y14160619D01*
X45918380Y14017761D01*
X45918380Y13922523D01*
X45918380Y15303476D02*
X45918380Y14732047D01*
X45918380Y15017761D02*
X44918380Y15017761D01*
X45061238Y14922523D01*
X45156476Y14827285D01*
X45204095Y14732047D01*
X45346952Y15874904D02*
X45299333Y15779666D01*
X45251714Y15732047D01*
X45156476Y15684428D01*
X45108857Y15684428D01*
X45013619Y15732047D01*
X44966000Y15779666D01*
X44918380Y15874904D01*
X44918380Y16065380D01*
X44966000Y16160619D01*
X45013619Y16208238D01*
X45108857Y16255857D01*
X45156476Y16255857D01*
X45251714Y16208238D01*
X45299333Y16160619D01*
X45346952Y16065380D01*
X45346952Y15874904D01*
X45394571Y15779666D01*
X45442190Y15732047D01*
X45537428Y15684428D01*
X45727904Y15684428D01*
X45823142Y15732047D01*
X45870761Y15779666D01*
X45918380Y15874904D01*
X45918380Y16065380D01*
X45870761Y16160619D01*
X45823142Y16208238D01*
X45727904Y16255857D01*
X45537428Y16255857D01*
X45442190Y16208238D01*
X45394571Y16160619D01*
X45346952Y16065380D01*
X36091761Y13779666D02*
X36139380Y13922523D01*
X36139380Y14160619D01*
X36091761Y14255857D01*
X36044142Y14303476D01*
X35948904Y14351095D01*
X35853666Y14351095D01*
X35758428Y14303476D01*
X35710809Y14255857D01*
X35663190Y14160619D01*
X35615571Y13970142D01*
X35567952Y13874904D01*
X35520333Y13827285D01*
X35425095Y13779666D01*
X35329857Y13779666D01*
X35234619Y13827285D01*
X35187000Y13874904D01*
X35139380Y13970142D01*
X35139380Y14208238D01*
X35187000Y14351095D01*
X35139380Y14684428D02*
X36139380Y14922523D01*
X35425095Y15113000D01*
X36139380Y15303476D01*
X35139380Y15541571D01*
X35139380Y15827285D02*
X35139380Y16446333D01*
X35520333Y16113000D01*
X35520333Y16255857D01*
X35567952Y16351095D01*
X35615571Y16398714D01*
X35710809Y16446333D01*
X35948904Y16446333D01*
X36044142Y16398714D01*
X36091761Y16351095D01*
X36139380Y16255857D01*
X36139380Y15970142D01*
X36091761Y15874904D01*
X36044142Y15827285D01*
%TO.C,C12*%
X47236142Y30277857D02*
X47188523Y30230238D01*
X47045666Y30182619D01*
X46950428Y30182619D01*
X46807571Y30230238D01*
X46712333Y30325476D01*
X46664714Y30420714D01*
X46617095Y30611190D01*
X46617095Y30754047D01*
X46664714Y30944523D01*
X46712333Y31039761D01*
X46807571Y31135000D01*
X46950428Y31182619D01*
X47045666Y31182619D01*
X47188523Y31135000D01*
X47236142Y31087380D01*
X48188523Y30182619D02*
X47617095Y30182619D01*
X47902809Y30182619D02*
X47902809Y31182619D01*
X47807571Y31039761D01*
X47712333Y30944523D01*
X47617095Y30896904D01*
X48569476Y31087380D02*
X48617095Y31135000D01*
X48712333Y31182619D01*
X48950428Y31182619D01*
X49045666Y31135000D01*
X49093285Y31087380D01*
X49140904Y30992142D01*
X49140904Y30896904D01*
X49093285Y30754047D01*
X48521857Y30182619D01*
X49140904Y30182619D01*
%TO.C,R11*%
X43378380Y27043142D02*
X42902190Y26709809D01*
X43378380Y26471714D02*
X42378380Y26471714D01*
X42378380Y26852666D01*
X42426000Y26947904D01*
X42473619Y26995523D01*
X42568857Y27043142D01*
X42711714Y27043142D01*
X42806952Y26995523D01*
X42854571Y26947904D01*
X42902190Y26852666D01*
X42902190Y26471714D01*
X43378380Y27995523D02*
X43378380Y27424095D01*
X43378380Y27709809D02*
X42378380Y27709809D01*
X42521238Y27614571D01*
X42616476Y27519333D01*
X42664095Y27424095D01*
X43378380Y28947904D02*
X43378380Y28376476D01*
X43378380Y28662190D02*
X42378380Y28662190D01*
X42521238Y28566952D01*
X42616476Y28471714D01*
X42664095Y28376476D01*
%TO.C,Q1*%
X30964419Y44862761D02*
X30916800Y44767523D01*
X30821561Y44672285D01*
X30678704Y44529428D01*
X30631085Y44434190D01*
X30631085Y44338952D01*
X30869180Y44386571D02*
X30821561Y44291333D01*
X30726323Y44196095D01*
X30535847Y44148476D01*
X30202514Y44148476D01*
X30012038Y44196095D01*
X29916800Y44291333D01*
X29869180Y44386571D01*
X29869180Y44577047D01*
X29916800Y44672285D01*
X30012038Y44767523D01*
X30202514Y44815142D01*
X30535847Y44815142D01*
X30726323Y44767523D01*
X30821561Y44672285D01*
X30869180Y44577047D01*
X30869180Y44386571D01*
X30869180Y45767523D02*
X30869180Y45196095D01*
X30869180Y45481809D02*
X29869180Y45481809D01*
X30012038Y45386571D01*
X30107276Y45291333D01*
X30154895Y45196095D01*
%TO.C,J6*%
X83740666Y16422619D02*
X83740666Y15708333D01*
X83693047Y15565476D01*
X83597809Y15470238D01*
X83454952Y15422619D01*
X83359714Y15422619D01*
X84645428Y16422619D02*
X84454952Y16422619D01*
X84359714Y16375000D01*
X84312095Y16327380D01*
X84216857Y16184523D01*
X84169238Y15994047D01*
X84169238Y15613095D01*
X84216857Y15517857D01*
X84264476Y15470238D01*
X84359714Y15422619D01*
X84550190Y15422619D01*
X84645428Y15470238D01*
X84693047Y15517857D01*
X84740666Y15613095D01*
X84740666Y15851190D01*
X84693047Y15946428D01*
X84645428Y15994047D01*
X84550190Y16041666D01*
X84359714Y16041666D01*
X84264476Y15994047D01*
X84216857Y15946428D01*
X84169238Y15851190D01*
X83323180Y19672466D02*
X83323180Y19196276D01*
X83799371Y19148657D01*
X83751752Y19196276D01*
X83704133Y19291514D01*
X83704133Y19529609D01*
X83751752Y19624847D01*
X83799371Y19672466D01*
X83894609Y19720085D01*
X84132704Y19720085D01*
X84227942Y19672466D01*
X84275561Y19624847D01*
X84323180Y19529609D01*
X84323180Y19291514D01*
X84275561Y19196276D01*
X84227942Y19148657D01*
X83323180Y20005800D02*
X84323180Y20339133D01*
X83323180Y20672466D01*
X84418419Y20767704D02*
X84418419Y21529609D01*
X84323180Y21767704D02*
X83323180Y21767704D01*
X84323180Y22243895D02*
X83323180Y22243895D01*
X84323180Y22815323D01*
X83323180Y22815323D01*
%TO.C,C13*%
X60273142Y21097642D02*
X60320761Y21050023D01*
X60368380Y20907166D01*
X60368380Y20811928D01*
X60320761Y20669071D01*
X60225523Y20573833D01*
X60130285Y20526214D01*
X59939809Y20478595D01*
X59796952Y20478595D01*
X59606476Y20526214D01*
X59511238Y20573833D01*
X59416000Y20669071D01*
X59368380Y20811928D01*
X59368380Y20907166D01*
X59416000Y21050023D01*
X59463619Y21097642D01*
X60368380Y22050023D02*
X60368380Y21478595D01*
X60368380Y21764309D02*
X59368380Y21764309D01*
X59511238Y21669071D01*
X59606476Y21573833D01*
X59654095Y21478595D01*
X59368380Y22383357D02*
X59368380Y23002404D01*
X59749333Y22669071D01*
X59749333Y22811928D01*
X59796952Y22907166D01*
X59844571Y22954785D01*
X59939809Y23002404D01*
X60177904Y23002404D01*
X60273142Y22954785D01*
X60320761Y22907166D01*
X60368380Y22811928D01*
X60368380Y22526214D01*
X60320761Y22430976D01*
X60273142Y22383357D01*
%TO.C,J3*%
X37106266Y48299619D02*
X37106266Y47585333D01*
X37058647Y47442476D01*
X36963409Y47347238D01*
X36820552Y47299619D01*
X36725314Y47299619D01*
X37487219Y48299619D02*
X38106266Y48299619D01*
X37772933Y47918666D01*
X37915790Y47918666D01*
X38011028Y47871047D01*
X38058647Y47823428D01*
X38106266Y47728190D01*
X38106266Y47490095D01*
X38058647Y47394857D01*
X38011028Y47347238D01*
X37915790Y47299619D01*
X37630076Y47299619D01*
X37534838Y47347238D01*
X37487219Y47394857D01*
X28077257Y54205238D02*
X28220114Y54157619D01*
X28458209Y54157619D01*
X28553447Y54205238D01*
X28601066Y54252857D01*
X28648685Y54348095D01*
X28648685Y54443333D01*
X28601066Y54538571D01*
X28553447Y54586190D01*
X28458209Y54633809D01*
X28267733Y54681428D01*
X28172495Y54729047D01*
X28124876Y54776666D01*
X28077257Y54871904D01*
X28077257Y54967142D01*
X28124876Y55062380D01*
X28172495Y55110000D01*
X28267733Y55157619D01*
X28505828Y55157619D01*
X28648685Y55110000D01*
X29077257Y55157619D02*
X29077257Y54348095D01*
X29124876Y54252857D01*
X29172495Y54205238D01*
X29267733Y54157619D01*
X29458209Y54157619D01*
X29553447Y54205238D01*
X29601066Y54252857D01*
X29648685Y54348095D01*
X29648685Y55157619D01*
X30696304Y54252857D02*
X30648685Y54205238D01*
X30505828Y54157619D01*
X30410590Y54157619D01*
X30267733Y54205238D01*
X30172495Y54300476D01*
X30124876Y54395714D01*
X30077257Y54586190D01*
X30077257Y54729047D01*
X30124876Y54919523D01*
X30172495Y55014761D01*
X30267733Y55110000D01*
X30410590Y55157619D01*
X30505828Y55157619D01*
X30648685Y55110000D01*
X30696304Y55062380D01*
X30982019Y55157619D02*
X31553447Y55157619D01*
X31267733Y54157619D02*
X31267733Y55157619D01*
X31886780Y54157619D02*
X31886780Y55157619D01*
X32553447Y55157619D02*
X32743923Y55157619D01*
X32839161Y55110000D01*
X32934400Y55014761D01*
X32982019Y54824285D01*
X32982019Y54490952D01*
X32934400Y54300476D01*
X32839161Y54205238D01*
X32743923Y54157619D01*
X32553447Y54157619D01*
X32458209Y54205238D01*
X32362971Y54300476D01*
X32315352Y54490952D01*
X32315352Y54824285D01*
X32362971Y55014761D01*
X32458209Y55110000D01*
X32553447Y55157619D01*
X33410590Y54157619D02*
X33410590Y55157619D01*
X33982019Y54157619D01*
X33982019Y55157619D01*
X34220114Y54062380D02*
X34982019Y54062380D01*
X35220114Y54157619D02*
X35220114Y55157619D01*
X35553447Y54443333D01*
X35886780Y55157619D01*
X35886780Y54157619D01*
X36553447Y55157619D02*
X36743923Y55157619D01*
X36839161Y55110000D01*
X36934400Y55014761D01*
X36982019Y54824285D01*
X36982019Y54490952D01*
X36934400Y54300476D01*
X36839161Y54205238D01*
X36743923Y54157619D01*
X36553447Y54157619D01*
X36458209Y54205238D01*
X36362971Y54300476D01*
X36315352Y54490952D01*
X36315352Y54824285D01*
X36362971Y55014761D01*
X36458209Y55110000D01*
X36553447Y55157619D01*
X37267733Y55157619D02*
X37839161Y55157619D01*
X37553447Y54157619D02*
X37553447Y55157619D01*
X38362971Y55157619D02*
X38553447Y55157619D01*
X38648685Y55110000D01*
X38743923Y55014761D01*
X38791542Y54824285D01*
X38791542Y54490952D01*
X38743923Y54300476D01*
X38648685Y54205238D01*
X38553447Y54157619D01*
X38362971Y54157619D01*
X38267733Y54205238D01*
X38172495Y54300476D01*
X38124876Y54490952D01*
X38124876Y54824285D01*
X38172495Y55014761D01*
X38267733Y55110000D01*
X38362971Y55157619D01*
X39791542Y54157619D02*
X39458209Y54633809D01*
X39220114Y54157619D02*
X39220114Y55157619D01*
X39601066Y55157619D01*
X39696304Y55110000D01*
X39743923Y55062380D01*
X39791542Y54967142D01*
X39791542Y54824285D01*
X39743923Y54729047D01*
X39696304Y54681428D01*
X39601066Y54633809D01*
X39220114Y54633809D01*
%TO.C,LS1*%
X2484380Y45966142D02*
X2484380Y45489952D01*
X1484380Y45489952D01*
X2436761Y46251857D02*
X2484380Y46394714D01*
X2484380Y46632809D01*
X2436761Y46728047D01*
X2389142Y46775666D01*
X2293904Y46823285D01*
X2198666Y46823285D01*
X2103428Y46775666D01*
X2055809Y46728047D01*
X2008190Y46632809D01*
X1960571Y46442333D01*
X1912952Y46347095D01*
X1865333Y46299476D01*
X1770095Y46251857D01*
X1674857Y46251857D01*
X1579619Y46299476D01*
X1532000Y46347095D01*
X1484380Y46442333D01*
X1484380Y46680428D01*
X1532000Y46823285D01*
X2484380Y47775666D02*
X2484380Y47204238D01*
X2484380Y47489952D02*
X1484380Y47489952D01*
X1627238Y47394714D01*
X1722476Y47299476D01*
X1770095Y47204238D01*
X6786571Y41528952D02*
X6786571Y40767047D01*
X6405619Y41148000D02*
X7167523Y41148000D01*
%TO.C,Y1*%
X19750881Y29364447D02*
X20087599Y29701165D01*
X19616194Y28758356D02*
X19750881Y29364447D01*
X19144790Y29229760D01*
X19245805Y30542958D02*
X19649866Y30138897D01*
X19447835Y30340928D02*
X18740729Y29633821D01*
X18909087Y29667493D01*
X19043774Y29667493D01*
X19144790Y29633821D01*
%TO.C,J2*%
X57273866Y39816019D02*
X57273866Y39101733D01*
X57226247Y38958876D01*
X57131009Y38863638D01*
X56988152Y38816019D01*
X56892914Y38816019D01*
X57702438Y39720780D02*
X57750057Y39768400D01*
X57845295Y39816019D01*
X58083390Y39816019D01*
X58178628Y39768400D01*
X58226247Y39720780D01*
X58273866Y39625542D01*
X58273866Y39530304D01*
X58226247Y39387447D01*
X57654819Y38816019D01*
X58273866Y38816019D01*
X44355142Y45470819D02*
X44355142Y46470819D01*
X44688476Y45756533D01*
X45021809Y46470819D01*
X45021809Y45470819D01*
X45688476Y46470819D02*
X45878952Y46470819D01*
X45974190Y46423200D01*
X46069428Y46327961D01*
X46117047Y46137485D01*
X46117047Y45804152D01*
X46069428Y45613676D01*
X45974190Y45518438D01*
X45878952Y45470819D01*
X45688476Y45470819D01*
X45593238Y45518438D01*
X45498000Y45613676D01*
X45450380Y45804152D01*
X45450380Y46137485D01*
X45498000Y46327961D01*
X45593238Y46423200D01*
X45688476Y46470819D01*
X46402761Y46470819D02*
X46974190Y46470819D01*
X46688476Y45470819D02*
X46688476Y46470819D01*
X47498000Y46470819D02*
X47688476Y46470819D01*
X47783714Y46423200D01*
X47878952Y46327961D01*
X47926571Y46137485D01*
X47926571Y45804152D01*
X47878952Y45613676D01*
X47783714Y45518438D01*
X47688476Y45470819D01*
X47498000Y45470819D01*
X47402761Y45518438D01*
X47307523Y45613676D01*
X47259904Y45804152D01*
X47259904Y46137485D01*
X47307523Y46327961D01*
X47402761Y46423200D01*
X47498000Y46470819D01*
X48926571Y45470819D02*
X48593238Y45947009D01*
X48355142Y45470819D02*
X48355142Y46470819D01*
X48736095Y46470819D01*
X48831333Y46423200D01*
X48878952Y46375580D01*
X48926571Y46280342D01*
X48926571Y46137485D01*
X48878952Y46042247D01*
X48831333Y45994628D01*
X48736095Y45947009D01*
X48355142Y45947009D01*
X49117047Y45375580D02*
X49878952Y45375580D01*
X50688476Y45470819D02*
X50355142Y45947009D01*
X50117047Y45470819D02*
X50117047Y46470819D01*
X50498000Y46470819D01*
X50593238Y46423200D01*
X50640857Y46375580D01*
X50688476Y46280342D01*
X50688476Y46137485D01*
X50640857Y46042247D01*
X50593238Y45994628D01*
X50498000Y45947009D01*
X50117047Y45947009D01*
%TO.C,R8*%
X72682380Y39838333D02*
X72206190Y39505000D01*
X72682380Y39266904D02*
X71682380Y39266904D01*
X71682380Y39647857D01*
X71730000Y39743095D01*
X71777619Y39790714D01*
X71872857Y39838333D01*
X72015714Y39838333D01*
X72110952Y39790714D01*
X72158571Y39743095D01*
X72206190Y39647857D01*
X72206190Y39266904D01*
X72110952Y40409761D02*
X72063333Y40314523D01*
X72015714Y40266904D01*
X71920476Y40219285D01*
X71872857Y40219285D01*
X71777619Y40266904D01*
X71730000Y40314523D01*
X71682380Y40409761D01*
X71682380Y40600238D01*
X71730000Y40695476D01*
X71777619Y40743095D01*
X71872857Y40790714D01*
X71920476Y40790714D01*
X72015714Y40743095D01*
X72063333Y40695476D01*
X72110952Y40600238D01*
X72110952Y40409761D01*
X72158571Y40314523D01*
X72206190Y40266904D01*
X72301428Y40219285D01*
X72491904Y40219285D01*
X72587142Y40266904D01*
X72634761Y40314523D01*
X72682380Y40409761D01*
X72682380Y40600238D01*
X72634761Y40695476D01*
X72587142Y40743095D01*
X72491904Y40790714D01*
X72301428Y40790714D01*
X72206190Y40743095D01*
X72158571Y40695476D01*
X72110952Y40600238D01*
%TO.C,R10*%
X14216142Y48188619D02*
X13882809Y48664809D01*
X13644714Y48188619D02*
X13644714Y49188619D01*
X14025666Y49188619D01*
X14120904Y49141000D01*
X14168523Y49093380D01*
X14216142Y48998142D01*
X14216142Y48855285D01*
X14168523Y48760047D01*
X14120904Y48712428D01*
X14025666Y48664809D01*
X13644714Y48664809D01*
X15168523Y48188619D02*
X14597095Y48188619D01*
X14882809Y48188619D02*
X14882809Y49188619D01*
X14787571Y49045761D01*
X14692333Y48950523D01*
X14597095Y48902904D01*
X15787571Y49188619D02*
X15882809Y49188619D01*
X15978047Y49141000D01*
X16025666Y49093380D01*
X16073285Y48998142D01*
X16120904Y48807666D01*
X16120904Y48569571D01*
X16073285Y48379095D01*
X16025666Y48283857D01*
X15978047Y48236238D01*
X15882809Y48188619D01*
X15787571Y48188619D01*
X15692333Y48236238D01*
X15644714Y48283857D01*
X15597095Y48379095D01*
X15549476Y48569571D01*
X15549476Y48807666D01*
X15597095Y48998142D01*
X15644714Y49093380D01*
X15692333Y49141000D01*
X15787571Y49188619D01*
%TO.C,JP2*%
X63200066Y12688819D02*
X63200066Y11974533D01*
X63152447Y11831676D01*
X63057209Y11736438D01*
X62914352Y11688819D01*
X62819114Y11688819D01*
X63676257Y11688819D02*
X63676257Y12688819D01*
X64057209Y12688819D01*
X64152447Y12641200D01*
X64200066Y12593580D01*
X64247685Y12498342D01*
X64247685Y12355485D01*
X64200066Y12260247D01*
X64152447Y12212628D01*
X64057209Y12165009D01*
X63676257Y12165009D01*
X64628638Y12593580D02*
X64676257Y12641200D01*
X64771495Y12688819D01*
X65009590Y12688819D01*
X65104828Y12641200D01*
X65152447Y12593580D01*
X65200066Y12498342D01*
X65200066Y12403104D01*
X65152447Y12260247D01*
X64581019Y11688819D01*
X65200066Y11688819D01*
%TO.C,R3*%
X38171380Y41108333D02*
X37695190Y40775000D01*
X38171380Y40536904D02*
X37171380Y40536904D01*
X37171380Y40917857D01*
X37219000Y41013095D01*
X37266619Y41060714D01*
X37361857Y41108333D01*
X37504714Y41108333D01*
X37599952Y41060714D01*
X37647571Y41013095D01*
X37695190Y40917857D01*
X37695190Y40536904D01*
X37171380Y41441666D02*
X37171380Y42060714D01*
X37552333Y41727380D01*
X37552333Y41870238D01*
X37599952Y41965476D01*
X37647571Y42013095D01*
X37742809Y42060714D01*
X37980904Y42060714D01*
X38076142Y42013095D01*
X38123761Y41965476D01*
X38171380Y41870238D01*
X38171380Y41584523D01*
X38123761Y41489285D01*
X38076142Y41441666D01*
%TO.C,R2*%
X75255380Y10882333D02*
X74779190Y10549000D01*
X75255380Y10310904D02*
X74255380Y10310904D01*
X74255380Y10691857D01*
X74303000Y10787095D01*
X74350619Y10834714D01*
X74445857Y10882333D01*
X74588714Y10882333D01*
X74683952Y10834714D01*
X74731571Y10787095D01*
X74779190Y10691857D01*
X74779190Y10310904D01*
X74350619Y11263285D02*
X74303000Y11310904D01*
X74255380Y11406142D01*
X74255380Y11644238D01*
X74303000Y11739476D01*
X74350619Y11787095D01*
X74445857Y11834714D01*
X74541095Y11834714D01*
X74683952Y11787095D01*
X75255380Y11215666D01*
X75255380Y11834714D01*
%TO.C,D5*%
X43345380Y23391904D02*
X42345380Y23391904D01*
X42345380Y23630000D01*
X42393000Y23772857D01*
X42488238Y23868095D01*
X42583476Y23915714D01*
X42773952Y23963333D01*
X42916809Y23963333D01*
X43107285Y23915714D01*
X43202523Y23868095D01*
X43297761Y23772857D01*
X43345380Y23630000D01*
X43345380Y23391904D01*
X42345380Y24868095D02*
X42345380Y24391904D01*
X42821571Y24344285D01*
X42773952Y24391904D01*
X42726333Y24487142D01*
X42726333Y24725238D01*
X42773952Y24820476D01*
X42821571Y24868095D01*
X42916809Y24915714D01*
X43154904Y24915714D01*
X43250142Y24868095D01*
X43297761Y24820476D01*
X43345380Y24725238D01*
X43345380Y24487142D01*
X43297761Y24391904D01*
X43250142Y24344285D01*
%TO.C,U2*%
X53046380Y24511095D02*
X53855904Y24511095D01*
X53951142Y24558714D01*
X53998761Y24606333D01*
X54046380Y24701571D01*
X54046380Y24892047D01*
X53998761Y24987285D01*
X53951142Y25034904D01*
X53855904Y25082523D01*
X53046380Y25082523D01*
X53141619Y25511095D02*
X53094000Y25558714D01*
X53046380Y25653952D01*
X53046380Y25892047D01*
X53094000Y25987285D01*
X53141619Y26034904D01*
X53236857Y26082523D01*
X53332095Y26082523D01*
X53474952Y26034904D01*
X54046380Y25463476D01*
X54046380Y26082523D01*
%TO.C,J8*%
X66087666Y46617619D02*
X66087666Y45903333D01*
X66040047Y45760476D01*
X65944809Y45665238D01*
X65801952Y45617619D01*
X65706714Y45617619D01*
X66706714Y46189047D02*
X66611476Y46236666D01*
X66563857Y46284285D01*
X66516238Y46379523D01*
X66516238Y46427142D01*
X66563857Y46522380D01*
X66611476Y46570000D01*
X66706714Y46617619D01*
X66897190Y46617619D01*
X66992428Y46570000D01*
X67040047Y46522380D01*
X67087666Y46427142D01*
X67087666Y46379523D01*
X67040047Y46284285D01*
X66992428Y46236666D01*
X66897190Y46189047D01*
X66706714Y46189047D01*
X66611476Y46141428D01*
X66563857Y46093809D01*
X66516238Y45998571D01*
X66516238Y45808095D01*
X66563857Y45712857D01*
X66611476Y45665238D01*
X66706714Y45617619D01*
X66897190Y45617619D01*
X66992428Y45665238D01*
X67040047Y45712857D01*
X67087666Y45808095D01*
X67087666Y45998571D01*
X67040047Y46093809D01*
X66992428Y46141428D01*
X66897190Y46189047D01*
X70988180Y36777942D02*
X69988180Y36777942D01*
X69988180Y37158895D01*
X70035800Y37254133D01*
X70083419Y37301752D01*
X70178657Y37349371D01*
X70321514Y37349371D01*
X70416752Y37301752D01*
X70464371Y37254133D01*
X70511990Y37158895D01*
X70511990Y36777942D01*
X69988180Y37682704D02*
X70988180Y37920800D01*
X70273895Y38111276D01*
X70988180Y38301752D01*
X69988180Y38539847D01*
X70988180Y39492228D02*
X70511990Y39158895D01*
X70988180Y38920800D02*
X69988180Y38920800D01*
X69988180Y39301752D01*
X70035800Y39396990D01*
X70083419Y39444609D01*
X70178657Y39492228D01*
X70321514Y39492228D01*
X70416752Y39444609D01*
X70464371Y39396990D01*
X70511990Y39301752D01*
X70511990Y38920800D01*
X71083419Y39682704D02*
X71083419Y40444609D01*
X70940561Y40635085D02*
X70988180Y40730323D01*
X70988180Y40920800D01*
X70940561Y41016038D01*
X70845323Y41063657D01*
X70797704Y41063657D01*
X70702466Y41016038D01*
X70654847Y40920800D01*
X70654847Y40777942D01*
X70607228Y40682704D01*
X70511990Y40635085D01*
X70464371Y40635085D01*
X70369133Y40682704D01*
X70321514Y40777942D01*
X70321514Y40920800D01*
X70369133Y41016038D01*
X70321514Y41396990D02*
X70988180Y41587466D01*
X70511990Y41777942D01*
X70988180Y41968419D01*
X70321514Y42158895D01*
%TO.C,J1*%
X57121466Y48147219D02*
X57121466Y47432933D01*
X57073847Y47290076D01*
X56978609Y47194838D01*
X56835752Y47147219D01*
X56740514Y47147219D01*
X58121466Y47147219D02*
X57550038Y47147219D01*
X57835752Y47147219D02*
X57835752Y48147219D01*
X57740514Y48004361D01*
X57645276Y47909123D01*
X57550038Y47861504D01*
X44348780Y54157619D02*
X44348780Y55157619D01*
X44682114Y54443333D01*
X45015447Y55157619D01*
X45015447Y54157619D01*
X45682114Y55157619D02*
X45872590Y55157619D01*
X45967828Y55110000D01*
X46063066Y55014761D01*
X46110685Y54824285D01*
X46110685Y54490952D01*
X46063066Y54300476D01*
X45967828Y54205238D01*
X45872590Y54157619D01*
X45682114Y54157619D01*
X45586876Y54205238D01*
X45491638Y54300476D01*
X45444019Y54490952D01*
X45444019Y54824285D01*
X45491638Y55014761D01*
X45586876Y55110000D01*
X45682114Y55157619D01*
X46396400Y55157619D02*
X46967828Y55157619D01*
X46682114Y54157619D02*
X46682114Y55157619D01*
X47491638Y55157619D02*
X47682114Y55157619D01*
X47777352Y55110000D01*
X47872590Y55014761D01*
X47920209Y54824285D01*
X47920209Y54490952D01*
X47872590Y54300476D01*
X47777352Y54205238D01*
X47682114Y54157619D01*
X47491638Y54157619D01*
X47396400Y54205238D01*
X47301161Y54300476D01*
X47253542Y54490952D01*
X47253542Y54824285D01*
X47301161Y55014761D01*
X47396400Y55110000D01*
X47491638Y55157619D01*
X48920209Y54157619D02*
X48586876Y54633809D01*
X48348780Y54157619D02*
X48348780Y55157619D01*
X48729733Y55157619D01*
X48824971Y55110000D01*
X48872590Y55062380D01*
X48920209Y54967142D01*
X48920209Y54824285D01*
X48872590Y54729047D01*
X48824971Y54681428D01*
X48729733Y54633809D01*
X48348780Y54633809D01*
X49110685Y54062380D02*
X49872590Y54062380D01*
X50586876Y54157619D02*
X50110685Y54157619D01*
X50110685Y55157619D01*
%TO.C,J5*%
X83740666Y32678619D02*
X83740666Y31964333D01*
X83693047Y31821476D01*
X83597809Y31726238D01*
X83454952Y31678619D01*
X83359714Y31678619D01*
X84693047Y32678619D02*
X84216857Y32678619D01*
X84169238Y32202428D01*
X84216857Y32250047D01*
X84312095Y32297666D01*
X84550190Y32297666D01*
X84645428Y32250047D01*
X84693047Y32202428D01*
X84740666Y32107190D01*
X84740666Y31869095D01*
X84693047Y31773857D01*
X84645428Y31726238D01*
X84550190Y31678619D01*
X84312095Y31678619D01*
X84216857Y31726238D01*
X84169238Y31773857D01*
X84323180Y34553828D02*
X84323180Y33982400D01*
X84323180Y34268114D02*
X83323180Y34268114D01*
X83466038Y34172876D01*
X83561276Y34077638D01*
X83608895Y33982400D01*
X83418419Y34934780D02*
X83370800Y34982400D01*
X83323180Y35077638D01*
X83323180Y35315733D01*
X83370800Y35410971D01*
X83418419Y35458590D01*
X83513657Y35506209D01*
X83608895Y35506209D01*
X83751752Y35458590D01*
X84323180Y34887161D01*
X84323180Y35506209D01*
X83323180Y35791923D02*
X84323180Y36125257D01*
X83323180Y36458590D01*
X84418419Y36553828D02*
X84418419Y37315733D01*
X83323180Y37744304D02*
X83323180Y37934780D01*
X83370800Y38030019D01*
X83466038Y38125257D01*
X83656514Y38172876D01*
X83989847Y38172876D01*
X84180323Y38125257D01*
X84275561Y38030019D01*
X84323180Y37934780D01*
X84323180Y37744304D01*
X84275561Y37649066D01*
X84180323Y37553828D01*
X83989847Y37506209D01*
X83656514Y37506209D01*
X83466038Y37553828D01*
X83370800Y37649066D01*
X83323180Y37744304D01*
X83323180Y38601447D02*
X84132704Y38601447D01*
X84227942Y38649066D01*
X84275561Y38696685D01*
X84323180Y38791923D01*
X84323180Y38982400D01*
X84275561Y39077638D01*
X84227942Y39125257D01*
X84132704Y39172876D01*
X83323180Y39172876D01*
X83323180Y39506209D02*
X83323180Y40077638D01*
X84323180Y39791923D02*
X83323180Y39791923D01*
%TO.C,J12*%
X82756476Y4484619D02*
X82756476Y3770333D01*
X82708857Y3627476D01*
X82613619Y3532238D01*
X82470761Y3484619D01*
X82375523Y3484619D01*
X83756476Y3484619D02*
X83185047Y3484619D01*
X83470761Y3484619D02*
X83470761Y4484619D01*
X83375523Y4341761D01*
X83280285Y4246523D01*
X83185047Y4198904D01*
X84137428Y4389380D02*
X84185047Y4437000D01*
X84280285Y4484619D01*
X84518380Y4484619D01*
X84613619Y4437000D01*
X84661238Y4389380D01*
X84708857Y4294142D01*
X84708857Y4198904D01*
X84661238Y4056047D01*
X84089809Y3484619D01*
X84708857Y3484619D01*
%TO.C,C16*%
X15570943Y21900806D02*
X15638287Y21900806D01*
X15772974Y21833462D01*
X15840317Y21766119D01*
X15907661Y21631432D01*
X15907661Y21496745D01*
X15873989Y21395730D01*
X15772974Y21227371D01*
X15671959Y21126356D01*
X15503600Y21025340D01*
X15402585Y20991669D01*
X15267898Y20991669D01*
X15133211Y21059012D01*
X15065867Y21126356D01*
X14998524Y21261043D01*
X14998524Y21328386D01*
X14964852Y22641585D02*
X15368913Y22237524D01*
X15166882Y22439554D02*
X14459775Y21732447D01*
X14628134Y21766119D01*
X14762821Y21766119D01*
X14863837Y21732447D01*
X13651653Y22540569D02*
X13786340Y22405882D01*
X13887356Y22372211D01*
X13954699Y22372211D01*
X14123058Y22405882D01*
X14291417Y22506898D01*
X14560791Y22776272D01*
X14594462Y22877287D01*
X14594462Y22944630D01*
X14560791Y23045646D01*
X14426104Y23180333D01*
X14325088Y23214004D01*
X14257745Y23214004D01*
X14156730Y23180333D01*
X13988371Y23011974D01*
X13954699Y22910959D01*
X13954699Y22843615D01*
X13988371Y22742600D01*
X14123058Y22607913D01*
X14224073Y22574241D01*
X14291417Y22574241D01*
X14392432Y22607913D01*
%TO.C,C11*%
X49953942Y17821657D02*
X49906323Y17774038D01*
X49763466Y17726419D01*
X49668228Y17726419D01*
X49525371Y17774038D01*
X49430133Y17869276D01*
X49382514Y17964514D01*
X49334895Y18154990D01*
X49334895Y18297847D01*
X49382514Y18488323D01*
X49430133Y18583561D01*
X49525371Y18678800D01*
X49668228Y18726419D01*
X49763466Y18726419D01*
X49906323Y18678800D01*
X49953942Y18631180D01*
X50906323Y17726419D02*
X50334895Y17726419D01*
X50620609Y17726419D02*
X50620609Y18726419D01*
X50525371Y18583561D01*
X50430133Y18488323D01*
X50334895Y18440704D01*
X51858704Y17726419D02*
X51287276Y17726419D01*
X51572990Y17726419D02*
X51572990Y18726419D01*
X51477752Y18583561D01*
X51382514Y18488323D01*
X51287276Y18440704D01*
%TO.C,C14*%
X49268142Y10216857D02*
X49220523Y10169238D01*
X49077666Y10121619D01*
X48982428Y10121619D01*
X48839571Y10169238D01*
X48744333Y10264476D01*
X48696714Y10359714D01*
X48649095Y10550190D01*
X48649095Y10693047D01*
X48696714Y10883523D01*
X48744333Y10978761D01*
X48839571Y11074000D01*
X48982428Y11121619D01*
X49077666Y11121619D01*
X49220523Y11074000D01*
X49268142Y11026380D01*
X50220523Y10121619D02*
X49649095Y10121619D01*
X49934809Y10121619D02*
X49934809Y11121619D01*
X49839571Y10978761D01*
X49744333Y10883523D01*
X49649095Y10835904D01*
X51077666Y10788285D02*
X51077666Y10121619D01*
X50839571Y11169238D02*
X50601476Y10454952D01*
X51220523Y10454952D01*
%TO.C,D3*%
X24709380Y3833904D02*
X23709380Y3833904D01*
X23709380Y4072000D01*
X23757000Y4214857D01*
X23852238Y4310095D01*
X23947476Y4357714D01*
X24137952Y4405333D01*
X24280809Y4405333D01*
X24471285Y4357714D01*
X24566523Y4310095D01*
X24661761Y4214857D01*
X24709380Y4072000D01*
X24709380Y3833904D01*
X23709380Y4738666D02*
X23709380Y5357714D01*
X24090333Y5024380D01*
X24090333Y5167238D01*
X24137952Y5262476D01*
X24185571Y5310095D01*
X24280809Y5357714D01*
X24518904Y5357714D01*
X24614142Y5310095D01*
X24661761Y5262476D01*
X24709380Y5167238D01*
X24709380Y4881523D01*
X24661761Y4786285D01*
X24614142Y4738666D01*
D11*
%TO.C,U3*%
X60091000Y30988000D02*
X60091000Y29038000D01*
X54971000Y30988000D02*
X54971000Y32938000D01*
X54971000Y30988000D02*
X54971000Y27538000D01*
X60091000Y30988000D02*
X60091000Y32938000D01*
%TO.C,J11*%
X46710000Y950000D02*
X49120000Y950000D01*
X57130000Y6370000D02*
X47010000Y6370000D01*
X47010000Y1250000D02*
X56130000Y1250000D01*
X46710000Y3360000D02*
X46710000Y950000D01*
X57130000Y2250000D02*
X57130000Y6370000D01*
X47010000Y6370000D02*
X47010000Y1250000D01*
X56130000Y1250000D02*
X57130000Y2250000D01*
%TO.C,J14*%
X956000Y24825000D02*
X6756000Y24825000D01*
X6756000Y24825000D02*
X6756000Y34865000D01*
X6756000Y34865000D02*
X956000Y34865000D01*
X956000Y34865000D02*
X956000Y24825000D01*
D10*
%TO.C,U5*%
X23596000Y46837000D02*
X23596000Y46612000D01*
X20346000Y43587000D02*
X20346000Y43812000D01*
X23596000Y46837000D02*
X20346000Y46837000D01*
X23596000Y43587000D02*
X23596000Y43712000D01*
X23596000Y43587000D02*
X20346000Y43587000D01*
X23596000Y43712000D02*
X24671000Y43712000D01*
X20346000Y46837000D02*
X20346000Y46612000D01*
D11*
%TO.C,R9*%
X26303500Y8636724D02*
X26303500Y8127276D01*
X25258500Y8636724D02*
X25258500Y8127276D01*
%TO.C,R12*%
X8395276Y49642500D02*
X8904724Y49642500D01*
X8395276Y50687500D02*
X8904724Y50687500D01*
%TO.C,C17*%
X71884000Y5099267D02*
X71884000Y4806733D01*
X70864000Y5099267D02*
X70864000Y4806733D01*
%TO.C,U4*%
X26416000Y41516631D02*
X27087751Y40844880D01*
X25744249Y40844880D02*
X26416000Y41516631D01*
X26416000Y27063369D02*
X25744249Y27735120D01*
X19861120Y33618249D02*
X18913597Y32670725D01*
X19189369Y34290000D02*
X19861120Y33618249D01*
X33642631Y34290000D02*
X32970880Y34961751D01*
X32970880Y33618249D02*
X33642631Y34290000D01*
X27087751Y27735120D02*
X26416000Y27063369D01*
X19861120Y34961751D02*
X19189369Y34290000D01*
%TO.C,R4*%
X35748700Y44449276D02*
X35748700Y44958724D01*
X36793700Y44449276D02*
X36793700Y44958724D01*
%TO.C,R21*%
X55753724Y9666500D02*
X55244276Y9666500D01*
X55753724Y8621500D02*
X55244276Y8621500D01*
%TO.C,C4*%
X12362949Y25904802D02*
X12569802Y25697949D01*
X13084198Y26626051D02*
X13291051Y26419198D01*
%TO.C,D6*%
X6990000Y54075000D02*
X6990000Y52605000D01*
X6990000Y52605000D02*
X9450000Y52605000D01*
X9450000Y54075000D02*
X6990000Y54075000D01*
%TO.C,REF\u002A\u002A*%
X64235664Y52500000D02*
G75*
G03*
X64235664Y52500000I-2735664J0D01*
G01*
%TO.C,J17*%
X43450000Y7219000D02*
X44450000Y8219000D01*
X36830000Y7219000D02*
X43450000Y7219000D01*
X36530000Y6919000D02*
X38940000Y6919000D01*
X44450000Y8219000D02*
X44450000Y12339000D01*
X44450000Y12339000D02*
X36830000Y12339000D01*
X36830000Y12339000D02*
X36830000Y7219000D01*
X36530000Y9329000D02*
X36530000Y6919000D01*
%TO.C,REF\u002A\u002A*%
X64235664Y3500000D02*
G75*
G03*
X64235664Y3500000I-2735664J0D01*
G01*
%TO.C,JP1*%
X60285400Y10093200D02*
X61685400Y10093200D01*
X62385400Y9393200D02*
X62385400Y8793200D01*
X59585400Y8793200D02*
X59585400Y9393200D01*
X61685400Y8093200D02*
X60285400Y8093200D01*
X59585400Y8793200D02*
G75*
G03*
X60285400Y8093200I699999J-1D01*
G01*
X61685400Y8093200D02*
G75*
G03*
X62385400Y8793200I0J700000D01*
G01*
X60285400Y10093200D02*
G75*
G03*
X59585400Y9393200I-1J-699999D01*
G01*
X62385400Y9393200D02*
G75*
G03*
X61685400Y10093200I-700000J0D01*
G01*
%TO.C,J16*%
X36530000Y3360000D02*
X36530000Y950000D01*
X36830000Y6370000D02*
X36830000Y1250000D01*
X44450000Y2250000D02*
X44450000Y6370000D01*
X43450000Y1250000D02*
X44450000Y2250000D01*
X44450000Y6370000D02*
X36830000Y6370000D01*
X36530000Y950000D02*
X38940000Y950000D01*
X36830000Y1250000D02*
X43450000Y1250000D01*
%TO.C,R13*%
X50164276Y35672500D02*
X50673724Y35672500D01*
X50164276Y36717500D02*
X50673724Y36717500D01*
%TO.C,D2*%
X74395000Y45475000D02*
X72925000Y45475000D01*
X74395000Y43015000D02*
X74395000Y45475000D01*
X72925000Y45475000D02*
X72925000Y43015000D01*
%TO.C,R5*%
X60843900Y24281224D02*
X60843900Y23771776D01*
X61888900Y24281224D02*
X61888900Y23771776D01*
%TO.C,J9*%
X21280000Y12160000D02*
X22680000Y12160000D01*
X21280000Y11160000D02*
X21280000Y12160000D01*
X21280000Y16780000D02*
X21280000Y15780000D01*
X21280000Y15780000D02*
X22680000Y15780000D01*
X11220000Y10920000D02*
X14070000Y10920000D01*
X11220000Y13770000D02*
X11220000Y10920000D01*
X11460000Y16780000D02*
X21280000Y16780000D01*
X11460000Y11160000D02*
X21280000Y11160000D01*
X11460000Y13970000D02*
X11460000Y16780000D01*
X22680000Y15780000D02*
X22680000Y13970000D01*
X11460000Y13970000D02*
X11460000Y11160000D01*
X22680000Y12160000D02*
X22680000Y13970000D01*
%TO.C,R15*%
X63881000Y23876000D02*
X68961000Y23876000D01*
X68961000Y23876000D02*
X68961000Y32004000D01*
X68961000Y32004000D02*
X63881000Y32004000D01*
X63881000Y32004000D02*
X63881000Y23876000D01*
%TO.C,R6*%
X60843900Y19453776D02*
X60843900Y19963224D01*
X61888900Y19453776D02*
X61888900Y19963224D01*
%TO.C,Q2*%
X11902000Y45720000D02*
X11902000Y46370000D01*
X11902000Y45720000D02*
X11902000Y44045000D01*
X15022000Y45720000D02*
X15022000Y46370000D01*
X15022000Y45720000D02*
X15022000Y45070000D01*
%TO.C,C6*%
X72515000Y5099267D02*
X72515000Y4806733D01*
X73535000Y5099267D02*
X73535000Y4806733D01*
%TO.C,D1*%
X16167000Y54075000D02*
X16167000Y52605000D01*
X18627000Y54075000D02*
X16167000Y54075000D01*
X16167000Y52605000D02*
X18627000Y52605000D01*
%TO.C,J13*%
X1250000Y9525000D02*
X6370000Y9525000D01*
X6370000Y16145000D02*
X5370000Y17145000D01*
X5370000Y17145000D02*
X1250000Y17145000D01*
X4260000Y9225000D02*
X6670000Y9225000D01*
X6670000Y9225000D02*
X6670000Y11635000D01*
X6370000Y9525000D02*
X6370000Y16145000D01*
X1250000Y17145000D02*
X1250000Y9525000D01*
%TO.C,REF\u002A\u002A*%
X6235664Y3500000D02*
G75*
G03*
X6235664Y3500000I-2735664J0D01*
G01*
%TO.C,U1*%
X67748000Y12770000D02*
X68473000Y12770000D01*
X67748000Y12045000D02*
X67748000Y12770000D01*
X72968000Y7550000D02*
X72243000Y7550000D01*
X72968000Y12770000D02*
X72243000Y12770000D01*
X67748000Y8275000D02*
X67748000Y7550000D01*
X72968000Y8275000D02*
X72968000Y7550000D01*
X72968000Y12045000D02*
X72968000Y12770000D01*
%TO.C,J4*%
X82680000Y49390000D02*
X82680000Y52210000D01*
X80980000Y48090000D02*
X72260000Y48090000D01*
X72260000Y48090000D02*
X72260000Y53510000D01*
X80980000Y53510000D02*
X72260000Y53510000D01*
X82680000Y49390000D02*
X80980000Y48090000D01*
X82680000Y52210000D02*
X80980000Y53510000D01*
%TO.C,J15*%
X27305000Y6370000D02*
X27305000Y1250000D01*
X33925000Y1250000D02*
X34925000Y2250000D01*
X34925000Y6370000D02*
X27305000Y6370000D01*
X27005000Y950000D02*
X29415000Y950000D01*
X34925000Y2250000D02*
X34925000Y6370000D01*
X27305000Y1250000D02*
X33925000Y1250000D01*
X27005000Y3360000D02*
X27005000Y950000D01*
%TO.C,R1*%
X13716724Y39482500D02*
X13207276Y39482500D01*
X13716724Y40527500D02*
X13207276Y40527500D01*
%TO.C,J10*%
X20020000Y47940000D02*
X22430000Y47940000D01*
X20020000Y50350000D02*
X20020000Y47940000D01*
X26940000Y48240000D02*
X27940000Y49240000D01*
X27940000Y49240000D02*
X27940000Y53360000D01*
X27940000Y53360000D02*
X20320000Y53360000D01*
X20320000Y48240000D02*
X26940000Y48240000D01*
X20320000Y53360000D02*
X20320000Y48240000D01*
%TO.C,J7*%
X11460000Y2270000D02*
X21280000Y2270000D01*
X22680000Y6890000D02*
X22680000Y5080000D01*
X11220000Y2030000D02*
X14070000Y2030000D01*
X11460000Y5080000D02*
X11460000Y2270000D01*
X11220000Y4880000D02*
X11220000Y2030000D01*
X21280000Y6890000D02*
X22680000Y6890000D01*
X21280000Y7890000D02*
X21280000Y6890000D01*
X11460000Y5080000D02*
X11460000Y7890000D01*
X22680000Y3270000D02*
X22680000Y5080000D01*
X21280000Y2270000D02*
X21280000Y3270000D01*
X21280000Y3270000D02*
X22680000Y3270000D01*
X11460000Y7890000D02*
X21280000Y7890000D01*
%TO.C,C15*%
X30968733Y10543000D02*
X31261267Y10543000D01*
X30968733Y9523000D02*
X31261267Y9523000D01*
%TO.C,D4*%
X11675000Y52605000D02*
X14135000Y52605000D01*
X14135000Y54075000D02*
X11675000Y54075000D01*
X11675000Y54075000D02*
X11675000Y52605000D01*
%TO.C,R7*%
X17525276Y50687500D02*
X18034724Y50687500D01*
X17525276Y49642500D02*
X18034724Y49642500D01*
%TO.C,J18*%
X44450000Y18308000D02*
X36830000Y18308000D01*
X36530000Y15298000D02*
X36530000Y12888000D01*
X36830000Y13188000D02*
X43450000Y13188000D01*
X36530000Y12888000D02*
X38940000Y12888000D01*
X36830000Y18308000D02*
X36830000Y13188000D01*
X43450000Y13188000D02*
X44450000Y14188000D01*
X44450000Y14188000D02*
X44450000Y18308000D01*
%TO.C,C12*%
X50189000Y33320000D02*
X46279000Y33320000D01*
X46279000Y31450000D02*
X50189000Y31450000D01*
X50189000Y31450000D02*
X50189000Y33320000D01*
%TO.C,R11*%
X44845500Y27940724D02*
X44845500Y27431276D01*
X43800500Y27940724D02*
X43800500Y27431276D01*
%TO.C,Q1*%
X34376800Y44958000D02*
X34376800Y45608000D01*
X31256800Y44958000D02*
X31256800Y43283000D01*
X34376800Y44958000D02*
X34376800Y44308000D01*
X31256800Y44958000D02*
X31256800Y45608000D01*
%TO.C,J6*%
X78149200Y25419000D02*
X78149200Y26819000D01*
X82769200Y15599000D02*
X82769200Y25419000D01*
X82769200Y25419000D02*
X81769200Y25419000D01*
X79959200Y15599000D02*
X82769200Y15599000D01*
X77149200Y25419000D02*
X78149200Y25419000D01*
X79959200Y15599000D02*
X77149200Y15599000D01*
X80159200Y15359000D02*
X83009200Y15359000D01*
X77149200Y15599000D02*
X77149200Y25419000D01*
X83009200Y15359000D02*
X83009200Y18209000D01*
X78149200Y26819000D02*
X79959200Y26819000D01*
X81769200Y25419000D02*
X81769200Y26819000D01*
X81769200Y26819000D02*
X79959200Y26819000D01*
%TO.C,C13*%
X59101000Y20140500D02*
X59101000Y24050500D01*
X59101000Y24050500D02*
X57231000Y24050500D01*
X57231000Y24050500D02*
X57231000Y20140500D01*
%TO.C,J3*%
X29210000Y48240000D02*
X35830000Y48240000D01*
X36830000Y53360000D02*
X29210000Y53360000D01*
X28910000Y50350000D02*
X28910000Y47940000D01*
X28910000Y47940000D02*
X31320000Y47940000D01*
X29210000Y53360000D02*
X29210000Y48240000D01*
X35830000Y48240000D02*
X36830000Y49240000D01*
X36830000Y49240000D02*
X36830000Y53360000D01*
%TO.C,LS1*%
X508000Y45085000D02*
X508000Y40005000D01*
X508000Y45085000D02*
X3048000Y45085000D01*
X508000Y40005000D02*
X3048000Y40005000D01*
X11358000Y42545000D02*
G75*
G03*
X11358000Y42545000I-4500000J0D01*
G01*
%TO.C,Y1*%
X19766784Y21543103D02*
X11281503Y30028384D01*
X20579957Y22356276D02*
X19766784Y21543103D01*
X22347724Y24124043D02*
X23160897Y24937216D01*
X14675616Y33422497D02*
X23160897Y24937216D01*
X12094676Y30841557D02*
X11281503Y30028384D01*
X13862443Y32609324D02*
X14675616Y33422497D01*
%TO.C,REF\u002A\u002A*%
X6235664Y52500000D02*
G75*
G03*
X6235664Y52500000I-2735664J0D01*
G01*
%TO.C,J2*%
X39150000Y39304000D02*
X41560000Y39304000D01*
X39450000Y44724000D02*
X39450000Y39604000D01*
X39450000Y39604000D02*
X56070000Y39604000D01*
X57070000Y44724000D02*
X39450000Y44724000D01*
X56070000Y39604000D02*
X57070000Y40604000D01*
X39150000Y41714000D02*
X39150000Y39304000D01*
X57070000Y40604000D02*
X57070000Y44724000D01*
%TO.C,R8*%
X73137500Y39750276D02*
X73137500Y40259724D01*
X74182500Y39750276D02*
X74182500Y40259724D01*
%TO.C,R10*%
X13033276Y49642500D02*
X13542724Y49642500D01*
X13033276Y50687500D02*
X13542724Y50687500D01*
%TO.C,JP2*%
X62385400Y12441200D02*
X62385400Y11841200D01*
X61685400Y11141200D02*
X60285400Y11141200D01*
X60285400Y13141200D02*
X61685400Y13141200D01*
X59585400Y11841200D02*
X59585400Y12441200D01*
X61685400Y11141200D02*
G75*
G03*
X62385400Y11841200I0J700000D01*
G01*
X59585400Y11841200D02*
G75*
G03*
X60285400Y11141200I699999J-1D01*
G01*
X62385400Y12441200D02*
G75*
G03*
X61685400Y13141200I-700000J0D01*
G01*
X60285400Y13141200D02*
G75*
G03*
X59585400Y12441200I-1J-699999D01*
G01*
%TO.C,R3*%
X35748700Y40690076D02*
X35748700Y41199524D01*
X36793700Y40690076D02*
X36793700Y41199524D01*
%TO.C,R2*%
X74280500Y8023776D02*
X74280500Y8533224D01*
X75325500Y8023776D02*
X75325500Y8533224D01*
%TO.C,D5*%
X43588000Y22470000D02*
X45058000Y22470000D01*
X43588000Y24930000D02*
X43588000Y22470000D01*
X45058000Y22470000D02*
X45058000Y24930000D01*
%TO.C,U2*%
X45739000Y27310000D02*
X46999000Y27310000D01*
X52559000Y27310000D02*
X51299000Y27310000D01*
X45739000Y21300000D02*
X45739000Y27310000D01*
X52559000Y23550000D02*
X52559000Y27310000D01*
%TO.C,J8*%
X68231000Y33760000D02*
X66421000Y33760000D01*
X66421000Y44980000D02*
X63611000Y44980000D01*
X63371000Y45220000D02*
X63371000Y42370000D01*
X64611000Y35160000D02*
X64611000Y33760000D01*
X63611000Y35160000D02*
X64611000Y35160000D01*
X69231000Y44980000D02*
X69231000Y35160000D01*
X69231000Y35160000D02*
X68231000Y35160000D01*
X66421000Y44980000D02*
X69231000Y44980000D01*
X64611000Y33760000D02*
X66421000Y33760000D01*
X68231000Y35160000D02*
X68231000Y33760000D01*
X66221000Y45220000D02*
X63371000Y45220000D01*
X63611000Y44980000D02*
X63611000Y35160000D01*
%TO.C,J1*%
X39450000Y48240000D02*
X56070000Y48240000D01*
X56070000Y48240000D02*
X57070000Y49240000D01*
X39150000Y50350000D02*
X39150000Y47940000D01*
X39150000Y47940000D02*
X41560000Y47940000D01*
X57070000Y53360000D02*
X39450000Y53360000D01*
X57070000Y49240000D02*
X57070000Y53360000D01*
X39450000Y53360000D02*
X39450000Y48240000D01*
%TO.C,J5*%
X79959200Y31728000D02*
X77149200Y31728000D01*
X81769200Y41548000D02*
X81769200Y42948000D01*
X78149200Y42948000D02*
X79959200Y42948000D01*
X79959200Y31728000D02*
X82769200Y31728000D01*
X78149200Y41548000D02*
X78149200Y42948000D01*
X77149200Y31728000D02*
X77149200Y41548000D01*
X81769200Y42948000D02*
X79959200Y42948000D01*
X77149200Y41548000D02*
X78149200Y41548000D01*
X82769200Y31728000D02*
X82769200Y41548000D01*
X82769200Y41548000D02*
X81769200Y41548000D01*
X80159200Y31488000D02*
X83009200Y31488000D01*
X83009200Y31488000D02*
X83009200Y34338000D01*
%TO.C,J12*%
X82050000Y12386000D02*
X84830000Y12386000D01*
X78105000Y4826000D02*
X80150000Y4826000D01*
X78105000Y7136000D02*
X78105000Y4826000D01*
X84830000Y12386000D02*
X84830000Y4826000D01*
X78105000Y12446000D02*
X78105000Y10136000D01*
X80150000Y12446000D02*
X78105000Y12446000D01*
X82050000Y4826000D02*
X84830000Y4826000D01*
%TO.C,C16*%
X15617802Y22649949D02*
X15410949Y22856802D01*
X16339051Y23371198D02*
X16132198Y23578051D01*
%TO.C,C11*%
X50743067Y19098800D02*
X50450533Y19098800D01*
X50743067Y20118800D02*
X50450533Y20118800D01*
%TO.C,C14*%
X50653733Y8634000D02*
X50946267Y8634000D01*
X50653733Y9654000D02*
X50946267Y9654000D01*
%TO.C,D3*%
X25046000Y5409500D02*
X25046000Y2949500D01*
X25046000Y2949500D02*
X26516000Y2949500D01*
X26516000Y2949500D02*
X26516000Y5409500D01*
%TD*%
M02*
