%TF.GenerationSoftware,KiCad,Pcbnew,(6.0.4)*%
%TF.CreationDate,2022-06-24T18:11:39+09:00*%
%TF.ProjectId,cleanbot,636c6561-6e62-46f7-942e-6b696361645f,rev?*%
%TF.SameCoordinates,Original*%
%TF.FileFunction,Legend,Top*%
%TF.FilePolarity,Positive*%
%FSLAX46Y46*%
G04 Gerber Fmt 4.6, Leading zero omitted, Abs format (unit mm)*
G04 Created by KiCad (PCBNEW (6.0.4)) date 2022-06-24 18:11:39*
%MOMM*%
%LPD*%
G01*
G04 APERTURE LIST*
%ADD10C,0.150000*%
%ADD11C,0.120000*%
G04 APERTURE END LIST*
D10*
%TO.C,U3*%
X50408380Y30734095D02*
X51217904Y30734095D01*
X51313142Y30781714D01*
X51360761Y30829333D01*
X51408380Y30924571D01*
X51408380Y31115047D01*
X51360761Y31210285D01*
X51313142Y31257904D01*
X51217904Y31305523D01*
X50408380Y31305523D01*
X50408380Y31686476D02*
X50408380Y32305523D01*
X50789333Y31972190D01*
X50789333Y32115047D01*
X50836952Y32210285D01*
X50884571Y32257904D01*
X50979809Y32305523D01*
X51217904Y32305523D01*
X51313142Y32257904D01*
X51360761Y32210285D01*
X51408380Y32115047D01*
X51408380Y31829333D01*
X51360761Y31734095D01*
X51313142Y31686476D01*
%TO.C,J11*%
X57407276Y1462019D02*
X57407276Y747733D01*
X57359657Y604876D01*
X57264419Y509638D01*
X57121561Y462019D01*
X57026323Y462019D01*
X58407276Y462019D02*
X57835847Y462019D01*
X58121561Y462019D02*
X58121561Y1462019D01*
X58026323Y1319161D01*
X57931085Y1223923D01*
X57835847Y1176304D01*
X59359657Y462019D02*
X58788228Y462019D01*
X59073942Y462019D02*
X59073942Y1462019D01*
X58978704Y1319161D01*
X58883466Y1223923D01*
X58788228Y1176304D01*
X48627161Y7116819D02*
X48627161Y8116819D01*
X48865257Y8116819D01*
X49008114Y8069200D01*
X49103352Y7973961D01*
X49150971Y7878723D01*
X49198590Y7688247D01*
X49198590Y7545390D01*
X49150971Y7354914D01*
X49103352Y7259676D01*
X49008114Y7164438D01*
X48865257Y7116819D01*
X48627161Y7116819D01*
X49531923Y8116819D02*
X50198590Y7116819D01*
X50198590Y8116819D02*
X49531923Y7116819D01*
X51055733Y7116819D02*
X50579542Y7116819D01*
X50579542Y8116819D01*
X51150971Y7021580D02*
X51912876Y7021580D01*
X52722400Y7212057D02*
X52674780Y7164438D01*
X52531923Y7116819D01*
X52436685Y7116819D01*
X52293828Y7164438D01*
X52198590Y7259676D01*
X52150971Y7354914D01*
X52103352Y7545390D01*
X52103352Y7688247D01*
X52150971Y7878723D01*
X52198590Y7973961D01*
X52293828Y8069200D01*
X52436685Y8116819D01*
X52531923Y8116819D01*
X52674780Y8069200D01*
X52722400Y8021580D01*
X53341447Y8116819D02*
X53531923Y8116819D01*
X53627161Y8069200D01*
X53722400Y7973961D01*
X53770019Y7783485D01*
X53770019Y7450152D01*
X53722400Y7259676D01*
X53627161Y7164438D01*
X53531923Y7116819D01*
X53341447Y7116819D01*
X53246209Y7164438D01*
X53150971Y7259676D01*
X53103352Y7450152D01*
X53103352Y7783485D01*
X53150971Y7973961D01*
X53246209Y8069200D01*
X53341447Y8116819D01*
X54198590Y7116819D02*
X54198590Y8116819D01*
X54770019Y7116819D01*
X54770019Y8116819D01*
X55246209Y7116819D02*
X55246209Y8116819D01*
X55817638Y7116819D01*
X55817638Y8116819D01*
%TO.C,J14*%
X3567180Y35512476D02*
X4281466Y35512476D01*
X4424323Y35464857D01*
X4519561Y35369619D01*
X4567180Y35226761D01*
X4567180Y35131523D01*
X4567180Y36512476D02*
X4567180Y35941047D01*
X4567180Y36226761D02*
X3567180Y36226761D01*
X3710038Y36131523D01*
X3805276Y36036285D01*
X3852895Y35941047D01*
X3900514Y37369619D02*
X4567180Y37369619D01*
X3519561Y37131523D02*
X4233847Y36893428D01*
X4233847Y37512476D01*
X7973961Y27525980D02*
X8021580Y27668838D01*
X8021580Y27906933D01*
X7973961Y28002171D01*
X7926342Y28049790D01*
X7831104Y28097409D01*
X7735866Y28097409D01*
X7640628Y28049790D01*
X7593009Y28002171D01*
X7545390Y27906933D01*
X7497771Y27716457D01*
X7450152Y27621219D01*
X7402533Y27573600D01*
X7307295Y27525980D01*
X7212057Y27525980D01*
X7116819Y27573600D01*
X7069200Y27621219D01*
X7021580Y27716457D01*
X7021580Y27954552D01*
X7069200Y28097409D01*
X7021580Y28383123D02*
X7021580Y28954552D01*
X8021580Y28668838D02*
X7021580Y28668838D01*
X8021580Y30525980D02*
X8021580Y30049790D01*
X7021580Y30049790D01*
X8021580Y30859314D02*
X7354914Y30859314D01*
X7021580Y30859314D02*
X7069200Y30811695D01*
X7116819Y30859314D01*
X7069200Y30906933D01*
X7021580Y30859314D01*
X7116819Y30859314D01*
X7354914Y31335504D02*
X8021580Y31335504D01*
X7450152Y31335504D02*
X7402533Y31383123D01*
X7354914Y31478361D01*
X7354914Y31621219D01*
X7402533Y31716457D01*
X7497771Y31764076D01*
X8021580Y31764076D01*
X8021580Y32240266D02*
X7021580Y32240266D01*
X7640628Y32335504D02*
X8021580Y32621219D01*
X7354914Y32621219D02*
X7735866Y32240266D01*
%TO.C,R9*%
X29187380Y8088333D02*
X28711190Y7755000D01*
X29187380Y7516904D02*
X28187380Y7516904D01*
X28187380Y7897857D01*
X28235000Y7993095D01*
X28282619Y8040714D01*
X28377857Y8088333D01*
X28520714Y8088333D01*
X28615952Y8040714D01*
X28663571Y7993095D01*
X28711190Y7897857D01*
X28711190Y7516904D01*
X29187380Y8564523D02*
X29187380Y8755000D01*
X29139761Y8850238D01*
X29092142Y8897857D01*
X28949285Y8993095D01*
X28758809Y9040714D01*
X28377857Y9040714D01*
X28282619Y8993095D01*
X28235000Y8945476D01*
X28187380Y8850238D01*
X28187380Y8659761D01*
X28235000Y8564523D01*
X28282619Y8516904D01*
X28377857Y8469285D01*
X28615952Y8469285D01*
X28711190Y8516904D01*
X28758809Y8564523D01*
X28806428Y8659761D01*
X28806428Y8850238D01*
X28758809Y8945476D01*
X28711190Y8993095D01*
X28615952Y9040714D01*
%TO.C,R12*%
X9644142Y48188619D02*
X9310809Y48664809D01*
X9072714Y48188619D02*
X9072714Y49188619D01*
X9453666Y49188619D01*
X9548904Y49141000D01*
X9596523Y49093380D01*
X9644142Y48998142D01*
X9644142Y48855285D01*
X9596523Y48760047D01*
X9548904Y48712428D01*
X9453666Y48664809D01*
X9072714Y48664809D01*
X10596523Y48188619D02*
X10025095Y48188619D01*
X10310809Y48188619D02*
X10310809Y49188619D01*
X10215571Y49045761D01*
X10120333Y48950523D01*
X10025095Y48902904D01*
X10977476Y49093380D02*
X11025095Y49141000D01*
X11120333Y49188619D01*
X11358428Y49188619D01*
X11453666Y49141000D01*
X11501285Y49093380D01*
X11548904Y48998142D01*
X11548904Y48902904D01*
X11501285Y48760047D01*
X10929857Y48188619D01*
X11548904Y48188619D01*
%TO.C,R4*%
X38298380Y44791333D02*
X37822190Y44458000D01*
X38298380Y44219904D02*
X37298380Y44219904D01*
X37298380Y44600857D01*
X37346000Y44696095D01*
X37393619Y44743714D01*
X37488857Y44791333D01*
X37631714Y44791333D01*
X37726952Y44743714D01*
X37774571Y44696095D01*
X37822190Y44600857D01*
X37822190Y44219904D01*
X37631714Y45648476D02*
X38298380Y45648476D01*
X37250761Y45410380D02*
X37965047Y45172285D01*
X37965047Y45791333D01*
%TO.C,C4*%
X15220363Y21663056D02*
X15287706Y21663056D01*
X15422393Y21595712D01*
X15489737Y21528369D01*
X15557080Y21393681D01*
X15557080Y21258994D01*
X15523409Y21157979D01*
X15422393Y20989620D01*
X15321378Y20888605D01*
X15153019Y20787590D01*
X15052004Y20753918D01*
X14917317Y20753918D01*
X14782630Y20821262D01*
X14715286Y20888605D01*
X14647943Y21023292D01*
X14647943Y21090636D01*
X14210210Y21865086D02*
X14681615Y22336491D01*
X14109195Y21427353D02*
X14782630Y21764071D01*
X14344897Y22201804D01*
%TO.C,D6*%
X7897904Y51363619D02*
X7897904Y52363619D01*
X8136000Y52363619D01*
X8278857Y52316000D01*
X8374095Y52220761D01*
X8421714Y52125523D01*
X8469333Y51935047D01*
X8469333Y51792190D01*
X8421714Y51601714D01*
X8374095Y51506476D01*
X8278857Y51411238D01*
X8136000Y51363619D01*
X7897904Y51363619D01*
X9326476Y52363619D02*
X9136000Y52363619D01*
X9040761Y52316000D01*
X8993142Y52268380D01*
X8897904Y52125523D01*
X8850285Y51935047D01*
X8850285Y51554095D01*
X8897904Y51458857D01*
X8945523Y51411238D01*
X9040761Y51363619D01*
X9231238Y51363619D01*
X9326476Y51411238D01*
X9374095Y51458857D01*
X9421714Y51554095D01*
X9421714Y51792190D01*
X9374095Y51887428D01*
X9326476Y51935047D01*
X9231238Y51982666D01*
X9040761Y51982666D01*
X8945523Y51935047D01*
X8897904Y51887428D01*
X8850285Y51792190D01*
X6791485Y55414800D02*
X6696247Y55462419D01*
X6553390Y55462419D01*
X6410533Y55414800D01*
X6315295Y55319561D01*
X6267676Y55224323D01*
X6220057Y55033847D01*
X6220057Y54890990D01*
X6267676Y54700514D01*
X6315295Y54605276D01*
X6410533Y54510038D01*
X6553390Y54462419D01*
X6648628Y54462419D01*
X6791485Y54510038D01*
X6839104Y54557657D01*
X6839104Y54890990D01*
X6648628Y54890990D01*
X7458152Y55462419D02*
X7648628Y55462419D01*
X7743866Y55414800D01*
X7839104Y55319561D01*
X7886723Y55129085D01*
X7886723Y54795752D01*
X7839104Y54605276D01*
X7743866Y54510038D01*
X7648628Y54462419D01*
X7458152Y54462419D01*
X7362914Y54510038D01*
X7267676Y54605276D01*
X7220057Y54795752D01*
X7220057Y55129085D01*
X7267676Y55319561D01*
X7362914Y55414800D01*
X7458152Y55462419D01*
X8505771Y55462419D02*
X8696247Y55462419D01*
X8791485Y55414800D01*
X8886723Y55319561D01*
X8934342Y55129085D01*
X8934342Y54795752D01*
X8886723Y54605276D01*
X8791485Y54510038D01*
X8696247Y54462419D01*
X8505771Y54462419D01*
X8410533Y54510038D01*
X8315295Y54605276D01*
X8267676Y54795752D01*
X8267676Y55129085D01*
X8315295Y55319561D01*
X8410533Y55414800D01*
X8505771Y55462419D01*
X9362914Y54462419D02*
X9362914Y55462419D01*
X9601009Y55462419D01*
X9743866Y55414800D01*
X9839104Y55319561D01*
X9886723Y55224323D01*
X9934342Y55033847D01*
X9934342Y54890990D01*
X9886723Y54700514D01*
X9839104Y54605276D01*
X9743866Y54510038D01*
X9601009Y54462419D01*
X9362914Y54462419D01*
%TO.C,JP1*%
X63174666Y8167619D02*
X63174666Y7453333D01*
X63127047Y7310476D01*
X63031809Y7215238D01*
X62888952Y7167619D01*
X62793714Y7167619D01*
X63650857Y7167619D02*
X63650857Y8167619D01*
X64031809Y8167619D01*
X64127047Y8120000D01*
X64174666Y8072380D01*
X64222285Y7977142D01*
X64222285Y7834285D01*
X64174666Y7739047D01*
X64127047Y7691428D01*
X64031809Y7643809D01*
X63650857Y7643809D01*
X65174666Y7167619D02*
X64603238Y7167619D01*
X64888952Y7167619D02*
X64888952Y8167619D01*
X64793714Y8024761D01*
X64698476Y7929523D01*
X64603238Y7881904D01*
%TO.C,R13*%
X43045142Y7327619D02*
X42711809Y7803809D01*
X42473714Y7327619D02*
X42473714Y8327619D01*
X42854666Y8327619D01*
X42949904Y8280000D01*
X42997523Y8232380D01*
X43045142Y8137142D01*
X43045142Y7994285D01*
X42997523Y7899047D01*
X42949904Y7851428D01*
X42854666Y7803809D01*
X42473714Y7803809D01*
X43997523Y7327619D02*
X43426095Y7327619D01*
X43711809Y7327619D02*
X43711809Y8327619D01*
X43616571Y8184761D01*
X43521333Y8089523D01*
X43426095Y8041904D01*
X44330857Y8327619D02*
X44949904Y8327619D01*
X44616571Y7946666D01*
X44759428Y7946666D01*
X44854666Y7899047D01*
X44902285Y7851428D01*
X44949904Y7756190D01*
X44949904Y7518095D01*
X44902285Y7422857D01*
X44854666Y7375238D01*
X44759428Y7327619D01*
X44473714Y7327619D01*
X44378476Y7375238D01*
X44330857Y7422857D01*
%TO.C,D2*%
X72639180Y43102304D02*
X71639180Y43102304D01*
X71639180Y43340400D01*
X71686800Y43483257D01*
X71782038Y43578495D01*
X71877276Y43626114D01*
X72067752Y43673733D01*
X72210609Y43673733D01*
X72401085Y43626114D01*
X72496323Y43578495D01*
X72591561Y43483257D01*
X72639180Y43340400D01*
X72639180Y43102304D01*
X71734419Y44054685D02*
X71686800Y44102304D01*
X71639180Y44197542D01*
X71639180Y44435638D01*
X71686800Y44530876D01*
X71734419Y44578495D01*
X71829657Y44626114D01*
X71924895Y44626114D01*
X72067752Y44578495D01*
X72639180Y44007066D01*
X72639180Y44626114D01*
%TO.C,R14*%
X41506380Y8755142D02*
X41030190Y8421809D01*
X41506380Y8183714D02*
X40506380Y8183714D01*
X40506380Y8564666D01*
X40554000Y8659904D01*
X40601619Y8707523D01*
X40696857Y8755142D01*
X40839714Y8755142D01*
X40934952Y8707523D01*
X40982571Y8659904D01*
X41030190Y8564666D01*
X41030190Y8183714D01*
X41506380Y9707523D02*
X41506380Y9136095D01*
X41506380Y9421809D02*
X40506380Y9421809D01*
X40649238Y9326571D01*
X40744476Y9231333D01*
X40792095Y9136095D01*
X40839714Y10564666D02*
X41506380Y10564666D01*
X40458761Y10326571D02*
X41173047Y10088476D01*
X41173047Y10707523D01*
%TO.C,R5*%
X60048380Y22947333D02*
X59572190Y22614000D01*
X60048380Y22375904D02*
X59048380Y22375904D01*
X59048380Y22756857D01*
X59096000Y22852095D01*
X59143619Y22899714D01*
X59238857Y22947333D01*
X59381714Y22947333D01*
X59476952Y22899714D01*
X59524571Y22852095D01*
X59572190Y22756857D01*
X59572190Y22375904D01*
X59048380Y23852095D02*
X59048380Y23375904D01*
X59524571Y23328285D01*
X59476952Y23375904D01*
X59429333Y23471142D01*
X59429333Y23709238D01*
X59476952Y23804476D01*
X59524571Y23852095D01*
X59619809Y23899714D01*
X59857904Y23899714D01*
X59953142Y23852095D01*
X60000761Y23804476D01*
X60048380Y23709238D01*
X60048380Y23471142D01*
X60000761Y23375904D01*
X59953142Y23328285D01*
%TO.C,J9*%
X9822380Y13636666D02*
X10536666Y13636666D01*
X10679523Y13589047D01*
X10774761Y13493809D01*
X10822380Y13350952D01*
X10822380Y13255714D01*
X10822380Y14160476D02*
X10822380Y14350952D01*
X10774761Y14446190D01*
X10727142Y14493809D01*
X10584285Y14589047D01*
X10393809Y14636666D01*
X10012857Y14636666D01*
X9917619Y14589047D01*
X9870000Y14541428D01*
X9822380Y14446190D01*
X9822380Y14255714D01*
X9870000Y14160476D01*
X9917619Y14112857D01*
X10012857Y14065238D01*
X10250952Y14065238D01*
X10346190Y14112857D01*
X10393809Y14160476D01*
X10441428Y14255714D01*
X10441428Y14446190D01*
X10393809Y14541428D01*
X10346190Y14589047D01*
X10250952Y14636666D01*
X24222380Y12231904D02*
X23746190Y11898571D01*
X24222380Y11660476D02*
X23222380Y11660476D01*
X23222380Y12041428D01*
X23270000Y12136666D01*
X23317619Y12184285D01*
X23412857Y12231904D01*
X23555714Y12231904D01*
X23650952Y12184285D01*
X23698571Y12136666D01*
X23746190Y12041428D01*
X23746190Y11660476D01*
X24222380Y12660476D02*
X23222380Y12660476D01*
X23222380Y13041428D01*
X23270000Y13136666D01*
X23317619Y13184285D01*
X23412857Y13231904D01*
X23555714Y13231904D01*
X23650952Y13184285D01*
X23698571Y13136666D01*
X23746190Y13041428D01*
X23746190Y12660476D01*
X24222380Y13660476D02*
X23222380Y13660476D01*
X24317619Y13898571D02*
X24317619Y14660476D01*
X24174761Y14850952D02*
X24222380Y14946190D01*
X24222380Y15136666D01*
X24174761Y15231904D01*
X24079523Y15279523D01*
X24031904Y15279523D01*
X23936666Y15231904D01*
X23889047Y15136666D01*
X23889047Y14993809D01*
X23841428Y14898571D01*
X23746190Y14850952D01*
X23698571Y14850952D01*
X23603333Y14898571D01*
X23555714Y14993809D01*
X23555714Y15136666D01*
X23603333Y15231904D01*
X23555714Y15612857D02*
X24222380Y15803333D01*
X23746190Y15993809D01*
X24222380Y16184285D01*
X23555714Y16374761D01*
%TO.C,R15*%
X60142380Y27297142D02*
X59666190Y26963809D01*
X60142380Y26725714D02*
X59142380Y26725714D01*
X59142380Y27106666D01*
X59190000Y27201904D01*
X59237619Y27249523D01*
X59332857Y27297142D01*
X59475714Y27297142D01*
X59570952Y27249523D01*
X59618571Y27201904D01*
X59666190Y27106666D01*
X59666190Y26725714D01*
X60142380Y28249523D02*
X60142380Y27678095D01*
X60142380Y27963809D02*
X59142380Y27963809D01*
X59285238Y27868571D01*
X59380476Y27773333D01*
X59428095Y27678095D01*
X59142380Y29154285D02*
X59142380Y28678095D01*
X59618571Y28630476D01*
X59570952Y28678095D01*
X59523333Y28773333D01*
X59523333Y29011428D01*
X59570952Y29106666D01*
X59618571Y29154285D01*
X59713809Y29201904D01*
X59951904Y29201904D01*
X60047142Y29154285D01*
X60094761Y29106666D01*
X60142380Y29011428D01*
X60142380Y28773333D01*
X60094761Y28678095D01*
X60047142Y28630476D01*
%TO.C,R6*%
X60142380Y18884057D02*
X59666190Y18550724D01*
X60142380Y18312628D02*
X59142380Y18312628D01*
X59142380Y18693581D01*
X59190000Y18788819D01*
X59237619Y18836438D01*
X59332857Y18884057D01*
X59475714Y18884057D01*
X59570952Y18836438D01*
X59618571Y18788819D01*
X59666190Y18693581D01*
X59666190Y18312628D01*
X59142380Y19741200D02*
X59142380Y19550724D01*
X59190000Y19455485D01*
X59237619Y19407866D01*
X59380476Y19312628D01*
X59570952Y19265009D01*
X59951904Y19265009D01*
X60047142Y19312628D01*
X60094761Y19360247D01*
X60142380Y19455485D01*
X60142380Y19645962D01*
X60094761Y19741200D01*
X60047142Y19788819D01*
X59951904Y19836438D01*
X59713809Y19836438D01*
X59618571Y19788819D01*
X59570952Y19741200D01*
X59523333Y19645962D01*
X59523333Y19455485D01*
X59570952Y19360247D01*
X59618571Y19312628D01*
X59713809Y19265009D01*
%TO.C,Q2*%
X16498819Y45624761D02*
X16451200Y45529523D01*
X16355961Y45434285D01*
X16213104Y45291428D01*
X16165485Y45196190D01*
X16165485Y45100952D01*
X16403580Y45148571D02*
X16355961Y45053333D01*
X16260723Y44958095D01*
X16070247Y44910476D01*
X15736914Y44910476D01*
X15546438Y44958095D01*
X15451200Y45053333D01*
X15403580Y45148571D01*
X15403580Y45339047D01*
X15451200Y45434285D01*
X15546438Y45529523D01*
X15736914Y45577142D01*
X16070247Y45577142D01*
X16260723Y45529523D01*
X16355961Y45434285D01*
X16403580Y45339047D01*
X16403580Y45148571D01*
X15498819Y45958095D02*
X15451200Y46005714D01*
X15403580Y46100952D01*
X15403580Y46339047D01*
X15451200Y46434285D01*
X15498819Y46481904D01*
X15594057Y46529523D01*
X15689295Y46529523D01*
X15832152Y46481904D01*
X16403580Y45910476D01*
X16403580Y46529523D01*
%TO.C,C6*%
X18282226Y18554524D02*
X18349569Y18554524D01*
X18484256Y18487180D01*
X18551600Y18419836D01*
X18618943Y18285149D01*
X18618943Y18150462D01*
X18585272Y18049447D01*
X18484256Y17881088D01*
X18383241Y17780073D01*
X18214882Y17679058D01*
X18113867Y17645386D01*
X17979180Y17645386D01*
X17844493Y17712730D01*
X17777149Y17780073D01*
X17709806Y17914760D01*
X17709806Y17982104D01*
X17036371Y18520852D02*
X17171058Y18386165D01*
X17272073Y18352493D01*
X17339417Y18352493D01*
X17507775Y18386165D01*
X17676134Y18487180D01*
X17945508Y18756554D01*
X17979180Y18857569D01*
X17979180Y18924913D01*
X17945508Y19025928D01*
X17810821Y19160615D01*
X17709806Y19194287D01*
X17642462Y19194287D01*
X17541447Y19160615D01*
X17373088Y18992256D01*
X17339417Y18891241D01*
X17339417Y18823898D01*
X17373088Y18722882D01*
X17507775Y18588195D01*
X17608791Y18554524D01*
X17676134Y18554524D01*
X17777149Y18588195D01*
%TO.C,D1*%
X17092704Y51363619D02*
X17092704Y52363619D01*
X17330800Y52363619D01*
X17473657Y52316000D01*
X17568895Y52220761D01*
X17616514Y52125523D01*
X17664133Y51935047D01*
X17664133Y51792190D01*
X17616514Y51601714D01*
X17568895Y51506476D01*
X17473657Y51411238D01*
X17330800Y51363619D01*
X17092704Y51363619D01*
X18616514Y51363619D02*
X18045085Y51363619D01*
X18330800Y51363619D02*
X18330800Y52363619D01*
X18235561Y52220761D01*
X18140323Y52125523D01*
X18045085Y52077904D01*
X17786457Y54935428D02*
X17929314Y54887809D01*
X17976933Y54840190D01*
X18024552Y54744952D01*
X18024552Y54602095D01*
X17976933Y54506857D01*
X17929314Y54459238D01*
X17834076Y54411619D01*
X17453123Y54411619D01*
X17453123Y55411619D01*
X17786457Y55411619D01*
X17881695Y55364000D01*
X17929314Y55316380D01*
X17976933Y55221142D01*
X17976933Y55125904D01*
X17929314Y55030666D01*
X17881695Y54983047D01*
X17786457Y54935428D01*
X17453123Y54935428D01*
X18405504Y54697333D02*
X18881695Y54697333D01*
X18310266Y54411619D02*
X18643600Y55411619D01*
X18976933Y54411619D01*
X19310266Y54411619D02*
X19310266Y55411619D01*
X19548361Y55411619D01*
X19691219Y55364000D01*
X19786457Y55268761D01*
X19834076Y55173523D01*
X19881695Y54983047D01*
X19881695Y54840190D01*
X19834076Y54649714D01*
X19786457Y54554476D01*
X19691219Y54459238D01*
X19548361Y54411619D01*
X19310266Y54411619D01*
%TO.C,J13*%
X3160780Y18189676D02*
X3875066Y18189676D01*
X4017923Y18142057D01*
X4113161Y18046819D01*
X4160780Y17903961D01*
X4160780Y17808723D01*
X4160780Y19189676D02*
X4160780Y18618247D01*
X4160780Y18903961D02*
X3160780Y18903961D01*
X3303638Y18808723D01*
X3398876Y18713485D01*
X3446495Y18618247D01*
X3160780Y19523009D02*
X3160780Y20142057D01*
X3541733Y19808723D01*
X3541733Y19951580D01*
X3589352Y20046819D01*
X3636971Y20094438D01*
X3732209Y20142057D01*
X3970304Y20142057D01*
X4065542Y20094438D01*
X4113161Y20046819D01*
X4160780Y19951580D01*
X4160780Y19665866D01*
X4113161Y19570628D01*
X4065542Y19523009D01*
X7875542Y9646114D02*
X7923161Y9598495D01*
X7970780Y9455638D01*
X7970780Y9360400D01*
X7923161Y9217542D01*
X7827923Y9122304D01*
X7732685Y9074685D01*
X7542209Y9027066D01*
X7399352Y9027066D01*
X7208876Y9074685D01*
X7113638Y9122304D01*
X7018400Y9217542D01*
X6970780Y9360400D01*
X6970780Y9455638D01*
X7018400Y9598495D01*
X7066019Y9646114D01*
X7970780Y10217542D02*
X7923161Y10122304D01*
X7875542Y10074685D01*
X7780304Y10027066D01*
X7494590Y10027066D01*
X7399352Y10074685D01*
X7351733Y10122304D01*
X7304114Y10217542D01*
X7304114Y10360400D01*
X7351733Y10455638D01*
X7399352Y10503257D01*
X7494590Y10550876D01*
X7780304Y10550876D01*
X7875542Y10503257D01*
X7923161Y10455638D01*
X7970780Y10360400D01*
X7970780Y10217542D01*
X7970780Y11122304D02*
X7923161Y11027066D01*
X7875542Y10979447D01*
X7780304Y10931828D01*
X7494590Y10931828D01*
X7399352Y10979447D01*
X7351733Y11027066D01*
X7304114Y11122304D01*
X7304114Y11265161D01*
X7351733Y11360400D01*
X7399352Y11408019D01*
X7494590Y11455638D01*
X7780304Y11455638D01*
X7875542Y11408019D01*
X7923161Y11360400D01*
X7970780Y11265161D01*
X7970780Y11122304D01*
X7970780Y12027066D02*
X7923161Y11931828D01*
X7827923Y11884209D01*
X6970780Y11884209D01*
X7970780Y12408019D02*
X7304114Y12408019D01*
X6970780Y12408019D02*
X7018400Y12360400D01*
X7066019Y12408019D01*
X7018400Y12455638D01*
X6970780Y12408019D01*
X7066019Y12408019D01*
X7304114Y12884209D02*
X7970780Y12884209D01*
X7399352Y12884209D02*
X7351733Y12931828D01*
X7304114Y13027066D01*
X7304114Y13169923D01*
X7351733Y13265161D01*
X7446971Y13312780D01*
X7970780Y13312780D01*
X7304114Y14217542D02*
X8113638Y14217542D01*
X8208876Y14169923D01*
X8256495Y14122304D01*
X8304114Y14027066D01*
X8304114Y13884209D01*
X8256495Y13788971D01*
X7923161Y14217542D02*
X7970780Y14122304D01*
X7970780Y13931828D01*
X7923161Y13836590D01*
X7875542Y13788971D01*
X7780304Y13741352D01*
X7494590Y13741352D01*
X7399352Y13788971D01*
X7351733Y13836590D01*
X7304114Y13931828D01*
X7304114Y14122304D01*
X7351733Y14217542D01*
X7446971Y15788971D02*
X7446971Y15455638D01*
X7970780Y15455638D02*
X6970780Y15455638D01*
X6970780Y15931828D01*
X7970780Y16741352D02*
X7446971Y16741352D01*
X7351733Y16693733D01*
X7304114Y16598495D01*
X7304114Y16408019D01*
X7351733Y16312780D01*
X7923161Y16741352D02*
X7970780Y16646114D01*
X7970780Y16408019D01*
X7923161Y16312780D01*
X7827923Y16265161D01*
X7732685Y16265161D01*
X7637447Y16312780D01*
X7589828Y16408019D01*
X7589828Y16646114D01*
X7542209Y16741352D01*
X7304114Y17217542D02*
X7970780Y17217542D01*
X7399352Y17217542D02*
X7351733Y17265161D01*
X7304114Y17360400D01*
X7304114Y17503257D01*
X7351733Y17598495D01*
X7446971Y17646114D01*
X7970780Y17646114D01*
%TO.C,J4*%
X77136666Y47347619D02*
X77136666Y46633333D01*
X77089047Y46490476D01*
X76993809Y46395238D01*
X76850952Y46347619D01*
X76755714Y46347619D01*
X78041428Y47014285D02*
X78041428Y46347619D01*
X77803333Y47395238D02*
X77565238Y46680952D01*
X78184285Y46680952D01*
X74160476Y54871428D02*
X74303333Y54823809D01*
X74350952Y54776190D01*
X74398571Y54680952D01*
X74398571Y54538095D01*
X74350952Y54442857D01*
X74303333Y54395238D01*
X74208095Y54347619D01*
X73827142Y54347619D01*
X73827142Y55347619D01*
X74160476Y55347619D01*
X74255714Y55300000D01*
X74303333Y55252380D01*
X74350952Y55157142D01*
X74350952Y55061904D01*
X74303333Y54966666D01*
X74255714Y54919047D01*
X74160476Y54871428D01*
X73827142Y54871428D01*
X74779523Y54633333D02*
X75255714Y54633333D01*
X74684285Y54347619D02*
X75017619Y55347619D01*
X75350952Y54347619D01*
X75541428Y55347619D02*
X76112857Y55347619D01*
X75827142Y54347619D02*
X75827142Y55347619D01*
X76303333Y55347619D02*
X76874761Y55347619D01*
X76589047Y54347619D02*
X76589047Y55347619D01*
X76970000Y54252380D02*
X77731904Y54252380D01*
X78255714Y55347619D02*
X78255714Y54633333D01*
X78208095Y54490476D01*
X78112857Y54395238D01*
X77970000Y54347619D01*
X77874761Y54347619D01*
X78684285Y54633333D02*
X79160476Y54633333D01*
X78589047Y54347619D02*
X78922380Y55347619D01*
X79255714Y54347619D01*
X80160476Y54442857D02*
X80112857Y54395238D01*
X79970000Y54347619D01*
X79874761Y54347619D01*
X79731904Y54395238D01*
X79636666Y54490476D01*
X79589047Y54585714D01*
X79541428Y54776190D01*
X79541428Y54919047D01*
X79589047Y55109523D01*
X79636666Y55204761D01*
X79731904Y55300000D01*
X79874761Y55347619D01*
X79970000Y55347619D01*
X80112857Y55300000D01*
X80160476Y55252380D01*
X80589047Y54347619D02*
X80589047Y55347619D01*
X81160476Y54347619D02*
X80731904Y54919047D01*
X81160476Y55347619D02*
X80589047Y54776190D01*
X83398571Y50692857D02*
X84541428Y50692857D01*
X70398571Y50692857D02*
X71541428Y50692857D01*
X70970000Y50121428D02*
X70970000Y51264285D01*
%TO.C,J15*%
X37646076Y1462019D02*
X37646076Y747733D01*
X37598457Y604876D01*
X37503219Y509638D01*
X37360361Y462019D01*
X37265123Y462019D01*
X38646076Y462019D02*
X38074647Y462019D01*
X38360361Y462019D02*
X38360361Y1462019D01*
X38265123Y1319161D01*
X38169885Y1223923D01*
X38074647Y1176304D01*
X39550838Y1462019D02*
X39074647Y1462019D01*
X39027028Y985828D01*
X39074647Y1033447D01*
X39169885Y1081066D01*
X39407980Y1081066D01*
X39503219Y1033447D01*
X39550838Y985828D01*
X39598457Y890590D01*
X39598457Y652495D01*
X39550838Y557257D01*
X39503219Y509638D01*
X39407980Y462019D01*
X39169885Y462019D01*
X39074647Y509638D01*
X39027028Y557257D01*
X31935942Y7218419D02*
X31935942Y8218419D01*
X32507371Y7218419D01*
X32507371Y8218419D01*
X33554990Y7218419D02*
X33221657Y7694609D01*
X32983561Y7218419D02*
X32983561Y8218419D01*
X33364514Y8218419D01*
X33459752Y8170800D01*
X33507371Y8123180D01*
X33554990Y8027942D01*
X33554990Y7885085D01*
X33507371Y7789847D01*
X33459752Y7742228D01*
X33364514Y7694609D01*
X32983561Y7694609D01*
X33935942Y7266038D02*
X34078800Y7218419D01*
X34316895Y7218419D01*
X34412133Y7266038D01*
X34459752Y7313657D01*
X34507371Y7408895D01*
X34507371Y7504133D01*
X34459752Y7599371D01*
X34412133Y7646990D01*
X34316895Y7694609D01*
X34126419Y7742228D01*
X34031180Y7789847D01*
X33983561Y7837466D01*
X33935942Y7932704D01*
X33935942Y8027942D01*
X33983561Y8123180D01*
X34031180Y8170800D01*
X34126419Y8218419D01*
X34364514Y8218419D01*
X34507371Y8170800D01*
X34793085Y8218419D02*
X35364514Y8218419D01*
X35078800Y7218419D02*
X35078800Y8218419D01*
%TO.C,R1*%
X22644380Y33234333D02*
X22168190Y32901000D01*
X22644380Y32662904D02*
X21644380Y32662904D01*
X21644380Y33043857D01*
X21692000Y33139095D01*
X21739619Y33186714D01*
X21834857Y33234333D01*
X21977714Y33234333D01*
X22072952Y33186714D01*
X22120571Y33139095D01*
X22168190Y33043857D01*
X22168190Y32662904D01*
X22644380Y34186714D02*
X22644380Y33615285D01*
X22644380Y33901000D02*
X21644380Y33901000D01*
X21787238Y33805761D01*
X21882476Y33710523D01*
X21930095Y33615285D01*
%TO.C,J10*%
X27079676Y47740819D02*
X27079676Y47026533D01*
X27032057Y46883676D01*
X26936819Y46788438D01*
X26793961Y46740819D01*
X26698723Y46740819D01*
X28079676Y46740819D02*
X27508247Y46740819D01*
X27793961Y46740819D02*
X27793961Y47740819D01*
X27698723Y47597961D01*
X27603485Y47502723D01*
X27508247Y47455104D01*
X28698723Y47740819D02*
X28793961Y47740819D01*
X28889200Y47693200D01*
X28936819Y47645580D01*
X28984438Y47550342D01*
X29032057Y47359866D01*
X29032057Y47121771D01*
X28984438Y46931295D01*
X28936819Y46836057D01*
X28889200Y46788438D01*
X28793961Y46740819D01*
X28698723Y46740819D01*
X28603485Y46788438D01*
X28555866Y46836057D01*
X28508247Y46931295D01*
X28460628Y47121771D01*
X28460628Y47359866D01*
X28508247Y47550342D01*
X28555866Y47645580D01*
X28603485Y47693200D01*
X28698723Y47740819D01*
X21487142Y54208419D02*
X21010952Y54208419D01*
X21010952Y55208419D01*
X21820476Y54208419D02*
X21820476Y55208419D01*
X22296666Y54208419D02*
X22296666Y55208419D01*
X22868095Y54208419D01*
X22868095Y55208419D01*
X23344285Y54732228D02*
X23677619Y54732228D01*
X23820476Y54208419D02*
X23344285Y54208419D01*
X23344285Y55208419D01*
X23820476Y55208419D01*
X24010952Y54113180D02*
X24772857Y54113180D01*
X25487142Y54208419D02*
X25010952Y54208419D01*
X25010952Y55208419D01*
X25820476Y54732228D02*
X26153809Y54732228D01*
X26296666Y54208419D02*
X25820476Y54208419D01*
X25820476Y55208419D01*
X26296666Y55208419D01*
X26725238Y54208419D02*
X26725238Y55208419D01*
X26963333Y55208419D01*
X27106190Y55160800D01*
X27201428Y55065561D01*
X27249047Y54970323D01*
X27296666Y54779847D01*
X27296666Y54636990D01*
X27249047Y54446514D01*
X27201428Y54351276D01*
X27106190Y54256038D01*
X26963333Y54208419D01*
X26725238Y54208419D01*
%TO.C,J7*%
X9822380Y4746666D02*
X10536666Y4746666D01*
X10679523Y4699047D01*
X10774761Y4603809D01*
X10822380Y4460952D01*
X10822380Y4365714D01*
X9822380Y5127619D02*
X9822380Y5794285D01*
X10822380Y5365714D01*
X24222380Y2699047D02*
X23746190Y2365714D01*
X24222380Y2127619D02*
X23222380Y2127619D01*
X23222380Y2508571D01*
X23270000Y2603809D01*
X23317619Y2651428D01*
X23412857Y2699047D01*
X23555714Y2699047D01*
X23650952Y2651428D01*
X23698571Y2603809D01*
X23746190Y2508571D01*
X23746190Y2127619D01*
X24222380Y3127619D02*
X23222380Y3127619D01*
X23222380Y3508571D01*
X23270000Y3603809D01*
X23317619Y3651428D01*
X23412857Y3699047D01*
X23555714Y3699047D01*
X23650952Y3651428D01*
X23698571Y3603809D01*
X23746190Y3508571D01*
X23746190Y3127619D01*
X24222380Y4127619D02*
X23222380Y4127619D01*
X24317619Y4365714D02*
X24317619Y5127619D01*
X24222380Y5365714D02*
X23222380Y5365714D01*
X23222380Y5746666D01*
X23270000Y5841904D01*
X23317619Y5889523D01*
X23412857Y5937142D01*
X23555714Y5937142D01*
X23650952Y5889523D01*
X23698571Y5841904D01*
X23746190Y5746666D01*
X23746190Y5365714D01*
X23222380Y6270476D02*
X24222380Y6508571D01*
X23508095Y6699047D01*
X24222380Y6889523D01*
X23222380Y7127619D01*
X24222380Y8080000D02*
X23746190Y7746666D01*
X24222380Y7508571D02*
X23222380Y7508571D01*
X23222380Y7889523D01*
X23270000Y7984761D01*
X23317619Y8032380D01*
X23412857Y8080000D01*
X23555714Y8080000D01*
X23650952Y8032380D01*
X23698571Y7984761D01*
X23746190Y7889523D01*
X23746190Y7508571D01*
%TO.C,C15*%
X32885142Y11105857D02*
X32837523Y11058238D01*
X32694666Y11010619D01*
X32599428Y11010619D01*
X32456571Y11058238D01*
X32361333Y11153476D01*
X32313714Y11248714D01*
X32266095Y11439190D01*
X32266095Y11582047D01*
X32313714Y11772523D01*
X32361333Y11867761D01*
X32456571Y11963000D01*
X32599428Y12010619D01*
X32694666Y12010619D01*
X32837523Y11963000D01*
X32885142Y11915380D01*
X33837523Y11010619D02*
X33266095Y11010619D01*
X33551809Y11010619D02*
X33551809Y12010619D01*
X33456571Y11867761D01*
X33361333Y11772523D01*
X33266095Y11724904D01*
X34742285Y12010619D02*
X34266095Y12010619D01*
X34218476Y11534428D01*
X34266095Y11582047D01*
X34361333Y11629666D01*
X34599428Y11629666D01*
X34694666Y11582047D01*
X34742285Y11534428D01*
X34789904Y11439190D01*
X34789904Y11201095D01*
X34742285Y11105857D01*
X34694666Y11058238D01*
X34599428Y11010619D01*
X34361333Y11010619D01*
X34266095Y11058238D01*
X34218476Y11105857D01*
%TO.C,D4*%
X12596904Y51363619D02*
X12596904Y52363619D01*
X12835000Y52363619D01*
X12977857Y52316000D01*
X13073095Y52220761D01*
X13120714Y52125523D01*
X13168333Y51935047D01*
X13168333Y51792190D01*
X13120714Y51601714D01*
X13073095Y51506476D01*
X12977857Y51411238D01*
X12835000Y51363619D01*
X12596904Y51363619D01*
X14025476Y52030285D02*
X14025476Y51363619D01*
X13787380Y52411238D02*
X13549285Y51696952D01*
X14168333Y51696952D01*
X10798514Y54411619D02*
X10798514Y55411619D01*
X11369942Y54411619D01*
X11369942Y55411619D01*
X12036609Y55411619D02*
X12227085Y55411619D01*
X12322323Y55364000D01*
X12417561Y55268761D01*
X12465180Y55078285D01*
X12465180Y54744952D01*
X12417561Y54554476D01*
X12322323Y54459238D01*
X12227085Y54411619D01*
X12036609Y54411619D01*
X11941371Y54459238D01*
X11846133Y54554476D01*
X11798514Y54744952D01*
X11798514Y55078285D01*
X11846133Y55268761D01*
X11941371Y55364000D01*
X12036609Y55411619D01*
X13465180Y54411619D02*
X13131847Y54887809D01*
X12893752Y54411619D02*
X12893752Y55411619D01*
X13274704Y55411619D01*
X13369942Y55364000D01*
X13417561Y55316380D01*
X13465180Y55221142D01*
X13465180Y55078285D01*
X13417561Y54983047D01*
X13369942Y54935428D01*
X13274704Y54887809D01*
X12893752Y54887809D01*
X13893752Y54411619D02*
X13893752Y55411619D01*
X14227085Y54697333D01*
X14560419Y55411619D01*
X14560419Y54411619D01*
X14988990Y54697333D02*
X15465180Y54697333D01*
X14893752Y54411619D02*
X15227085Y55411619D01*
X15560419Y54411619D01*
X16369942Y54411619D02*
X15893752Y54411619D01*
X15893752Y55411619D01*
%TO.C,R7*%
X18883333Y48061619D02*
X18550000Y48537809D01*
X18311904Y48061619D02*
X18311904Y49061619D01*
X18692857Y49061619D01*
X18788095Y49014000D01*
X18835714Y48966380D01*
X18883333Y48871142D01*
X18883333Y48728285D01*
X18835714Y48633047D01*
X18788095Y48585428D01*
X18692857Y48537809D01*
X18311904Y48537809D01*
X19216666Y49061619D02*
X19883333Y49061619D01*
X19454761Y48061619D01*
%TO.C,C12*%
X44442142Y30277857D02*
X44394523Y30230238D01*
X44251666Y30182619D01*
X44156428Y30182619D01*
X44013571Y30230238D01*
X43918333Y30325476D01*
X43870714Y30420714D01*
X43823095Y30611190D01*
X43823095Y30754047D01*
X43870714Y30944523D01*
X43918333Y31039761D01*
X44013571Y31135000D01*
X44156428Y31182619D01*
X44251666Y31182619D01*
X44394523Y31135000D01*
X44442142Y31087380D01*
X45394523Y30182619D02*
X44823095Y30182619D01*
X45108809Y30182619D02*
X45108809Y31182619D01*
X45013571Y31039761D01*
X44918333Y30944523D01*
X44823095Y30896904D01*
X45775476Y31087380D02*
X45823095Y31135000D01*
X45918333Y31182619D01*
X46156428Y31182619D01*
X46251666Y31135000D01*
X46299285Y31087380D01*
X46346904Y30992142D01*
X46346904Y30896904D01*
X46299285Y30754047D01*
X45727857Y30182619D01*
X46346904Y30182619D01*
%TO.C,R11*%
X41760380Y21201142D02*
X41284190Y20867809D01*
X41760380Y20629714D02*
X40760380Y20629714D01*
X40760380Y21010666D01*
X40808000Y21105904D01*
X40855619Y21153523D01*
X40950857Y21201142D01*
X41093714Y21201142D01*
X41188952Y21153523D01*
X41236571Y21105904D01*
X41284190Y21010666D01*
X41284190Y20629714D01*
X41760380Y22153523D02*
X41760380Y21582095D01*
X41760380Y21867809D02*
X40760380Y21867809D01*
X40903238Y21772571D01*
X40998476Y21677333D01*
X41046095Y21582095D01*
X41760380Y23105904D02*
X41760380Y22534476D01*
X41760380Y22820190D02*
X40760380Y22820190D01*
X40903238Y22724952D01*
X40998476Y22629714D01*
X41046095Y22534476D01*
%TO.C,Q1*%
X30964419Y44862761D02*
X30916800Y44767523D01*
X30821561Y44672285D01*
X30678704Y44529428D01*
X30631085Y44434190D01*
X30631085Y44338952D01*
X30869180Y44386571D02*
X30821561Y44291333D01*
X30726323Y44196095D01*
X30535847Y44148476D01*
X30202514Y44148476D01*
X30012038Y44196095D01*
X29916800Y44291333D01*
X29869180Y44386571D01*
X29869180Y44577047D01*
X29916800Y44672285D01*
X30012038Y44767523D01*
X30202514Y44815142D01*
X30535847Y44815142D01*
X30726323Y44767523D01*
X30821561Y44672285D01*
X30869180Y44577047D01*
X30869180Y44386571D01*
X30869180Y45767523D02*
X30869180Y45196095D01*
X30869180Y45481809D02*
X29869180Y45481809D01*
X30012038Y45386571D01*
X30107276Y45291333D01*
X30154895Y45196095D01*
%TO.C,D7*%
X41981380Y4214904D02*
X40981380Y4214904D01*
X40981380Y4453000D01*
X41029000Y4595857D01*
X41124238Y4691095D01*
X41219476Y4738714D01*
X41409952Y4786333D01*
X41552809Y4786333D01*
X41743285Y4738714D01*
X41838523Y4691095D01*
X41933761Y4595857D01*
X41981380Y4453000D01*
X41981380Y4214904D01*
X40981380Y5119666D02*
X40981380Y5786333D01*
X41981380Y5357761D01*
%TO.C,J6*%
X79676666Y19247619D02*
X79676666Y18533333D01*
X79629047Y18390476D01*
X79533809Y18295238D01*
X79390952Y18247619D01*
X79295714Y18247619D01*
X80581428Y19247619D02*
X80390952Y19247619D01*
X80295714Y19200000D01*
X80248095Y19152380D01*
X80152857Y19009523D01*
X80105238Y18819047D01*
X80105238Y18438095D01*
X80152857Y18342857D01*
X80200476Y18295238D01*
X80295714Y18247619D01*
X80486190Y18247619D01*
X80581428Y18295238D01*
X80629047Y18342857D01*
X80676666Y18438095D01*
X80676666Y18676190D01*
X80629047Y18771428D01*
X80581428Y18819047D01*
X80486190Y18866666D01*
X80295714Y18866666D01*
X80200476Y18819047D01*
X80152857Y18771428D01*
X80105238Y18676190D01*
X83373980Y23863466D02*
X83373980Y23387276D01*
X83850171Y23339657D01*
X83802552Y23387276D01*
X83754933Y23482514D01*
X83754933Y23720609D01*
X83802552Y23815847D01*
X83850171Y23863466D01*
X83945409Y23911085D01*
X84183504Y23911085D01*
X84278742Y23863466D01*
X84326361Y23815847D01*
X84373980Y23720609D01*
X84373980Y23482514D01*
X84326361Y23387276D01*
X84278742Y23339657D01*
X83373980Y24196800D02*
X84373980Y24530133D01*
X83373980Y24863466D01*
X84469219Y24958704D02*
X84469219Y25720609D01*
X84373980Y25958704D02*
X83373980Y25958704D01*
X84373980Y26434895D02*
X83373980Y26434895D01*
X84373980Y27006323D01*
X83373980Y27006323D01*
%TO.C,C13*%
X57352142Y20185142D02*
X57399761Y20137523D01*
X57447380Y19994666D01*
X57447380Y19899428D01*
X57399761Y19756571D01*
X57304523Y19661333D01*
X57209285Y19613714D01*
X57018809Y19566095D01*
X56875952Y19566095D01*
X56685476Y19613714D01*
X56590238Y19661333D01*
X56495000Y19756571D01*
X56447380Y19899428D01*
X56447380Y19994666D01*
X56495000Y20137523D01*
X56542619Y20185142D01*
X57447380Y21137523D02*
X57447380Y20566095D01*
X57447380Y20851809D02*
X56447380Y20851809D01*
X56590238Y20756571D01*
X56685476Y20661333D01*
X56733095Y20566095D01*
X56447380Y21470857D02*
X56447380Y22089904D01*
X56828333Y21756571D01*
X56828333Y21899428D01*
X56875952Y21994666D01*
X56923571Y22042285D01*
X57018809Y22089904D01*
X57256904Y22089904D01*
X57352142Y22042285D01*
X57399761Y21994666D01*
X57447380Y21899428D01*
X57447380Y21613714D01*
X57399761Y21518476D01*
X57352142Y21470857D01*
%TO.C,J3*%
X37106266Y48299619D02*
X37106266Y47585333D01*
X37058647Y47442476D01*
X36963409Y47347238D01*
X36820552Y47299619D01*
X36725314Y47299619D01*
X37487219Y48299619D02*
X38106266Y48299619D01*
X37772933Y47918666D01*
X37915790Y47918666D01*
X38011028Y47871047D01*
X38058647Y47823428D01*
X38106266Y47728190D01*
X38106266Y47490095D01*
X38058647Y47394857D01*
X38011028Y47347238D01*
X37915790Y47299619D01*
X37630076Y47299619D01*
X37534838Y47347238D01*
X37487219Y47394857D01*
X28077257Y54205238D02*
X28220114Y54157619D01*
X28458209Y54157619D01*
X28553447Y54205238D01*
X28601066Y54252857D01*
X28648685Y54348095D01*
X28648685Y54443333D01*
X28601066Y54538571D01*
X28553447Y54586190D01*
X28458209Y54633809D01*
X28267733Y54681428D01*
X28172495Y54729047D01*
X28124876Y54776666D01*
X28077257Y54871904D01*
X28077257Y54967142D01*
X28124876Y55062380D01*
X28172495Y55110000D01*
X28267733Y55157619D01*
X28505828Y55157619D01*
X28648685Y55110000D01*
X29077257Y55157619D02*
X29077257Y54348095D01*
X29124876Y54252857D01*
X29172495Y54205238D01*
X29267733Y54157619D01*
X29458209Y54157619D01*
X29553447Y54205238D01*
X29601066Y54252857D01*
X29648685Y54348095D01*
X29648685Y55157619D01*
X30696304Y54252857D02*
X30648685Y54205238D01*
X30505828Y54157619D01*
X30410590Y54157619D01*
X30267733Y54205238D01*
X30172495Y54300476D01*
X30124876Y54395714D01*
X30077257Y54586190D01*
X30077257Y54729047D01*
X30124876Y54919523D01*
X30172495Y55014761D01*
X30267733Y55110000D01*
X30410590Y55157619D01*
X30505828Y55157619D01*
X30648685Y55110000D01*
X30696304Y55062380D01*
X30982019Y55157619D02*
X31553447Y55157619D01*
X31267733Y54157619D02*
X31267733Y55157619D01*
X31886780Y54157619D02*
X31886780Y55157619D01*
X32553447Y55157619D02*
X32743923Y55157619D01*
X32839161Y55110000D01*
X32934400Y55014761D01*
X32982019Y54824285D01*
X32982019Y54490952D01*
X32934400Y54300476D01*
X32839161Y54205238D01*
X32743923Y54157619D01*
X32553447Y54157619D01*
X32458209Y54205238D01*
X32362971Y54300476D01*
X32315352Y54490952D01*
X32315352Y54824285D01*
X32362971Y55014761D01*
X32458209Y55110000D01*
X32553447Y55157619D01*
X33410590Y54157619D02*
X33410590Y55157619D01*
X33982019Y54157619D01*
X33982019Y55157619D01*
X34220114Y54062380D02*
X34982019Y54062380D01*
X35220114Y54157619D02*
X35220114Y55157619D01*
X35553447Y54443333D01*
X35886780Y55157619D01*
X35886780Y54157619D01*
X36553447Y55157619D02*
X36743923Y55157619D01*
X36839161Y55110000D01*
X36934400Y55014761D01*
X36982019Y54824285D01*
X36982019Y54490952D01*
X36934400Y54300476D01*
X36839161Y54205238D01*
X36743923Y54157619D01*
X36553447Y54157619D01*
X36458209Y54205238D01*
X36362971Y54300476D01*
X36315352Y54490952D01*
X36315352Y54824285D01*
X36362971Y55014761D01*
X36458209Y55110000D01*
X36553447Y55157619D01*
X37267733Y55157619D02*
X37839161Y55157619D01*
X37553447Y54157619D02*
X37553447Y55157619D01*
X38362971Y55157619D02*
X38553447Y55157619D01*
X38648685Y55110000D01*
X38743923Y55014761D01*
X38791542Y54824285D01*
X38791542Y54490952D01*
X38743923Y54300476D01*
X38648685Y54205238D01*
X38553447Y54157619D01*
X38362971Y54157619D01*
X38267733Y54205238D01*
X38172495Y54300476D01*
X38124876Y54490952D01*
X38124876Y54824285D01*
X38172495Y55014761D01*
X38267733Y55110000D01*
X38362971Y55157619D01*
X39791542Y54157619D02*
X39458209Y54633809D01*
X39220114Y54157619D02*
X39220114Y55157619D01*
X39601066Y55157619D01*
X39696304Y55110000D01*
X39743923Y55062380D01*
X39791542Y54967142D01*
X39791542Y54824285D01*
X39743923Y54729047D01*
X39696304Y54681428D01*
X39601066Y54633809D01*
X39220114Y54633809D01*
%TO.C,LS1*%
X13101580Y41902142D02*
X13101580Y41425952D01*
X12101580Y41425952D01*
X13053961Y42187857D02*
X13101580Y42330714D01*
X13101580Y42568809D01*
X13053961Y42664047D01*
X13006342Y42711666D01*
X12911104Y42759285D01*
X12815866Y42759285D01*
X12720628Y42711666D01*
X12673009Y42664047D01*
X12625390Y42568809D01*
X12577771Y42378333D01*
X12530152Y42283095D01*
X12482533Y42235476D01*
X12387295Y42187857D01*
X12292057Y42187857D01*
X12196819Y42235476D01*
X12149200Y42283095D01*
X12101580Y42378333D01*
X12101580Y42616428D01*
X12149200Y42759285D01*
X13101580Y43711666D02*
X13101580Y43140238D01*
X13101580Y43425952D02*
X12101580Y43425952D01*
X12244438Y43330714D01*
X12339676Y43235476D01*
X12387295Y43140238D01*
X6786571Y41528952D02*
X6786571Y40767047D01*
X6405619Y41148000D02*
X7167523Y41148000D01*
%TO.C,Y1*%
X20553817Y20134382D02*
X20890535Y20471100D01*
X20419130Y19528291D02*
X20553817Y20134382D01*
X19947726Y19999695D01*
X20048741Y21312893D02*
X20452802Y20908832D01*
X20250771Y21110863D02*
X19543665Y20403756D01*
X19712023Y20437428D01*
X19846710Y20437428D01*
X19947726Y20403756D01*
%TO.C,J2*%
X57273866Y39816019D02*
X57273866Y39101733D01*
X57226247Y38958876D01*
X57131009Y38863638D01*
X56988152Y38816019D01*
X56892914Y38816019D01*
X57702438Y39720780D02*
X57750057Y39768400D01*
X57845295Y39816019D01*
X58083390Y39816019D01*
X58178628Y39768400D01*
X58226247Y39720780D01*
X58273866Y39625542D01*
X58273866Y39530304D01*
X58226247Y39387447D01*
X57654819Y38816019D01*
X58273866Y38816019D01*
X44355142Y45470819D02*
X44355142Y46470819D01*
X44688476Y45756533D01*
X45021809Y46470819D01*
X45021809Y45470819D01*
X45688476Y46470819D02*
X45878952Y46470819D01*
X45974190Y46423200D01*
X46069428Y46327961D01*
X46117047Y46137485D01*
X46117047Y45804152D01*
X46069428Y45613676D01*
X45974190Y45518438D01*
X45878952Y45470819D01*
X45688476Y45470819D01*
X45593238Y45518438D01*
X45498000Y45613676D01*
X45450380Y45804152D01*
X45450380Y46137485D01*
X45498000Y46327961D01*
X45593238Y46423200D01*
X45688476Y46470819D01*
X46402761Y46470819D02*
X46974190Y46470819D01*
X46688476Y45470819D02*
X46688476Y46470819D01*
X47498000Y46470819D02*
X47688476Y46470819D01*
X47783714Y46423200D01*
X47878952Y46327961D01*
X47926571Y46137485D01*
X47926571Y45804152D01*
X47878952Y45613676D01*
X47783714Y45518438D01*
X47688476Y45470819D01*
X47498000Y45470819D01*
X47402761Y45518438D01*
X47307523Y45613676D01*
X47259904Y45804152D01*
X47259904Y46137485D01*
X47307523Y46327961D01*
X47402761Y46423200D01*
X47498000Y46470819D01*
X48926571Y45470819D02*
X48593238Y45947009D01*
X48355142Y45470819D02*
X48355142Y46470819D01*
X48736095Y46470819D01*
X48831333Y46423200D01*
X48878952Y46375580D01*
X48926571Y46280342D01*
X48926571Y46137485D01*
X48878952Y46042247D01*
X48831333Y45994628D01*
X48736095Y45947009D01*
X48355142Y45947009D01*
X49117047Y45375580D02*
X49878952Y45375580D01*
X50688476Y45470819D02*
X50355142Y45947009D01*
X50117047Y45470819D02*
X50117047Y46470819D01*
X50498000Y46470819D01*
X50593238Y46423200D01*
X50640857Y46375580D01*
X50688476Y46280342D01*
X50688476Y46137485D01*
X50640857Y46042247D01*
X50593238Y45994628D01*
X50498000Y45947009D01*
X50117047Y45947009D01*
%TO.C,R8*%
X72682380Y39838333D02*
X72206190Y39505000D01*
X72682380Y39266904D02*
X71682380Y39266904D01*
X71682380Y39647857D01*
X71730000Y39743095D01*
X71777619Y39790714D01*
X71872857Y39838333D01*
X72015714Y39838333D01*
X72110952Y39790714D01*
X72158571Y39743095D01*
X72206190Y39647857D01*
X72206190Y39266904D01*
X72110952Y40409761D02*
X72063333Y40314523D01*
X72015714Y40266904D01*
X71920476Y40219285D01*
X71872857Y40219285D01*
X71777619Y40266904D01*
X71730000Y40314523D01*
X71682380Y40409761D01*
X71682380Y40600238D01*
X71730000Y40695476D01*
X71777619Y40743095D01*
X71872857Y40790714D01*
X71920476Y40790714D01*
X72015714Y40743095D01*
X72063333Y40695476D01*
X72110952Y40600238D01*
X72110952Y40409761D01*
X72158571Y40314523D01*
X72206190Y40266904D01*
X72301428Y40219285D01*
X72491904Y40219285D01*
X72587142Y40266904D01*
X72634761Y40314523D01*
X72682380Y40409761D01*
X72682380Y40600238D01*
X72634761Y40695476D01*
X72587142Y40743095D01*
X72491904Y40790714D01*
X72301428Y40790714D01*
X72206190Y40743095D01*
X72158571Y40695476D01*
X72110952Y40600238D01*
%TO.C,R10*%
X14343142Y48188619D02*
X14009809Y48664809D01*
X13771714Y48188619D02*
X13771714Y49188619D01*
X14152666Y49188619D01*
X14247904Y49141000D01*
X14295523Y49093380D01*
X14343142Y48998142D01*
X14343142Y48855285D01*
X14295523Y48760047D01*
X14247904Y48712428D01*
X14152666Y48664809D01*
X13771714Y48664809D01*
X15295523Y48188619D02*
X14724095Y48188619D01*
X15009809Y48188619D02*
X15009809Y49188619D01*
X14914571Y49045761D01*
X14819333Y48950523D01*
X14724095Y48902904D01*
X15914571Y49188619D02*
X16009809Y49188619D01*
X16105047Y49141000D01*
X16152666Y49093380D01*
X16200285Y48998142D01*
X16247904Y48807666D01*
X16247904Y48569571D01*
X16200285Y48379095D01*
X16152666Y48283857D01*
X16105047Y48236238D01*
X16009809Y48188619D01*
X15914571Y48188619D01*
X15819333Y48236238D01*
X15771714Y48283857D01*
X15724095Y48379095D01*
X15676476Y48569571D01*
X15676476Y48807666D01*
X15724095Y48998142D01*
X15771714Y49093380D01*
X15819333Y49141000D01*
X15914571Y49188619D01*
%TO.C,JP2*%
X63174666Y11215619D02*
X63174666Y10501333D01*
X63127047Y10358476D01*
X63031809Y10263238D01*
X62888952Y10215619D01*
X62793714Y10215619D01*
X63650857Y10215619D02*
X63650857Y11215619D01*
X64031809Y11215619D01*
X64127047Y11168000D01*
X64174666Y11120380D01*
X64222285Y11025142D01*
X64222285Y10882285D01*
X64174666Y10787047D01*
X64127047Y10739428D01*
X64031809Y10691809D01*
X63650857Y10691809D01*
X64603238Y11120380D02*
X64650857Y11168000D01*
X64746095Y11215619D01*
X64984190Y11215619D01*
X65079428Y11168000D01*
X65127047Y11120380D01*
X65174666Y11025142D01*
X65174666Y10929904D01*
X65127047Y10787047D01*
X64555619Y10215619D01*
X65174666Y10215619D01*
%TO.C,R3*%
X38171380Y41108333D02*
X37695190Y40775000D01*
X38171380Y40536904D02*
X37171380Y40536904D01*
X37171380Y40917857D01*
X37219000Y41013095D01*
X37266619Y41060714D01*
X37361857Y41108333D01*
X37504714Y41108333D01*
X37599952Y41060714D01*
X37647571Y41013095D01*
X37695190Y40917857D01*
X37695190Y40536904D01*
X37171380Y41441666D02*
X37171380Y42060714D01*
X37552333Y41727380D01*
X37552333Y41870238D01*
X37599952Y41965476D01*
X37647571Y42013095D01*
X37742809Y42060714D01*
X37980904Y42060714D01*
X38076142Y42013095D01*
X38123761Y41965476D01*
X38171380Y41870238D01*
X38171380Y41584523D01*
X38123761Y41489285D01*
X38076142Y41441666D01*
%TO.C,R2*%
X29297333Y20215619D02*
X28964000Y20691809D01*
X28725904Y20215619D02*
X28725904Y21215619D01*
X29106857Y21215619D01*
X29202095Y21168000D01*
X29249714Y21120380D01*
X29297333Y21025142D01*
X29297333Y20882285D01*
X29249714Y20787047D01*
X29202095Y20739428D01*
X29106857Y20691809D01*
X28725904Y20691809D01*
X29678285Y21120380D02*
X29725904Y21168000D01*
X29821142Y21215619D01*
X30059238Y21215619D01*
X30154476Y21168000D01*
X30202095Y21120380D01*
X30249714Y21025142D01*
X30249714Y20929904D01*
X30202095Y20787047D01*
X29630666Y20215619D01*
X30249714Y20215619D01*
%TO.C,D5*%
X38900380Y17422904D02*
X37900380Y17422904D01*
X37900380Y17661000D01*
X37948000Y17803857D01*
X38043238Y17899095D01*
X38138476Y17946714D01*
X38328952Y17994333D01*
X38471809Y17994333D01*
X38662285Y17946714D01*
X38757523Y17899095D01*
X38852761Y17803857D01*
X38900380Y17661000D01*
X38900380Y17422904D01*
X37900380Y18899095D02*
X37900380Y18422904D01*
X38376571Y18375285D01*
X38328952Y18422904D01*
X38281333Y18518142D01*
X38281333Y18756238D01*
X38328952Y18851476D01*
X38376571Y18899095D01*
X38471809Y18946714D01*
X38709904Y18946714D01*
X38805142Y18899095D01*
X38852761Y18851476D01*
X38900380Y18756238D01*
X38900380Y18518142D01*
X38852761Y18422904D01*
X38805142Y18375285D01*
%TO.C,U1*%
X25479380Y29591095D02*
X26288904Y29591095D01*
X26384142Y29638714D01*
X26431761Y29686333D01*
X26479380Y29781571D01*
X26479380Y29972047D01*
X26431761Y30067285D01*
X26384142Y30114904D01*
X26288904Y30162523D01*
X25479380Y30162523D01*
X26479380Y31162523D02*
X26479380Y30591095D01*
X26479380Y30876809D02*
X25479380Y30876809D01*
X25622238Y30781571D01*
X25717476Y30686333D01*
X25765095Y30591095D01*
%TO.C,U2*%
X41307380Y24638095D02*
X42116904Y24638095D01*
X42212142Y24685714D01*
X42259761Y24733333D01*
X42307380Y24828571D01*
X42307380Y25019047D01*
X42259761Y25114285D01*
X42212142Y25161904D01*
X42116904Y25209523D01*
X41307380Y25209523D01*
X41402619Y25638095D02*
X41355000Y25685714D01*
X41307380Y25780952D01*
X41307380Y26019047D01*
X41355000Y26114285D01*
X41402619Y26161904D01*
X41497857Y26209523D01*
X41593095Y26209523D01*
X41735952Y26161904D01*
X42307380Y25590476D01*
X42307380Y26209523D01*
%TO.C,J8*%
X63166666Y46617619D02*
X63166666Y45903333D01*
X63119047Y45760476D01*
X63023809Y45665238D01*
X62880952Y45617619D01*
X62785714Y45617619D01*
X63785714Y46189047D02*
X63690476Y46236666D01*
X63642857Y46284285D01*
X63595238Y46379523D01*
X63595238Y46427142D01*
X63642857Y46522380D01*
X63690476Y46570000D01*
X63785714Y46617619D01*
X63976190Y46617619D01*
X64071428Y46570000D01*
X64119047Y46522380D01*
X64166666Y46427142D01*
X64166666Y46379523D01*
X64119047Y46284285D01*
X64071428Y46236666D01*
X63976190Y46189047D01*
X63785714Y46189047D01*
X63690476Y46141428D01*
X63642857Y46093809D01*
X63595238Y45998571D01*
X63595238Y45808095D01*
X63642857Y45712857D01*
X63690476Y45665238D01*
X63785714Y45617619D01*
X63976190Y45617619D01*
X64071428Y45665238D01*
X64119047Y45712857D01*
X64166666Y45808095D01*
X64166666Y45998571D01*
X64119047Y46093809D01*
X64071428Y46141428D01*
X63976190Y46189047D01*
X68067180Y36777942D02*
X67067180Y36777942D01*
X67067180Y37158895D01*
X67114800Y37254133D01*
X67162419Y37301752D01*
X67257657Y37349371D01*
X67400514Y37349371D01*
X67495752Y37301752D01*
X67543371Y37254133D01*
X67590990Y37158895D01*
X67590990Y36777942D01*
X67067180Y37682704D02*
X68067180Y37920800D01*
X67352895Y38111276D01*
X68067180Y38301752D01*
X67067180Y38539847D01*
X68067180Y39492228D02*
X67590990Y39158895D01*
X68067180Y38920800D02*
X67067180Y38920800D01*
X67067180Y39301752D01*
X67114800Y39396990D01*
X67162419Y39444609D01*
X67257657Y39492228D01*
X67400514Y39492228D01*
X67495752Y39444609D01*
X67543371Y39396990D01*
X67590990Y39301752D01*
X67590990Y38920800D01*
X68162419Y39682704D02*
X68162419Y40444609D01*
X68019561Y40635085D02*
X68067180Y40730323D01*
X68067180Y40920800D01*
X68019561Y41016038D01*
X67924323Y41063657D01*
X67876704Y41063657D01*
X67781466Y41016038D01*
X67733847Y40920800D01*
X67733847Y40777942D01*
X67686228Y40682704D01*
X67590990Y40635085D01*
X67543371Y40635085D01*
X67448133Y40682704D01*
X67400514Y40777942D01*
X67400514Y40920800D01*
X67448133Y41016038D01*
X67400514Y41396990D02*
X68067180Y41587466D01*
X67590990Y41777942D01*
X68067180Y41968419D01*
X67400514Y42158895D01*
%TO.C,J1*%
X57121466Y48147219D02*
X57121466Y47432933D01*
X57073847Y47290076D01*
X56978609Y47194838D01*
X56835752Y47147219D01*
X56740514Y47147219D01*
X58121466Y47147219D02*
X57550038Y47147219D01*
X57835752Y47147219D02*
X57835752Y48147219D01*
X57740514Y48004361D01*
X57645276Y47909123D01*
X57550038Y47861504D01*
X44348780Y54157619D02*
X44348780Y55157619D01*
X44682114Y54443333D01*
X45015447Y55157619D01*
X45015447Y54157619D01*
X45682114Y55157619D02*
X45872590Y55157619D01*
X45967828Y55110000D01*
X46063066Y55014761D01*
X46110685Y54824285D01*
X46110685Y54490952D01*
X46063066Y54300476D01*
X45967828Y54205238D01*
X45872590Y54157619D01*
X45682114Y54157619D01*
X45586876Y54205238D01*
X45491638Y54300476D01*
X45444019Y54490952D01*
X45444019Y54824285D01*
X45491638Y55014761D01*
X45586876Y55110000D01*
X45682114Y55157619D01*
X46396400Y55157619D02*
X46967828Y55157619D01*
X46682114Y54157619D02*
X46682114Y55157619D01*
X47491638Y55157619D02*
X47682114Y55157619D01*
X47777352Y55110000D01*
X47872590Y55014761D01*
X47920209Y54824285D01*
X47920209Y54490952D01*
X47872590Y54300476D01*
X47777352Y54205238D01*
X47682114Y54157619D01*
X47491638Y54157619D01*
X47396400Y54205238D01*
X47301161Y54300476D01*
X47253542Y54490952D01*
X47253542Y54824285D01*
X47301161Y55014761D01*
X47396400Y55110000D01*
X47491638Y55157619D01*
X48920209Y54157619D02*
X48586876Y54633809D01*
X48348780Y54157619D02*
X48348780Y55157619D01*
X48729733Y55157619D01*
X48824971Y55110000D01*
X48872590Y55062380D01*
X48920209Y54967142D01*
X48920209Y54824285D01*
X48872590Y54729047D01*
X48824971Y54681428D01*
X48729733Y54633809D01*
X48348780Y54633809D01*
X49110685Y54062380D02*
X49872590Y54062380D01*
X50586876Y54157619D02*
X50110685Y54157619D01*
X50110685Y55157619D01*
%TO.C,J5*%
X79676666Y33217619D02*
X79676666Y32503333D01*
X79629047Y32360476D01*
X79533809Y32265238D01*
X79390952Y32217619D01*
X79295714Y32217619D01*
X80629047Y33217619D02*
X80152857Y33217619D01*
X80105238Y32741428D01*
X80152857Y32789047D01*
X80248095Y32836666D01*
X80486190Y32836666D01*
X80581428Y32789047D01*
X80629047Y32741428D01*
X80676666Y32646190D01*
X80676666Y32408095D01*
X80629047Y32312857D01*
X80581428Y32265238D01*
X80486190Y32217619D01*
X80248095Y32217619D01*
X80152857Y32265238D01*
X80105238Y32312857D01*
X84373980Y36585828D02*
X84373980Y36014400D01*
X84373980Y36300114D02*
X83373980Y36300114D01*
X83516838Y36204876D01*
X83612076Y36109638D01*
X83659695Y36014400D01*
X83469219Y36966780D02*
X83421600Y37014400D01*
X83373980Y37109638D01*
X83373980Y37347733D01*
X83421600Y37442971D01*
X83469219Y37490590D01*
X83564457Y37538209D01*
X83659695Y37538209D01*
X83802552Y37490590D01*
X84373980Y36919161D01*
X84373980Y37538209D01*
X83373980Y37823923D02*
X84373980Y38157257D01*
X83373980Y38490590D01*
X84469219Y38585828D02*
X84469219Y39347733D01*
X83373980Y39776304D02*
X83373980Y39966780D01*
X83421600Y40062019D01*
X83516838Y40157257D01*
X83707314Y40204876D01*
X84040647Y40204876D01*
X84231123Y40157257D01*
X84326361Y40062019D01*
X84373980Y39966780D01*
X84373980Y39776304D01*
X84326361Y39681066D01*
X84231123Y39585828D01*
X84040647Y39538209D01*
X83707314Y39538209D01*
X83516838Y39585828D01*
X83421600Y39681066D01*
X83373980Y39776304D01*
X83373980Y40633447D02*
X84183504Y40633447D01*
X84278742Y40681066D01*
X84326361Y40728685D01*
X84373980Y40823923D01*
X84373980Y41014400D01*
X84326361Y41109638D01*
X84278742Y41157257D01*
X84183504Y41204876D01*
X83373980Y41204876D01*
X83373980Y41538209D02*
X83373980Y42109638D01*
X84373980Y41823923D02*
X83373980Y41823923D01*
%TO.C,J12*%
X76112619Y10939523D02*
X75398333Y10939523D01*
X75255476Y10987142D01*
X75160238Y11082380D01*
X75112619Y11225238D01*
X75112619Y11320476D01*
X75112619Y9939523D02*
X75112619Y10510952D01*
X75112619Y10225238D02*
X76112619Y10225238D01*
X75969761Y10320476D01*
X75874523Y10415714D01*
X75826904Y10510952D01*
X76017380Y9558571D02*
X76065000Y9510952D01*
X76112619Y9415714D01*
X76112619Y9177619D01*
X76065000Y9082380D01*
X76017380Y9034761D01*
X75922142Y8987142D01*
X75826904Y8987142D01*
X75684047Y9034761D01*
X75112619Y9606190D01*
X75112619Y8987142D01*
%TO.C,C11*%
X47135642Y16627857D02*
X47088023Y16580238D01*
X46945166Y16532619D01*
X46849928Y16532619D01*
X46707071Y16580238D01*
X46611833Y16675476D01*
X46564214Y16770714D01*
X46516595Y16961190D01*
X46516595Y17104047D01*
X46564214Y17294523D01*
X46611833Y17389761D01*
X46707071Y17485000D01*
X46849928Y17532619D01*
X46945166Y17532619D01*
X47088023Y17485000D01*
X47135642Y17437380D01*
X48088023Y16532619D02*
X47516595Y16532619D01*
X47802309Y16532619D02*
X47802309Y17532619D01*
X47707071Y17389761D01*
X47611833Y17294523D01*
X47516595Y17246904D01*
X49040404Y16532619D02*
X48468976Y16532619D01*
X48754690Y16532619D02*
X48754690Y17532619D01*
X48659452Y17389761D01*
X48564214Y17294523D01*
X48468976Y17246904D01*
%TO.C,C14*%
X50157142Y10216857D02*
X50109523Y10169238D01*
X49966666Y10121619D01*
X49871428Y10121619D01*
X49728571Y10169238D01*
X49633333Y10264476D01*
X49585714Y10359714D01*
X49538095Y10550190D01*
X49538095Y10693047D01*
X49585714Y10883523D01*
X49633333Y10978761D01*
X49728571Y11074000D01*
X49871428Y11121619D01*
X49966666Y11121619D01*
X50109523Y11074000D01*
X50157142Y11026380D01*
X51109523Y10121619D02*
X50538095Y10121619D01*
X50823809Y10121619D02*
X50823809Y11121619D01*
X50728571Y10978761D01*
X50633333Y10883523D01*
X50538095Y10835904D01*
X51966666Y10788285D02*
X51966666Y10121619D01*
X51728571Y11169238D02*
X51490476Y10454952D01*
X52109523Y10454952D01*
%TO.C,D3*%
X26327380Y3744404D02*
X25327380Y3744404D01*
X25327380Y3982500D01*
X25375000Y4125357D01*
X25470238Y4220595D01*
X25565476Y4268214D01*
X25755952Y4315833D01*
X25898809Y4315833D01*
X26089285Y4268214D01*
X26184523Y4220595D01*
X26279761Y4125357D01*
X26327380Y3982500D01*
X26327380Y3744404D01*
X25327380Y4649166D02*
X25327380Y5268214D01*
X25708333Y4934880D01*
X25708333Y5077738D01*
X25755952Y5172976D01*
X25803571Y5220595D01*
X25898809Y5268214D01*
X26136904Y5268214D01*
X26232142Y5220595D01*
X26279761Y5172976D01*
X26327380Y5077738D01*
X26327380Y4792023D01*
X26279761Y4696785D01*
X26232142Y4649166D01*
D11*
%TO.C,U3*%
X56916000Y31496000D02*
X56916000Y29546000D01*
X51796000Y31496000D02*
X51796000Y33446000D01*
X51796000Y31496000D02*
X51796000Y28046000D01*
X56916000Y31496000D02*
X56916000Y33446000D01*
%TO.C,J11*%
X46710000Y950000D02*
X49120000Y950000D01*
X57130000Y6370000D02*
X47010000Y6370000D01*
X47010000Y1250000D02*
X56130000Y1250000D01*
X46710000Y3360000D02*
X46710000Y950000D01*
X57130000Y2250000D02*
X57130000Y6370000D01*
X47010000Y6370000D02*
X47010000Y1250000D01*
X56130000Y1250000D02*
X57130000Y2250000D01*
%TO.C,J14*%
X956000Y24825000D02*
X6756000Y24825000D01*
X6756000Y24825000D02*
X6756000Y34865000D01*
X6756000Y34865000D02*
X956000Y34865000D01*
X956000Y34865000D02*
X956000Y24825000D01*
%TO.C,R9*%
X27827500Y8509724D02*
X27827500Y8000276D01*
X26782500Y8509724D02*
X26782500Y8000276D01*
%TO.C,R12*%
X8395276Y49642500D02*
X8904724Y49642500D01*
X8395276Y50687500D02*
X8904724Y50687500D01*
%TO.C,R4*%
X35748700Y44449276D02*
X35748700Y44958724D01*
X36793700Y44449276D02*
X36793700Y44958724D01*
%TO.C,C4*%
X15283949Y22348802D02*
X15490802Y22141949D01*
X16005198Y23070051D02*
X16212051Y22863198D01*
%TO.C,D6*%
X6990000Y54075000D02*
X6990000Y52605000D01*
X6990000Y52605000D02*
X9450000Y52605000D01*
X9450000Y54075000D02*
X6990000Y54075000D01*
%TO.C,REF\u002A\u002A*%
X64235664Y52500000D02*
G75*
G03*
X64235664Y52500000I-2735664J0D01*
G01*
X64235664Y3500000D02*
G75*
G03*
X64235664Y3500000I-2735664J0D01*
G01*
%TO.C,JP1*%
X60260000Y8620000D02*
X61660000Y8620000D01*
X62360000Y7920000D02*
X62360000Y7320000D01*
X59560000Y7320000D02*
X59560000Y7920000D01*
X61660000Y6620000D02*
X60260000Y6620000D01*
X59560000Y7320000D02*
G75*
G03*
X60260000Y6620000I699999J-1D01*
G01*
X61660000Y6620000D02*
G75*
G03*
X62360000Y7320000I0J700000D01*
G01*
X60260000Y8620000D02*
G75*
G03*
X59560000Y7920000I-1J-699999D01*
G01*
X62360000Y7920000D02*
G75*
G03*
X61660000Y8620000I-700000J0D01*
G01*
%TO.C,R13*%
X43433276Y5827500D02*
X43942724Y5827500D01*
X43433276Y6872500D02*
X43942724Y6872500D01*
%TO.C,D2*%
X74395000Y45475000D02*
X72925000Y45475000D01*
X74395000Y43015000D02*
X74395000Y45475000D01*
X72925000Y45475000D02*
X72925000Y43015000D01*
%TO.C,R14*%
X40146500Y9652724D02*
X40146500Y9143276D01*
X39101500Y9652724D02*
X39101500Y9143276D01*
%TO.C,R5*%
X57643500Y23368724D02*
X57643500Y22859276D01*
X58688500Y23368724D02*
X58688500Y22859276D01*
%TO.C,J9*%
X21280000Y12160000D02*
X22680000Y12160000D01*
X21280000Y11160000D02*
X21280000Y12160000D01*
X21280000Y16780000D02*
X21280000Y15780000D01*
X21280000Y15780000D02*
X22680000Y15780000D01*
X11220000Y10920000D02*
X14070000Y10920000D01*
X11220000Y13770000D02*
X11220000Y10920000D01*
X11460000Y16780000D02*
X21280000Y16780000D01*
X11460000Y11160000D02*
X21280000Y11160000D01*
X11460000Y13970000D02*
X11460000Y16780000D01*
X22680000Y15780000D02*
X22680000Y13970000D01*
X11460000Y13970000D02*
X11460000Y11160000D01*
X22680000Y12160000D02*
X22680000Y13970000D01*
%TO.C,R15*%
X60960000Y23876000D02*
X66040000Y23876000D01*
X66040000Y23876000D02*
X66040000Y32004000D01*
X66040000Y32004000D02*
X60960000Y32004000D01*
X60960000Y32004000D02*
X60960000Y23876000D01*
%TO.C,R6*%
X57643500Y18541276D02*
X57643500Y19050724D01*
X58688500Y18541276D02*
X58688500Y19050724D01*
%TO.C,Q2*%
X11902000Y45720000D02*
X11902000Y46370000D01*
X11902000Y45720000D02*
X11902000Y44045000D01*
X15022000Y45720000D02*
X15022000Y46370000D01*
X15022000Y45720000D02*
X15022000Y45070000D01*
%TO.C,C6*%
X18665802Y18966949D02*
X18458949Y19173802D01*
X19387051Y19688198D02*
X19180198Y19895051D01*
%TO.C,D1*%
X16167000Y54075000D02*
X16167000Y52605000D01*
X18627000Y54075000D02*
X16167000Y54075000D01*
X16167000Y52605000D02*
X18627000Y52605000D01*
%TO.C,J13*%
X1250000Y9525000D02*
X6370000Y9525000D01*
X6370000Y16145000D02*
X5370000Y17145000D01*
X5370000Y17145000D02*
X1250000Y17145000D01*
X4260000Y9225000D02*
X6670000Y9225000D01*
X6670000Y9225000D02*
X6670000Y11635000D01*
X6370000Y9525000D02*
X6370000Y16145000D01*
X1250000Y17145000D02*
X1250000Y9525000D01*
%TO.C,REF\u002A\u002A*%
X6235664Y3500000D02*
G75*
G03*
X6235664Y3500000I-2735664J0D01*
G01*
%TO.C,J4*%
X82680000Y49390000D02*
X82680000Y52210000D01*
X80980000Y48090000D02*
X72260000Y48090000D01*
X72260000Y48090000D02*
X72260000Y53510000D01*
X80980000Y53510000D02*
X72260000Y53510000D01*
X82680000Y49390000D02*
X80980000Y48090000D01*
X82680000Y52210000D02*
X80980000Y53510000D01*
%TO.C,J15*%
X29718000Y6370000D02*
X29718000Y1250000D01*
X36338000Y1250000D02*
X37338000Y2250000D01*
X37338000Y6370000D02*
X29718000Y6370000D01*
X29418000Y950000D02*
X31828000Y950000D01*
X37338000Y2250000D02*
X37338000Y6370000D01*
X29718000Y1250000D02*
X36338000Y1250000D01*
X29418000Y3360000D02*
X29418000Y950000D01*
%TO.C,R1*%
X23099500Y33146276D02*
X23099500Y33655724D01*
X24144500Y33146276D02*
X24144500Y33655724D01*
%TO.C,J10*%
X20020000Y47940000D02*
X22430000Y47940000D01*
X20020000Y50350000D02*
X20020000Y47940000D01*
X26940000Y48240000D02*
X27940000Y49240000D01*
X27940000Y49240000D02*
X27940000Y53360000D01*
X27940000Y53360000D02*
X20320000Y53360000D01*
X20320000Y48240000D02*
X26940000Y48240000D01*
X20320000Y53360000D02*
X20320000Y48240000D01*
%TO.C,J7*%
X11460000Y2270000D02*
X21280000Y2270000D01*
X22680000Y6890000D02*
X22680000Y5080000D01*
X11220000Y2030000D02*
X14070000Y2030000D01*
X11460000Y5080000D02*
X11460000Y2270000D01*
X11220000Y4880000D02*
X11220000Y2030000D01*
X21280000Y6890000D02*
X22680000Y6890000D01*
X21280000Y7890000D02*
X21280000Y6890000D01*
X11460000Y5080000D02*
X11460000Y7890000D01*
X22680000Y3270000D02*
X22680000Y5080000D01*
X21280000Y2270000D02*
X21280000Y3270000D01*
X21280000Y3270000D02*
X22680000Y3270000D01*
X11460000Y7890000D02*
X21280000Y7890000D01*
%TO.C,C15*%
X33381733Y10543000D02*
X33674267Y10543000D01*
X33381733Y9523000D02*
X33674267Y9523000D01*
%TO.C,D4*%
X11675000Y52605000D02*
X14135000Y52605000D01*
X14135000Y54075000D02*
X11675000Y54075000D01*
X11675000Y54075000D02*
X11675000Y52605000D01*
%TO.C,R7*%
X17525276Y50687500D02*
X18034724Y50687500D01*
X17525276Y49642500D02*
X18034724Y49642500D01*
%TO.C,C12*%
X47395000Y33320000D02*
X43485000Y33320000D01*
X43485000Y31450000D02*
X47395000Y31450000D01*
X47395000Y31450000D02*
X47395000Y33320000D01*
%TO.C,R11*%
X40400500Y22098724D02*
X40400500Y21589276D01*
X39355500Y22098724D02*
X39355500Y21589276D01*
%TO.C,Q1*%
X34376800Y44958000D02*
X34376800Y45608000D01*
X31256800Y44958000D02*
X31256800Y43283000D01*
X34376800Y44958000D02*
X34376800Y44308000D01*
X31256800Y44958000D02*
X31256800Y45608000D01*
%TO.C,D7*%
X38624000Y7026000D02*
X38624000Y3176000D01*
X40624000Y7026000D02*
X38624000Y7026000D01*
X40624000Y7026000D02*
X40624000Y3176000D01*
%TO.C,J6*%
X81820000Y31010000D02*
X80010000Y31010000D01*
X81820000Y29610000D02*
X81820000Y31010000D01*
X78200000Y31010000D02*
X80010000Y31010000D01*
X83060000Y19550000D02*
X83060000Y22400000D01*
X77200000Y19790000D02*
X77200000Y29610000D01*
X80210000Y19550000D02*
X83060000Y19550000D01*
X80010000Y19790000D02*
X77200000Y19790000D01*
X77200000Y29610000D02*
X78200000Y29610000D01*
X80010000Y19790000D02*
X82820000Y19790000D01*
X82820000Y29610000D02*
X81820000Y29610000D01*
X82820000Y19790000D02*
X82820000Y29610000D01*
X78200000Y29610000D02*
X78200000Y31010000D01*
%TO.C,C13*%
X56180000Y19228000D02*
X56180000Y23138000D01*
X56180000Y23138000D02*
X54310000Y23138000D01*
X54310000Y23138000D02*
X54310000Y19228000D01*
%TO.C,J3*%
X29210000Y48240000D02*
X35830000Y48240000D01*
X36830000Y53360000D02*
X29210000Y53360000D01*
X28910000Y50350000D02*
X28910000Y47940000D01*
X28910000Y47940000D02*
X31320000Y47940000D01*
X29210000Y53360000D02*
X29210000Y48240000D01*
X35830000Y48240000D02*
X36830000Y49240000D01*
X36830000Y49240000D02*
X36830000Y53360000D01*
%TO.C,LS1*%
X508000Y45085000D02*
X508000Y40005000D01*
X508000Y45085000D02*
X3048000Y45085000D01*
X508000Y40005000D02*
X3048000Y40005000D01*
X11358000Y42545000D02*
G75*
G03*
X11358000Y42545000I-4500000J0D01*
G01*
%TO.C,Y1*%
X25024584Y16793303D02*
X16539303Y25278584D01*
X25837757Y17606476D02*
X25024584Y16793303D01*
X27605524Y19374243D02*
X28418697Y20187416D01*
X19933416Y28672697D02*
X28418697Y20187416D01*
X17352476Y26091757D02*
X16539303Y25278584D01*
X19120243Y27859524D02*
X19933416Y28672697D01*
%TO.C,REF\u002A\u002A*%
X6235664Y52500000D02*
G75*
G03*
X6235664Y52500000I-2735664J0D01*
G01*
%TO.C,J2*%
X39150000Y39304000D02*
X41560000Y39304000D01*
X39450000Y44724000D02*
X39450000Y39604000D01*
X39450000Y39604000D02*
X56070000Y39604000D01*
X57070000Y44724000D02*
X39450000Y44724000D01*
X56070000Y39604000D02*
X57070000Y40604000D01*
X39150000Y41714000D02*
X39150000Y39304000D01*
X57070000Y40604000D02*
X57070000Y44724000D01*
%TO.C,R8*%
X73137500Y39750276D02*
X73137500Y40259724D01*
X74182500Y39750276D02*
X74182500Y40259724D01*
%TO.C,R10*%
X13033276Y49642500D02*
X13542724Y49642500D01*
X13033276Y50687500D02*
X13542724Y50687500D01*
%TO.C,JP2*%
X62360000Y10968000D02*
X62360000Y10368000D01*
X61660000Y9668000D02*
X60260000Y9668000D01*
X60260000Y11668000D02*
X61660000Y11668000D01*
X59560000Y10368000D02*
X59560000Y10968000D01*
X61660000Y9668000D02*
G75*
G03*
X62360000Y10368000I0J700000D01*
G01*
X59560000Y10368000D02*
G75*
G03*
X60260000Y9668000I699999J-1D01*
G01*
X62360000Y10968000D02*
G75*
G03*
X61660000Y11668000I-700000J0D01*
G01*
X60260000Y11668000D02*
G75*
G03*
X59560000Y10968000I-1J-699999D01*
G01*
%TO.C,R3*%
X35748700Y40690076D02*
X35748700Y41199524D01*
X36793700Y40690076D02*
X36793700Y41199524D01*
%TO.C,R2*%
X29718724Y21575500D02*
X29209276Y21575500D01*
X29718724Y22620500D02*
X29209276Y22620500D01*
%TO.C,D5*%
X39143000Y16501000D02*
X40613000Y16501000D01*
X39143000Y18961000D02*
X39143000Y16501000D01*
X40613000Y16501000D02*
X40613000Y18961000D01*
%TO.C,U1*%
X35487000Y33963000D02*
X35037000Y33963000D01*
X28267000Y33963000D02*
X28717000Y33963000D01*
X28717000Y26743000D02*
X28717000Y25453000D01*
X28267000Y26743000D02*
X28717000Y26743000D01*
X28267000Y33513000D02*
X28267000Y33963000D01*
X28267000Y27193000D02*
X28267000Y26743000D01*
X35487000Y33513000D02*
X35487000Y33963000D01*
X35487000Y26743000D02*
X35037000Y26743000D01*
X35487000Y27193000D02*
X35487000Y26743000D01*
%TO.C,U2*%
X42945000Y27310000D02*
X44205000Y27310000D01*
X49765000Y27310000D02*
X48505000Y27310000D01*
X42945000Y21300000D02*
X42945000Y27310000D01*
X49765000Y23550000D02*
X49765000Y27310000D01*
%TO.C,J8*%
X65310000Y33760000D02*
X63500000Y33760000D01*
X63500000Y44980000D02*
X60690000Y44980000D01*
X60450000Y45220000D02*
X60450000Y42370000D01*
X61690000Y35160000D02*
X61690000Y33760000D01*
X60690000Y35160000D02*
X61690000Y35160000D01*
X66310000Y44980000D02*
X66310000Y35160000D01*
X66310000Y35160000D02*
X65310000Y35160000D01*
X63500000Y44980000D02*
X66310000Y44980000D01*
X61690000Y33760000D02*
X63500000Y33760000D01*
X65310000Y35160000D02*
X65310000Y33760000D01*
X63300000Y45220000D02*
X60450000Y45220000D01*
X60690000Y44980000D02*
X60690000Y35160000D01*
%TO.C,J1*%
X39450000Y53360000D02*
X39450000Y48240000D01*
X57070000Y49240000D02*
X57070000Y53360000D01*
X57070000Y53360000D02*
X39450000Y53360000D01*
X39150000Y47940000D02*
X41560000Y47940000D01*
X39150000Y50350000D02*
X39150000Y47940000D01*
X56070000Y48240000D02*
X57070000Y49240000D01*
X39450000Y48240000D02*
X56070000Y48240000D01*
%TO.C,J5*%
X80010000Y33760000D02*
X77200000Y33760000D01*
X81820000Y43580000D02*
X81820000Y44980000D01*
X78200000Y44980000D02*
X80010000Y44980000D01*
X80010000Y33760000D02*
X82820000Y33760000D01*
X78200000Y43580000D02*
X78200000Y44980000D01*
X77200000Y33760000D02*
X77200000Y43580000D01*
X81820000Y44980000D02*
X80010000Y44980000D01*
X77200000Y43580000D02*
X78200000Y43580000D01*
X82820000Y33760000D02*
X82820000Y43580000D01*
X82820000Y43580000D02*
X81820000Y43580000D01*
X80210000Y33520000D02*
X83060000Y33520000D01*
X83060000Y33520000D02*
X83060000Y36370000D01*
%TO.C,J12*%
X82050000Y13910000D02*
X84830000Y13910000D01*
X78105000Y6350000D02*
X80150000Y6350000D01*
X78105000Y8660000D02*
X78105000Y6350000D01*
X84830000Y13910000D02*
X84830000Y6350000D01*
X78105000Y13970000D02*
X78105000Y11660000D01*
X80150000Y13970000D02*
X78105000Y13970000D01*
X82050000Y6350000D02*
X84830000Y6350000D01*
%TO.C,C11*%
X47924767Y17905000D02*
X47632233Y17905000D01*
X47924767Y18925000D02*
X47632233Y18925000D01*
%TO.C,C14*%
X50653733Y8634000D02*
X50946267Y8634000D01*
X50653733Y9654000D02*
X50946267Y9654000D01*
%TO.C,D3*%
X26570000Y5282500D02*
X26570000Y2822500D01*
X26570000Y2822500D02*
X28040000Y2822500D01*
X28040000Y2822500D02*
X28040000Y5282500D01*
%TD*%
M02*
